<?xml version="1.0" encoding="utf-8"?>
<!-- Generator: Adobe Illustrator 22.0.1, SVG Export Plug-In . SVG Version: 6.00 Build 0)  -->
<svg version="1.1" id="Layer_1" xmlns="http://www.w3.org/2000/svg" xmlns:xlink="http://www.w3.org/1999/xlink" x="0px" y="0px"
	 viewBox="0 0 112 12" style="enable-background:new 0 0 112 12;" xml:space="preserve">
<style type="text/css">
	.st0{fill:#A0A0A0;}
	.st1{fill:#3698D4;}
	.st2{fill:#22A8EE;}
	.st3{fill:url(#SVGID_1_);}
</style>
<g>
	<path class="st0" d="M1,6.7v2.7H0.4V2.8h2.3c0.7,0,1.2,0.2,1.6,0.5c0.4,0.4,0.6,0.8,0.6,1.5c0,0.6-0.2,1.1-0.6,1.4S3.4,6.7,2.7,6.7
		H1z M1,6.3h1.7c0.5,0,1-0.1,1.2-0.4s0.4-0.6,0.4-1.1c0-0.5-0.1-0.8-0.4-1.1C3.6,3.4,3.2,3.3,2.7,3.3H1V6.3z"/>
	<path class="st0" d="M5.9,6.9C5.9,6.4,6,6,6.2,5.6C6.4,5.2,6.6,4.9,7,4.7c0.3-0.2,0.7-0.3,1.1-0.3c0.7,0,1.2,0.2,1.6,0.7
		c0.4,0.5,0.6,1.1,0.6,1.8V7c0,0.5-0.1,0.9-0.3,1.3C9.8,8.7,9.6,9,9.2,9.2C8.9,9.4,8.5,9.5,8.1,9.5c-0.7,0-1.2-0.2-1.6-0.7
		S5.9,7.8,5.9,7V6.9z M6.4,7c0,0.6,0.2,1.1,0.5,1.5c0.3,0.4,0.7,0.6,1.2,0.6c0.5,0,0.9-0.2,1.2-0.6C9.6,8.1,9.8,7.6,9.8,7V6.9
		c0-0.4-0.1-0.7-0.2-1C9.4,5.6,9.2,5.3,9,5.1C8.7,5,8.4,4.9,8.1,4.9c-0.5,0-0.9,0.2-1.2,0.6C6.6,5.8,6.4,6.3,6.4,6.9V7z"/>
	<path class="st0" d="M12.8,8.3l0.1,0.4L13,8.3l1.2-3.8h0.5l1.2,3.7L16,8.8l0.1-0.5l1-3.8h0.6l-1.4,4.9h-0.5l-1.3-3.9l-0.1-0.3
		l-0.1,0.3l-1.2,3.9h-0.5l-1.4-4.9h0.6L12.8,8.3z"/>
	<path class="st0" d="M20.8,9.5c-0.4,0-0.8-0.1-1.1-0.3c-0.3-0.2-0.6-0.5-0.8-0.9c-0.2-0.4-0.3-0.8-0.3-1.2V6.9
		c0-0.5,0.1-0.9,0.3-1.3c0.2-0.4,0.4-0.7,0.8-0.9c0.3-0.2,0.7-0.3,1.1-0.3c0.6,0,1.1,0.2,1.4,0.6c0.4,0.4,0.5,1,0.5,1.7V7h-3.5v0.1
		c0,0.6,0.2,1,0.5,1.4s0.7,0.6,1.2,0.6c0.3,0,0.5-0.1,0.8-0.2c0.2-0.1,0.4-0.3,0.6-0.5l0.3,0.3C22.2,9.2,21.6,9.5,20.8,9.5z
		 M20.7,4.9c-0.4,0-0.8,0.2-1,0.5c-0.3,0.3-0.5,0.7-0.5,1.2h3V6.5c0-0.5-0.1-0.9-0.4-1.2C21.5,5,21.1,4.9,20.7,4.9z"/>
	<path class="st0" d="M26.3,5c-0.1,0-0.2,0-0.4,0c-0.3,0-0.6,0.1-0.9,0.3s-0.4,0.5-0.5,0.8v3.4H24V4.5h0.5l0,0.8
		c0.3-0.6,0.8-0.9,1.4-0.9c0.2,0,0.3,0,0.4,0.1L26.3,5z"/>
	<path class="st0" d="M29.2,9.5c-0.4,0-0.8-0.1-1.1-0.3c-0.3-0.2-0.6-0.5-0.8-0.9C27.1,8,27,7.6,27,7.1V6.9c0-0.5,0.1-0.9,0.3-1.3
		C27.4,5.3,27.7,5,28,4.7c0.3-0.2,0.7-0.3,1.1-0.3c0.6,0,1.1,0.2,1.4,0.6C30.8,5.4,31,6,31,6.7V7h-3.5v0.1c0,0.6,0.2,1,0.5,1.4
		s0.7,0.6,1.2,0.6c0.3,0,0.5-0.1,0.8-0.2c0.2-0.1,0.4-0.3,0.6-0.5l0.3,0.3C30.5,9.2,29.9,9.5,29.2,9.5z M29.1,4.9
		c-0.4,0-0.8,0.2-1,0.5c-0.3,0.3-0.5,0.7-0.5,1.2h3V6.5c0-0.5-0.1-0.9-0.4-1.2C29.8,5,29.5,4.9,29.1,4.9z"/>
	<path class="st0" d="M32.1,6.9c0-0.8,0.2-1.4,0.5-1.8c0.3-0.5,0.8-0.7,1.4-0.7c0.7,0,1.2,0.3,1.5,0.8V2.4h0.5v7h-0.5l0-0.7
		c-0.3,0.5-0.9,0.7-1.5,0.7c-0.6,0-1-0.2-1.4-0.7S32.1,7.8,32.1,6.9L32.1,6.9z M32.6,7c0,0.6,0.1,1.1,0.4,1.5
		c0.3,0.4,0.6,0.5,1.1,0.5c0.7,0,1.1-0.3,1.4-0.9V5.9c-0.3-0.6-0.8-1-1.4-1c-0.5,0-0.8,0.2-1.1,0.5C32.8,5.8,32.6,6.3,32.6,7z"/>
	<path class="st0" d="M44.2,7c0,0.8-0.2,1.4-0.5,1.8c-0.3,0.5-0.8,0.7-1.4,0.7c-0.7,0-1.2-0.3-1.6-0.8l0,0.7h-0.5v-7h0.5v2.8
		c0.3-0.5,0.9-0.8,1.5-0.8c0.6,0,1,0.2,1.4,0.7C44,5.5,44.2,6.1,44.2,7L44.2,7z M43.7,6.9c0-0.6-0.1-1.2-0.4-1.5
		c-0.3-0.4-0.6-0.5-1.1-0.5c-0.3,0-0.6,0.1-0.9,0.3c-0.2,0.2-0.4,0.4-0.6,0.8v2.2c0.3,0.6,0.8,0.9,1.4,0.9c0.4,0,0.8-0.2,1.1-0.5
		C43.5,8.2,43.7,7.6,43.7,6.9z"/>
	<path class="st0" d="M47.1,8.7l1.4-4.1h0.6l-2.1,5.8L47,10.5c-0.3,0.6-0.7,0.9-1.3,0.9c-0.1,0-0.3,0-0.4-0.1l0-0.5l0.3,0
		c0.3,0,0.5-0.1,0.6-0.2c0.2-0.1,0.3-0.4,0.4-0.7l0.2-0.7L45,4.5h0.6L47.1,8.7z"/>
</g>
<g>
	<path class="st1" d="M62.4,9.3c-0.2,0.3-0.5,0.5-0.8,0.7c0-0.2-0.1-0.4-0.1-0.6c0-1.4,0.9-2.6,2.1-3c0,0.4-0.1,0.7-0.2,1.1
		C62.8,7.8,62.4,8.5,62.4,9.3z M63.6,5.2c-0.1-0.4-0.2-0.8-0.3-1.1c-2.3,0.6-4,2.8-4,5.3c0,0,0,0.1,0,0.1c0,0.4,0.1,0.9,0.2,1.3
		c0.4-0.1,0.7-0.2,1.1-0.3c-0.1-0.4-0.1-0.7-0.1-1.1C60.5,7.4,61.8,5.7,63.6,5.2z M60.8,1.4c-0.3-0.1-0.6-0.3-1-0.3
		c-0.3,0.2-0.6,0.3-1,0.3c-0.4,0-0.7-0.1-1-0.3c-0.3,0.1-0.6,0.2-0.9,0.3c0.5,0.5,1.2,0.8,2,0.8C59.6,2.2,60.3,1.9,60.8,1.4z
		 M56.7,4c0.1,0,0.2,0.1,0.3,0.1c0.2,0.1,0.4,0.1,0.6,0.2c0.1,0,0.3,0.1,0.4,0.1c0.1,0,0.1,0,0.2,0c0.1,0,0.2,0,0.3,0
		c0.3,0,0.6,0,0.9,0c0.1,0,0.2,0,0.3,0c0.1,0,0.1,0,0.2,0c0.1,0,0.3-0.1,0.4-0.1c0.2-0.1,0.4-0.1,0.6-0.2C60.9,4.1,61,4,61.1,4
		c0.6-0.3,1.1-0.7,1.5-1.2c-0.2-0.3-0.5-0.6-0.8-0.8c-0.8,0.8-1.8,1.3-2.9,1.3c-1.1,0-2.2-0.5-2.9-1.3c-0.3,0.2-0.6,0.5-0.8,0.8
		C55.6,3.3,56.1,3.7,56.7,4z M58.4,9.4c0,0,0-0.1,0-0.1c0-0.1,0-0.2,0-0.3v0c0,0,0-0.1,0-0.1c0-0.1,0-0.2,0-0.3c0-0.1,0-0.2,0-0.3
		c0-0.1,0-0.2,0-0.2c0-0.1,0-0.2-0.1-0.2c0-0.1-0.1-0.2-0.1-0.4C58,7.3,57.9,7,57.8,6.7c-0.7-1.3-1.9-2.3-3.3-2.7
		c-0.1,0.4-0.2,0.7-0.3,1.1c1.8,0.5,3.1,2.2,3.1,4.2c0,0.4,0,0.8-0.1,1.1c0.3,0.1,0.7,0.2,1.1,0.3c0.1-0.4,0.2-0.8,0.2-1.3
		C58.4,9.5,58.4,9.4,58.4,9.4z M54.1,6.4c0,0.4,0.1,0.7,0.2,1.1c0.6,0.4,1,1,1,1.8c0.2,0.3,0.5,0.5,0.8,0.7c0-0.2,0.1-0.4,0.1-0.6
		C56.2,8,55.3,6.8,54.1,6.4z"/>
</g>
<g>
	<g>
		<path class="st2" d="M68.3,3.4c0.3,0,0.7,0,1.3,0.1l0.3,0l0,0.7c-0.6-0.1-1.1-0.1-1.4-0.1c-0.3,0-0.6,0-0.8,0.1
			c-0.2,0.1-0.4,0.2-0.5,0.4C67,4.8,66.9,5,66.9,5.3c-0.1,0.3-0.1,0.6-0.1,1.1c0,0.4,0,0.8,0.1,1.1c0,0.3,0.1,0.5,0.3,0.7
			c0.1,0.2,0.3,0.3,0.5,0.4c0.2,0.1,0.5,0.1,0.9,0.1l1.4-0.1l0,0.7c-0.4,0.1-0.7,0.1-0.9,0.1c-0.3,0-0.5,0-0.7,0
			c-0.4,0-0.8-0.1-1.1-0.2c-0.3-0.1-0.6-0.3-0.7-0.5c-0.2-0.2-0.3-0.6-0.4-0.9c-0.1-0.4-0.1-0.9-0.1-1.4c0-0.6,0-1,0.1-1.4
			c0.1-0.4,0.2-0.7,0.4-0.9c0.2-0.2,0.4-0.4,0.8-0.5C67.5,3.4,67.9,3.4,68.3,3.4z"/>
		<path class="st2" d="M72.1,9.3V1h0.9v8.4H72.1z"/>
		<path class="st2" d="M75.3,2.2v-1h0.9v1H75.3z M75.3,9.3V3.5h0.9v5.8H75.3z"/>
		<path class="st2" d="M79.2,4.6v4.7h-0.9V3.5h0.9v0.4c0.6-0.3,1.1-0.5,1.7-0.5c0.7,0,1.2,0.2,1.5,0.6c0.1-0.1,0.3-0.2,0.5-0.2
			c0.2-0.1,0.4-0.1,0.5-0.2c0.2-0.1,0.4-0.1,0.6-0.1c0.2,0,0.4,0,0.5,0c0.4,0,0.7,0,1,0.1c0.3,0.1,0.5,0.3,0.6,0.5
			c0.2,0.2,0.3,0.5,0.3,0.9c0.1,0.4,0.1,0.8,0.1,1.4v3.1h-0.9V6.3c0-0.4,0-0.7,0-1c0-0.3-0.1-0.5-0.2-0.7c-0.1-0.2-0.2-0.3-0.4-0.3
			c-0.2-0.1-0.4-0.1-0.6-0.1s-0.5,0-0.8,0.1c-0.3,0.1-0.5,0.1-0.6,0.2l-0.2,0.1c0.1,0.2,0.2,0.8,0.2,1.7v3H82v-3c0-0.4,0-0.8,0-1
			c0-0.3-0.1-0.5-0.2-0.7c-0.1-0.2-0.2-0.3-0.4-0.3c-0.2-0.1-0.4-0.1-0.6-0.1c-0.2,0-0.5,0-0.8,0.1c-0.3,0.1-0.5,0.1-0.6,0.2
			L79.2,4.6z"/>
		<path class="st2" d="M92.8,5.3v3c0,0.3,0.2,0.5,0.7,0.5l0,0.7c-0.6,0-1.1-0.2-1.4-0.5c-0.7,0.3-1.4,0.5-2.1,0.5
			c-0.5,0-0.9-0.2-1.2-0.5c-0.3-0.3-0.4-0.7-0.4-1.3c0-0.6,0.1-1,0.4-1.3C89,6.2,89.5,6,90.1,5.9l1.8-0.2V5.3c0-0.4-0.1-0.7-0.3-0.9
			c-0.2-0.2-0.4-0.3-0.7-0.3c-0.3,0-0.6,0-0.9,0c-0.3,0-0.6,0-1,0.1l-0.4,0l0-0.7c0.8-0.2,1.6-0.3,2.3-0.3c0.7,0,1.1,0.1,1.4,0.4
			C92.6,4.1,92.8,4.6,92.8,5.3z M89.2,7.6c0,0.7,0.3,1.1,0.9,1.1c0.5,0,1-0.1,1.6-0.3l0.3-0.1V6.4l-1.7,0.2c-0.3,0-0.6,0.1-0.8,0.3
			C89.3,7.1,89.2,7.3,89.2,7.6z"/>
		<path class="st2" d="M97.4,3.4c0.3,0,0.7,0,1.3,0.1l0.3,0l0,0.7c-0.6-0.1-1.1-0.1-1.4-0.1c-0.3,0-0.6,0-0.8,0.1
			c-0.2,0.1-0.4,0.2-0.5,0.4C96.1,4.8,96,5,95.9,5.3c-0.1,0.3-0.1,0.6-0.1,1.1c0,0.4,0,0.8,0.1,1.1c0,0.3,0.1,0.5,0.3,0.7
			c0.1,0.2,0.3,0.3,0.5,0.4c0.2,0.1,0.5,0.1,0.9,0.1l1.4-0.1l0,0.7c-0.4,0.1-0.7,0.1-0.9,0.1c-0.3,0-0.5,0-0.7,0
			c-0.4,0-0.8-0.1-1.1-0.2c-0.3-0.1-0.6-0.3-0.7-0.5c-0.2-0.2-0.3-0.6-0.4-0.9c-0.1-0.4-0.1-0.9-0.1-1.4c0-0.6,0-1,0.1-1.4
			c0.1-0.4,0.2-0.7,0.4-0.9c0.2-0.2,0.4-0.4,0.8-0.5C96.5,3.4,96.9,3.4,97.4,3.4z"/>
		<path class="st2" d="M104.8,8.6l0.3,0l0,0.7c-0.4,0.1-0.9,0.1-1.2,0.1c-0.4,0-0.7,0-1,0c-0.8,0-1.4-0.2-1.8-0.7
			c-0.3-0.5-0.5-1.2-0.5-2.3c0-2,0.8-3.1,2.4-3.1c0.8,0,1.4,0.2,1.8,0.7c0.4,0.4,0.6,1.1,0.6,2.1l0,0.7h-3.8c0,0.7,0.1,1.1,0.3,1.4
			c0.2,0.3,0.6,0.5,1.2,0.5C103.7,8.7,104.3,8.6,104.8,8.6z M101.5,6.1h3c0-0.7-0.1-1.2-0.3-1.5c-0.2-0.3-0.6-0.4-1.1-0.4
			c-0.5,0-0.9,0.2-1.2,0.5C101.7,4.9,101.5,5.4,101.5,6.1z"/>
		<path class="st2" d="M107.6,9.3V1h0.9v8.4H107.6z"/>
		<path class="st2" d="M110.9,9.3V1h0.9v8.4H110.9z"/>
	</g>
</g>
<g>
	<linearGradient id="SVGID_1_" gradientUnits="userSpaceOnUse" x1="54.1167" y1="5.9376" x2="63.6532" y2="5.9376">
		<stop  offset="0" style="stop-color:#447DBF"/>
		<stop  offset="1" style="stop-color:#37C2E1"/>
	</linearGradient>
	<path class="st3" d="M62.4,9.3c-0.2,0.3-0.5,0.5-0.8,0.7c0-0.2-0.1-0.4-0.1-0.6c0-1.4,0.9-2.6,2.1-3c0,0.4-0.1,0.7-0.2,1.1
		C62.8,7.8,62.4,8.5,62.4,9.3z M63.6,5.2c-0.1-0.4-0.2-0.8-0.3-1.1c-2.3,0.6-4,2.8-4,5.3c0,0,0,0.1,0,0.1c0,0.4,0.1,0.9,0.2,1.3
		c0.4-0.1,0.7-0.2,1.1-0.3c-0.1-0.4-0.1-0.7-0.1-1.1C60.5,7.4,61.8,5.7,63.6,5.2z M60.8,1.4c-0.3-0.1-0.6-0.3-1-0.3
		c-0.3,0.2-0.6,0.3-1,0.3c-0.4,0-0.7-0.1-1-0.3c-0.3,0.1-0.6,0.2-0.9,0.3c0.5,0.5,1.2,0.8,2,0.8C59.6,2.2,60.3,1.9,60.8,1.4z
		 M56.7,4c0.1,0,0.2,0.1,0.3,0.1c0.2,0.1,0.4,0.1,0.6,0.2c0.1,0,0.3,0.1,0.4,0.1c0.1,0,0.1,0,0.2,0c0.1,0,0.2,0,0.3,0
		c0.3,0,0.6,0,0.9,0c0.1,0,0.2,0,0.3,0c0.1,0,0.1,0,0.2,0c0.1,0,0.3-0.1,0.4-0.1c0.2-0.1,0.4-0.1,0.6-0.2C60.9,4.1,61,4,61.1,4
		c0.6-0.3,1.1-0.7,1.5-1.2c-0.2-0.3-0.5-0.6-0.8-0.8c-0.8,0.8-1.8,1.3-2.9,1.3c-1.1,0-2.2-0.5-2.9-1.3c-0.3,0.2-0.6,0.5-0.8,0.8
		C55.6,3.3,56.1,3.7,56.7,4z M58.4,9.4c0,0,0-0.1,0-0.1c0-0.1,0-0.2,0-0.3v0c0,0,0-0.1,0-0.1c0-0.1,0-0.2,0-0.3c0-0.1,0-0.2,0-0.3
		c0-0.1,0-0.2,0-0.2c0-0.1,0-0.2-0.1-0.2c0-0.1-0.1-0.2-0.1-0.4C58,7.3,57.9,7,57.8,6.7c-0.7-1.3-1.9-2.3-3.3-2.7
		c-0.1,0.4-0.2,0.7-0.3,1.1c1.8,0.5,3.1,2.2,3.1,4.2c0,0.4,0,0.8-0.1,1.1c0.3,0.1,0.7,0.2,1.1,0.3c0.1-0.4,0.2-0.8,0.2-1.3
		C58.4,9.5,58.4,9.4,58.4,9.4z M54.1,6.4c0,0.4,0.1,0.7,0.2,1.1c0.6,0.4,1,1,1,1.8c0.2,0.3,0.5,0.5,0.8,0.7c0-0.2,0.1-0.4,0.1-0.6
		C56.2,8,55.3,6.8,54.1,6.4z"/>
</g>
<g>
	<g>
		<path class="st2" d="M68.3,3.4c0.3,0,0.7,0,1.3,0.1l0.3,0l0,0.7c-0.6-0.1-1.1-0.1-1.4-0.1c-0.3,0-0.6,0-0.8,0.1
			c-0.2,0.1-0.4,0.2-0.5,0.4C67,4.8,66.9,5,66.9,5.3c-0.1,0.3-0.1,0.6-0.1,1.1c0,0.4,0,0.8,0.1,1.1c0,0.3,0.1,0.5,0.3,0.7
			c0.1,0.2,0.3,0.3,0.5,0.4c0.2,0.1,0.5,0.1,0.9,0.1l1.4-0.1l0,0.7c-0.4,0.1-0.7,0.1-0.9,0.1c-0.3,0-0.5,0-0.7,0
			c-0.4,0-0.8-0.1-1.1-0.2c-0.3-0.1-0.6-0.3-0.7-0.5c-0.2-0.2-0.3-0.6-0.4-0.9c-0.1-0.4-0.1-0.9-0.1-1.4c0-0.6,0-1,0.1-1.4
			c0.1-0.4,0.2-0.7,0.4-0.9c0.2-0.2,0.4-0.4,0.8-0.5C67.5,3.4,67.9,3.4,68.3,3.4z"/>
		<path class="st2" d="M72.1,9.3V1h0.9v8.4H72.1z"/>
		<path class="st2" d="M75.3,2.2v-1h0.9v1H75.3z M75.3,9.3V3.5h0.9v5.8H75.3z"/>
		<path class="st2" d="M79.2,4.6v4.7h-0.9V3.5h0.9v0.4c0.6-0.3,1.1-0.5,1.7-0.5c0.7,0,1.2,0.2,1.5,0.6c0.1-0.1,0.3-0.2,0.5-0.2
			c0.2-0.1,0.4-0.1,0.5-0.2c0.2-0.1,0.4-0.1,0.6-0.1c0.2,0,0.4,0,0.5,0c0.4,0,0.7,0,1,0.1c0.3,0.1,0.5,0.3,0.6,0.5
			c0.2,0.2,0.3,0.5,0.3,0.9c0.1,0.4,0.1,0.8,0.1,1.4v3.1h-0.9V6.3c0-0.4,0-0.7,0-1c0-0.3-0.1-0.5-0.2-0.7c-0.1-0.2-0.2-0.3-0.4-0.3
			c-0.2-0.1-0.4-0.1-0.6-0.1s-0.5,0-0.8,0.1c-0.3,0.1-0.5,0.1-0.6,0.2l-0.2,0.1c0.1,0.2,0.2,0.8,0.2,1.7v3H82v-3c0-0.4,0-0.8,0-1
			c0-0.3-0.1-0.5-0.2-0.7c-0.1-0.2-0.2-0.3-0.4-0.3c-0.2-0.1-0.4-0.1-0.6-0.1c-0.2,0-0.5,0-0.8,0.1c-0.3,0.1-0.5,0.1-0.6,0.2
			L79.2,4.6z"/>
		<path class="st2" d="M92.8,5.3v3c0,0.3,0.2,0.5,0.7,0.5l0,0.7c-0.6,0-1.1-0.2-1.4-0.5c-0.7,0.3-1.4,0.5-2.1,0.5
			c-0.5,0-0.9-0.2-1.2-0.5c-0.3-0.3-0.4-0.7-0.4-1.3c0-0.6,0.1-1,0.4-1.3C89,6.2,89.5,6,90.1,5.9l1.8-0.2V5.3c0-0.4-0.1-0.7-0.3-0.9
			c-0.2-0.2-0.4-0.3-0.7-0.3c-0.3,0-0.6,0-0.9,0c-0.3,0-0.6,0-1,0.1l-0.4,0l0-0.7c0.8-0.2,1.6-0.3,2.3-0.3c0.7,0,1.1,0.1,1.4,0.4
			C92.6,4.1,92.8,4.6,92.8,5.3z M89.2,7.6c0,0.7,0.3,1.1,0.9,1.1c0.5,0,1-0.1,1.6-0.3l0.3-0.1V6.4l-1.7,0.2c-0.3,0-0.6,0.1-0.8,0.3
			C89.3,7.1,89.2,7.3,89.2,7.6z"/>
		<path class="st2" d="M97.4,3.4c0.3,0,0.7,0,1.3,0.1l0.3,0l0,0.7c-0.6-0.1-1.1-0.1-1.4-0.1c-0.3,0-0.6,0-0.8,0.1
			c-0.2,0.1-0.4,0.2-0.5,0.4C96.1,4.8,96,5,95.9,5.3c-0.1,0.3-0.1,0.6-0.1,1.1c0,0.4,0,0.8,0.1,1.1c0,0.3,0.1,0.5,0.3,0.7
			c0.1,0.2,0.3,0.3,0.5,0.4c0.2,0.1,0.5,0.1,0.9,0.1l1.4-0.1l0,0.7c-0.4,0.1-0.7,0.1-0.9,0.1c-0.3,0-0.5,0-0.7,0
			c-0.4,0-0.8-0.1-1.1-0.2c-0.3-0.1-0.6-0.3-0.7-0.5c-0.2-0.2-0.3-0.6-0.4-0.9c-0.1-0.4-0.1-0.9-0.1-1.4c0-0.6,0-1,0.1-1.4
			c0.1-0.4,0.2-0.7,0.4-0.9c0.2-0.2,0.4-0.4,0.8-0.5C96.5,3.4,96.9,3.4,97.4,3.4z"/>
		<path class="st2" d="M104.8,8.6l0.3,0l0,0.7c-0.4,0.1-0.9,0.1-1.2,0.1c-0.4,0-0.7,0-1,0c-0.8,0-1.4-0.2-1.8-0.7
			c-0.3-0.5-0.5-1.2-0.5-2.3c0-2,0.8-3.1,2.4-3.1c0.8,0,1.4,0.2,1.8,0.7c0.4,0.4,0.6,1.1,0.6,2.1l0,0.7h-3.8c0,0.7,0.1,1.1,0.3,1.4
			c0.2,0.3,0.6,0.5,1.2,0.5C103.7,8.7,104.3,8.6,104.8,8.6z M101.5,6.1h3c0-0.7-0.1-1.2-0.3-1.5c-0.2-0.3-0.6-0.4-1.1-0.4
			c-0.5,0-0.9,0.2-1.2,0.5C101.7,4.9,101.5,5.4,101.5,6.1z"/>
		<path class="st2" d="M107.6,9.3V1h0.9v8.4H107.6z"/>
		<path class="st2" d="M110.9,9.3V1h0.9v8.4H110.9z"/>
	</g>
</g>
</svg>
