<?xml version="1.0" encoding="UTF-8"?>
<svg width="218px" height="178px" viewBox="0 0 218 178" version="1.1" xmlns="http://www.w3.org/2000/svg" xmlns:xlink="http://www.w3.org/1999/xlink">
    <title>Artboard</title>
    <defs>
        <linearGradient x1="50%" y1="100%" x2="50%" y2="0%" id="linearGradient-1">
            <stop stop-color="#FFFFFF" stop-opacity="0" offset="25%"></stop>
            <stop stop-color="#FFFFFF" offset="100%"></stop>
        </linearGradient>
        <linearGradient x1="50%" y1="100%" x2="50%" y2="0%" id="linearGradient-2">
            <stop stop-color="#1D1D33" stop-opacity="0" offset="25%"></stop>
            <stop stop-color="#1D1D33" offset="70%"></stop>
        </linearGradient>
        <linearGradient x1="50%" y1="99.9992857%" x2="50%" y2="0%" id="linearGradient-3">
            <stop stop-color="#FFFFFF" stop-opacity="0" offset="25%"></stop>
            <stop stop-color="#FFFFFF" offset="100%"></stop>
        </linearGradient>
        <linearGradient x1="50%" y1="99.9992857%" x2="50%" y2="0%" id="linearGradient-4">
            <stop stop-color="#1D1D33" stop-opacity="0" offset="25%"></stop>
            <stop stop-color="#1D1D33" offset="70%"></stop>
        </linearGradient>
        <linearGradient x1="-0.0807083292%" y1="50.0508025%" x2="99.9196557%" y2="50.0508025%" id="linearGradient-5">
            <stop stop-color="#0087FF" offset="0%"></stop>
            <stop stop-color="#00CDE9" offset="100%"></stop>
        </linearGradient>
    </defs>
    <g id="Artboard" stroke="none" stroke-width="1" fill="none" fill-rule="evenodd">
        <g id="clear_day" transform="translate(12.000000, 9.000000)">
            <rect id="Rectangle" x="0" y="0" width="24" height="24"></rect>
            <circle id="Oval" fill="#FFD02F" cx="12" cy="12" r="10"></circle>
        </g>
        <g id="clear_night" transform="translate(46.000000, 9.000000)">
            <rect id="Rectangle" x="0" y="0" width="24" height="24"></rect>
            <path d="M9,6 C9,11.5228 13.4772,16.0001 19,16.0001 C19.7835,16.0001 20.5459,15.9099 21.2775,15.7394 C19.7967,19.4097 16.2008,22.0001 12,22.0001 C6.4772,22.0001 2,17.5228 2,12 C2,7.2607 5.297,3.2913 9.7225,2.2606 C9.2566,3.4158 9,4.6779 9,6 Z" id="Path" fill="#D5DEE8"></path>
        </g>
        <g id="cloudy" transform="translate(80.000000, 9.000000)">
            <rect id="Rectangle" x="0" y="0" width="24" height="24"></rect>
            <path d="M20.8403,6.4685 C20.274,4.0722 18.213,2.2941 15.75,2.2941 C12.8505,2.2941 10.5,4.7557 10.5,7.7942 C10.5,7.9906 10.5113,8.1838 10.53,8.3741 C9.6345,8.7512 9,9.6665 9,10.7405 C9,12.1502 10.0913,13.294 11.4375,13.294 L20.7375,13.294 C22.5398,13.294 24,11.7635 24,9.8761 C24,8.0252 22.5937,6.5268 20.8403,6.4685" id="Path" fill="#E5E5E5"></path>
            <g id="Group" transform="translate(0.000000, 5.000000)" fill-rule="nonzero">
                <path d="M3.6992,15.6765 C1.9355,15.6765 0.5,14.2467 0.5,12.4894 C0.5,11.1847 1.2881,10.0255 2.5088,9.5363 L2.8584,9.3962 L2.8193,9.0212 C2.7929,8.7634 2.7763,8.5012 2.7763,8.2356 C2.7763,4.1326 6.1259,0.7942 10.2441,0.7942 C13.6816,0.7942 16.6582,3.1165 17.4843,6.4421 L17.5761,6.8093 L17.954,6.821 C20.371,6.8977 22.2645,8.8396 22.2645,11.2419 C22.2645,13.6872 20.2674,15.6765 17.8133,15.6765 L3.6992,15.6765 L3.6992,15.6765 Z" id="Path" fill="#FFFFFF"></path>
                <path d="M10.2441,1.2941 C13.4507,1.2941 16.2283,3.4605 16.9988,6.5625 L17.1812,7.2971 L17.9377,7.321 C20.0836,7.3887 21.7647,9.1109 21.7647,11.2417 C21.7647,13.4114 19.9921,15.1765 17.8133,15.1765 L3.6993,15.1765 C2.2109,15.1765 1,13.9711 1,12.4894 C1,11.3899 1.6649,10.413 2.694,10.0006 L3.3945,9.72 L3.3167,8.9694 C3.2897,8.7084 3.2765,8.4683 3.2765,8.2353 C3.2765,4.4079 6.4021,1.2941 10.2441,1.2941 M10.2441,0.2941 C5.8437,0.2941 2.2764,3.8484 2.2764,8.2353 C2.2764,8.5189 2.2935,8.798 2.3219,9.0725 C0.963,9.6171 0,10.9387 0,12.4894 C0,14.5247 1.6561,16.1764 3.6993,16.1764 L17.8134,16.1764 C20.5486,16.1764 22.7648,13.9665 22.7648,11.2416 C22.7648,8.5687 20.6306,6.4055 17.9694,6.3214 C17.1099,2.8614 13.9821,0.2941 10.2441,0.2941 L10.2441,0.2941 Z" id="Shape" fill="#1D1D33"></path>
            </g>
        </g>
        <g id="drizzle" transform="translate(114.000000, 9.000000)">
            <rect id="Rectangle" x="0" y="0" width="24" height="24"></rect>
            <path d="M11.5342,20.0402 C11.4702,20.0402 11.4052,20.0282 11.3422,20.0021 C11.0872,19.8962 10.9662,19.6031 11.0722,19.3492 L11.5502,18.1942 C11.6562,17.9381 11.9512,17.8192 12.2042,17.9231 C12.4592,18.0292 12.5802,18.3221 12.4742,18.5771 L11.9962,19.7312 C11.9162,19.9241 11.7302,20.0402 11.5342,20.0402 M8.2602,19.7312 L8.7382,18.5771 C8.8442,18.3221 8.7232,18.0292 8.4682,17.9231 C8.2152,17.8192 7.9212,17.9381 7.8152,18.1942 L7.3362,19.3492 C7.2312,19.6031 7.3522,19.8963 7.6072,20.0021 C7.6692,20.0282 7.7342,20.0402 7.7982,20.0402 C7.9942,20.0402 8.1802,19.9241 8.2602,19.7312 M15.7322,19.7312 L16.2102,18.5771 C16.3162,18.3221 16.1942,18.0292 15.9402,17.9231 C15.6872,17.8192 15.3922,17.9381 15.2862,18.1942 L14.8082,19.3492 C14.7022,19.6031 14.8232,19.8963 15.0782,20.0021 C15.1412,20.0282 15.2062,20.0402 15.2702,20.0402 C15.4652,20.0402 15.6522,19.9241 15.7322,19.7312" id="Shape" fill="#0072F5"></path>
            <g id="Group" transform="translate(2.000000, 2.000000)">
                <path d="M3.25,13.5 C1.7334,13.5 0.5,12.2666 0.5,10.75 C0.5,9.6235 1.1777,8.623 2.2266,8.2017 L2.5772,8.0611 L2.5372,7.6856 C2.5137,7.4609 2.5,7.2324 2.5,7 C2.5,3.416 5.416,0.5 9,0.5 C11.9912,0.5 14.583,2.5288 15.3018,5.4331 L15.3926,5.8008 L15.7715,5.8125 C17.8623,5.8789 19.5,7.5645 19.5,9.6499 C19.5,11.7729 17.7725,13.5 15.6494,13.5 L3.25,13.5 Z" id="Path" fill="#FFFFFF"></path>
                <path d="M8.9999,1 C11.7609,1 14.1526,2.8723 14.8162,5.5532 L14.9982,6.2884 L15.7552,6.3124 C17.5747,6.37 18.9999,7.8361 18.9999,9.6499 C18.9999,11.4971 17.4971,12.9999 15.6499,12.9999 L3.2499,12.9999 C2.0092,12.9999 0.9999,11.9905 0.9999,10.7499 C0.9999,9.8289 1.5545,9.0109 2.4129,8.6658 L3.1121,8.3847 L3.0346,7.6353 C3.0113,7.4094 2.9999,7.2015 2.9999,7 C2.9999,3.6917 5.6915,1 8.9999,1 M8.9999,0 C5.1339,0 1.9999,3.1329 1.9999,7 C1.9999,7.25 2.0149,7.4961 2.0399,7.738 C0.8459,8.218 -0.0001,9.383 -0.0001,10.75 C-0.0001,12.5439 1.4549,14 3.2499,14 L15.6499,14 C18.0529,14 19.9999,12.052 19.9999,9.65 C19.9999,7.2939 18.1249,5.3871 15.7869,5.313 C15.0319,2.2629 12.2839,0 8.9999,0 L8.9999,0 Z" id="Shape" fill="#1D1D33" fill-rule="nonzero"></path>
            </g>
        </g>
        <g id="flurries" transform="translate(148.000000, 9.000000)">
            <path d="M18.4042,22 C17.6024,22 16.8495,21.688 16.2831,21.1216 C16.0878,20.9263 16.0878,20.6099 16.2831,20.4146 C16.4784,20.2193 16.7948,20.2193 16.9901,20.4146 C17.3681,20.7919 17.8701,21 18.4042,21 C19.5067,21 20.4042,20.103 20.4042,19 C20.4042,17.897 19.5067,17 18.4042,17 L3.2499,17 C2.9735,17 2.7499,16.7764 2.7499,16.5 C2.7499,16.2236 2.9735,16 3.2499,16 L18.4042,16 C20.0585,16 21.4042,17.3457 21.4042,19 C21.4042,20.6543 20.0585,22 18.4042,22 Z M13.9042,21 C13.9042,19.3457 12.5585,18 10.9042,18 L3.2499,18 C2.9735,18 2.7499,18.2236 2.7499,18.5 C2.7499,18.7764 2.9735,19 3.2499,19 L10.9042,19 C12.0067,19 12.9042,19.897 12.9042,21 C12.9042,22.103 12.0067,23 10.9042,23 C9.8017,23 8.9042,22.103 8.9042,21 C8.9042,20.7236 8.6806,20.5 8.4042,20.5 C8.1278,20.5 7.9042,20.7236 7.9042,21 C7.9042,22.6543 9.2499,24 10.9042,24 C12.5585,24 13.9042,22.6542 13.9042,21 Z" id="Shape" fill="#E5E5E5" fill-rule="nonzero"></path>
            <rect id="Rectangle" x="0" y="0" width="24" height="24"></rect>
            <g id="Group" transform="translate(2.000000, 1.000000)">
                <path d="M3.25,13.5 C1.7334,13.5 0.5,12.2666 0.5,10.75 C0.5,9.6235 1.1777,8.623 2.2266,8.2017 L2.5771,8.061 L2.5371,7.6855 C2.5137,7.4609 2.5,7.2324 2.5,7 C2.5,3.416 5.416,0.5 9,0.5 C11.9912,0.5 14.583,2.5288 15.3018,5.4331 L15.3926,5.8008 L15.7715,5.8125 C17.8623,5.8789 19.5,7.5645 19.5,9.6499 C19.5,11.7729 17.7725,13.5 15.6494,13.5 L3.25,13.5 Z" id="Path" fill="#FFFFFF"></path>
                <path d="M8.9999,0.9999 C11.7608,0.9999 14.1526,2.8723 14.8162,5.5532 L14.9982,6.2884 L15.7552,6.3124 C17.5747,6.3701 18.9999,7.8361 18.9999,9.65 C18.9999,11.4972 17.4971,13 15.6499,13 L3.2499,13 C2.0092,13 0.9999,11.9906 0.9999,10.7499 C0.9999,9.8289 1.5545,9.0108 2.4129,8.6657 L3.1121,8.3846 L3.0346,7.6352 C3.0113,7.4094 2.9999,7.2016 2.9999,7 C2.9999,3.6916 5.6915,0.9999 8.9999,0.9999 M8.9999,-0.0001 C5.1339,-0.0001 1.9999,3.133 1.9999,7 C1.9999,7.2501 2.0149,7.4961 2.0399,7.738 C0.8459,8.218 -0.0001,9.3831 -0.0001,10.75 C-0.0001,12.544 1.4549,14.0001 3.2499,14.0001 L15.6499,14.0001 C18.0529,14.0001 19.9999,12.052 19.9999,9.6501 C19.9999,7.294 18.1249,5.3871 15.7869,5.3129 C15.0319,2.263 12.2839,-0.0001 8.9999,-0.0001 L8.9999,-0.0001 Z" id="Shape" fill="#1D1D33" fill-rule="nonzero"></path>
            </g>
        </g>
        <g id="fog_light" transform="translate(182.000000, 9.000000)">
            <rect id="Rectangle" x="0" y="0" width="24" height="24"></rect>
            <g id="Group" transform="translate(2.000000, 2.000000)">
                <path d="M15.787,5.313 C15.032,2.263 12.284,0 9,0 C5.134,0 2,3.133 2,7 C2,7.25 2.015,7.496 2.04,7.738 C0.846,8.218 0,9.383 0,10.75 C0,12.544 1.455,14 3.25,14 L15.65,14 C18.053,14 20,12.052 20,9.65 C20,7.294 18.125,5.387 15.787,5.313 Z" id="Path" fill="url(#linearGradient-1)"></path>
                <path d="M9,1 C11.7609,1 14.1526,2.8724 14.8163,5.5533 L14.9983,6.2885 L15.7553,6.3125 C17.5748,6.3701 19,7.8361 19,9.65 C19,11.4972 17.4972,13 15.65,13 L3.25,13 C2.0093,13 1,11.9907 1,10.75 C1,9.829 1.5547,9.0109 2.413,8.6658 L3.1121,8.3847 L3.0347,7.6353 C3.0114,7.4091 3,7.2013 3,7 C3,3.6916 5.6916,1 9,1 M9,0 C5.134,0 2,3.133 2,7 C2,7.25 2.015,7.496 2.04,7.738 C0.846,8.218 0,9.383 0,10.75 C0,12.544 1.455,14 3.25,14 L15.65,14 C18.053,14 20,12.052 20,9.65 C20,7.294 18.125,5.387 15.787,5.313 C15.032,2.263 12.284,0 9,0 L9,0 Z" id="Shape" fill="url(#linearGradient-2)" fill-rule="nonzero"></path>
            </g>
            <path d="M11.9969,17.3595 C9.4188,17.3595 8.1112,16.9406 6.8455,16.5358 C5.5984,16.1364 4.4207,15.7594 1.9998,15.7594 C1.7234,15.7594 1.4998,15.5358 1.4998,15.2594 C1.4998,14.983 1.7234,14.7594 1.9998,14.7594 C4.5769,14.7594 5.8846,15.1783 7.1502,15.5831 C8.3973,15.9825 9.575,16.3595 11.9969,16.3595 C14.4188,16.3595 15.5975,15.9825 16.8455,15.5831 C18.1111,15.1783 19.4207,14.7594 21.9998,14.7594 C22.2762,14.7594 22.4998,14.983 22.4998,15.2594 C22.4998,15.5358 22.2762,15.7594 21.9998,15.7594 C19.5769,15.7594 18.3982,16.1364 17.1502,16.5358 C15.8846,16.9405 14.575,17.3595 11.9969,17.3595 Z" id="Path" fill="#D5DEE8" fill-rule="nonzero"></path>
            <path d="M11.9969,20.3595 C11.1668,20.3595 10.4305,20.317 9.7459,20.2296 C9.4725,20.1944 9.2781,19.944 9.3133,19.67 C9.3485,19.3956 9.5985,19.2056 9.8729,19.2374 C10.5145,19.3194 11.2098,19.3595 11.9969,19.3595 C12.6356,19.3595 13.2078,19.3336 13.7469,19.2804 C14.0203,19.2599 14.2664,19.4542 14.2938,19.7286 C14.3202,20.0035 14.12,20.2481 13.8446,20.2755 C13.2733,20.3321 12.6688,20.3595 11.9969,20.3595 Z M17.6678,19.3497 C17.453,19.3497 17.2537,19.2101 17.1893,18.9937 C17.1092,18.7291 17.2596,18.4502 17.5243,18.3707 C18.5067,18.0758 19.6796,17.7979 21.5946,17.7633 C21.8807,17.7594 22.0985,17.9781 22.1034,18.2545 C22.1083,18.5304 21.8886,18.7584 21.6122,18.7633 C19.8183,18.7955 18.7255,19.0538 17.8114,19.3287 C17.7635,19.3429 17.7156,19.3497 17.6678,19.3497 Z M5.95,19.2403 C5.9061,19.2403 5.8611,19.2344 5.8172,19.2222 C4.9871,18.9932 3.8856,18.7593 1.9998,18.7593 C1.7234,18.7593 1.4998,18.5357 1.4998,18.2593 C1.4998,17.9829 1.7234,17.7593 1.9998,17.7593 C4.0047,17.7593 5.1893,18.0117 6.0828,18.2583 C6.3494,18.3315 6.5057,18.6069 6.4324,18.873 C6.3709,19.0948 6.1697,19.2403 5.95,19.2403 Z" id="Shape" fill="#D5DEE8" fill-rule="nonzero"></path>
        </g>
        <g id="fog" transform="translate(12.000000, 43.000000)">
            <rect id="Rectangle" x="0" y="0" width="24" height="24"></rect>
            <g id="Group" transform="translate(2.000000, 2.000000)">
                <path d="M8.9998,0.0003 C5.1338,0.0003 1.9998,3.1323 1.9998,7.0004 C1.9998,7.2503 2.0148,7.4963 2.0398,7.7384 C0.8458,8.2173 -0.0002,9.3824 -0.0002,10.7504 C-0.0002,12.5434 1.4548,14.0003 3.2498,14.0003 L15.6498,14.0003 C18.0528,14.0003 19.9998,12.0514 19.9998,9.6503 C19.9998,7.2934 18.1248,5.3873 15.7868,5.3133 C15.0318,2.2633 12.2838,0.0003 8.9998,0.0003 Z" id="Path" fill="url(#linearGradient-3)"></path>
                <path d="M8.9998,1.0003 C11.7607,1.0003 14.1525,2.8727 14.8161,5.5536 L14.9981,6.2888 L15.7552,6.3128 C17.5746,6.3704 18.9998,7.8364 18.9998,9.6503 C18.9998,11.4975 17.497,13.0003 15.6498,13.0003 L3.2498,13.0003 C2.0091,13.0003 0.9998,11.991 0.9998,10.7504 C0.9998,9.8286 1.5542,9.0107 2.4121,8.6665 L3.112,8.3858 L3.0345,7.6356 C3.0111,7.4094 2.9998,7.2015 2.9998,7.0004 C2.9998,3.6919 5.6914,1.0003 8.9998,1.0003 M8.9998,0.0003 C5.1338,0.0003 1.9998,3.1323 1.9998,7.0004 C1.9998,7.2503 2.0148,7.4962 2.0398,7.7384 C0.8458,8.2173 -0.0002,9.3824 -0.0002,10.7504 C-0.0002,12.5434 1.4548,14.0003 3.2498,14.0003 L15.6498,14.0003 C18.0528,14.0003 19.9998,12.0513 19.9998,9.6503 C19.9998,7.2934 18.1248,5.3873 15.7868,5.3133 C15.0318,2.2634 12.2838,0.0003 8.9998,0.0003 L8.9998,0.0003 Z" id="Shape" fill="url(#linearGradient-4)" fill-rule="nonzero"></path>
            </g>
            <path d="M11.9968,21.8592 C9.4198,21.8592 8.1108,21.4401 6.8458,21.0362 C5.5988,20.6361 4.4208,20.2592 1.9998,20.2592 C1.7238,20.2592 1.4998,20.0362 1.4998,19.7593 C1.4998,19.4833 1.7238,19.2592 1.9998,19.2592 C4.5778,19.2592 5.8858,19.6783 7.1508,20.0833 C8.3978,20.4823 9.5758,20.8592 11.9968,20.8592 C14.4198,20.8592 15.5978,20.4823 16.8458,20.0833 C18.1118,19.6783 19.4208,19.2592 21.9998,19.2592 C22.2768,19.2592 22.4998,19.4833 22.4998,19.7593 C22.4998,20.0362 22.2768,20.2592 21.9998,20.2592 C19.5778,20.2592 18.3988,20.6361 17.1508,21.0362 C15.8848,21.4401 14.5758,21.8592 11.9968,21.8592 M11.9968,15.8592 C9.4198,15.8592 8.1108,15.4401 6.8458,15.0362 C5.5988,14.6361 4.4208,14.2592 1.9998,14.2592 C1.7238,14.2592 1.4998,14.0362 1.4998,13.7593 C1.4998,13.4833 1.7238,13.2592 1.9998,13.2592 C4.5778,13.2592 5.8858,13.6783 7.1508,14.0833 C8.3978,14.4823 9.5758,14.8592 11.9968,14.8592 C14.4198,14.8592 15.5978,14.4823 16.8458,14.0833 C18.1118,13.6783 19.4208,13.2592 21.9998,13.2592 C22.2768,13.2592 22.4998,13.4833 22.4998,13.7593 C22.4998,14.0362 22.2768,14.2592 21.9998,14.2592 C19.5778,14.2592 18.3988,14.6361 17.1508,15.0362 C15.8848,15.4401 14.5758,15.8592 11.9968,15.8592 M11.9968,18.8592 C9.4198,18.8592 8.1108,18.4401 6.8458,18.0362 C5.5988,17.6361 4.4208,17.2592 1.9998,17.2592 C1.7238,17.2592 1.4998,17.0362 1.4998,16.7593 C1.4998,16.4833 1.7238,16.2592 1.9998,16.2592 C4.5778,16.2592 5.8858,16.6783 7.1508,17.0833 C8.3978,17.4823 9.5758,17.8592 11.9968,17.8592 C14.4198,17.8592 15.5978,17.4823 16.8458,17.0833 C18.1118,16.6783 19.4208,16.2592 21.9998,16.2592 C22.2768,16.2592 22.4998,16.4833 22.4998,16.7593 C22.4998,17.0362 22.2768,17.2592 21.9998,17.2592 C19.5778,17.2592 18.3988,17.6361 17.1508,18.0362 C15.8848,18.4401 14.5758,18.8592 11.9968,18.8592" id="Shape" fill="#D5DEE8"></path>
        </g>
        <g id="freezing_drizzle" transform="translate(46.000000, 43.000000)">
            <path d="M11.753,9.5257 C11.689,9.5257 11.624,9.5137 11.561,9.4876 C11.306,9.3817 11.185,9.0886 11.291,8.8347 L11.769,7.6797 C11.875,7.4237 12.17,7.3047 12.423,7.4086 C12.678,7.5147 12.799,7.8076 12.693,8.0626 L12.215,9.2167 C12.135,9.4096 11.949,9.5257 11.753,9.5257 M8.479,9.2167 L8.957,8.0626 C9.063,7.8076 8.942,7.5147 8.687,7.4086 C8.434,7.3047 8.14,7.4236 8.034,7.6797 L7.555,8.8347 C7.45,9.0886 7.571,9.3817 7.826,9.4876 C7.888,9.5137 7.953,9.5257 8.017,9.5257 C8.213,9.5257 8.399,9.4096 8.479,9.2167 M15.951,9.2167 L16.429,8.0626 C16.535,7.8076 16.413,7.5147 16.159,7.4086 C15.906,7.3047 15.611,7.4236 15.505,7.6797 L15.027,8.8347 C14.921,9.0886 15.042,9.3818 15.297,9.4876 C15.36,9.5137 15.425,9.5257 15.489,9.5257 C15.684,9.5257 15.871,9.4096 15.951,9.2167" id="Shape" fill="#D5DEE8"></path>
            <rect id="Rectangle" x="0" y="0" width="24" height="24"></rect>
            <path d="M21.0001,11.9998 L3.0001,11.9998 C2.4481,11.9998 2.0001,12.9999 2.0001,12.9999 C2.0001,12.9999 2.4481,14 3.0001,14 L4.0005,14 C4.0027,14.001 5.0001,14.4485 5.0001,14.9999 L5.0001,16.9999 C5.0001,17.5529 6.0001,17.9999 6.0001,17.9999 C6.0001,17.9999 7.0001,17.5529 7.0001,16.9999 L7.0001,14.9999 C7.0001,14.4485 7.9975,14.001 7.9997,14 L8.0004,14 C8.0026,14.001 9,14.4485 9,14.9999 L9,16.9999 C9,17.5529 10,17.9999 10,17.9999 C10,17.9999 11,17.5529 11,16.9999 L11,14.9999 C11,14.4485 11.9974,14.001 11.9996,14 L12.0003,14 C12.0025,14.001 12.9999,14.4485 12.9999,14.9999 L12.9999,16.9999 C12.9999,17.5529 13.9999,17.9999 13.9999,17.9999 C13.9999,17.9999 14.9999,17.5529 14.9999,16.9999 L14.9999,14.9999 C14.9999,14.4485 15.9973,14.001 15.9995,14 L16.0002,14 C16.0024,14.001 16.9998,14.4485 16.9998,14.9999 L16.9998,16.9999 C16.9998,17.5529 17.9998,17.9999 17.9998,17.9999 C17.9998,17.9999 18.9998,17.5529 18.9998,16.9999 L18.9998,14.9999 C18.9998,14.4485 19.9972,14.001 19.9994,14 L20.9998,14 C21.5518,14 21.9998,12.9999 21.9998,12.9999 C21.9998,12.9999 21.5521,11.9998 21.0001,11.9998 Z" id="Path" fill="#0072F5"></path>
        </g>
        <g id="freezing_rain_heavy" transform="translate(80.000000, 43.000000)">
            <rect id="Rectangle" x="0" y="0" width="24" height="24"></rect>
            <path d="M21.0001,11.9998 L3.0001,11.9998 C2.4481,11.9998 2.0001,12.9999 2.0001,12.9999 C2.0001,12.9999 2.2171,13.7188 2.5351,13.8858 C2.8371,14.0448 3.0001,14.3858 3.0001,14.7278 L3.0001,18.9998 C3.0001,19.5528 4.0001,19.9998 4.0001,19.9998 C4.0001,19.9998 5.0001,19.5528 5.0001,18.9998 L5.0001,14.9998 C5.0001,14.4478 6.0001,13.9998 6.0001,13.9998 C6.0001,13.9998 7.0001,14.4478 7.0001,14.9998 L7.0001,18.9998 C7.0001,19.5528 8.0001,19.9998 8.0001,19.9998 C8.0001,19.9998 9.0001,19.5528 9.0001,18.9998 L9.0001,14.9998 C9.0001,14.4478 10.0001,13.9998 10.0001,13.9998 C10.0001,13.9998 11.0001,14.4478 11.0001,14.9998 L11.0001,20.9998 C11.0001,21.5528 12.0001,21.9998 12.0001,21.9998 C12.0001,21.9998 13.0001,21.5528 13.0001,20.9998 L13.0001,14.9998 C13.0001,14.4478 14.0001,13.9998 14.0001,13.9998 C14.0001,13.9998 15.0001,14.4478 15.0001,14.9998 L15.0001,18.9998 C15.0001,19.5528 16.0001,19.9998 16.0001,19.9998 C16.0001,19.9998 17.0001,19.5528 17.0001,18.9998 L17.0001,14.9998 C17.0001,14.4478 18.0001,13.9998 18.0001,13.9998 C18.0001,13.9998 19.0001,14.4478 19.0001,14.9998 L19.0001,18.9998 C19.0001,19.5528 20.0001,19.9998 20.0001,19.9998 C20.0001,19.9998 21.0001,19.5528 21.0001,18.9998 L21.0001,14.7278 C21.0001,14.3858 21.1621,14.0448 21.4651,13.8858 C21.7831,13.7189 22.0001,12.9999 22.0001,12.9999 C22.0001,12.9999 21.5521,11.9998 21.0001,11.9998" id="Path" fill="#0072F5"></path>
            <path d="M19.0093,9.8126 L19.0093,9.8126 C18.7541,9.7067 18.6329,9.4143 18.7388,9.1591 L20.7487,4.3092 C20.8544,4.054 21.1468,3.9328 21.4022,4.0385 C21.6574,4.1444 21.7784,4.437 21.6727,4.6921 L19.6628,9.542 C19.557,9.7973 19.2643,9.9183 19.0093,9.8126 M4.7197,9.543 L6.7296,4.6933 C6.8353,4.4381 6.7142,4.1455 6.4591,4.0398 C6.2039,3.9341 5.9113,4.0551 5.8056,4.3103 L3.7957,9.1602 C3.6899,9.4154 3.8111,9.708 4.0663,9.8137 C4.3214,9.9194 4.614,9.7984 4.7197,9.543 M8.4554,9.5428 L10.4653,4.6929 C10.571,4.4377 10.4499,4.1451 10.1948,4.0394 C9.9396,3.9337 9.6471,4.0548 9.5413,4.3099 L7.5314,9.16 C7.4257,9.4152 7.5468,9.7076 7.802,9.8135 C8.0571,9.9191 8.3497,9.7982 8.4554,9.5428 M12.1911,9.5425 L14.201,4.6926 C14.3069,4.4376 14.1856,4.145 13.9305,4.0393 C13.6753,3.9334 13.3827,4.0547 13.277,4.3098 L11.2671,9.1597 C11.1614,9.4149 11.2825,9.7075 11.5376,9.8132 C11.7929,9.9189 12.0854,9.7978 12.1911,9.5425 M15.9269,9.5425 L17.937,4.6924 C18.0427,4.4372 17.9215,4.1446 17.6665,4.0389 C17.4111,3.9332 17.1186,4.0542 17.013,4.3094 L15.0029,9.1595 C14.8972,9.4145 15.0184,9.7071 15.2734,9.813 C15.5286,9.9185 15.8213,9.7975 15.9269,9.5425 M17.7948,9.5423 L18.5209,7.7896 C18.6268,7.5344 18.5057,7.242 18.2504,7.1361 C17.9952,7.0304 17.7028,7.1516 17.5969,7.4066 L16.8708,9.1593 C16.7649,9.4145 16.8862,9.7069 17.1413,9.8128 C17.3965,9.9183 17.6891,9.7973 17.7948,9.5423 M14.0591,9.5425 L14.7853,7.79 C14.8908,7.5348 14.7698,7.2422 14.5146,7.1365 C14.2594,7.0306 13.9668,7.1518 13.8611,7.407 L13.135,9.1597 C13.0291,9.4147 13.1504,9.7073 13.4055,9.813 C13.6606,9.9187 13.9534,9.7976 14.0591,9.5425 M10.3232,9.5427 L11.0495,7.7902 C11.1552,7.5352 11.0341,7.2426 10.779,7.1367 C10.5238,7.031 10.2312,7.1522 10.1255,7.4074 L9.3992,9.1599 C9.2935,9.4151 9.4146,9.7076 9.6699,9.8133 C9.9249,9.9191 10.2175,9.798 10.3232,9.5427 M6.5875,9.5428 L7.3138,7.7904 C7.4195,7.5353 7.2982,7.2427 7.0431,7.137 C6.7881,7.0311 6.4953,7.1524 6.3896,7.4075 L5.6635,9.1602 C5.5578,9.4152 5.6789,9.7078 5.934,9.8137 C6.1894,9.9192 6.4818,9.7982 6.5875,9.5428 M19.1911,6.1729 L19.8049,4.6921 C19.9104,4.4369 19.7894,4.1443 19.5342,4.0386 C19.279,3.9329 18.9864,4.0541 18.8809,4.3093 L18.2671,5.7901 C18.1614,6.0451 18.2826,6.3379 18.5376,6.4434 C18.7928,6.5494 19.0856,6.4281 19.1911,6.1729 M15.4554,6.1733 L16.069,4.6925 C16.1749,4.4373 16.0536,4.1447 15.7985,4.039 C15.5431,3.9333 15.2507,4.0543 15.145,4.3095 L14.5314,5.7903 C14.4255,6.0455 14.5468,6.3382 14.8019,6.4438 C15.0573,6.5497 15.3497,6.4285 15.4554,6.1733 M11.7197,6.1735 L12.3333,4.6927 C12.439,4.4375 12.3179,4.1449 12.0628,4.0392 C11.8076,3.9335 11.515,4.0547 11.4093,4.3097 L10.7957,5.7907 C10.6898,6.0457 10.8111,6.3385 11.0662,6.4442 C11.3213,6.5499 11.614,6.4287 11.7197,6.1735 M7.984,6.1738 L8.5976,4.693 C8.7033,4.4378 8.5821,4.1452 8.3269,4.0395 C8.0719,3.9338 7.7791,4.0549 7.6734,4.31 L7.06,5.7909 C6.9543,6.0461 7.0753,6.3388 7.3305,6.4444 C7.5857,6.5502 7.8783,6.429 7.984,6.1738" id="Shape" fill="#D5DEE8"></path>
        </g>
        <g id="freezing_rain_light" transform="translate(114.000000, 43.000000)">
            <path d="M11.753,9.5257 C11.689,9.5257 11.624,9.5137 11.561,9.4876 C11.306,9.3817 11.185,9.0886 11.291,8.8347 L11.769,7.6797 C11.875,7.4237 12.17,7.3047 12.423,7.4086 C12.678,7.5147 12.799,7.8076 12.693,8.0626 L12.215,9.2167 C12.135,9.4096 11.949,9.5257 11.753,9.5257 M4.743,9.2167 L5.222,8.0617 C5.327,7.8067 5.206,7.5136 4.951,7.4086 C4.698,7.3027 4.404,7.4236 4.298,7.6786 L3.819,8.8347 C3.714,9.0897 3.835,9.3817 4.09,9.4876 C4.152,9.5137 4.217,9.5257 4.281,9.5257 C4.477,9.5257 4.663,9.4096 4.743,9.2167 M19.686,9.2167 L20.165,8.0626 C20.27,7.8076 20.149,7.5147 19.894,7.4086 C19.641,7.3047 19.347,7.4236 19.241,7.6797 L18.763,8.8347 C18.657,9.0886 18.778,9.3818 19.033,9.4876 C19.096,9.5137 19.161,9.5257 19.224,9.5257 C19.42,9.5257 19.607,9.4096 19.686,9.2167 M8.479,9.2167 L8.957,8.0626 C9.063,7.8076 8.942,7.5147 8.687,7.4086 C8.434,7.3047 8.14,7.4236 8.034,7.6797 L7.555,8.8347 C7.45,9.0886 7.571,9.3817 7.826,9.4876 C7.888,9.5137 7.953,9.5257 8.017,9.5257 C8.213,9.5257 8.399,9.4096 8.479,9.2167 M15.951,9.2167 L16.429,8.0626 C16.535,7.8076 16.413,7.5147 16.159,7.4086 C15.906,7.3047 15.611,7.4236 15.505,7.6797 L15.027,8.8347 C14.921,9.0886 15.042,9.3818 15.297,9.4876 C15.36,9.5137 15.425,9.5257 15.489,9.5257 C15.684,9.5257 15.871,9.4096 15.951,9.2167" id="Shape" fill="#D5DEE8"></path>
            <rect id="Rectangle" x="0" y="0" width="24" height="24"></rect>
            <path d="M21.0001,11.9998 L3.0001,11.9998 C2.4481,11.9998 2.0001,12.9999 2.0001,12.9999 C2.0001,12.9999 2.2171,13.7188 2.5351,13.8858 C2.8371,14.0448 3.0001,14.3858 3.0001,14.7278 L3.0001,18.9998 C3.0001,19.5528 4.0001,19.9998 4.0001,19.9998 C4.0001,19.9998 5.0001,19.5528 5.0001,18.9998 L5.0001,14.9998 C5.0001,14.4478 6.0001,13.9998 6.0001,13.9998 C6.0001,13.9998 7.0001,14.4478 7.0001,14.9998 L7.0001,16.9998 C7.0001,17.5528 8.0001,17.9998 8.0001,17.9998 C8.0001,17.9998 9.0001,17.5528 9.0001,16.9998 L9.0001,14.9998 C9.0001,14.4478 10.0001,13.9998 10.0001,13.9998 C10.0001,13.9998 11.0001,14.4478 11.0001,14.9998 L11.0001,16.9998 C11.0001,17.5528 12.0001,17.9998 12.0001,17.9998 C12.0001,17.9998 13.0001,17.5528 13.0001,16.9998 L13.0001,14.9998 C13.0001,14.4478 14.0001,13.9998 14.0001,13.9998 C14.0001,13.9998 15.0001,14.4478 15.0001,14.9998 L15.0001,16.9998 C15.0001,17.5528 16.0001,17.9998 16.0001,17.9998 C16.0001,17.9998 17.0001,17.5528 17.0001,16.9998 L17.0001,14.9998 C17.0001,14.4478 18.0001,13.9998 18.0001,13.9998 C18.0001,13.9998 19.0001,14.4478 19.0001,14.9998 L19.0001,18.9998 C19.0001,19.5528 20.0001,19.9998 20.0001,19.9998 C20.0001,19.9998 21.0001,19.5528 21.0001,18.9998 L21.0001,14.7278 C21.0001,14.3858 21.1621,14.0448 21.4651,13.8858 C21.7831,13.7189 22.0001,12.9999 22.0001,12.9999 C22.0001,12.9999 21.5521,11.9998 21.0001,11.9998" id="Path" fill="#0072F5"></path>
        </g>
        <g id="freezing_rain" transform="translate(148.000000, 43.000000)">
            <rect id="Rectangle" x="0" y="0" width="24" height="24"></rect>
            <path d="M11.7611,6.1546 C11.6971,6.1546 11.6321,6.1437 11.5691,6.1167 C11.3141,6.0117 11.1931,5.7186 11.2991,5.4636 L11.7771,4.3097 C11.8831,4.0536 12.1761,3.9347 12.4311,4.0386 C12.6861,4.1447 12.8071,4.4376 12.7011,4.6926 L12.2231,5.8467 C12.1431,6.0386 11.9571,6.1546 11.7611,6.1546 M8.4871,5.8466 L8.9651,4.6925 C9.0711,4.4375 8.9501,4.1446 8.6951,4.0385 C8.4401,3.9346 8.1471,4.0535 8.0421,4.3096 L7.5631,5.4635 C7.4581,5.7185 7.5791,6.0116 7.8341,6.1166 C7.8961,6.1436 7.9611,6.15450006 8.0251,6.15450006 C8.2211,6.1546 8.4071,6.0386 8.4871,5.8466 M9.6331,9.2176 L10.1111,8.0626 C10.2171,7.8076 10.0961,7.5147 9.8411,7.4086 C9.5881,7.3046 9.2941,7.4246 9.1881,7.6796 L8.7101,8.8346 C8.6041,9.0896 8.7251,9.3825 8.9801,9.4886 C9.0431,9.5135 9.1071,9.52650006 9.1711,9.52650006 C9.3681,9.5266 9.5541,9.4096 9.6331,9.2176 M5.8891,9.2176 L6.3681,8.0626 C6.4731,7.8076 6.3521,7.5147 6.0971,7.4086 C5.8431,7.3036 5.5491,7.4246 5.4441,7.6796 L4.9651,8.8346 C4.8601,9.0896 4.9811,9.3825 5.2361,9.4886 C5.2981,9.5135 5.3631,9.52650006 5.4271,9.52650006 C5.6231,9.5266 5.8101,9.4096 5.8891,9.2176 M4.7511,5.8466 L5.2301,4.6916 C5.3351,4.4366 5.2141,4.1435 4.9591,4.0376 C4.7051,3.9326 4.4111,4.0535 4.3061,4.3085 L3.8271,5.4635 C3.7221,5.7196 3.8431,6.0116 4.0981,6.1166 C4.1601,6.1436 4.2251,6.15450006 4.2891,6.15450006 C4.4851,6.1546 4.6711,6.0386 4.7511,5.8466 M19.6941,5.8466 L20.1731,4.6925 C20.2781,4.4375 20.1571,4.1446 19.9021,4.0385 C19.6481,3.9346 19.3551,4.0535 19.2491,4.3096 L18.7711,5.4635 C18.6651,5.7185 18.7861,6.0116 19.0411,6.1166 C19.1041,6.1436 19.1691,6.15450006 19.2321,6.15450006 C19.4281,6.1546 19.6151,6.0386 19.6941,5.8466 M15.9591,5.8466 L16.4371,4.6925 C16.5431,4.4375 16.4211,4.1446 16.1671,4.0385 C15.9121,3.9346 15.6191,4.0535 15.5131,4.3096 L15.0351,5.4635 C14.9291,5.7185 15.0501,6.0116 15.3051,6.1166 C15.3681,6.1436 15.4331,6.15450006 15.4971,6.15450006 C15.6921,6.1546 15.8791,6.0386 15.9591,5.8466 M17.1211,9.2176 L17.5991,8.0626 C17.7051,7.8076 17.5841,7.5147 17.3291,7.4086 C17.0741,7.3036 16.7811,7.4246 16.6751,7.6796 L16.1971,8.8346 C16.0911,9.0896 16.2121,9.3825 16.4671,9.4886 C16.5301,9.5135 16.5951,9.52650006 16.6591,9.52650006 C16.8551,9.5266 17.0411,9.4096 17.1211,9.2176 M13.3771,9.2176 L13.8561,8.0626 C13.9611,7.8076 13.8401,7.5147 13.5851,7.4086 C13.3311,7.3036 13.0371,7.4246 12.9321,7.6796 L12.4531,8.8346 C12.3481,9.0896 12.4691,9.3825 12.7241,9.4886 C12.7861,9.5135 12.8511,9.52650006 12.9151,9.52650006 C13.1111,9.5266 13.2971,9.4096 13.3771,9.2176" id="Shape" fill="#D5DEE8"></path>
            <path d="M21.0001,11.9998 L3.0001,11.9998 C2.4481,11.9998 2.0001,12.9999 2.0001,12.9999 C2.0001,12.9999 2.2171,13.7188 2.5351,13.8858 C2.8371,14.0448 3.0001,14.3858 3.0001,14.7278 L3.0001,18.9998 C3.0001,19.5528 4.0001,19.9998 4.0001,19.9998 C4.0001,19.9998 5.0001,19.5528 5.0001,18.9998 L5.0001,14.9998 C5.0001,14.4478 6.0001,13.9998 6.0001,13.9998 C6.0001,13.9998 7.0001,14.4478 7.0001,14.9998 L7.0001,16.9998 C7.0001,17.5528 8.0001,17.9998 8.0001,17.9998 C8.0001,17.9998 9.0001,17.5528 9.0001,16.9998 L9.0001,14.9998 C9.0001,14.4478 10.0001,13.9998 10.0001,13.9998 C10.0001,13.9998 11.0001,14.4478 11.0001,14.9998 L11.0001,20.9998 C11.0001,21.5528 12.0001,21.9998 12.0001,21.9998 C12.0001,21.9998 13.0001,21.5528 13.0001,20.9998 L13.0001,14.9998 C13.0001,14.4478 14.0001,13.9998 14.0001,13.9998 C14.0001,13.9998 15.0001,14.4478 15.0001,14.9998 L15.0001,16.9998 C15.0001,17.5528 16.0001,17.9998 16.0001,17.9998 C16.0001,17.9998 17.0001,17.5528 17.0001,16.9998 L17.0001,14.9998 C17.0001,14.4478 18.0001,13.9998 18.0001,13.9998 C18.0001,13.9998 19.0001,14.4478 19.0001,14.9998 L19.0001,18.9998 C19.0001,19.5528 20.0001,19.9998 20.0001,19.9998 C20.0001,19.9998 21.0001,19.5528 21.0001,18.9998 L21.0001,14.7278 C21.0001,14.3858 21.1621,14.0448 21.4651,13.8858 C21.7831,13.7189 22.0001,12.9999 22.0001,12.9999 C22.0001,12.9999 21.5521,11.9998 21.0001,11.9998" id="Path" fill="#0072F5"></path>
        </g>
        <g id="ice_pellets_heavy" transform="translate(182.000000, 43.000000)">
            <rect id="Rectangle" x="0" y="0" width="24" height="24"></rect>
            <path d="M13.0059,20.9617 L11.4749,17.2657 L7.7799,18.7967 L9.3109,22.4927 L13.0059,20.9617 Z M9.5079,13.5866 L7.6599,14.3516 L8.4259,16.1996 L10.2729,15.4337 L9.5079,13.5866 Z M19.4879,20.8648 L17.9569,17.1688 L14.2619,18.6998 L15.7929,22.3958 L19.4879,20.8648 Z M6.1007,20.9617 L4.5697,17.2657 L0.8747,18.7967 L2.4057,22.4927 L6.1007,20.9617 Z M15.9899,13.4897 L14.1419,14.2547 L14.9069,16.1027 L16.7549,15.3377 L15.9899,13.4897 Z" id="Shape" fill="#0072F5"></path>
            <path d="M14.2919,2.0388 C14.5469,2.1438 14.6679,2.4368 14.5619,2.6917 L10.7349,11.9298 C10.6559,12.1227 10.4689,12.2388 10.2729,12.2388 C10.2089,12.2388 10.1439,12.2268 10.0819,12.2007 C9.8269,12.0948 9.7059,11.8028 9.8109,11.5478 L13.6379,2.3089 C13.7439,2.0527 14.0379,1.9308 14.2919,2.0388 Z M15.6059,5.9876 C15.7109,5.7326 16.0049,5.6107 16.2589,5.7176 C16.5139,5.8226 16.6349,6.1157 16.5299,6.3707 L12.7029,15.6096 C12.6229,15.8027 12.4369,15.9186 12.2409,15.9186 C12.1769,15.9186 12.1119,15.9066 12.0499,15.8806 C11.7949,15.7745 11.6739,15.4816 11.7789,15.2266 L15.6059,5.9876 Z M22.0879,5.8907 C22.1929,5.6357 22.4869,5.5138 22.7409,5.6207 C22.9959,5.7257 23.1169,6.0188 23.0119,6.2738 L19.1849,15.5127 C19.1049,15.7058 18.9189,15.8217 18.7229,15.8217 C18.6589,15.8217 18.5939,15.8097 18.5319,15.7837 C18.2769,15.6776 18.1559,15.3847 18.2609,15.1297 L22.0879,5.8907 Z M8.7007,5.9876 C8.8057,5.7326 9.0997,5.6107 9.3537,5.7176 C9.6087,5.8226 9.7297,6.1157 9.6247,6.3707 L5.7977,15.6096 C5.7177,15.8027 5.5317,15.9186 5.3357,15.9186 C5.2717,15.9186 5.2067,15.9066 5.1447,15.8806 C4.8897,15.7745 4.7687,15.4816 4.8737,15.2266 L8.7007,5.9876 Z M20.7739,1.9419 C21.0289,2.0469 21.1499,2.3399 21.0439,2.5948 L17.2169,11.8329 C17.1379,12.0258 16.9509,12.1419 16.7549,12.1419 C16.6909,12.1419 16.6259,12.1299 16.5639,12.1038 C16.3089,11.9979 16.1879,11.7059 16.2929,11.4509 L20.1199,2.212 C20.2259,1.9558 20.5199,1.8339 20.7739,1.9419 Z" id="Shape" fill="#D5DEE8"></path>
        </g>
        <g id="ice_pellets_light" transform="translate(12.000000, 77.000000)">
            <rect id="Rectangle" x="0" y="0" width="24" height="24"></rect>
            <path d="M12.2645,12.3374 L10.4165,13.1024 L11.1825,14.9504 L13.0295,14.1845 L12.2645,12.3374 Z M7.0545,14.0714 L5.2065,14.8375 L5.9725,16.6845 L7.8195,15.9205 L7.0545,14.0714 Z M15.2325,16.0175 L13.3845,16.7825 L14.1495,18.6305 L15.9975,17.8655 L15.2325,16.0175 Z" id="Shape" fill="#0072F5"></path>
            <path d="M15.1349,5.4088 C15.3899,5.5138 15.5109,5.8068 15.4049,6.0617 L13.4915,10.6805 C13.4125,10.8734 13.2255,10.9895 13.0295,10.9895 C12.9655,10.9895 12.9005,10.9775 12.8385,10.9514 C12.5835,10.8455 12.4625,10.5535 12.5675,10.2985 L14.4809,5.6789 C14.5869,5.4228 14.8809,5.3008 15.1349,5.4088 Z M8.8886,8.337 C8.9946,8.082 9.2886,7.9598 9.5416,8.067 C9.7966,8.172 9.9176,8.4649 9.8126,8.7199 L8.2815,12.4154 C8.2025,12.6074 8.0155,12.7235 7.8195,12.7235 C7.7555,12.7235 7.6905,12.7124 7.6285,12.6854 C7.3735,12.5804 7.2525,12.2875 7.3575,12.0325 L8.8886,8.337 Z M17.8316,8.4339 C17.9366,8.1789 18.2306,8.057 18.4846,8.1639 C18.7396,8.2689 18.8606,8.562 18.7556,8.817 L16.4595,14.3605 C16.3795,14.5536 16.1935,14.6695 15.9975,14.6695 C15.9335,14.6695 15.8685,14.6575 15.8065,14.6315 C15.5515,14.5254 15.4305,14.2325 15.5355,13.9775 L17.8316,8.4339 Z" id="Shape" fill="#D5DEE8"></path>
        </g>
        <g id="ice_pellets" transform="translate(46.000000, 77.000000)">
            <rect id="Rectangle" x="0" y="0" width="24" height="24"></rect>
            <path d="M13.5059,20.9617 L11.9749,17.2657 L8.2799,18.7967 L9.8109,22.4927 L13.5059,20.9617 Z M9.5079,13.5866 L7.6599,14.3516 L8.4259,16.1996 L10.2729,15.4337 L9.5079,13.5866 Z M4.7979,15.3206 L2.9499,16.0867 L3.7159,17.9337 L5.5629,17.1697 L4.7979,15.3206 Z M17.4899,13.4897 L15.6419,14.2547 L16.4069,16.1027 L18.2549,15.3377 L17.4899,13.4897 Z" id="Shape" fill="#0072F5"></path>
            <path d="M20.4719,4.9827 C20.5779,4.7277 20.8719,4.6058 21.1259,4.7127 C21.3809,4.8177 21.5019,5.1108 21.3959,5.3658 L18.7169,11.8338 C18.6369,12.0258 18.4509,12.1417 18.2549,12.1417 C18.1909,12.1417 18.1259,12.1308 18.0639,12.1037 C17.8089,11.9987 17.6879,11.7056 17.7929,11.4506 L20.4719,4.9827 Z M14.2919,2.0388 C14.5469,2.1438 14.6679,2.4368 14.5619,2.6917 L10.7349,11.9298 C10.6559,12.1227 10.4689,12.2388 10.2729,12.2388 C10.2089,12.2388 10.1439,12.2268 10.0819,12.2007 C9.8269,12.0948 9.7059,11.8028 9.8109,11.5478 L13.6379,2.3089 C13.7439,2.0527 14.0379,1.9308 14.2919,2.0388 Z M8.1629,5.8908 C8.2689,5.6358 8.5629,5.5136 8.8159,5.6208 C9.0709,5.7258 9.1919,6.0187 9.0869,6.2737 L6.0249,13.6647 C5.9459,13.8567 5.7589,13.9728 5.5629,13.9728 C5.4989,13.9728 5.4339,13.9617 5.3719,13.9347 C5.1169,13.8297 4.9959,13.5368 5.1009,13.2818 L8.1629,5.8908 Z M16.1059,5.9876 C16.2109,5.7326 16.5049,5.6107 16.7589,5.7176 C17.0139,5.8226 17.1349,6.1157 17.0299,6.3707 L13.2029,15.6096 C13.1229,15.8027 12.9369,15.9186 12.7409,15.9186 C12.6769,15.9186 12.6119,15.9066 12.5499,15.8806 C12.2949,15.7745 12.1739,15.4816 12.2789,15.2266 L16.1059,5.9876 Z" id="Shape" fill="#D5DEE8"></path>
        </g>
        <g id="mostly_clear_day" transform="translate(80.000000, 77.000000)">
            <rect id="Rectangle" x="0" y="0" width="24" height="24"></rect>
            <circle id="Oval" fill="#FFD02F" cx="16" cy="8" r="6"></circle>
            <g id="Group" transform="translate(2.000000, 7.000000)">
                <path d="M3.25,13.5005 C1.7334,13.5005 0.5,12.2671 0.5,10.7505 C0.5,9.624 1.1777,8.6235 2.2266,8.2022 L2.5772,8.0616 L2.5372,7.6861 C2.5137,7.4609 2.5,7.2329 2.5,7.0005 C2.5,3.4165 5.416,0.5005 9,0.5005 C11.9912,0.5005 14.583,2.5293 15.3018,5.4336 L15.3926,5.8013 L15.7715,5.813 C17.8623,5.8794 19.5,7.5645 19.5,9.6504 C19.5,11.7734 17.7725,13.5005 15.6494,13.5005 L3.25,13.5005 Z" id="Path" fill="#FFFFFF"></path>
                <path d="M8.9998,1.0003 C11.7607,1.0003 14.1525,2.8727 14.8161,5.5536 L14.9981,6.2888 L15.7551,6.3128 C17.5746,6.3704 18.9998,7.8364 18.9998,9.6503 C18.9998,11.4975 17.497,13.0003 15.6498,13.0003 L3.2498,13.0003 C2.0091,13.0003 0.9998,11.991 0.9998,10.7503 C0.9998,9.8293 1.5545,9.0112 2.4128,8.6661 L3.1119,8.385 L3.0345,7.6355 C3.0111,7.4093 2.9998,7.2015 2.9998,7.0002 C2.9998,3.6919 5.6914,1.0003 8.9998,1.0003 M8.9998,0.0003 C5.1338,0.0003 1.9998,3.1333 1.9998,7.0003 C1.9998,7.2503 2.0148,7.4963 2.0398,7.7383 C0.8458,8.2183 -0.0002,9.3833 -0.0002,10.7503 C-0.0002,12.5443 1.4548,14.0003 3.2498,14.0003 L15.6498,14.0003 C18.0528,14.0003 19.9998,12.0523 19.9998,9.6503 C19.9998,7.2943 18.1248,5.3873 15.7868,5.3133 C15.0318,2.2633 12.2838,0.0003 8.9998,0.0003 L8.9998,0.0003 Z" id="Shape" fill="#1D1D33" fill-rule="nonzero"></path>
            </g>
        </g>
        <g id="mostly_clear_night" transform="translate(114.000000, 77.000000)">
            <rect id="Rectangle" x="0" y="0" width="24" height="24"></rect>
            <path d="M15.2554,3.4317 C15.2554,6.7892 17.9771,9.5109 21.3346,9.5109 C21.8108,9.5109 22.2743,9.456 22.719,9.3526 C21.819,11.5837 19.633,13.1584 17.0792,13.1584 C13.7217,13.1584 11,10.4367 11,7.0791 C11,4.1981 13.0043,1.785 15.6946,1.1583 C15.4114,1.8607 15.2554,2.628 15.2554,3.4317 Z" id="Path" fill="#D5DEE8"></path>
            <g id="Group" transform="translate(2.000000, 7.000000)">
                <path d="M3.25,13.5005 C1.7334,13.5005 0.5,12.2671 0.5,10.7505 C0.5,9.624 1.1777,8.6235 2.2266,8.2022 L2.5772,8.0616 L2.5372,7.6861 C2.5137,7.4614 2.5,7.2329 2.5,7.0005 C2.5,3.416 5.416,0.5 9,0.5 C11.9912,0.5 14.583,2.5288 15.3018,5.4331 L15.3926,5.8008 L15.7715,5.8125 C17.8623,5.8789 19.5,7.5649 19.5,9.6504 C19.5,11.7734 17.7725,13.5005 15.6494,13.5005 L3.25,13.5005 Z" id="Path" fill="#FFFFFF"></path>
                <path d="M8.9998,1.0002 C11.7607,1.0002 14.1525,2.8726 14.8161,5.5535 L14.9981,6.2887 L15.7551,6.3127 C17.5746,6.3704 18.9998,7.8364 18.9998,9.6503 C18.9998,11.4975 17.497,13.0003 15.6498,13.0003 L3.2498,13.0003 C2.0091,13.0003 0.9998,11.9909 0.9998,10.7502 C0.9998,9.8292 1.5545,9.0111 2.4128,8.666 L3.1119,8.3849 L3.0344,7.6354 C3.0111,7.4093 2.9997,7.2016 2.9997,7.0002 C2.9998,3.6919 5.6914,1.0002 8.9998,1.0002 M8.9998,0.0002 C5.1338,0.0002 1.9998,3.1333 1.9998,7.0003 C1.9998,7.2504 2.0148,7.4963 2.0398,7.7383 C0.8458,8.2183 -0.0002,9.3834 -0.0002,10.7503 C-0.0002,12.5443 1.4548,14.0004 3.2498,14.0004 L15.6498,14.0004 C18.0528,14.0004 19.9998,12.0523 19.9998,9.6504 C19.9998,7.2943 18.1248,5.3874 15.7868,5.3132 C15.0318,2.2633 12.2838,0.0002 8.9998,0.0002 L8.9998,0.0002 Z" id="Shape" fill="#1D1D33" fill-rule="nonzero"></path>
            </g>
        </g>
        <g id="mostly_cloudy" transform="translate(148.000000, 77.000000)">
            <rect id="Rectangle" x="0" y="0" width="24" height="24"></rect>
            <g id="Group" transform="translate(2.000000, 5.000000)">
                <path d="M3.25,13.5 C1.7334,13.5 0.5,12.2666 0.5,10.7505 C0.5,9.624 1.1777,8.6235 2.2266,8.2022 L2.5762,8.0616 L2.5371,7.686 C2.5137,7.4609 2.5,7.2324 2.5,7.0005 C2.5,3.4165 5.416,0.5005 9,0.5005 C11.9912,0.5005 14.583,2.5293 15.3018,5.4336 L15.3926,5.8013 L15.7715,5.813 C17.8623,5.8794 19.5,7.5645 19.5,9.6504 C19.5,11.773 17.7725,13.5 15.6494,13.5 L3.25,13.5 Z" id="Path" fill="#FFFFFF"></path>
                <path d="M8.9998,1.0003 C11.7607,1.0003 14.1525,2.8727 14.8161,5.5536 L14.9981,6.2888 L15.7552,6.3128 C17.5746,6.3704 18.9998,7.8364 18.9998,9.6503 C18.9998,11.4975 17.497,13.0003 15.6498,13.0003 L3.2498,13.0003 C2.0091,13.0003 0.9998,11.991 0.9998,10.7504 C0.9998,9.8294 1.5545,9.0113 2.4128,8.6662 L3.1119,8.3852 L3.0345,7.6357 C3.0111,7.4094 2.9998,7.2016 2.9998,7.0004 C2.9998,3.6919 5.6914,1.0003 8.9998,1.0003 M8.9998,0.0003 C5.1338,0.0003 1.9998,3.1333 1.9998,7.0004 C1.9998,7.2503 2.0148,7.4962 2.0398,7.7384 C0.8458,8.2184 -0.0002,9.3833 -0.0002,10.7504 C-0.0002,12.5444 1.4548,14.0003 3.2498,14.0003 L15.6498,14.0003 C18.0528,14.0003 19.9998,12.0524 19.9998,9.6503 C19.9998,7.2944 18.1248,5.3873 15.7868,5.3133 C15.0318,2.2634 12.2838,0.0003 8.9998,0.0003 L8.9998,0.0003 Z" id="Shape" fill="#1D1D33" fill-rule="nonzero"></path>
            </g>
        </g>
        <g id="partly_cloudy_day" transform="translate(182.000000, 77.000000)">
            <rect id="Rectangle" x="0" y="0" width="24" height="24"></rect>
            <circle id="Oval" fill="#FFD02F" cx="16.5" cy="9.4999" r="4.5"></circle>
            <g id="Group" transform="translate(2.000000, 5.000000)">
                <path d="M3.25,13.5 C1.7334,13.5 0.5,12.2666 0.5,10.7505 C0.5,9.624 1.1777,8.6235 2.2266,8.2022 L2.5762,8.0616 L2.5371,7.686 C2.5137,7.4609 2.5,7.2324 2.5,7.0005 C2.5,3.4165 5.416,0.5005 9,0.5005 C11.9912,0.5005 14.583,2.5293 15.3018,5.4336 L15.3926,5.8013 L15.7715,5.813 C17.8623,5.8794 19.5,7.5645 19.5,9.6504 C19.5,11.773 17.7725,13.5 15.6494,13.5 L3.25,13.5 Z" id="Path" fill="#FFFFFF"></path>
                <path d="M8.9998,1.0003 C11.7607,1.0003 14.1525,2.8727 14.8161,5.5536 L14.9981,6.2888 L15.7552,6.3128 C17.5746,6.3704 18.9998,7.8364 18.9998,9.6503 C18.9998,11.4975 17.497,13.0003 15.6498,13.0003 L3.2498,13.0003 C2.0091,13.0003 0.9998,11.991 0.9998,10.7504 C0.9998,9.8294 1.5545,9.0113 2.4128,8.6662 L3.1119,8.3852 L3.0345,7.6357 C3.0111,7.4094 2.9998,7.2016 2.9998,7.0004 C2.9998,3.6919 5.6914,1.0003 8.9998,1.0003 M8.9998,0.0003 C5.1338,0.0003 1.9998,3.1334 1.9998,7.0004 C1.9998,7.2503 2.0148,7.4962 2.0398,7.7384 C0.8458,8.2184 -0.0002,9.3833 -0.0002,10.7504 C-0.0002,12.5444 1.4548,14.0003 3.2498,14.0003 L15.6498,14.0003 C18.0528,14.0003 19.9998,12.0524 19.9998,9.6503 C19.9998,7.2944 18.1248,5.3873 15.7868,5.3133 C15.0318,2.2634 12.2838,0.0003 8.9998,0.0003 L8.9998,0.0003 Z" id="Shape" fill="#1D1D33" fill-rule="nonzero"></path>
            </g>
        </g>
        <g id="partly_cloudy_night" transform="translate(12.000000, 111.000000)">
            <rect id="Rectangle" x="0" y="0" width="24" height="24"></rect>
            <path d="M17.4823,5.4185 C17.4823,7.377 19.07,8.9647 21.0285,8.9647 C21.3064,8.9647 21.5768,8.9327 21.8362,8.8722 C21.311,10.1739 20.0358,11.0924 18.5461,11.0924 C16.5877,11.0924 15,9.5047 15,7.5462 C15,5.8655 16.169,4.458 17.7383,4.0925 C17.5733,4.5021 17.4823,4.9497 17.4823,5.4185 Z" id="Path" fill="#D5DEE8"></path>
            <g id="Group" transform="translate(2.000000, 5.000000)">
                <path d="M3.25,13.5 C1.7334,13.5 0.5,12.2666 0.5,10.7505 C0.5,9.624 1.1777,8.6235 2.2266,8.2022 L2.5762,8.0616 L2.5371,7.686 C2.5137,7.4609 2.5,7.2324 2.5,7.0005 C2.5,3.4165 5.416,0.5005 9,0.5005 C11.9912,0.5005 14.583,2.5293 15.3018,5.4336 L15.3926,5.8013 L15.7715,5.813 C17.8623,5.8794 19.5,7.5645 19.5,9.6504 C19.5,11.773 17.7725,13.5 15.6494,13.5 L3.25,13.5 Z" id="Path" fill="#FFFFFF"></path>
                <path d="M8.9998,1.0003 C11.7607,1.0003 14.1525,2.8727 14.8161,5.5536 L14.9981,6.2888 L15.7552,6.3128 C17.5746,6.3704 18.9998,7.8364 18.9998,9.6503 C18.9998,11.4975 17.497,13.0003 15.6498,13.0003 L3.2498,13.0003 C2.0091,13.0003 0.9998,11.991 0.9998,10.7504 C0.9998,9.8294 1.5545,9.0113 2.4128,8.6662 L3.1119,8.3852 L3.0345,7.6357 C3.0111,7.4094 2.9998,7.2016 2.9998,7.0004 C2.9998,3.6919 5.6914,1.0003 8.9998,1.0003 M8.9998,0.0003 C5.1338,0.0003 1.9998,3.1334 1.9998,7.0004 C1.9998,7.2503 2.0148,7.4962 2.0398,7.7384 C0.8458,8.2184 -0.0002,9.3833 -0.0002,10.7504 C-0.0002,12.5444 1.4548,14.0003 3.2498,14.0003 L15.6498,14.0003 C18.0528,14.0003 19.9998,12.0524 19.9998,9.6503 C19.9998,7.2944 18.1248,5.3873 15.7868,5.3133 C15.0318,2.2634 12.2838,0.0003 8.9998,0.0003 L8.9998,0.0003 Z" id="Shape" fill="#1D1D33" fill-rule="nonzero"></path>
            </g>
        </g>
        <g id="rain_heavy" transform="translate(46.000000, 111.000000)">
            <rect id="Rectangle" x="0" y="0" width="24" height="24"></rect>
            <path d="M17.2613,22.1666 L17.2613,22.1666 C17.0061,22.0607 16.8849,21.7683 16.9908,21.5131 L18.6179,17.587 C18.7236,17.3318 19.016,17.2106 19.2714,17.3163 C19.5266,17.4222 19.6476,17.7148 19.5419,17.9699 L17.9148,21.896 C17.8091,22.1513 17.5163,22.2723 17.2613,22.1666 M2.9718,21.897 L4.5989,17.9711 C4.7046,17.7159 4.5835,17.4233 4.3284,17.3176 C4.0732,17.2119 3.7806,17.3329 3.6749,17.5881 L2.0478,21.5142 C1.9419,21.7694 2.0632,22.062 2.3183,22.1677 C2.5734,22.2734 2.8661,22.1524 2.9718,21.897 M6.7075,21.8968 L8.3346,17.9707 C8.4403,17.7155 8.3192,17.4229 8.0641,17.3172 C7.8089,17.2115 7.5163,17.3326 7.4106,17.5877 L5.7835,21.514 C5.6778,21.7692 5.7989,22.0616 6.054,22.1675 C6.3092,22.2731 6.6018,22.1522 6.7075,21.8968 M10.4432,21.8965 L12.0703,17.9704 C12.1762,17.7154 12.0549,17.4228 11.7998,17.3171 C11.5446,17.2112 11.252,17.3325 11.1463,17.5876 L9.5192,21.5137 C9.4135,21.7689 9.5346,22.0615 9.7897,22.1672 C10.0448,22.2729 10.3375,22.1518 10.4432,21.8965 M14.1789,21.8965 L15.8061,17.9702 C15.9118,17.715 15.7906,17.4224 15.5356,17.3167 C15.2802,17.211 14.9877,17.332 14.8821,17.5872 L13.2549,21.5135 C13.1492,21.7685 13.2704,22.0611 13.5254,22.167 C13.7806,22.2725 14.0734,22.1515 14.1789,21.8965 M16.0469,21.8963 L16.3901,21.0674 C16.496,20.8122 16.3749,20.5198 16.1196,20.4139 C15.8644,20.3082 15.572,20.4294 15.4661,20.6844 L15.1229,21.5133 C15.017,21.7685 15.1383,22.0609 15.3934,22.1668 C15.6486,22.2723 15.9412,22.1513 16.0469,21.8963 M12.3112,21.8965 L12.6546,21.0678 C12.7601,20.8126 12.6391,20.52 12.3839,20.4143 C12.1287,20.3084 11.8361,20.4296 11.7304,20.6848 L11.3872,21.5137 C11.2813,21.7687 11.4026,22.0613 11.6577,22.167 C11.9127,22.2727 12.2055,22.1516 12.3112,21.8965 M8.5753,21.8967 L8.9187,21.068 C9.0244,20.813 8.9033,20.5204 8.6482,20.4145 C8.393,20.3088 8.1004,20.43 7.9947,20.6852 L7.6513,21.5139 C7.5456,21.7691 7.6667,22.0617 7.922,22.1674 C8.177,22.2731 8.4696,22.152 8.5753,21.8967 M4.8396,21.8968 L5.183,21.0683 C5.2887,20.8131 5.1675,20.5205 4.9123,20.4148 C4.6573,20.3089 4.3645,20.4302 4.2588,20.6853 L3.9156,21.5142 C3.8099,21.7692 3.931,22.0618 4.1861,22.1677 C4.4415,22.2732 4.7339,22.1522 4.8396,21.8968 M17.0603,19.4508 L17.6741,17.97 C17.7796,17.7148 17.6586,17.4222 17.4034,17.3165 C17.1482,17.2108 16.8556,17.332 16.7501,17.5872 L16.1363,19.068 C16.0306,19.323 16.1518,19.6158 16.4068,19.7213 C16.662,19.8272 16.9548,19.7059 17.0603,19.4508 M13.3246,19.4511 L13.9382,17.9703 C14.0441,17.7151 13.9228,17.4225 13.6677,17.3168 C13.4123,17.2111 13.1199,17.3321 13.0142,17.5873 L12.4006,19.0681 C12.2947,19.3233 12.416,19.616 12.6711,19.7216 C12.9265,19.8275 13.2189,19.7063 13.3246,19.4511 M9.5889,19.4513 L10.2025,17.9705 C10.3082,17.7153 10.1871,17.4227 9.932,17.317 C9.6768,17.2113 9.3842,17.3325 9.2785,17.5875 L8.6649,19.0685 C8.559,19.3235 8.6803,19.6163 8.9354,19.722 C9.1906,19.8277 9.4832,19.7065 9.5889,19.4513 M5.8532,19.4516 L6.4668,17.9708 C6.5725,17.7156 6.4513,17.423 6.1961,17.3173 C5.9411,17.2116 5.6483,17.3327 5.5426,17.5878 L4.9292,19.0686 C4.8235,19.3238 4.9446,19.6165 5.1997,19.7221 C5.4549,19.8281 5.7475,19.7068 5.8532,19.4516" id="Shape" fill="#0072F5"></path>
            <g id="Group" transform="translate(2.000000, 2.000000)">
                <path d="M3.249,13.4995 C1.7324,13.4995 0.499,12.2661 0.499,10.7495 C0.499,9.6235 1.1767,8.623 2.2256,8.2012 L2.5742,8.0611 L2.5361,7.687 C2.5137,7.4614 2.499,7.2324 2.499,6.9995 C2.499,3.4155 5.415,0.4995 8.999,0.4995 C11.9902,0.4995 14.582,2.5283 15.3008,5.4326 L15.3916,5.8003 L15.7705,5.812 C17.8613,5.8784 19.499,7.5635 19.499,9.6494 C19.499,11.7724 17.7724,13.4995 15.6494,13.4995 L3.249,13.4995 Z" id="Path" fill="#FFFFFF"></path>
                <path d="M8.9994,0.9994 C11.7603,0.9994 14.1521,2.8718 14.8157,5.5527 L14.9977,6.2879 L15.7548,6.3118 C17.5742,6.3693 18.9994,7.8354 18.9994,9.6492 C18.9994,11.4965 17.4966,12.9993 15.6494,12.9993 L3.2494,12.9993 C2.0087,12.9993 0.9994,11.99 0.9994,10.7494 C0.9994,9.8284 1.5541,9.0103 2.4124,8.6652 L3.1115,8.3841 L3.0341,7.6346 C3.0108,7.4086 2.9994,7.2009 2.9994,6.9995 C2.9994,3.691 5.691,0.9994 8.9994,0.9994 M8.9994,-0.0006 C5.1334,-0.0006 1.9994,3.1325 1.9994,6.9995 C1.9994,7.2494 2.0144,7.4953 2.0394,7.7374 C0.8454,8.2175 -0.0006,9.3823 -0.0006,10.7495 C-0.0006,12.5434 1.4544,13.9994 3.2494,13.9994 L15.6494,13.9994 C18.0524,13.9994 19.9994,12.0515 19.9994,9.6493 C19.9994,7.2935 18.1244,5.3864 15.7864,5.3124 C15.0314,2.2625 12.2834,-0.0006 8.9994,-0.0006 L8.9994,-0.0006 Z" id="Shape" fill="#1D1D33" fill-rule="nonzero"></path>
            </g>
        </g>
        <g id="rain_light" transform="translate(80.000000, 111.000000)">
            <rect id="Rectangle" x="0" y="0" width="24" height="24"></rect>
            <path d="M11.5342,20.0402 C11.4702,20.0402 11.4052,20.0282 11.3422,20.0021 C11.0872,19.8962 10.9662,19.6031 11.0722,19.3492 L11.5502,18.1942 C11.6562,17.9382 11.9512,17.8192 12.2042,17.9231 C12.4592,18.0292 12.5802,18.3221 12.4742,18.5771 L11.9962,19.7312 C11.9162,19.9241 11.7302,20.0402 11.5342,20.0402 M4.5242,19.7312 L5.0032,18.5762 C5.1082,18.3212 4.9872,18.0281 4.7322,17.9231 C4.4792,17.8172 4.1852,17.9381 4.0792,18.1931 L3.6002,19.3492 C3.4952,19.6042 3.6162,19.8963 3.8712,20.0021 C3.9332,20.0282 3.9982,20.0402 4.0622,20.0402 C4.2582,20.0402 4.4442,19.9241 4.5242,19.7312 M19.4672,19.7312 L19.9462,18.5771 C20.0512,18.3221 19.9302,18.0292 19.6752,17.9231 C19.4222,17.8192 19.1282,17.9381 19.0222,18.1942 L18.5442,19.3492 C18.4382,19.6031 18.5592,19.8963 18.8142,20.0021 C18.8772,20.0282 18.9422,20.0402 19.0052,20.0402 C19.2012,20.0402 19.3882,19.9241 19.4672,19.7312 M8.2602,19.7312 L8.7382,18.5771 C8.8442,18.3221 8.7232,18.0292 8.4682,17.9231 C8.2152,17.8192 7.9212,17.9381 7.8152,18.1942 L7.3362,19.3492 C7.2312,19.6031 7.3522,19.8963 7.6072,20.0021 C7.6692,20.0282 7.7342,20.0402 7.7982,20.0402 C7.9942,20.0402 8.1802,19.9241 8.2602,19.7312 M15.7322,19.7312 L16.2102,18.5771 C16.3162,18.3221 16.1942,18.0292 15.9402,17.9231 C15.6872,17.8192 15.3922,17.9381 15.2862,18.1942 L14.8082,19.3492 C14.7022,19.6031 14.8232,19.8963 15.0782,20.0021 C15.1412,20.0282 15.2062,20.0402 15.2702,20.0402 C15.4652,20.0402 15.6522,19.9241 15.7322,19.7312" id="Shape" fill="#0072F5"></path>
            <g id="Group" transform="translate(2.000000, 2.000000)">
                <path d="M3.25,13.5 C1.7334,13.5 0.5,12.2666 0.5,10.75 C0.5,9.6235 1.1777,8.623 2.2266,8.2017 L2.5772,8.0611 L2.5372,7.6856 C2.5137,7.4609 2.5,7.2324 2.5,7 C2.5,3.416 5.416,0.5 9,0.5 C11.9912,0.5 14.583,2.5288 15.3018,5.4331 L15.3926,5.8008 L15.7715,5.8125 C17.8623,5.8789 19.5,7.5645 19.5,9.6499 C19.5,11.7729 17.7725,13.5 15.6494,13.5 L3.25,13.5 Z" id="Path" fill="#FFFFFF"></path>
                <path d="M8.9999,1 C11.7609,1 14.1526,2.8723 14.8162,5.5532 L14.9982,6.2884 L15.7552,6.3124 C17.5747,6.37 18.9999,7.8361 18.9999,9.6499 C18.9999,11.4971 17.4971,12.9999 15.6499,12.9999 L3.2499,12.9999 C2.0092,12.9999 0.9999,11.9905 0.9999,10.7499 C0.9999,9.8289 1.5545,9.0109 2.4129,8.6658 L3.1121,8.3847 L3.0346,7.6353 C3.0113,7.4094 2.9999,7.2015 2.9999,7 C2.9999,3.6917 5.6915,1 8.9999,1 M8.9999,0 C5.1339,0 1.9999,3.1331 1.9999,7 C1.9999,7.25 2.0149,7.4961 2.0399,7.738 C0.8459,8.218 -0.0001,9.383 -0.0001,10.75 C-0.0001,12.5439 1.4549,14 3.2499,14 L15.6499,14 C18.0529,14 19.9999,12.052 19.9999,9.65 C19.9999,7.2939 18.1249,5.3871 15.7869,5.313 C15.0319,2.2629 12.2839,0 8.9999,0 L8.9999,0 Z" id="Shape" fill="#1D1D33" fill-rule="nonzero"></path>
            </g>
        </g>
        <g id="rain" transform="translate(114.000000, 111.000000)">
            <rect id="Rectangle" x="0" y="0" width="24" height="24"></rect>
            <g id="Group" transform="translate(2.000000, 2.000000)">
                <path d="M3.25,13.5 C1.7334,13.5 0.5,12.2666 0.5,10.75 C0.5,9.6235 1.1777,8.623 2.2266,8.2017 L2.5772,8.0611 L2.5372,7.6856 C2.5137,7.4609 2.5,7.2324 2.5,7 C2.5,3.416 5.416,0.5 9,0.5 C11.9912,0.5 14.583,2.5288 15.3018,5.4331 L15.3926,5.8008 L15.7715,5.8125 C17.8623,5.8789 19.5,7.5645 19.5,9.6499 C19.5,11.7729 17.7725,13.5 15.6494,13.5 L3.25,13.5 Z" id="Path" fill="#FFFFFF"></path>
                <path d="M8.9998,1 C11.7608,1 14.1525,2.8724 14.8161,5.5532 L14.9981,6.2886 L15.7552,6.3125 C17.5746,6.37 18.9998,7.8361 18.9998,9.65 C18.9998,11.4972 17.497,13 15.6498,13 L3.2498,13 C2.0091,13 0.9998,11.9906 0.9998,10.75 C0.9998,9.829 1.5544,9.011 2.4128,8.6659 L3.1119,8.3849 L3.0345,7.6353 C3.0111,7.4091 2.9998,7.2013 2.9998,7 C2.9998,3.6917 5.6914,1 8.9998,1 M8.9998,0 C5.1338,0 1.9998,3.1331 1.9998,7 C1.9998,7.25 2.0148,7.496 2.0398,7.738 C0.8458,8.218 -0.0002,9.383 -0.0002,10.75 C-0.0002,12.5439 1.4548,14 3.2498,14 L15.6498,14 C18.0528,14 19.9998,12.052 19.9998,9.65 C19.9998,7.2939 18.1248,5.3869 15.7868,5.313 C15.0318,2.2629 12.2838,0 8.9998,0 L8.9998,0 Z" id="Shape" fill="#1D1D33" fill-rule="nonzero"></path>
            </g>
            <path d="M11.5341978,19.04 C11.4697,19.04 11.4053,19.0278 11.3428,19.0019 C11.0879,18.8964 10.9668,18.6035 11.0723,18.3486 L11.5508,17.1938 C11.6572,16.9379 11.9522,16.8188 12.2041,16.9233 C12.459,17.0288 12.5801,17.3217 12.4746,17.5766 L11.9961,18.7314 C11.916,18.9238 11.7305,19.04 11.5341978,19.04 Z M8.2598,18.7314 L8.7383,17.5766 C8.8438,17.3217 8.7227,17.0287 8.4678,16.9233 C8.2149,16.8188 7.9209,16.9379 7.8145,17.1938 L7.336,18.3486 C7.2305,18.6035 7.3516,18.8965 7.6065,19.0019 C7.669,19.0278 7.7335,19.04 7.79789776,19.04 C7.9941,19.04 8.1797,18.9238 8.2598,18.7314 Z M9.4062,21.6021 L9.8847,20.4473 C9.9902,20.1924 9.8691,19.8994 9.6142,19.794 C9.3603,19.689 9.0673,19.8091 8.9609,20.0645 L8.4824,21.2193 C8.3769,21.4742 8.498,21.7672 8.7529,21.8726 C8.8154,21.8985 8.8799,21.9107 8.94429776,21.9107 C9.1406,21.9106 9.3262,21.7944 9.4062,21.6021 Z M5.6631,21.6016 L6.1406,20.4468 C6.2461,20.1919 6.125,19.8994 5.8701,19.794 C5.6152,19.688 5.3213,19.8096 5.2168,20.065 L4.7393,21.2198 C4.6338,21.4747 4.7549,21.7672 5.0098,21.8726 C5.0723,21.8985 5.1377,21.9107 5.20119776,21.9107 C5.3975,21.9106 5.584,21.7944 5.6631,21.6016 Z M4.5244,18.7314 L5.0029,17.5761 C5.1084,17.3207 4.9873,17.0282 4.7324,16.9228 C4.4765,16.8164 4.1855,16.9384 4.0791,17.1933 L3.6006,18.3486 C3.4951,18.604 3.6162,18.8965 3.8711,19.0019 C3.9336,19.0278 3.999,19.04 4.06249776,19.04 C4.2588,19.04 4.4443,18.9238 4.5244,18.7314 Z M19.4678,18.7314 L19.9463,17.5766 C20.0518,17.3217 19.9307,17.0287 19.6758,16.9233 C19.4229,16.8188 19.1289,16.9379 19.0225,17.1938 L18.544,18.3486 C18.4385,18.6035 18.5596,18.8965 18.8145,19.0019 C18.877,19.0278 18.9415,19.04 19.0058978,19.04 C19.2021,19.04 19.3877,18.9238 19.4678,18.7314 Z M15.7314,18.7314 L16.2099,17.5766 C16.3154,17.3217 16.1943,17.0287 15.9394,16.9233 C15.6874,16.8188 15.3925,16.9379 15.2861,17.1938 L14.8076,18.3486 C14.7021,18.6035 14.8232,18.8965 15.0781,19.0019 C15.1406,19.0278 15.2051,19.04 15.2694978,19.04 C15.4658,19.04 15.6514,18.9238 15.7314,18.7314 Z M16.8945,21.6016 L17.372,20.4468 C17.4775,20.1919 17.3564,19.8994 17.1015,19.794 C16.8466,19.688 16.5536,19.8096 16.4482,20.065 L15.9707,21.2198 C15.8652,21.4747 15.9863,21.7672 16.2412,21.8726 C16.3037,21.8985 16.3691,21.9107 16.4325978,21.9107 C16.6289,21.9106 16.8154,21.7944 16.8945,21.6016 Z M13.1504,21.6021 L13.6289,20.4473 C13.7344,20.1924 13.6133,19.8994 13.3584,19.794 C13.1055,19.689 12.8115,19.8091 12.7051,20.0645 L12.2266,21.2193 C12.1211,21.4742 12.2422,21.7672 12.4971,21.8726 C12.5596,21.8985 12.6241,21.9107 12.6884978,21.9107 C12.8848,21.9106 13.0703,21.7944 13.1504,21.6021 Z" id="Shape" fill="#0072F5"></path>
        </g>
        <g id="snow_heavy" transform="translate(148.000000, 111.000000)">
            <rect id="Rectangle" x="0" y="0.0001" width="24" height="24"></rect>
            <g id="Group" transform="translate(2.000000, 0.000000)">
                <path d="M3.25,13.5001 C1.7334,13.5001 0.5,12.2667 0.5,10.7501 C0.5,9.6241 1.1777,8.6236 2.2266,8.2018 L2.5772,8.0612 L2.5372,7.6857 C2.5137,7.461 2.5,7.2325 2.5,7.0001 C2.5,3.4161 5.416,0.5001 9,0.5001 C11.9912,0.5001 14.583,2.5289 15.3018,5.4332 L15.3926,5.8009 L15.7715,5.8126 C17.8623,5.879 19.5,7.5645 19.5,9.65 C19.5,11.773 17.7725,13.5001 15.6494,13.5001 L3.25,13.5001 Z" id="Path" fill="#FFFFFF"></path>
                <path d="M8.9999,1 C11.7608,1 14.1526,2.8724 14.8162,5.5533 L14.9982,6.2885 L15.7552,6.3125 C17.5747,6.3702 18.9999,7.8362 18.9999,9.6501 C18.9999,11.4973 17.4971,13.0001 15.6499,13.0001 L3.2499,13.0001 C2.0092,13.0001 0.9999,11.9907 0.9999,10.75 C0.9999,9.829 1.5545,9.0109 2.4129,8.6658 L3.1121,8.3847 L3.0346,7.6353 C3.0113,7.4094 2.9999,7.2017 2.9999,7.0001 C2.9999,3.6917 5.6915,1 8.9999,1 M8.9999,0 C5.1339,0 1.9999,3.1331 1.9999,7.0001 C1.9999,7.2502 2.0149,7.4962 2.0399,7.7381 C0.8459,8.2181 -0.0001,9.3832 -0.0001,10.7501 C-0.0001,12.5441 1.4549,14.0002 3.2499,14.0002 L15.6499,14.0002 C18.0529,14.0002 19.9999,12.0521 19.9999,9.6502 C19.9999,7.2941 18.1249,5.3872 15.7869,5.313 C15.0319,2.2631 12.2839,0 8.9999,0 L8.9999,0 Z" id="Shape" fill="#1D1D33" fill-rule="nonzero"></path>
            </g>
            <path d="M6.5029,18.2862 C6.4111,18.4464 6.2422,18.5362 6.0703,18.5362 C5.9853,18.5362 5.8994,18.5147 5.8203,18.4693 L5.0029,17.9974 L5.0029,18.9409 C5.0029,19.2173 4.7793,19.4409 4.5029,19.4409 C4.2265,19.4409 4.0029,19.2173 4.0029,18.9409 L4.0029,17.9979 L3.1865,18.4692 C3.1074,18.5146 3.0215,18.5361 2.9365,18.5361 C2.7646,18.5361 2.5957,18.4463 2.5039,18.2861 C2.3652,18.0468 2.4473,17.7412 2.6865,17.603 L3.5032,17.1316 L2.6865,16.6602 C2.4472,16.522 2.3652,16.2164 2.5039,15.9771 C2.6416,15.7383 2.9482,15.6578 3.1865,15.794 L4.0029,16.2653 L4.0029,15.3223 C4.0029,15.0459 4.2265,14.8223 4.5029,14.8223 C4.7793,14.8223 5.0029,15.0459 5.0029,15.3223 L5.0029,16.2658 L5.8203,15.7939 C6.0586,15.6562 6.3652,15.7377 6.5029,15.977 C6.6416,16.2163 6.5595,16.5219 6.3203,16.6601 L5.5036,17.1315 L6.3203,17.6029 C6.5596,17.7413 6.6416,18.0469 6.5029,18.2862 Z M21.3135,17.6031 L20.4968,17.1317 L21.3135,16.6603 C21.5528,16.5221 21.6348,16.2165 21.4961,15.9772 C21.3584,15.7379 21.0518,15.6564 20.8135,15.7941 L19.9971,16.2654 L19.9971,15.3224 C19.9971,15.046 19.7735,14.8224 19.4971,14.8224 C19.2207,14.8224 18.9971,15.046 18.9971,15.3224 L18.9971,16.2659 L18.1797,15.794 C17.9424,15.6578 17.6348,15.7383 17.4971,15.9771 C17.3584,16.2164 17.4405,16.522 17.6797,16.6602 L18.4964,17.1316 L17.6797,17.603 C17.4404,17.7412 17.3584,18.0468 17.4971,18.2861 C17.5889,18.4463 17.7578,18.5361 17.9297,18.5361 C18.0147,18.5361 18.1006,18.5146 18.1797,18.4692 L18.9971,17.9973 L18.9971,18.9408 C18.9971,19.2172 19.2207,19.4408 19.4971,19.4408 C19.7735,19.4408 19.9971,19.2172 19.9971,18.9408 L19.9971,17.9978 L20.8135,18.4691 C20.8926,18.5145 20.9785,18.536 21.0635,18.536 C21.2354,18.536 21.4043,18.4462 21.4961,18.286 C21.6348,18.0469 21.5527,17.7413 21.3135,17.6031 Z M13.8164,17.6031 L13,17.1317 L13.8164,16.6603 C14.0557,16.5221 14.1377,16.2165 13.999,15.9772 C13.8613,15.7365 13.5547,15.6564 13.3164,15.7941 L12.5,16.2654 L12.5,15.3223 C12.5,15.0459 12.2764,14.8223 12,14.8223 C11.7236,14.8223 11.5,15.0459 11.5,15.3223 L11.5,16.2654 L10.6836,15.794 C10.4453,15.6578 10.1387,15.7369 10.001,15.9771 C9.8623,16.2164 9.9444,16.522 10.1836,16.6602 L11,17.1317 L10.1836,17.6031 C9.9443,17.7413 9.8623,18.0469 10.001,18.2862 C10.0928,18.4468 10.2617,18.5362 10.4336,18.5362 C10.5186,18.5362 10.6045,18.5147 10.6836,18.4693 L11.5,17.9979 L11.5,18.941 C11.5,19.2174 11.7236,19.441 12,19.441 C12.2764,19.441 12.5,19.2174 12.5,18.941 L12.5,17.9979 L13.3164,18.4693 C13.3955,18.5147 13.4814,18.5362 13.5664,18.5362 C13.7383,18.5362 13.9072,18.4468 13.999,18.2862 C14.1377,18.0469 14.0557,17.7413 13.8164,17.6031 Z M10.251,19.8306 C10.1143,19.5909 9.8076,19.5103 9.5684,19.6475 L8.752,20.1188 L8.752,19.1758 C8.752,18.8994 8.5284,18.6758 8.252,18.6758 C7.9756,18.6758 7.752,18.8994 7.752,19.1758 L7.752,20.1193 L6.9346,19.6474 C6.6963,19.5117 6.3897,19.5917 6.252,19.8305 C6.1133,20.0698 6.1954,20.3754 6.4346,20.5136 L7.2513,20.985 L6.4346,21.4564 C6.1953,21.5946 6.1133,21.9002 6.252,22.1395 C6.3438,22.2997 6.5127,22.3895 6.6846,22.3895 C6.7696,22.3895 6.8555,22.368 6.9346,22.3226 L7.752,21.851 L7.752,22.7945 C7.752,23.0709 7.9756,23.2945 8.252,23.2945 C8.5284,23.2945 8.752,23.0709 8.752,22.7945 L8.752,21.8515 L9.5684,22.3228 C9.6475,22.3682 9.7334,22.3897 9.8184,22.3897 C9.9903,22.3897 10.1592,22.2999 10.251,22.1397 C10.3897,21.9004 10.3076,21.5948 10.0684,21.4566 L9.2517,20.9852 L10.0684,20.5138 C10.3076,20.3755 10.3896,20.0699 10.251,19.8306 Z M17.748,19.8306 C17.6103,19.5909 17.3046,19.5103 17.0654,19.6475 L16.248,20.1194 L16.248,19.1759 C16.248,18.8995 16.0244,18.6759 15.748,18.6759 C15.4716,18.6759 15.248,18.8995 15.248,19.1759 L15.248,20.1189 L14.4316,19.6476 C14.1923,19.5119 13.8867,19.5919 13.749,19.8307 C13.6103,20.07 13.6924,20.3756 13.9316,20.5138 L14.7483,20.9852 L13.9316,21.4566 C13.6923,21.5948 13.6103,21.9004 13.749,22.1397 C13.8408,22.2999 14.0097,22.3897 14.1816,22.3897 C14.2666,22.3897 14.3525,22.3682 14.4316,22.3228 L15.248,21.8515 L15.248,22.7945 C15.248,23.0709 15.4716,23.2945 15.748,23.2945 C16.0244,23.2945 16.248,23.0709 16.248,22.7945 L16.248,21.851 L17.0654,22.3229 C17.1445,22.3683 17.2304,22.3898 17.3154,22.3898 C17.4873,22.3898 17.6562,22.3 17.748,22.1398 C17.8867,21.9005 17.8046,21.5949 17.5654,21.4567 L16.7487,20.9853 L17.5654,20.5139 C17.8047,20.3755 17.8867,20.0699 17.748,19.8306 Z" id="Shape" fill="#0072F5" fill-rule="nonzero"></path>
        </g>
        <g id="snow_light" transform="translate(182.000000, 111.000000)">
            <rect id="Rectangle" x="0" y="0" width="24" height="24"></rect>
            <g id="Group" transform="translate(2.000000, 2.000000)">
                <path d="M3.25,13.5 C1.7334,13.5 0.5,12.2666 0.5,10.75 C0.5,9.624 1.1777,8.6235 2.2266,8.2017 L2.5772,8.0611 L2.5372,7.6856 C2.5137,7.4609 2.5,7.2324 2.5,7 C2.5,3.416 5.416,0.5 9,0.5 C11.9912,0.5 14.583,2.5288 15.3018,5.4331 L15.3926,5.8008 L15.7715,5.8125 C17.8623,5.8789 19.5,7.5645 19.5,9.6499 C19.5,11.7729 17.7725,13.5 15.6494,13.5 L3.25,13.5 Z" id="Path" fill="#FFFFFF"></path>
                <path d="M8.9999,0.9999 C11.7608,0.9999 14.1526,2.8723 14.8162,5.5532 L14.9982,6.2884 L15.7552,6.3124 C17.5747,6.3701 18.9999,7.8361 18.9999,9.65 C18.9999,11.4972 17.4971,13 15.6499,13 L3.2499,13 C2.0092,13 0.9999,11.9906 0.9999,10.7499 C0.9999,9.8289 1.5545,9.0108 2.4129,8.6657 L3.1121,8.3846 L3.0346,7.6352 C3.0113,7.4094 2.9999,7.2016 2.9999,7 C2.9999,3.6916 5.6915,0.9999 8.9999,0.9999 M8.9999,-0.0001 C5.1339,-0.0001 1.9999,3.133 1.9999,7 C1.9999,7.2501 2.0149,7.4961 2.0399,7.738 C0.8459,8.218 -0.0001,9.3831 -0.0001,10.75 C-0.0001,12.544 1.4549,14.0001 3.2499,14.0001 L15.6499,14.0001 C18.0529,14.0001 19.9999,12.052 19.9999,9.6501 C19.9999,7.294 18.1249,5.3871 15.7869,5.3129 C15.0319,2.263 12.2839,-0.0001 8.9999,-0.0001 L8.9999,-0.0001 Z" id="Shape" fill="#1D1D33" fill-rule="nonzero"></path>
            </g>
            <path d="M13.8164,20.603 L13,20.1316 L13.8164,19.6602 C14.0557,19.522 14.1377,19.2164 13.999,18.9771 C13.8613,18.7364 13.5547,18.6558 13.3164,18.794 L12.5,19.2654 L12.5,18.3223 C12.5,18.0459 12.2764,17.8223 12,17.8223 C11.7236,17.8223 11.5,18.0459 11.5,18.3223 L11.5,19.2654 L10.6836,18.794 C10.4453,18.6573 10.1387,18.7374 10.001,18.9771 C9.8623,19.2164 9.9444,19.522 10.1836,19.6602 L11,20.1316 L10.1836,20.603 C9.9443,20.7412 9.8623,21.0468 10.001,21.2861 C10.0928,21.4467 10.2617,21.5361 10.4336,21.5361 C10.5186,21.5361 10.6045,21.5146 10.6836,21.4692 L11.5,20.9978 L11.5,21.9409 C11.5,22.2173 11.7236,22.4409 12,22.4409 C12.2764,22.4409 12.5,22.2173 12.5,21.9409 L12.5,20.9978 L13.3164,21.4692 C13.3955,21.5146 13.4814,21.5361 13.5664,21.5361 C13.7383,21.5361 13.9072,21.4467 13.999,21.2861 C14.1377,21.0469 14.0557,20.7412 13.8164,20.603 Z" id="Path" fill="#0072F5" fill-rule="nonzero"></path>
        </g>
        <g id="snow" transform="translate(12.000000, 145.000000)">
            <rect id="Rectangle" x="0" y="0" width="24" height="24"></rect>
            <g id="Group" transform="translate(2.000000, 2.000000)">
                <path d="M3.25,13.5 C1.7334,13.5 0.5,12.2666 0.5,10.75 C0.5,9.624 1.1777,8.6235 2.2266,8.2017 L2.5772,8.0611 L2.5372,7.6856 C2.5137,7.4609 2.5,7.2324 2.5,7 C2.5,3.416 5.416,0.5 9,0.5 C11.9912,0.5 14.583,2.5288 15.3018,5.4331 L15.3926,5.8008 L15.7715,5.8125 C17.8623,5.8789 19.5,7.5645 19.5,9.6499 C19.5,11.7729 17.7725,13.5 15.6494,13.5 L3.25,13.5 Z" id="Path" fill="#FFFFFF"></path>
                <path d="M8.9999,0.9999 C11.7608,0.9999 14.1526,2.8723 14.8162,5.5532 L14.9982,6.2884 L15.7552,6.3124 C17.5747,6.3701 18.9999,7.8361 18.9999,9.65 C18.9999,11.4972 17.4971,13 15.6499,13 L3.2499,13 C2.0092,13 0.9999,11.9906 0.9999,10.7499 C0.9999,9.8289 1.5545,9.0108 2.4129,8.6657 L3.1121,8.3846 L3.0346,7.6352 C3.0113,7.4094 2.9999,7.2016 2.9999,7 C2.9999,3.6916 5.6915,0.9999 8.9999,0.9999 M8.9999,-0.0001 C5.1339,-0.0001 1.9999,3.133 1.9999,7 C1.9999,7.2501 2.0149,7.4961 2.0399,7.738 C0.8459,8.218 -0.0001,9.3831 -0.0001,10.75 C-0.0001,12.544 1.4549,14.0001 3.2499,14.0001 L15.6499,14.0001 C18.0529,14.0001 19.9999,12.052 19.9999,9.6501 C19.9999,7.294 18.1249,5.3871 15.7869,5.3129 C15.0319,2.263 12.2839,-0.0001 8.9999,-0.0001 L8.9999,-0.0001 Z" id="Shape" fill="#1D1D33" fill-rule="nonzero"></path>
            </g>
            <path d="M6.3198,19.6601 L5.5031,20.1315 L6.3198,20.6029 C6.5591,20.7411 6.6411,21.0467 6.5024,21.286 C6.4106,21.4462 6.2417,21.536 6.0698,21.536 C5.9848,21.536 5.8989,21.5145 5.8198,21.4691 L5.0034,20.9978 L5.0034,21.9408 C5.0034,22.2172 4.7798,22.4408 4.5034,22.4408 C4.227,22.4408 4.0034,22.2172 4.0034,21.9408 L4.0034,20.9973 L3.186,21.4692 C3.1069,21.5146 3.021,21.5361 2.936,21.5361 C2.7641,21.5361 2.5952,21.4463 2.5034,21.2861 C2.3647,21.0468 2.4468,20.7412 2.686,20.603 L3.5027,20.1316 L2.686,19.6601 C2.4467,19.5219 2.3647,19.2163 2.5034,18.977 C2.6411,18.7382 2.9477,18.6567 3.186,18.7939 L4.0034,19.2658 L4.0034,18.3223 C4.0034,18.0459 4.227,17.8223 4.5034,17.8223 C4.7798,17.8223 5.0034,18.0459 5.0034,18.3223 L5.0034,19.2653 L5.8198,18.794 C6.0581,18.6553 6.3647,18.7374 6.5024,18.9771 C6.6411,19.2163 6.5591,19.5219 6.3198,19.6601 Z M21.314,20.603 L20.4973,20.1316 L21.314,19.6602 C21.5533,19.522 21.6353,19.2164 21.4966,18.9771 C21.3589,18.7374 21.0513,18.6553 20.814,18.794 L19.9966,19.2659 L19.9966,18.3224 C19.9966,18.046 19.773,17.8224 19.4966,17.8224 C19.2202,17.8224 18.9966,18.046 18.9966,18.3224 L18.9966,19.2654 L18.1802,18.7941 C17.9419,18.6569 17.6353,18.7384 17.4976,18.9772 C17.3589,19.2165 17.441,19.5221 17.6802,19.6603 L18.4969,20.1317 L17.6802,20.6031 C17.4409,20.7413 17.3589,21.0469 17.4976,21.2862 C17.5894,21.4464 17.7583,21.5362 17.9302,21.5362 C18.0152,21.5362 18.1011,21.5147 18.1802,21.4693 L18.9966,20.998 L18.9966,21.941 C18.9966,22.2174 19.2202,22.441 19.4966,22.441 C19.773,22.441 19.9966,22.2174 19.9966,21.941 L19.9966,20.9975 L20.814,21.4694 C20.8931,21.5148 20.979,21.5363 21.064,21.5363 C21.2359,21.5363 21.4048,21.4465 21.4966,21.2863 C21.6352,21.0468 21.5532,20.7412 21.314,20.603 Z M13.9995,18.977 C13.8618,18.7373 13.5552,18.6552 13.3169,18.7939 L12.5005,19.2652 L12.5005,18.3222 C12.5005,18.0458 12.2769,17.8222 12.0005,17.8222 C11.7241,17.8222 11.5005,18.0458 11.5005,18.3222 L11.5005,19.2657 L10.6831,18.7938 C10.4448,18.6566 10.1382,18.7381 10.0005,18.9769 C9.8618,19.2162 9.9439,19.5218 10.1831,19.66 L10.9998,20.1314 L10.1831,20.6028 C9.9438,20.741 9.8618,21.0466 10.0005,21.2859 C10.0923,21.4461 10.2612,21.5359 10.4331,21.5359 C10.5181,21.5359 10.604,21.5144 10.6831,21.469 L11.5005,20.9971 L11.5005,21.9406 C11.5005,22.217 11.7241,22.4406 12.0005,22.4406 C12.2769,22.4406 12.5005,22.217 12.5005,21.9406 L12.5005,20.9976 L13.3169,21.4689 C13.396,21.5143 13.4819,21.5358 13.5669,21.5358 C13.7388,21.5358 13.9077,21.446 13.9995,21.2858 C14.1382,21.0465 14.0561,20.7409 13.8169,20.6027 L13.0002,20.1313 L13.8169,19.6599 C14.0561,19.5219 14.1382,19.2163 13.9995,18.977 Z" id="Shape" fill="#0072F5" fill-rule="nonzero"></path>
        </g>
        <g id="tstorm-copy" transform="translate(46.000000, 145.000000)">
            <rect id="Rectangle" x="0" y="0" width="24" height="24"></rect>
            <path d="M17.2667,22.1674 L17.2667,22.1674 C17.0115,22.0615 16.8903,21.7691 16.9962,21.5139 L18.6233,17.5878 C18.729,17.3326 19.0214,17.2114 19.2768,17.3171 C19.532,17.423 19.653,17.7156 19.5473,17.9707 L17.9202,21.8968 C17.8145,22.152 17.5217,22.2731 17.2667,22.1674 M2.9772,21.8977 L4.6043,17.9717 C4.71,17.7165 4.5889,17.4239 4.3338,17.3182 C4.0786,17.2125 3.786,17.3336 3.6803,17.5887 L2.0532,21.5148 C1.9473,21.77 2.0686,22.0626 2.3237,22.1683 C2.5789,22.2741 2.8715,22.1531 2.9772,21.8977 M6.7129,21.8975 L8.34,17.9714 C8.4457,17.7162 8.3246,17.4236 8.0695,17.3179 C7.8143,17.2122 7.5217,17.3333 7.416,17.5884 L5.7889,21.5147 C5.6832,21.7699 5.8043,22.0623 6.0594,22.1682 C6.3146,22.2738 6.6072,22.1529 6.7129,21.8975 M14.1843,21.8972 L15.8115,17.9709 C15.9172,17.7157 15.796,17.4231 15.541,17.3174 C15.2856,17.2117 14.9931,17.3328 14.8875,17.5879 L13.2603,21.5142 C13.1546,21.7692 13.2758,22.0618 13.5308,22.1677 C13.786,22.2732 14.0788,22.1522 14.1843,21.8972 M16.0522,21.897 L16.3954,21.0681 C16.5013,20.8129 16.3802,20.5205 16.1249,20.4146 C15.8697,20.3089 15.5773,20.4301 15.4714,20.6851 L15.1282,21.514 C15.0223,21.7692 15.1436,22.0616 15.3987,22.1675 C15.6539,22.2731 15.9465,22.152 16.0522,21.897 M8.5807,21.8973 L8.9241,21.0686 C9.0298,20.8136 8.9087,20.521 8.6536,20.4151 C8.3984,20.3094 8.1058,20.4306 8.0001,20.6858 L7.6567,21.5145 C7.551,21.7697 7.6721,22.0623 7.9274,22.168 C8.1824,22.2738 8.4749,22.1527 8.5807,21.8973 M4.8449,21.8975 L5.1883,21.069 C5.294,20.8138 5.1728,20.5212 4.9176,20.4155 C4.6626,20.3096 4.3698,20.4309 4.2641,20.686 L3.9209,21.5149 C3.8152,21.7699 3.9363,22.0625 4.1914,22.1684 C4.4468,22.2739 4.7392,22.1529 4.8449,21.8975 M17.0657,19.4515 L17.6795,17.9707 C17.785,17.7155 17.664,17.4229 17.4088,17.3172 C17.1536,17.2115 16.861,17.3327 16.7555,17.5879 L16.1417,19.0687 C16.036,19.3237 16.1572,19.6165 16.4122,19.722 C16.6674,19.8279 16.9602,19.7066 17.0657,19.4515 M9.5943,19.452 L10.2079,17.9712 C10.3136,17.716 10.1925,17.4234 9.9374,17.3177 C9.6822,17.212 9.3896,17.3332 9.2839,17.5882 L8.6703,19.0691 C8.5644,19.3241 8.6857,19.6169 8.9408,19.7226 C9.196,19.8284 9.4886,19.7072 9.5943,19.452 M5.8586,19.4523 L6.4722,17.9715 C6.5779,17.7163 6.4567,17.4237 6.2015,17.318 C5.9465,17.2123 5.6537,17.3334 5.548,17.5885 L4.9346,19.0693 C4.8289,19.3245 4.95,19.6172 5.2051,19.7228 C5.4603,19.8288 5.7529,19.7075 5.8586,19.4523" id="Shape" fill="#0072F5"></path>
            <path d="M20.8403,5.1745 C20.274,2.778 18.213,1.0001 15.75,1.0001 C12.8505,1.0001 10.5,3.4617 10.5,6.5 C10.5,6.6964 10.5113,6.8898 10.53,7.0799 C9.6345,7.4569 9,8.3723 9,9.4465 C9,10.8559 10.0913,12 11.4375,12 L20.7375,12 C22.5398,12 24,10.4695 24,8.5821 C24,6.7309 22.5937,5.2327 20.8403,5.1745" id="Path" fill="#E5E5E5"></path>
            <g id="Group" transform="translate(2.000000, 2.000000)">
                <path d="M3.25,13.5 C1.7334,13.5 0.5,12.2666 0.5,10.7505 C0.5,9.624 1.1777,8.6235 2.2266,8.2022 L2.5762,8.0616 L2.5371,7.686 C2.5137,7.4609 2.5,7.2324 2.5,7.0005 C2.5,3.4165 5.416,0.5005 9,0.5005 C11.9912,0.5005 14.583,2.5293 15.3018,5.4336 L15.3926,5.8013 L15.7715,5.813 C17.8623,5.8794 19.5,7.5645 19.5,9.6504 C19.5,11.773 17.7725,13.5 15.6494,13.5 L3.25,13.5 Z" id="Path" fill="#FFFFFF"></path>
                <path d="M8.9998,1.0003 C11.7607,1.0003 14.1525,2.8727 14.8161,5.5536 L14.9981,6.2889 L15.7552,6.3128 C17.5747,6.3703 18.9998,7.8363 18.9998,9.6502 C18.9998,11.4974 17.497,13.0002 15.6498,13.0002 L3.2498,13.0002 C2.0091,13.0002 0.9998,11.9909 0.9998,10.7503 C0.9998,9.8293 1.5545,9.0112 2.4128,8.6661 L3.1119,8.3851 L3.0345,7.6356 C3.0111,7.4094 2.9998,7.2015 2.9998,7.0004 C2.9998,3.6919 5.6914,1.0003 8.9998,1.0003 M8.9998,0.0003 C5.1338,0.0003 1.9998,3.1334 1.9998,7.0004 C1.9998,7.2503 2.0148,7.4962 2.0398,7.7384 C0.8458,8.2184 -0.0002,9.3833 -0.0002,10.7504 C-0.0002,12.5444 1.4548,14.0003 3.2498,14.0003 L15.6498,14.0003 C18.0528,14.0003 19.9998,12.0524 19.9998,9.6503 C19.9998,7.2945 18.1248,5.3873 15.7868,5.3134 C15.0318,2.2634 12.2838,0.0003 8.9998,0.0003 L8.9998,0.0003 Z" id="Shape" fill="#1D1D33" fill-rule="nonzero"></path>
            </g>
            <path d="M12.6419,13.6998 L15.6377,13.6998 C16.1585,13.6998 16.474,14.2748 16.1946,14.7142 L11.4615,22.1547 C11.2988,22.4102 10.9833,22.5223 10.6958,22.4265 C10.5728,22.3773 10.5728,22.3773 10.4636,22.2977 C10.2885,22.1518 10.201,21.9259 10.2322,21.7002 L10.7782,17.7467 L10.8776,17.0001 L8.3615,17.0001 C7.9569,17.0001 7.6475,16.6394 7.7091,16.2397 L8.6239,10.2992 C8.6735,9.9773 8.9505,9.7398 9.2763,9.7398 L12.5249,9.7398 C12.9329,9.7398 13.2431,10.1063 13.1757,10.5088 L12.6419,13.6998 Z" id="Path" fill="#FFD02F"></path>
        </g>
        <g id="powered_by_climacell_black" transform="translate(88.000000, 151.000000)" fill-rule="nonzero">
            <g id="brand/climacell-logo-full-colored" transform="translate(39.000000, 0.000000)">
                <path d="M70.7372973,10.1914286 L71.824,10.1914286 L71.824,0 L70.7372973,0 L70.7372973,10.1914286 Z M66.7143784,10.1914286 L67.8010811,10.1914286 L67.8010811,0 L66.7143784,0 L66.7143784,10.1914286 Z M59.0802162,6.231 L62.8462703,6.231 C62.8462703,5.36057143 62.7035676,4.74557143 62.419027,4.38557143 C62.1340541,4.02642857 61.6730811,3.84642857 61.0356757,3.84642857 C60.3883243,3.84642857 59.9031351,4.03585714 59.5796757,4.41428571 C59.2562162,4.79314286 59.0892973,5.39871429 59.0802162,6.231 L59.0802162,6.231 Z M63.2376216,9.31157143 L63.6575135,9.26871429 L63.6869189,10.1061429 C63.136,10.182 62.6265946,10.2385714 62.1587027,10.2767143 C61.6899459,10.314 61.2579459,10.3332857 60.8618378,10.3332857 C59.8188108,10.3332857 59.0802162,10.0375714 58.6456216,9.44614286 C58.211027,8.85471429 57.9935135,7.93457143 57.9935135,6.68528571 C57.9935135,4.197 59.0023784,2.95242857 61.0214054,2.95242857 C62.0060541,2.95242857 62.7381622,3.21985714 63.216,3.75428571 C63.6938378,4.28914286 63.932973,5.12871429 63.932973,6.27385714 L63.8745946,7.08257143 L59.0944865,7.08257143 C59.0944865,7.87757143 59.2393514,8.46214286 59.5290811,8.83585714 C59.8188108,9.20957143 60.3256216,9.39642857 61.0499459,9.39642857 C61.7747027,9.39642857 62.5037838,9.36814286 63.2376216,9.31157143 L63.2376216,9.31157143 Z M53.9027027,2.95242857 C54.2214054,2.95242857 54.7619459,3.009 55.5256216,3.12257143 L55.8732973,3.165 L55.8296216,4.03114286 C55.0663784,3.94585714 54.4968649,3.90342857 54.1202162,3.90342857 C53.7141622,3.90342857 53.3738378,3.94585714 53.0983784,4.03114286 C52.8237838,4.11642857 52.6062703,4.263 52.4471351,4.47085714 C52.2875676,4.67957143 52.1738378,4.956 52.1063784,5.30142857 C52.0384865,5.64685714 52.0047568,6.08014286 52.0047568,6.6 C52.0047568,7.12071429 52.0341622,7.55828571 52.0916757,7.91314286 C52.1496216,8.268 52.2585946,8.55428571 52.4177297,8.772 C52.5768649,8.98971429 52.7943784,9.14571429 53.0698378,9.24042857 C53.3448649,9.33514286 53.6998919,9.38228571 54.1344865,9.38228571 L55.8438919,9.25457143 L55.8875676,10.1344286 C55.4335135,10.2008571 55.04,10.2505714 54.7065946,10.2835714 C54.3736216,10.3165714 54.0955676,10.3332857 53.8737297,10.3332857 C53.3137297,10.3332857 52.8428108,10.2647143 52.4614054,10.1275714 C52.0795676,9.99042857 51.7734054,9.77271429 51.5416216,9.47442857 C51.3098378,9.17657143 51.1429189,8.79085714 51.0417297,8.31771429 C50.9401081,7.84457143 50.8895135,7.272 50.8895135,6.6 C50.8895135,5.92842857 50.9448649,5.36057143 51.056,4.89685714 C51.1671351,4.43357143 51.3435676,4.05728571 51.5848649,3.76842857 C51.8261622,3.48 52.1375135,3.27171429 52.5193514,3.144 C52.9003243,3.01628571 53.3617297,2.95242857 53.9027027,2.95242857 L53.9027027,2.95242857 Z M43.7561081,8.133 C43.7561081,9.00385714 44.1232432,9.43885714 44.8570811,9.43885714 C45.504,9.43885714 46.1513514,9.33042857 46.7982703,9.11271429 L47.1316757,8.99914286 L47.1316757,6.657 L44.9876757,6.85585714 C44.5530811,6.89357143 44.2391351,7.01657143 44.0458378,7.22442857 C43.8525405,7.43271429 43.7561081,7.73571429 43.7561081,8.133 L43.7561081,8.133 Z M48.2179459,5.23757143 L48.2179459,8.87142857 C48.2473514,9.22157143 48.5271351,9.42942857 49.0585946,9.49585714 L49.0149189,10.3332857 C48.2516757,10.3332857 47.676973,10.1438571 47.2912432,9.76542857 C46.4311351,10.1438571 45.5623784,10.3332857 44.6836757,10.3332857 C44.0172973,10.3332857 43.5100541,10.1485714 43.1619459,9.77957143 C42.8142703,9.41057143 42.6408649,8.88085714 42.6408649,8.19 C42.6408649,7.49957143 42.819027,6.99042857 43.1766486,6.66385714 C43.5338378,6.33771429 44.0942703,6.13671429 44.8570811,6.06085714 L47.1316757,5.84785714 L47.1316757,5.23757143 C47.1316757,4.755 47.0252973,4.40957143 46.812973,4.20128571 C46.6002162,3.99342857 46.3104865,3.88928571 45.9437838,3.88928571 C45.5571892,3.88928571 45.1636757,3.90128571 44.7632432,3.92442857 C44.3619459,3.948 43.9541622,3.98357143 43.5385946,4.03114286 L43.0897297,4.07357143 L43.0460541,3.26442857 C44.0795676,3.05657143 45.0214054,2.95242857 45.8715676,2.95242857 C46.6918919,2.95242857 47.2886486,3.13457143 47.6601081,3.49885714 C48.0324324,3.86314286 48.2179459,4.44257143 48.2179459,5.23757143 L48.2179459,5.23757143 Z M31.3262703,4.42842857 L31.3262703,10.1914286 L30.24,10.1914286 L30.24,3.09428571 L31.312,3.09428571 L31.312,3.591 C32.0363243,3.165 32.7411892,2.95242857 33.427027,2.95242857 C34.3251892,2.95242857 34.9530811,3.19371429 35.3102703,3.67628571 C35.4745946,3.58157143 35.6627027,3.48942857 35.8754595,3.39942857 C36.0877838,3.30942857 36.3122162,3.23142857 36.5487568,3.165 C36.7857297,3.099 37.0196757,3.04714286 37.2514595,3.009 C37.4832432,2.97128571 37.6955676,2.95242857 37.8892973,2.95242857 C38.3718919,2.95242857 38.7701622,3.01157143 39.0841081,3.12985714 C39.3980541,3.24814286 39.6492973,3.44185714 39.8374054,3.71185714 C40.0259459,3.98142857 40.1561081,4.341 40.2287568,4.79057143 C40.300973,5.24014286 40.3372973,5.79128571 40.3372973,6.444 L40.3372973,10.1914286 L39.2505946,10.1914286 L39.2505946,6.47271429 C39.2505946,5.98071429 39.2311351,5.56885714 39.1926486,5.23757143 C39.1541622,4.90628571 39.0793514,4.64142857 38.9686486,4.44257143 C38.8570811,4.24414286 38.7022703,4.10442857 38.5046486,4.02385714 C38.3065946,3.94371429 38.0484324,3.903 37.7292973,3.903 C37.411027,3.903 37.0823784,3.94842857 36.7446486,4.038 C36.4064865,4.128 36.1457297,4.21542857 35.9623784,4.30071429 L35.6869189,4.42842857 C35.8123243,4.73142857 35.8754595,5.42185714 35.8754595,6.501 L35.8754595,10.1914286 L34.7887568,10.1914286 L34.7887568,6.52928571 C34.7887568,6.01842857 34.7692973,5.595 34.7308108,5.259 C34.6923243,4.923 34.6170811,4.65342857 34.5063784,4.44985714 C34.3952432,4.24628571 34.2404324,4.10442857 34.0428108,4.02385714 C33.8447568,3.94371429 33.5861622,3.903 33.2678919,3.903 C32.9582703,3.903 32.6421622,3.94842857 32.3187027,4.038 C31.9952432,4.128 31.7465946,4.21542857 31.5727568,4.30071429 L31.3262703,4.42842857 Z M26.3865946,1.49014286 L27.4728649,1.49014286 L27.4728649,0.255428571 L26.3865946,0.255428571 L26.3865946,1.49014286 Z M26.3865946,10.1914286 L27.4728649,10.1914286 L27.4728649,3.09428571 L26.3865946,3.09428571 L26.3865946,10.1914286 Z M22.4025946,10.1914286 L23.4892973,10.1914286 L23.4892973,0 L22.4025946,0 L22.4025946,10.1914286 Z M17.7526486,2.95242857 C18.0713514,2.95242857 18.6118919,3.009 19.3751351,3.12257143 L19.7228108,3.165 L19.6795676,4.03114286 C18.9163243,3.94585714 18.3463784,3.90342857 17.9701622,3.90342857 C17.5641081,3.90342857 17.2237838,3.94585714 16.9483243,4.03114286 C16.6732973,4.11642857 16.4562162,4.263 16.2966486,4.47085714 C16.1370811,4.67957143 16.0237838,4.956 15.9563243,5.30142857 C15.8884324,5.64685714 15.8547027,6.08014286 15.8547027,6.6 C15.8547027,7.12071429 15.8836757,7.55828571 15.9416216,7.91314286 C15.9995676,8.268 16.1085405,8.55428571 16.2676757,8.772 C16.4272432,8.98971429 16.6443243,9.14571429 16.9193514,9.24042857 C17.1948108,9.33514286 17.5498378,9.38228571 17.9844324,9.38228571 L19.6938378,9.25457143 L19.7375135,10.1344286 C19.2834595,10.2008571 18.8899459,10.2505714 18.5565405,10.2835714 C18.2235676,10.3165714 17.9455135,10.3332857 17.7236757,10.3332857 C17.1632432,10.3332857 16.6927568,10.2647143 16.3113514,10.1275714 C15.9295135,9.99042857 15.6229189,9.77271429 15.3911351,9.47442857 C15.1597838,9.17657143 14.9928649,8.79085714 14.8912432,8.31771429 C14.7900541,7.84457143 14.7394595,7.272 14.7394595,6.6 C14.7394595,5.92842857 14.7948108,5.36057143 14.9059459,4.89685714 C15.0170811,4.43357143 15.1930811,4.05728571 15.4348108,3.76842857 C15.6761081,3.48 15.9874595,3.27171429 16.3688649,3.144 C16.7507027,3.01628571 17.2116757,2.95242857 17.7526486,2.95242857 L17.7526486,2.95242857 Z" id="Logotype" fill="#000000"></path>
                <path d="M11.6838919,7.92942857 C11.8214054,7.51371429 11.9161081,7.07914286 11.9602162,6.62914286 C10.4531892,7.13571429 9.36648649,8.59457143 9.36648649,10.2728571 C9.36648649,10.506 9.3907027,10.7352857 9.43221622,10.9602857 C9.77859459,10.716 10.0981622,10.437 10.3857297,10.1267143 C10.4428108,9.21642857 10.9388108,8.39914286 11.6838919,7.92942857 L11.6838919,7.92942857 Z M11.9273514,5.17157143 C11.8585946,4.69028571 11.7327568,4.22828571 11.5576216,3.79114286 C8.672,4.51585714 6.5772973,7.17471429 6.5772973,10.2728571 C6.5772973,10.329 6.57816216,10.3847143 6.57945946,10.44 C6.59243243,10.9701429 6.66810811,11.4908571 6.8012973,11.997 C7.27437838,11.9318571 7.72972973,11.8118571 8.1612973,11.6434286 C8.04324324,11.1994286 7.98097297,10.7417143 7.98097297,10.2728571 C7.98097297,7.82742857 9.66010811,5.72871429 11.9273514,5.17157143 L11.9273514,5.17157143 Z M8.43675676,0.538714286 C8.05362162,0.366428571 7.64972973,0.232714286 7.22940541,0.143571429 C6.84410811,0.350142857 6.41513514,0.462 5.968,0.462 C5.52302703,0.462 5.09664865,0.351428571 4.71351351,0.147428571 C4.29924324,0.236571429 3.90097297,0.368571429 3.52345946,0.538714286 C4.19891892,1.13571429 5.06724324,1.47557143 5.98010811,1.47557143 C6.89297297,1.47557143 7.76086486,1.13571429 8.43675676,0.538714286 L8.43675676,0.538714286 Z M3.19005405,3.68357143 C3.30335135,3.738 3.41881081,3.78985714 3.53383784,3.83742857 C3.76691892,3.93342857 4.00821622,4.01657143 4.25081081,4.08428571 C4.43459459,4.13571429 4.62313514,4.17942857 4.81081081,4.21414286 C4.87394595,4.22571429 4.93751351,4.23685714 5.00151351,4.24628571 C5.12864865,4.266 5.25881081,4.28185714 5.38767568,4.29385714 C5.77859459,4.32985714 6.18162162,4.32985714 6.57210811,4.29385714 C6.70140541,4.28185714 6.83113514,4.266 6.9587027,4.24628571 C7.0227027,4.23685714 7.08627027,4.22571429 7.14940541,4.21457143 C7.33664865,4.17942857 7.52518919,4.13571429 7.70940541,4.08428571 C7.952,4.01657143 8.1932973,3.93342857 8.42594595,3.83742857 C8.54140541,3.78985714 8.65686486,3.738 8.76972973,3.68357143 C9.48194595,3.33985714 10.1271351,2.85814286 10.6763243,2.27871429 C10.3814054,1.90885714 10.0436757,1.57457143 9.67091892,1.28314286 C8.70918919,2.298 7.38508108,2.889 5.98010811,2.889 C4.57513514,2.889 3.25102703,2.298 2.2892973,1.28314286 C1.91654054,1.57457143 1.57881081,1.90885714 1.28345946,2.27871429 C1.83264865,2.85814286 2.47783784,3.33985714 3.19005405,3.68357143 L3.19005405,3.68357143 Z M5.38248649,10.2728571 C5.38248649,10.2192857 5.38205405,10.1665714 5.38075676,10.1134286 C5.37816216,10.008 5.37340541,9.903 5.36648649,9.79842857 L5.36648649,9.798 C5.36259459,9.74614286 5.3587027,9.69385714 5.35351351,9.642 C5.344,9.53828571 5.33232432,9.43542857 5.31805405,9.333 C5.30378378,9.23057143 5.28735135,9.129 5.26875676,9.02828571 C5.25016216,8.92757143 5.22897297,8.82728571 5.20605405,8.72828571 C5.18313514,8.62928571 5.15762162,8.53114286 5.13037838,8.43342857 C5.0892973,8.28814286 5.04345946,8.14285714 4.99286486,8.00142857 C4.87654054,7.674 4.73340541,7.353 4.56735135,7.04742857 C3.6787027,5.40985714 2.15437838,4.23771429 0.401297297,3.79457143 C0.226594595,4.23085714 0.101189189,4.69157143 0.0328648649,5.17157143 C2.29967568,5.72871429 3.97924324,7.82742857 3.97924324,10.2728571 C3.97924324,10.7417143 3.91697297,11.1994286 3.79848649,11.6434286 C4.23005405,11.8118571 4.68540541,11.9318571 5.15891892,11.997 C5.29210811,11.4904286 5.36778378,10.9701429 5.38075676,10.44 C5.38205405,10.3847143 5.38248649,10.329 5.38248649,10.2728571 L5.38248649,10.2728571 Z M1.07541603e-14,6.62914286 C0.0445405405,7.08685714 0.14227027,7.52871429 0.283243243,7.95042857 C1.00281081,8.41885714 1.48324324,9.21557143 1.54854054,10.0988571 C1.84216216,10.4202857 2.17081081,10.7087143 2.528,10.9602857 C2.56951351,10.7352857 2.59372973,10.506 2.59372973,10.2728571 C2.59372973,8.59457143 1.50702703,7.13571429 1.07541603e-14,6.62914286 L1.07541603e-14,6.62914286 Z" id="climacell-logo-full-colored-fill-1" fill="url(#linearGradient-5)"></path>
            </g>
            <path d="M0,5.0369863 L1.6053075,5.0369863 C2.00360585,5.0369863 2.31358122,5.11301295 2.53524291,5.26506849 C2.7569046,5.41712404 2.86773378,5.62465622 2.86773378,5.88767123 C2.86773378,6.15068625 2.75603876,6.35890334 2.53264532,6.51232877 C2.30925189,6.6657542 2.00014238,6.74246575 1.6053075,6.74246575 L0.670176917,6.74246575 L0.670176917,7.9630137 L0,7.9630137 L0,5.0369863 Z M1.52737995,6.33150685 C1.75943203,6.33150685 1.93520019,6.29383599 2.05468969,6.21849315 C2.17417921,6.14315031 2.23392306,6.03424729 2.23392306,5.89178082 C2.23392306,5.74657462 2.17504505,5.63630175 2.05728728,5.5609589 C1.93952951,5.48561606 1.7628955,5.44794521 1.52737995,5.44794521 L0.670176917,5.44794521 L0.670176917,6.33150685 L1.52737995,6.33150685 Z M5.30253674,8 C4.94579997,8 4.63495873,7.93904171 4.37000374,7.81712329 C4.10504876,7.69520486 3.90070744,7.52123401 3.7569737,7.29520548 C3.61323995,7.06917695 3.54137415,6.80274127 3.54137415,6.49589041 C3.54137415,6.1917793 3.61237409,5.92671346 3.75437611,5.70068493 C3.89637814,5.4746564 4.09985359,5.30137046 4.36480857,5.18082192 C4.62976356,5.06027337 4.9423365,5 5.30253674,5 C5.66273698,5 5.97530992,5.06027337 6.24026491,5.18082192 C6.50521989,5.30137046 6.7078295,5.4746564 6.84809978,5.70068493 C6.98837006,5.92671346 7.05850417,6.1917793 7.05850417,6.49589041 C7.05850417,6.80274127 6.98750422,7.06917695 6.8455022,7.29520548 C6.70350017,7.52123401 6.50089058,7.69520486 6.23766732,7.81712329 C5.97444406,7.93904171 5.66273698,8 5.30253674,8 Z M5.30253674,7.57671233 C5.64541966,7.57671233 5.91210239,7.48356257 6.1025929,7.29726027 C6.29308342,7.11095798 6.38832725,6.84383736 6.38832725,6.49589041 C6.38832725,6.1506832 6.29308342,5.88561736 6.1025929,5.70068493 C5.91210239,5.5157525 5.64541966,5.42328767 5.30253674,5.42328767 C4.95965382,5.42328767 4.69297109,5.51506757 4.50248058,5.69863014 C4.31199006,5.88219271 4.21674623,6.14794346 4.21674623,6.49589041 C4.21674623,6.84383736 4.31199006,7.11095798 4.50248058,7.29726027 C4.69297109,7.48356257 4.95965382,7.57671233 5.30253674,7.57671233 Z M12.516896,5.0369863 L13.1610971,5.0369863 L11.8519143,7.9630137 L11.3064214,7.9630137 L10.376486,5.85890411 L9.43616025,7.9630137 L8.89066742,7.9630137 L7.58667977,5.0369863 L8.26724703,5.0369863 L9.19198727,7.21917808 L10.1530937,5.0369863 L10.6310493,5.0369863 L11.5713751,7.23561644 L12.516896,5.0369863 Z M13.8970795,7.9630137 L13.8970795,5.0369863 L16.3699803,5.0369863 L16.3699803,5.45616438 L14.5516709,5.45616438 L14.5516709,6.26575342 L16.2608818,6.26575342 L16.2608818,6.68493151 L14.5516709,6.68493151 L14.5516709,7.54383562 L16.3699803,7.54383562 L16.3699803,7.9630137 L13.8970795,7.9630137 Z M20.2490405,7.9630137 L19.5424974,7.9630137 L19.069737,6.9890411 C19.0281754,6.89862969 18.9641023,6.83561661 18.8775157,6.8 C18.7909291,6.76438339 18.6783682,6.74657534 18.5398296,6.74657534 L17.8696527,6.74657534 L17.8696527,7.9630137 L17.204671,7.9630137 L17.204671,5.0369863 L18.7891978,5.0369863 C19.2082769,5.0369863 19.5269108,5.10958832 19.7451091,5.25479452 C19.9633073,5.40000072 20.0724048,5.60821783 20.0724048,5.87945205 C20.0724048,6.07397358 20.0074658,6.23904041 19.8775859,6.37465753 C19.747706,6.51027466 19.5632793,6.60684902 19.3243003,6.66438356 C19.5424985,6.70000017 19.7000838,6.82054692 19.7970608,7.0260274 L20.2490405,7.9630137 Z M18.6956847,6.33561644 C18.9485176,6.33561644 19.1355418,6.29863051 19.2567631,6.22465753 C19.3779843,6.15068455 19.438594,6.03835692 19.438594,5.88767123 C19.438594,5.73972529 19.3788502,5.62945241 19.2593607,5.55684932 C19.1398712,5.48424622 18.9519811,5.44794521 18.6956847,5.44794521 L17.8592624,5.44794521 L17.8592624,6.33561644 L18.6956847,6.33561644 Z M21.0681457,7.9630137 L21.0681457,5.0369863 L23.5410465,5.0369863 L23.5410465,5.45616438 L21.7227371,5.45616438 L21.7227371,6.26575342 L23.431948,6.26575342 L23.431948,6.68493151 L21.7227371,6.68493151 L21.7227371,7.54383562 L23.5410465,7.54383562 L23.5410465,7.9630137 L21.0681457,7.9630137 Z M24.3757372,5.0369863 L25.7368717,5.0369863 C26.3429779,5.0369863 26.813136,5.16438229 27.1473603,5.41917808 C27.4815846,5.67397387 27.6486942,6.0328744 27.6486942,6.49589041 C27.6486942,6.96164616 27.4815846,7.32260146 27.1473603,7.57876712 C26.813136,7.83493279 26.3429779,7.9630137 25.7368717,7.9630137 L24.3757372,7.9630137 L24.3757372,5.0369863 Z M25.6953103,7.53150685 C26.5473225,7.53150685 26.9733221,7.18630483 26.9733221,6.49589041 C26.9733221,5.8109589 26.5473225,5.46849315 25.6953103,5.46849315 L25.0459141,5.46849315 L25.0459141,7.53150685 L25.6953103,7.53150685 Z M32.4663484,6.45068493 C32.6810832,6.50000024 32.846461,6.58630075 32.9624871,6.70958904 C33.0785132,6.83287733 33.1365253,6.9849306 33.1365253,7.16575342 C33.1365253,7.41506974 33.0248303,7.61027327 32.8014369,7.75136986 C32.5780435,7.89246646 32.2672022,7.9630137 31.8689039,7.9630137 L30.190864,7.9630137 L30.190864,5.0369863 L31.8169522,5.0369863 C32.1979332,5.0369863 32.4975183,5.10479384 32.7157166,5.24041096 C32.9339148,5.37602808 33.0430123,5.5630125 33.0430123,5.80136986 C33.0430123,5.95479529 32.9919269,6.0883556 32.8897548,6.20205479 C32.7875826,6.31575399 32.6464485,6.39862988 32.4663484,6.45068493 Z M30.8454554,6.26986301 L31.7078536,6.26986301 C32.1719578,6.26986301 32.4040064,6.13287671 32.4040064,5.85890411 C32.4040064,5.72191712 32.3468601,5.61917808 32.2325658,5.55068493 C32.1182714,5.48219144 31.9433691,5.44794521 31.7078536,5.44794521 L30.8454554,5.44794521 L30.8454554,6.26986301 Z M31.7961715,7.55205479 C32.038614,7.55205479 32.2161137,7.51780856 32.3286764,7.44931507 C32.4412391,7.38082158 32.4975194,7.27260348 32.4975194,7.12465753 C32.4975194,6.97397185 32.4412391,6.86301406 32.3286764,6.79178082 C32.2161137,6.72054759 32.038614,6.68493151 31.7961715,6.68493151 L30.8454554,6.68493151 L30.8454554,7.55205479 L31.7961715,7.55205479 Z M37,5.0369863 L35.4985959,6.80410959 L35.4985959,7.9630137 L34.828419,7.9630137 L34.828419,6.80410959 L33.3270149,5.0369863 L34.0907049,5.0369863 L35.1609099,6.36027397 L36.23631,5.0369863 L37,5.0369863 Z" id="POWERED-BY" fill="#000000"></path>
        </g>
    </g>
</svg>