<svg width="1920" height="960" viewBox="0 0 1920 960" fill="none" xmlns="http://www.w3.org/2000/svg">
<rect width="1920" height="960" fill="#F2F2F7"/>
<g filter="url(#filter0_i_40_4198)">
<circle cx="560" cy="197" r="78.6667" fill="url(#paint0_radial_40_4198)" fill-opacity="0.86"/>
</g>
<mask id="mask0_40_4198" style="mask-type:alpha" maskUnits="userSpaceOnUse" x="481" y="118" width="158" height="158">
<circle cx="560" cy="197" r="78.6667" fill="white"/>
</mask>
<g mask="url(#mask0_40_4198)">
<circle opacity="0.5" cx="573.111" cy="151.111" r="78.6667" fill="url(#paint1_radial_40_4198)"/>
</g>
<path fill-rule="evenodd" clip-rule="evenodd" d="M560 79C556.379 79 553.444 81.935 553.444 85.5556V98.6667C553.444 102.287 556.379 105.222 560 105.222C563.621 105.222 566.556 102.287 566.556 98.6667V85.5556C566.556 81.935 563.621 79 560 79ZM560 288.778C556.379 288.778 553.444 291.713 553.444 295.333V308.444C553.444 312.065 556.379 315 560 315C563.621 315 566.556 312.065 566.556 308.444V295.333C566.556 291.713 563.621 288.778 560 288.778ZM442 197C442 193.379 444.935 190.444 448.556 190.444H461.667C465.287 190.444 468.222 193.379 468.222 197C468.222 200.621 465.287 203.556 461.667 203.556H448.556C444.935 203.556 442 200.621 442 197ZM658.333 190.444C654.713 190.444 651.778 193.379 651.778 197C651.778 200.621 654.713 203.556 658.333 203.556H671.444C675.065 203.556 678 200.621 678 197C678 193.379 675.065 190.444 671.444 190.444H658.333ZM495.103 261.897C497.663 264.457 497.663 268.608 495.103 271.168L485.832 280.439C483.272 282.999 479.122 282.999 476.561 280.439C474.001 277.879 474.001 273.728 476.561 271.168L485.832 261.897C488.392 259.337 492.543 259.337 495.103 261.897ZM495.103 122.832C497.663 125.392 497.663 129.543 495.103 132.103C492.543 134.663 488.392 134.663 485.832 132.103L476.561 122.832C474.001 120.272 474.001 116.121 476.561 113.561C479.122 111.001 483.272 111.001 485.832 113.561L495.103 122.832ZM643.439 271.168C645.999 273.728 645.999 277.879 643.439 280.439C640.879 282.999 636.728 282.999 634.168 280.439L624.897 271.168C622.337 268.608 622.337 264.457 624.897 261.897C627.457 259.337 631.608 259.337 634.168 261.897L643.439 271.168ZM643.439 113.561C645.999 116.121 645.999 120.272 643.439 122.832L634.168 132.103C631.608 134.663 627.457 134.663 624.897 132.103C622.337 129.543 622.337 125.392 624.897 122.832L634.168 113.561C636.728 111.001 640.879 111.001 643.439 113.561Z" fill="#F5C23E"/>
<rect x="507.556" y="602" width="9.83333" height="39.3333" rx="4.91667" fill="url(#paint2_linear_40_4198)"/>
<g filter="url(#filter1_i_40_4198)">
<path fill-rule="evenodd" clip-rule="evenodd" d="M568.138 425C543.319 425 521.331 437.111 507.77 455.74C504.477 455.133 501.08 454.815 497.609 454.815C466.897 454.815 442 479.692 442 510.38C442 539.7 464.727 563.862 493.539 565.944H634.598C658.568 565.944 678 546.528 678 522.577C678 500.461 661.433 482.212 640.022 479.545C631.279 448.089 602.407 425 568.138 425Z" fill="url(#paint3_linear_40_4198)"/>
</g>
<path d="M533.778 579.056H543.611V636.417C543.611 639.132 541.41 641.333 538.694 641.333C535.979 641.333 533.778 639.132 533.778 636.417V579.056Z" fill="url(#paint4_linear_40_4198)"/>
<path d="M560 565.944H569.833V590.528C569.833 593.243 567.632 595.444 564.917 595.444C562.201 595.444 560 593.243 560 590.528V565.944Z" fill="url(#paint5_linear_40_4198)"/>
<rect x="560" y="602" width="9.83333" height="39.3333" rx="4.91667" fill="url(#paint6_linear_40_4198)"/>
<path d="M612.444 565.944H622.278V590.528C622.278 593.243 620.077 595.444 617.361 595.444C614.646 595.444 612.444 593.243 612.444 590.528V565.944Z" fill="url(#paint7_linear_40_4198)"/>
<rect x="612.444" y="602" width="9.83333" height="39.3333" rx="4.91667" fill="url(#paint8_linear_40_4198)"/>
<path d="M586.222 565.944H596.056V636.417C596.056 639.132 593.854 641.333 591.139 641.333C588.423 641.333 586.222 639.132 586.222 636.417V565.944Z" fill="url(#paint9_linear_40_4198)"/>
<rect x="638.667" y="579.056" width="9.83333" height="62.2778" rx="4.91667" fill="url(#paint10_linear_40_4198)"/>
<g filter="url(#filter2_i_40_4198)">
<path fill-rule="evenodd" clip-rule="evenodd" d="M497.479 549.882H526.937C532.058 549.882 535.161 555.535 532.414 559.856L485.872 633.022C484.272 635.534 481.169 636.636 478.342 635.694C477.133 635.21 477.133 635.21 476.059 634.427C474.337 632.992 473.476 630.771 473.784 628.551L479.153 589.676L480.13 582.334H455.388C451.409 582.334 448.367 578.787 448.972 574.856L457.968 516.441C458.456 513.276 461.18 510.94 464.383 510.94H496.328C500.34 510.94 503.391 514.544 502.728 518.503L497.479 549.882Z" fill="url(#paint11_linear_40_4198)"/>
</g>
<path fill-rule="evenodd" clip-rule="evenodd" d="M965.433 200.275C949.723 200.059 937.056 187.316 937.056 171.628C937.056 155.806 949.942 142.979 965.838 142.979C967.391 142.979 968.916 143.101 970.402 143.337C973.327 127.254 987.466 115.056 1004.47 115.056C1021.85 115.056 1036.23 127.801 1038.71 144.412C1041.55 143.482 1044.58 142.979 1047.73 142.979C1063.62 142.979 1076.51 155.806 1076.51 171.628C1076.51 187.316 1063.84 200.059 1048.13 200.275V200.278H965.433V200.275Z" fill="url(#paint12_linear_40_4198)"/>
<g filter="url(#filter3_i_40_4198)">
<path fill-rule="evenodd" clip-rule="evenodd" d="M968.138 138C943.319 138 921.331 150.111 907.77 168.74C904.477 168.133 901.08 167.815 897.609 167.815C866.897 167.815 842 192.692 842 223.38C842 252.7 864.727 276.862 893.539 278.944H1034.6C1058.57 278.944 1078 259.528 1078 235.577C1078 213.461 1061.43 195.212 1040.02 192.545C1031.28 161.089 1002.41 138 968.138 138Z" fill="url(#paint13_linear_40_4198)"/>
</g>
<path d="M955.083 565.944H964.917V603.639C964.917 606.354 962.715 608.556 960 608.556C957.285 608.556 955.083 606.354 955.083 603.639V565.944Z" fill="url(#paint14_linear_40_4198)"/>
<path d="M925.583 565.944H935.417V593.806C935.417 596.521 933.215 598.722 930.5 598.722C927.785 598.722 925.583 596.521 925.583 593.806V565.944Z" fill="url(#paint15_linear_40_4198)"/>
<path d="M896.083 565.944H905.917V583.972C905.917 586.688 903.715 588.889 901 588.889C898.285 588.889 896.083 586.688 896.083 583.972V565.944Z" fill="url(#paint16_linear_40_4198)"/>
<path d="M984.583 565.944H994.417V593.806C994.417 596.521 992.215 598.722 989.5 598.722C986.785 598.722 984.583 596.521 984.583 593.806V565.944Z" fill="url(#paint17_linear_40_4198)"/>
<path d="M1014.08 565.944H1023.92V583.972C1023.92 586.688 1021.72 588.889 1019 588.889C1016.28 588.889 1014.08 586.688 1014.08 583.972V565.944Z" fill="url(#paint18_linear_40_4198)"/>
<path d="M1071.44 641.333H1052.65C1051.4 641.333 1050.27 642.035 1049.71 643.146L1044.06 654.444L1038.8 643.92C1038.25 642.808 1037.11 642.107 1035.87 642.107C1034.63 642.107 1033.49 642.808 1032.94 643.92L1027.67 654.444L1022.03 643.146C1021.47 642.035 1020.33 641.333 1019.09 641.333H1018.23C1016.99 641.333 1015.85 642.035 1015.3 643.146L1011.28 651.167L1007.28 643.146C1006.72 642.035 1005.58 641.333 1004.34 641.333H1001.84C1000.6 641.333 999.464 642.035 998.907 643.146L994.895 651.167L990.886 643.146C990.329 642.035 989.195 641.333 987.953 641.333H985.452C984.21 641.333 983.076 642.035 982.518 643.146L978.506 651.167L974.498 643.146C973.94 642.035 972.806 641.333 971.564 641.333C970.177 641.333 968.83 642.205 968.365 643.51L962.117 661L956.827 646.181C956.391 644.965 955.287 644.116 953.998 644.015C953.913 644.008 953.825 644.005 953.736 644.005C952.55 644.005 951.445 644.65 950.865 645.706L946.469 653.717L940.609 643.035C940.035 641.986 938.934 641.333 937.737 641.333H936.285C935.043 641.333 933.909 642.035 933.352 643.146L929.34 651.167L925.331 643.146C924.774 642.035 923.64 641.333 922.397 641.333H921.535C920.293 641.333 919.159 642.035 918.602 643.146L912.951 654.444L907.883 644.303C907.326 643.189 906.189 642.49 904.95 642.49C904.923 642.49 904.894 642.49 904.868 642.494C903.596 642.523 902.459 643.287 901.951 644.451L896.562 656.709L890.668 643.293C890.144 642.1 888.971 641.333 887.669 641.333H885.27C883.883 641.333 882.648 642.205 882.182 643.51L875.938 661L869.691 643.51C869.225 642.205 867.989 641.333 866.603 641.333H848.556V631.5L868.222 615.111H1051.78L1071.44 631.5V641.333Z" fill="url(#paint19_linear_40_4198)"/>
<mask id="mask1_40_4198" style="mask-type:alpha" maskUnits="userSpaceOnUse" x="848" y="615" width="224" height="46">
<path d="M1071.44 641.333H1052.65C1051.4 641.333 1050.27 642.035 1049.71 643.146L1044.06 654.444L1038.8 643.92C1038.25 642.808 1037.11 642.107 1035.87 642.107C1034.63 642.107 1033.49 642.808 1032.94 643.92L1027.67 654.444L1022.03 643.146C1021.47 642.035 1020.33 641.333 1019.09 641.333H1018.23C1016.99 641.333 1015.85 642.035 1015.3 643.146L1011.28 651.167L1007.28 643.146C1006.72 642.035 1005.58 641.333 1004.34 641.333H1001.84C1000.6 641.333 999.464 642.035 998.907 643.146L994.895 651.167L990.886 643.146C990.329 642.035 989.195 641.333 987.953 641.333H985.452C984.21 641.333 983.076 642.035 982.518 643.146L978.506 651.167L974.498 643.146C973.94 642.035 972.806 641.333 971.564 641.333C970.177 641.333 968.83 642.205 968.365 643.51L962.117 661L956.827 646.181C956.391 644.965 955.287 644.116 953.998 644.015C953.913 644.008 953.825 644.005 953.736 644.005C952.55 644.005 951.445 644.65 950.865 645.706L946.469 653.717L940.609 643.035C940.035 641.986 938.934 641.333 937.737 641.333H936.285C935.043 641.333 933.909 642.035 933.352 643.146L929.34 651.167L925.331 643.146C924.774 642.035 923.64 641.333 922.397 641.333H921.535C920.293 641.333 919.159 642.035 918.602 643.146L912.951 654.444L907.883 644.303C907.326 643.189 906.189 642.49 904.95 642.49C904.923 642.49 904.894 642.49 904.868 642.494C903.596 642.523 902.459 643.287 901.951 644.451L896.562 656.709L890.668 643.293C890.144 642.1 888.971 641.333 887.669 641.333H885.27C883.883 641.333 882.648 642.205 882.182 643.51L875.938 661L869.691 643.51C869.225 642.205 867.989 641.333 866.603 641.333H848.556V631.5L868.222 615.111H1051.78L1071.44 631.5V641.333Z" fill="white"/>
</mask>
<g mask="url(#mask1_40_4198)">
<path opacity="0.2" fill-rule="evenodd" clip-rule="evenodd" d="M848.556 615.111H1071.44V631.5H848.556V615.111Z" fill="white"/>
<path fill-rule="evenodd" clip-rule="evenodd" d="M848.556 631.5H1071.44V638.056H848.556V631.5Z" fill="#177DF7"/>
</g>
<g filter="url(#filter4_i_40_4198)">
<path fill-rule="evenodd" clip-rule="evenodd" d="M968.138 425C943.319 425 921.331 437.111 907.77 455.74C904.477 455.133 901.08 454.815 897.609 454.815C866.897 454.815 842 479.692 842 510.38C842 539.7 864.727 563.862 893.539 565.944H1034.6C1058.57 565.944 1078 546.528 1078 522.577C1078 500.461 1061.43 482.212 1040.02 479.545C1031.28 448.089 1002.41 425 968.138 425Z" fill="url(#paint20_linear_40_4198)"/>
</g>
<g filter="url(#filter5_i_40_4198)">
<path d="M1399.56 89.7862L1399.19 90.3392C1391.23 102.713 1386.61 117.435 1386.61 133.234C1386.61 177.121 1422.25 212.699 1466.22 212.699C1470.22 212.699 1474.15 212.404 1478 211.834C1474.62 234.222 1464.29 255.767 1447.02 273.005C1404.07 315.887 1334.42 315.887 1291.46 273.005C1248.51 230.124 1248.51 160.599 1291.46 117.717C1320.31 88.923 1361.19 79.4634 1397.94 89.3381L1399.56 89.7862Z" fill="url(#paint21_radial_40_4198)"/>
</g>
<path d="M1293.12 257.626L1281.59 276.771C1280.59 278.421 1278.45 278.953 1276.79 277.961C1276.3 277.667 1275.9 277.259 1275.6 276.771L1264.06 257.626C1263.77 257.139 1263.36 256.73 1262.87 256.437L1243.69 244.918C1242.04 243.925 1241.51 241.783 1242.5 240.134C1242.79 239.646 1243.2 239.237 1243.69 238.944L1262.87 227.425C1263.36 227.132 1263.77 226.723 1264.06 226.235L1275.6 207.091C1276.6 205.441 1278.74 204.909 1280.39 205.901C1280.88 206.195 1281.29 206.603 1281.59 207.091L1293.12 226.235C1293.42 226.723 1293.83 227.132 1294.32 227.425L1313.49 238.944C1315.15 239.937 1315.68 242.078 1314.69 243.728C1314.39 244.216 1313.98 244.624 1313.49 244.918L1294.32 256.437C1293.83 256.73 1293.42 257.139 1293.12 257.626Z" fill="url(#paint22_linear_40_4198)"/>
<path d="M1427.36 144.286L1424.08 149.719C1423.09 151.369 1420.94 151.901 1419.29 150.909C1418.8 150.615 1418.39 150.207 1418.1 149.719L1414.82 144.286C1414.53 143.798 1414.12 143.39 1413.63 143.096L1408.19 139.827C1406.54 138.835 1406 136.693 1407 135.043C1407.29 134.555 1407.7 134.147 1408.19 133.853L1413.63 130.584C1414.12 130.291 1414.53 129.882 1414.82 129.394L1418.1 123.961C1419.09 122.312 1421.24 121.779 1422.89 122.771C1423.38 123.065 1423.79 123.473 1424.08 123.961L1427.36 129.394C1427.65 129.882 1428.06 130.291 1428.55 130.584L1433.99 133.853C1435.64 134.846 1436.18 136.988 1435.18 138.637C1434.89 139.125 1434.48 139.534 1433.99 139.827L1428.55 143.096C1428.06 143.39 1427.65 143.798 1427.36 144.286Z" fill="url(#paint23_linear_40_4198)"/>
<path d="M1456.59 174.134L1455.23 176.39C1454.63 177.387 1453.33 177.709 1452.33 177.109C1452.04 176.932 1451.79 176.685 1451.61 176.39L1450.25 174.134C1449.96 173.646 1449.55 173.238 1449.06 172.944L1446.8 171.586C1445.8 170.987 1445.48 169.693 1446.08 168.696C1446.26 168.401 1446.51 168.155 1446.8 167.977L1449.06 166.62C1449.55 166.326 1449.96 165.918 1450.25 165.43L1451.61 163.173C1452.22 162.177 1453.51 161.855 1454.51 162.454C1454.81 162.632 1455.05 162.879 1455.23 163.173L1456.59 165.43C1456.88 165.918 1457.29 166.326 1457.78 166.62L1460.04 167.977C1461.04 168.577 1461.36 169.871 1460.76 170.868C1460.58 171.162 1460.34 171.409 1460.04 171.586L1457.78 172.944C1457.29 173.238 1456.88 173.646 1456.59 174.134Z" fill="url(#paint24_linear_40_4198)"/>
<path fill-rule="evenodd" clip-rule="evenodd" d="M1346.89 565.944H1379.67V641.333H1346.89V565.944Z" fill="url(#paint25_linear_40_4198)"/>
<rect x="1307.56" y="565.944" width="19.6667" height="52.4444" fill="url(#paint26_linear_40_4198)"/>
<rect x="1399.33" y="565.944" width="19.6667" height="52.4444" fill="url(#paint27_linear_40_4198)"/>
<path fill-rule="evenodd" clip-rule="evenodd" d="M1317.39 608.556L1327.22 618.389L1317.39 628.222L1307.56 618.389L1317.39 608.556Z" fill="url(#paint28_linear_40_4198)"/>
<path fill-rule="evenodd" clip-rule="evenodd" d="M1363.28 624.944L1379.67 641.333L1363.28 657.722L1346.89 641.333L1363.28 624.944Z" fill="url(#paint29_linear_40_4198)"/>
<path fill-rule="evenodd" clip-rule="evenodd" d="M1409.17 608.556L1419 618.389L1409.17 628.222L1399.33 618.389L1409.17 608.556Z" fill="url(#paint30_linear_40_4198)"/>
<g filter="url(#filter6_i_40_4198)">
<path fill-rule="evenodd" clip-rule="evenodd" d="M1368.14 425C1343.32 425 1321.33 437.111 1307.77 455.74C1304.48 455.133 1301.08 454.815 1297.61 454.815C1266.9 454.815 1242 479.692 1242 510.38C1242 539.7 1264.73 563.862 1293.54 565.944H1434.6C1458.57 565.944 1478 546.528 1478 522.577C1478 500.461 1461.43 482.212 1440.02 479.545C1431.28 448.089 1402.41 425 1368.14 425Z" fill="url(#paint31_linear_40_4198)"/>
</g>
<path d="M827.177 862.088C824.632 862.088 822.487 861.703 820.742 860.934C818.996 860.165 817.576 859.085 816.482 857.694C815.386 856.305 814.587 854.648 814.085 852.724C813.582 850.802 813.331 848.656 813.331 846.289V825.519H807.118V817.887L813.863 817.442L815.106 805.549H823.627V817.442H834.722V825.52H823.627V846.289C823.627 851.379 825.668 853.922 829.751 853.922C830.52 853.922 831.304 853.834 832.103 853.656C832.902 853.478 833.626 853.242 834.278 852.946L836.053 860.49C834.869 860.905 833.523 861.274 832.014 861.6C830.506 861.924 828.893 862.088 827.177 862.088ZM860.284 862.088C857.562 862.088 854.959 861.585 852.473 860.579C849.988 859.574 847.783 858.094 845.861 856.141C843.937 854.189 842.413 851.792 841.29 848.952C840.165 846.112 839.604 842.887 839.604 839.277C839.604 835.668 840.165 832.443 841.29 829.603C842.413 826.762 843.937 824.365 845.861 822.413C847.783 820.461 849.988 818.967 852.473 817.931C854.959 816.896 857.562 816.377 860.284 816.377C863.005 816.377 865.624 816.896 868.139 817.931C870.654 818.967 872.857 820.461 874.752 822.413C876.645 824.365 878.169 826.762 879.323 829.603C880.477 832.443 881.054 835.668 881.054 839.277C881.054 842.887 880.477 846.112 879.323 848.952C878.169 851.792 876.645 854.189 874.752 856.141C872.857 858.094 870.654 859.574 868.139 860.579C865.624 861.585 863.005 862.088 860.284 862.088ZM860.284 853.744C863.48 853.744 865.994 852.428 867.829 849.795C869.662 847.163 870.58 843.657 870.58 839.277C870.58 834.839 869.662 831.304 867.829 828.671C865.994 826.038 863.48 824.721 860.284 824.721C857.089 824.721 854.588 826.038 852.784 828.671C850.978 831.304 850.077 834.839 850.077 839.277C850.077 843.657 850.978 847.163 852.784 849.795C854.588 852.428 857.089 853.744 860.284 853.744ZM891.172 861.023V817.442H899.604L900.314 823.389H900.669C902.502 821.436 904.499 819.781 906.66 818.419C908.82 817.058 911.26 816.377 913.983 816.377C917.178 816.377 919.737 817.058 921.66 818.419C923.583 819.781 925.047 821.703 926.054 824.188C928.125 821.94 930.284 820.076 932.533 818.596C934.782 817.118 937.296 816.377 940.078 816.377C944.693 816.377 948.095 817.872 950.285 820.86C952.473 823.848 953.569 828.124 953.569 833.685V861.023H943.273V835.017C943.273 831.409 942.725 828.863 941.631 827.383C940.535 825.905 938.864 825.164 936.616 825.164C933.894 825.164 930.847 826.97 927.474 830.579V861.023H917.267V835.017C917.267 831.409 916.719 828.863 915.625 827.383C914.529 825.905 912.829 825.164 910.521 825.164C907.799 825.164 904.752 826.97 901.379 830.579V861.023H891.172ZM983.835 862.088C981.112 862.088 978.509 861.585 976.025 860.579C973.539 859.574 971.334 858.094 969.411 856.141C967.488 854.189 965.964 851.792 964.84 848.952C963.716 846.112 963.154 842.887 963.154 839.277C963.154 835.668 963.716 832.443 964.84 829.603C965.964 826.762 967.488 824.365 969.411 822.413C971.334 820.461 973.539 818.967 976.025 817.931C978.509 816.896 981.112 816.377 983.835 816.377C986.556 816.377 989.174 816.896 991.69 817.931C994.204 818.967 996.408 820.461 998.303 822.413C1000.2 824.365 1001.72 826.762 1002.87 829.603C1004.03 832.443 1004.6 835.668 1004.6 839.277C1004.6 842.887 1004.03 846.112 1002.87 848.952C1001.72 851.792 1000.2 854.189 998.303 856.141C996.408 858.094 994.204 859.574 991.69 860.579C989.174 861.585 986.556 862.088 983.835 862.088ZM983.835 853.744C987.03 853.744 989.545 852.428 991.379 849.795C993.213 847.163 994.131 843.657 994.131 839.277C994.131 834.839 993.213 831.304 991.379 828.671C989.545 826.038 987.03 824.721 983.835 824.721C980.64 824.721 978.139 826.038 976.335 828.671C974.529 831.304 973.627 834.839 973.627 839.277C973.627 843.657 974.529 847.163 976.335 849.795C978.139 852.428 980.64 853.744 983.835 853.744ZM1014.72 861.023V817.442H1023.15L1023.87 825.164H1024.22C1025.76 822.324 1027.62 820.15 1029.81 818.64C1032 817.132 1034.25 816.377 1036.56 816.377C1038.63 816.377 1040.29 816.674 1041.53 817.265L1039.75 826.141C1038.98 825.905 1038.27 825.728 1037.62 825.608C1036.97 825.491 1036.17 825.431 1035.23 825.431C1033.51 825.431 1031.71 826.097 1029.81 827.428C1027.92 828.759 1026.29 831.082 1024.93 834.396V861.023H1014.72ZM1047.83 861.023V817.442H1056.26L1056.97 825.164H1057.33C1058.86 822.324 1060.73 820.15 1062.92 818.64C1065.11 817.132 1067.36 816.377 1069.66 816.377C1071.73 816.377 1073.39 816.674 1074.63 817.265L1072.86 826.141C1072.09 825.905 1071.38 825.728 1070.73 825.608C1070.08 825.491 1069.28 825.431 1068.33 825.431C1066.62 825.431 1064.81 826.097 1062.92 827.428C1061.02 828.759 1059.4 831.082 1058.04 834.396V861.023H1047.83ZM1097.89 862.088C1095.17 862.088 1092.56 861.585 1090.08 860.579C1087.59 859.574 1085.39 858.094 1083.46 856.141C1081.54 854.189 1080.02 851.792 1078.89 848.952C1077.77 846.112 1077.21 842.887 1077.21 839.277C1077.21 835.668 1077.77 832.443 1078.89 829.603C1080.02 826.762 1081.54 824.365 1083.46 822.413C1085.39 820.461 1087.59 818.967 1090.08 817.931C1092.56 816.896 1095.17 816.377 1097.89 816.377C1100.61 816.377 1103.23 816.896 1105.74 817.931C1108.26 818.967 1110.46 820.461 1112.36 822.413C1114.25 824.365 1115.77 826.762 1116.93 829.603C1118.08 832.443 1118.66 835.668 1118.66 839.277C1118.66 842.887 1118.08 846.112 1116.93 848.952C1115.77 851.792 1114.25 854.189 1112.36 856.141C1110.46 858.094 1108.26 859.574 1105.74 860.579C1103.23 861.585 1100.61 862.088 1097.89 862.088ZM1097.89 853.744C1101.08 853.744 1103.6 852.428 1105.43 849.795C1107.27 847.163 1108.18 843.657 1108.18 839.277C1108.18 834.839 1107.27 831.304 1105.43 828.671C1103.6 826.038 1101.08 824.721 1097.89 824.721C1094.69 824.721 1092.19 826.038 1090.39 828.671C1088.58 831.304 1087.68 834.839 1087.68 839.277C1087.68 843.657 1088.58 847.163 1090.39 849.795C1092.19 852.428 1094.69 853.744 1097.89 853.744ZM1135.43 861.023L1123.89 817.442H1134.19L1139.43 840.076C1139.9 842.147 1140.3 844.218 1140.63 846.289C1140.95 848.361 1141.32 850.461 1141.74 852.59H1142.09C1142.5 850.461 1142.93 848.361 1143.38 846.289C1143.82 844.218 1144.31 842.147 1144.84 840.076L1150.52 817.442H1159.84L1165.61 840.076C1166.14 842.147 1166.65 844.218 1167.12 846.289C1167.59 848.361 1168.07 850.461 1168.54 852.59H1168.9C1169.31 850.461 1169.69 848.361 1170.05 846.289C1170.4 844.218 1170.79 842.147 1171.2 840.076L1176.44 817.442H1186.03L1174.93 861.023H1162.77L1157.71 840.697C1157.24 838.627 1156.79 836.57 1156.38 834.529C1155.97 832.487 1155.52 830.312 1155.05 828.005H1154.69C1154.28 830.312 1153.86 832.502 1153.45 834.573C1153.04 836.645 1152.59 838.716 1152.12 840.786L1147.15 861.023H1135.43Z" fill="black"/>
<path opacity="0.3" d="M1189.35 861.556C1188.41 861.556 1187.62 861.229 1186.98 860.579C1186.34 859.928 1186.03 859.1 1186.03 858.094C1186.03 857.088 1186.34 856.26 1186.98 855.609C1187.62 854.958 1188.41 854.632 1189.35 854.632C1190.3 854.632 1191.09 854.958 1191.71 855.609C1192.33 856.26 1192.64 857.088 1192.64 858.094C1192.64 859.1 1192.33 859.928 1191.71 860.579C1191.09 861.229 1190.3 861.556 1189.35 861.556ZM1201.25 835.416C1200.33 835.416 1199.58 835.149 1198.98 834.617C1198.39 834.085 1198.1 833.389 1198.1 832.531C1198.1 831.674 1198.39 830.971 1198.98 830.424C1199.58 829.876 1200.33 829.602 1201.25 829.602C1202.16 829.602 1202.92 829.876 1203.51 830.424C1204.1 830.971 1204.4 831.674 1204.4 832.531C1204.4 833.389 1204.1 834.085 1203.51 834.617C1202.92 835.149 1202.16 835.416 1201.25 835.416ZM1198.67 861.023V839.233H1203.78V861.023H1198.67ZM1219.22 861.556C1217.86 861.556 1216.56 861.303 1215.32 860.801C1214.07 860.298 1212.97 859.559 1212.01 858.582C1211.05 857.606 1210.29 856.408 1209.72 854.988C1209.16 853.567 1208.88 851.955 1208.88 850.15C1208.88 848.346 1209.16 846.733 1209.72 845.313C1210.29 843.893 1211.05 842.694 1212.01 841.718C1212.97 840.742 1214.07 839.995 1215.32 839.476C1216.56 838.96 1217.86 838.7 1219.22 838.7C1220.58 838.7 1221.89 838.96 1223.15 839.476C1224.41 839.995 1225.51 840.742 1226.46 841.718C1227.4 842.694 1228.16 843.893 1228.74 845.313C1229.32 846.733 1229.61 848.346 1229.61 850.15C1229.61 851.955 1229.32 853.567 1228.74 854.988C1228.16 856.408 1227.4 857.606 1226.46 858.582C1225.51 859.559 1224.41 860.298 1223.15 860.801C1221.89 861.303 1220.58 861.556 1219.22 861.556ZM1219.22 857.384C1220.82 857.384 1222.08 856.725 1222.99 855.409C1223.91 854.093 1224.37 852.34 1224.37 850.15C1224.37 847.931 1223.91 846.163 1222.99 844.846C1222.08 843.531 1220.82 842.871 1219.22 842.871C1217.62 842.871 1216.37 843.531 1215.47 844.846C1214.57 846.164 1214.12 847.931 1214.12 850.15C1214.12 852.34 1214.57 854.093 1215.47 855.409C1216.37 856.725 1217.62 857.384 1219.22 857.384Z" fill="black"/>
<path fill-rule="evenodd" clip-rule="evenodd" d="M748.179 818.845C749.679 818.565 751.187 818.212 752.659 817.797C754.599 817.249 756.527 816.579 758.388 815.804C759.31 815.42 760.235 815.003 761.137 814.563C766.833 811.79 771.993 807.902 776.384 803.228C774.023 800.242 771.324 797.546 768.341 795.196C760.652 803.386 750.063 808.152 738.83 808.152C727.596 808.152 717.008 803.385 709.318 795.196C706.336 797.546 703.636 800.242 701.276 803.228C705.667 807.902 710.827 811.79 716.522 814.563C717.424 815.003 718.35 815.42 719.271 815.804C721.135 816.579 723.063 817.25 725.001 817.797C726.473 818.212 727.981 818.565 729.481 818.844C729.986 818.939 730.494 819.025 731.005 819.104C732.023 819.263 733.063 819.391 734.095 819.486C737.219 819.777 740.442 819.776 743.564 819.487C744.597 819.391 745.637 819.263 746.655 819.104C747.166 819.025 747.674 818.939 748.179 818.845ZM758.474 789.188C755.411 787.799 752.183 786.719 748.821 786C745.739 787.668 742.31 788.571 738.733 788.571C735.177 788.571 731.766 787.678 728.702 786.032C725.389 786.751 722.207 787.818 719.186 789.188C724.59 794.005 731.531 796.75 738.83 796.75C746.129 796.75 753.07 794.005 758.474 789.188ZM786.386 826.567C785.836 822.687 784.828 818.957 783.427 815.429C760.356 821.278 743.607 842.728 743.607 867.725C743.607 868.178 743.613 868.628 743.624 869.077C743.726 873.352 744.332 877.552 745.397 881.636C749.181 881.113 752.823 880.145 756.273 878.785C755.326 875.203 754.831 871.507 754.831 867.725C754.831 847.997 768.258 831.063 786.386 826.567ZM765.907 867.725C765.907 869.608 766.102 871.456 766.434 873.273C769.204 871.304 771.761 869.05 774.058 866.547C774.516 859.204 778.482 852.608 784.438 848.819C785.538 845.467 786.295 841.958 786.648 838.327C774.597 842.414 765.907 854.185 765.907 867.725ZM722.817 867.725C722.817 871.507 722.322 875.203 721.375 878.785C724.825 880.144 728.467 881.113 732.251 881.636C733.316 877.552 733.922 873.352 734.024 869.077C734.034 868.628 734.041 868.177 734.041 867.725C734.041 842.728 717.292 821.278 694.221 815.429C692.819 818.957 691.812 822.687 691.262 826.567C709.39 831.063 722.817 847.997 722.817 867.725ZM691 838.327C691.353 841.958 692.11 845.467 693.21 848.819C699.166 852.608 703.132 859.204 703.59 866.547C705.887 869.05 708.444 871.304 711.214 873.273C711.546 871.456 711.741 869.608 711.741 867.725C711.741 854.185 703.052 842.414 691 838.327Z" fill="url(#paint32_linear_40_4198)"/>
<defs>
<filter id="filter0_i_40_4198" x="481.333" y="118.333" width="193.389" height="157.333" filterUnits="userSpaceOnUse" color-interpolation-filters="sRGB">
<feFlood flood-opacity="0" result="BackgroundImageFix"/>
<feBlend mode="normal" in="SourceGraphic" in2="BackgroundImageFix" result="shape"/>
<feColorMatrix in="SourceAlpha" type="matrix" values="0 0 0 0 0 0 0 0 0 0 0 0 0 0 0 0 0 0 127 0" result="hardAlpha"/>
<feOffset dx="36.0556"/>
<feGaussianBlur stdDeviation="18.0278"/>
<feComposite in2="hardAlpha" operator="arithmetic" k2="-1" k3="1"/>
<feColorMatrix type="matrix" values="0 0 0 0 0.960784 0 0 0 0 0.635294 0 0 0 0 0.207843 0 0 0 0.6 0"/>
<feBlend mode="normal" in2="shape" result="effect1_innerShadow_40_4198"/>
</filter>
<filter id="filter1_i_40_4198" x="432.167" y="425" width="245.833" height="140.944" filterUnits="userSpaceOnUse" color-interpolation-filters="sRGB">
<feFlood flood-opacity="0" result="BackgroundImageFix"/>
<feBlend mode="normal" in="SourceGraphic" in2="BackgroundImageFix" result="shape"/>
<feColorMatrix in="SourceAlpha" type="matrix" values="0 0 0 0 0 0 0 0 0 0 0 0 0 0 0 0 0 0 127 0" result="hardAlpha"/>
<feOffset dx="-9.83333"/>
<feGaussianBlur stdDeviation="11.4722"/>
<feComposite in2="hardAlpha" operator="arithmetic" k2="-1" k3="1"/>
<feColorMatrix type="matrix" values="0 0 0 0 0 0 0 0 0 0 0 0 0 0 0 0 0 0 0.05 0"/>
<feBlend mode="normal" in2="shape" result="effect1_innerShadow_40_4198"/>
</filter>
<filter id="filter2_i_40_4198" x="448.895" y="507.662" width="91.098" height="128.366" filterUnits="userSpaceOnUse" color-interpolation-filters="sRGB">
<feFlood flood-opacity="0" result="BackgroundImageFix"/>
<feBlend mode="normal" in="SourceGraphic" in2="BackgroundImageFix" result="shape"/>
<feColorMatrix in="SourceAlpha" type="matrix" values="0 0 0 0 0 0 0 0 0 0 0 0 0 0 0 0 0 0 127 0" result="hardAlpha"/>
<feOffset dx="6.55556" dy="-3.27778"/>
<feGaussianBlur stdDeviation="8.19444"/>
<feComposite in2="hardAlpha" operator="arithmetic" k2="-1" k3="1"/>
<feColorMatrix type="matrix" values="0 0 0 0 0.89589 0 0 0 0 0.214037 0 0 0 0 0.214037 0 0 0 0.2 0"/>
<feBlend mode="normal" in2="shape" result="effect1_innerShadow_40_4198"/>
</filter>
<filter id="filter3_i_40_4198" x="832.167" y="138" width="245.833" height="140.944" filterUnits="userSpaceOnUse" color-interpolation-filters="sRGB">
<feFlood flood-opacity="0" result="BackgroundImageFix"/>
<feBlend mode="normal" in="SourceGraphic" in2="BackgroundImageFix" result="shape"/>
<feColorMatrix in="SourceAlpha" type="matrix" values="0 0 0 0 0 0 0 0 0 0 0 0 0 0 0 0 0 0 127 0" result="hardAlpha"/>
<feOffset dx="-9.83333"/>
<feGaussianBlur stdDeviation="11.4722"/>
<feComposite in2="hardAlpha" operator="arithmetic" k2="-1" k3="1"/>
<feColorMatrix type="matrix" values="0 0 0 0 0 0 0 0 0 0 0 0 0 0 0 0 0 0 0.05 0"/>
<feBlend mode="normal" in2="shape" result="effect1_innerShadow_40_4198"/>
</filter>
<filter id="filter4_i_40_4198" x="832.167" y="425" width="245.833" height="140.944" filterUnits="userSpaceOnUse" color-interpolation-filters="sRGB">
<feFlood flood-opacity="0" result="BackgroundImageFix"/>
<feBlend mode="normal" in="SourceGraphic" in2="BackgroundImageFix" result="shape"/>
<feColorMatrix in="SourceAlpha" type="matrix" values="0 0 0 0 0 0 0 0 0 0 0 0 0 0 0 0 0 0 127 0" result="hardAlpha"/>
<feOffset dx="-9.83333"/>
<feGaussianBlur stdDeviation="11.4722"/>
<feComposite in2="hardAlpha" operator="arithmetic" k2="-1" k3="1"/>
<feColorMatrix type="matrix" values="0 0 0 0 0 0 0 0 0 0 0 0 0 0 0 0 0 0 0.05 0"/>
<feBlend mode="normal" in2="shape" result="effect1_innerShadow_40_4198"/>
</filter>
<filter id="filter5_i_40_4198" x="1206.8" y="85.5556" width="271.198" height="219.611" filterUnits="userSpaceOnUse" color-interpolation-filters="sRGB">
<feFlood flood-opacity="0" result="BackgroundImageFix"/>
<feBlend mode="normal" in="SourceGraphic" in2="BackgroundImageFix" result="shape"/>
<feColorMatrix in="SourceAlpha" type="matrix" values="0 0 0 0 0 0 0 0 0 0 0 0 0 0 0 0 0 0 127 0" result="hardAlpha"/>
<feOffset dx="-52.4444"/>
<feGaussianBlur stdDeviation="26.2222"/>
<feComposite in2="hardAlpha" operator="arithmetic" k2="-1" k3="1"/>
<feColorMatrix type="matrix" values="0 0 0 0 0.533333 0 0 0 0 0.372549 0 0 0 0 0.52549 0 0 0 1 0"/>
<feBlend mode="normal" in2="shape" result="effect1_innerShadow_40_4198"/>
</filter>
<filter id="filter6_i_40_4198" x="1232.17" y="425" width="245.833" height="140.944" filterUnits="userSpaceOnUse" color-interpolation-filters="sRGB">
<feFlood flood-opacity="0" result="BackgroundImageFix"/>
<feBlend mode="normal" in="SourceGraphic" in2="BackgroundImageFix" result="shape"/>
<feColorMatrix in="SourceAlpha" type="matrix" values="0 0 0 0 0 0 0 0 0 0 0 0 0 0 0 0 0 0 127 0" result="hardAlpha"/>
<feOffset dx="-9.83333"/>
<feGaussianBlur stdDeviation="11.4722"/>
<feComposite in2="hardAlpha" operator="arithmetic" k2="-1" k3="1"/>
<feColorMatrix type="matrix" values="0 0 0 0 0 0 0 0 0 0 0 0 0 0 0 0 0 0 0.05 0"/>
<feBlend mode="normal" in2="shape" result="effect1_innerShadow_40_4198"/>
</filter>
<radialGradient id="paint0_radial_40_4198" cx="0" cy="0" r="1" gradientUnits="userSpaceOnUse" gradientTransform="translate(568.204 284.703) rotate(90) scale(212.657 190.573)">
<stop stop-color="#FBB03B"/>
<stop offset="1" stop-color="#E9FC3D"/>
</radialGradient>
<radialGradient id="paint1_radial_40_4198" cx="0" cy="0" r="1" gradientUnits="userSpaceOnUse" gradientTransform="translate(573.111 151.111) rotate(90) scale(78.6667)">
<stop stop-color="#FFF504"/>
<stop offset="1" stop-color="#FFF504" stop-opacity="0.01"/>
</radialGradient>
<linearGradient id="paint2_linear_40_4198" x1="507.556" y1="602" x2="507.556" y2="641.333" gradientUnits="userSpaceOnUse">
<stop stop-color="#0072F5" stop-opacity="0.01"/>
<stop offset="1" stop-color="#0072F5"/>
</linearGradient>
<linearGradient id="paint3_linear_40_4198" x1="442" y1="425" x2="442" y2="565.944" gradientUnits="userSpaceOnUse">
<stop stop-color="#EFEFEF"/>
<stop offset="1" stop-color="#D9D9D9"/>
</linearGradient>
<linearGradient id="paint4_linear_40_4198" x1="533.778" y1="579.056" x2="533.778" y2="641.333" gradientUnits="userSpaceOnUse">
<stop stop-color="#3FCEF5" stop-opacity="0.01"/>
<stop offset="1" stop-color="#0072F5"/>
</linearGradient>
<linearGradient id="paint5_linear_40_4198" x1="560" y1="565.944" x2="560" y2="595.444" gradientUnits="userSpaceOnUse">
<stop stop-color="#3FCEF5" stop-opacity="0.01"/>
<stop offset="1" stop-color="#0072F5"/>
</linearGradient>
<linearGradient id="paint6_linear_40_4198" x1="560" y1="602" x2="560" y2="641.333" gradientUnits="userSpaceOnUse">
<stop stop-color="#3FCEF5" stop-opacity="0.01"/>
<stop offset="1" stop-color="#0072F5"/>
</linearGradient>
<linearGradient id="paint7_linear_40_4198" x1="612.444" y1="565.944" x2="612.444" y2="595.444" gradientUnits="userSpaceOnUse">
<stop stop-color="#3FCEF5" stop-opacity="0.01"/>
<stop offset="1" stop-color="#0072F5"/>
</linearGradient>
<linearGradient id="paint8_linear_40_4198" x1="612.444" y1="602" x2="612.444" y2="641.333" gradientUnits="userSpaceOnUse">
<stop stop-color="#3FCEF5" stop-opacity="0.01"/>
<stop offset="1" stop-color="#0072F5"/>
</linearGradient>
<linearGradient id="paint9_linear_40_4198" x1="586.222" y1="565.944" x2="586.222" y2="641.333" gradientUnits="userSpaceOnUse">
<stop stop-color="#3FCEF5" stop-opacity="0.01"/>
<stop offset="1" stop-color="#0072F5"/>
</linearGradient>
<linearGradient id="paint10_linear_40_4198" x1="638.667" y1="579.056" x2="638.667" y2="641.333" gradientUnits="userSpaceOnUse">
<stop stop-color="#3FCEF5" stop-opacity="0.01"/>
<stop offset="1" stop-color="#0072F5"/>
</linearGradient>
<linearGradient id="paint11_linear_40_4198" x1="448.895" y1="510.94" x2="448.895" y2="636.028" gradientUnits="userSpaceOnUse">
<stop stop-color="#DBA100"/>
<stop offset="1" stop-color="#CBFF00"/>
</linearGradient>
<linearGradient id="paint12_linear_40_4198" x1="937.056" y1="115.056" x2="937.056" y2="200.278" gradientUnits="userSpaceOnUse">
<stop stop-color="#E3E3E3"/>
<stop offset="1" stop-color="#B9B9B9"/>
</linearGradient>
<linearGradient id="paint13_linear_40_4198" x1="842" y1="138" x2="842" y2="278.944" gradientUnits="userSpaceOnUse">
<stop stop-color="#EFEFEF"/>
<stop offset="1" stop-color="#D9D9D9"/>
</linearGradient>
<linearGradient id="paint14_linear_40_4198" x1="955.083" y1="565.944" x2="955.083" y2="608.556" gradientUnits="userSpaceOnUse">
<stop stop-color="#3FCEF5" stop-opacity="0.01"/>
<stop offset="1" stop-color="#0072F5"/>
</linearGradient>
<linearGradient id="paint15_linear_40_4198" x1="925.583" y1="565.944" x2="925.583" y2="598.722" gradientUnits="userSpaceOnUse">
<stop stop-color="#3FCEF5" stop-opacity="0.01"/>
<stop offset="1" stop-color="#0072F5"/>
</linearGradient>
<linearGradient id="paint16_linear_40_4198" x1="896.083" y1="565.944" x2="896.083" y2="588.889" gradientUnits="userSpaceOnUse">
<stop stop-color="#3FCEF5" stop-opacity="0.01"/>
<stop offset="1" stop-color="#0072F5"/>
</linearGradient>
<linearGradient id="paint17_linear_40_4198" x1="984.583" y1="565.944" x2="984.583" y2="598.722" gradientUnits="userSpaceOnUse">
<stop stop-color="#3FCEF5" stop-opacity="0.01"/>
<stop offset="1" stop-color="#0072F5"/>
</linearGradient>
<linearGradient id="paint18_linear_40_4198" x1="1014.08" y1="565.944" x2="1014.08" y2="588.889" gradientUnits="userSpaceOnUse">
<stop stop-color="#3FCEF5" stop-opacity="0.01"/>
<stop offset="1" stop-color="#0072F5"/>
</linearGradient>
<linearGradient id="paint19_linear_40_4198" x1="863.935" y1="621.444" x2="863.935" y2="661" gradientUnits="userSpaceOnUse">
<stop stop-color="#177DF7"/>
<stop offset="1" stop-color="#1C80F7" stop-opacity="0.133"/>
</linearGradient>
<linearGradient id="paint20_linear_40_4198" x1="842" y1="425" x2="842" y2="565.944" gradientUnits="userSpaceOnUse">
<stop stop-color="#EFEFEF"/>
<stop offset="1" stop-color="#D9D9D9"/>
</linearGradient>
<radialGradient id="paint21_radial_40_4198" cx="0" cy="0" r="1" gradientUnits="userSpaceOnUse" gradientTransform="translate(1357.87 73.4494) rotate(-90) scale(296.562 264.972)">
<stop stop-color="#A141D5"/>
<stop offset="1" stop-color="#A79085"/>
</radialGradient>
<linearGradient id="paint22_linear_40_4198" x1="1280.94" y1="285.406" x2="1326.07" y2="239.919" gradientUnits="userSpaceOnUse">
<stop stop-color="#00E0FF"/>
<stop offset="1" stop-color="#00A2FF"/>
</linearGradient>
<linearGradient id="paint23_linear_40_4198" x1="1422.02" y1="154.179" x2="1440.03" y2="136.038" gradientUnits="userSpaceOnUse">
<stop stop-color="#00E0FF"/>
<stop offset="1" stop-color="#00A2FF"/>
</linearGradient>
<linearGradient id="paint24_linear_40_4198" x1="1453.91" y1="178.862" x2="1463.34" y2="169.362" gradientUnits="userSpaceOnUse">
<stop stop-color="#00E0FF"/>
<stop offset="1" stop-color="#00A2FF"/>
</linearGradient>
<linearGradient id="paint25_linear_40_4198" x1="1346.89" y1="565.944" x2="1346.89" y2="641.333" gradientUnits="userSpaceOnUse">
<stop stop-color="#3FCEF5" stop-opacity="0.01"/>
<stop offset="1" stop-color="#3FCEF5" stop-opacity="0.5"/>
</linearGradient>
<linearGradient id="paint26_linear_40_4198" x1="1307.56" y1="565.944" x2="1307.56" y2="618.389" gradientUnits="userSpaceOnUse">
<stop stop-color="#3FCEF5" stop-opacity="0.01"/>
<stop offset="1" stop-color="#3FCEF5" stop-opacity="0.5"/>
</linearGradient>
<linearGradient id="paint27_linear_40_4198" x1="1399.33" y1="565.944" x2="1399.33" y2="618.389" gradientUnits="userSpaceOnUse">
<stop stop-color="#3FCEF5" stop-opacity="0.01"/>
<stop offset="1" stop-color="#3FCEF5" stop-opacity="0.5"/>
</linearGradient>
<linearGradient id="paint28_linear_40_4198" x1="1307.56" y1="608.556" x2="1307.56" y2="628.222" gradientUnits="userSpaceOnUse">
<stop stop-color="#7CB9FF"/>
<stop offset="1" stop-color="#0072F5"/>
</linearGradient>
<linearGradient id="paint29_linear_40_4198" x1="1346.89" y1="624.944" x2="1346.89" y2="657.722" gradientUnits="userSpaceOnUse">
<stop stop-color="#7CB9FF"/>
<stop offset="1" stop-color="#0072F5"/>
</linearGradient>
<linearGradient id="paint30_linear_40_4198" x1="1399.33" y1="608.556" x2="1399.33" y2="628.222" gradientUnits="userSpaceOnUse">
<stop stop-color="#7CB9FF"/>
<stop offset="1" stop-color="#0072F5"/>
</linearGradient>
<linearGradient id="paint31_linear_40_4198" x1="1242" y1="425" x2="1242" y2="565.944" gradientUnits="userSpaceOnUse">
<stop stop-color="#EFEFEF"/>
<stop offset="1" stop-color="#D9D9D9"/>
</linearGradient>
<linearGradient id="paint32_linear_40_4198" x1="691" y1="833.818" x2="786.648" y2="833.818" gradientUnits="userSpaceOnUse">
<stop stop-color="#0087FF"/>
<stop offset="1" stop-color="#00CDE9"/>
</linearGradient>
</defs>
</svg>
