<?xml version="1.0" encoding="UTF-8"?>
<svg width="517px" height="56px" viewBox="0 0 517 56" version="1.1" xmlns="http://www.w3.org/2000/svg" xmlns:xlink="http://www.w3.org/1999/xlink">
    <!-- Generator: Sketch 61 (89581) - https://sketch.com -->
    <title>Powered_by_Climacell/Light Background/Powered_by_Climacell-Black</title>
    <desc>Created with Sketch.</desc>
    <defs>
        <linearGradient x1="-0.0807083292%" y1="50.0508025%" x2="99.9196557%" y2="50.0508025%" id="linearGradient-1">
            <stop stop-color="#0087FF" offset="0%"></stop>
            <stop stop-color="#00CDE9" offset="100%"></stop>
        </linearGradient>
    </defs>
    <g id="Page-1" stroke="none" stroke-width="1" fill="none" fill-rule="evenodd">
        <g id="Powered_by_Climacell/Light-Background/Powered_by_Climacell-Black">
            <g id="brand/climacell-logo-full-colored" transform="translate(184.152000, 0.000000)">
                <path d="M327.16,47.56 L332.186,47.56 L332.186,0 L327.16,0 L327.16,47.56 Z M308.554,47.56 L313.58,47.56 L313.58,0 L308.554,0 L308.554,47.56 Z M273.246,29.078 L290.664,29.078 C290.664,25.016 290.004,22.146 288.688,20.466 C287.37,18.79 285.238,17.95 282.29,17.95 C279.296,17.95 277.052,18.834 275.556,20.6 C274.06,22.368 273.288,25.194 273.246,29.078 L273.246,29.078 Z M292.474,43.454 L294.416,43.254 L294.552,47.162 C292.004,47.516 289.648,47.78 287.484,47.958 C285.316,48.132 283.318,48.222 281.486,48.222 C276.662,48.222 273.246,46.842 271.236,44.082 C269.226,41.322 268.22,37.028 268.22,31.198 C268.22,19.586 272.886,13.778 282.224,13.778 C286.778,13.778 290.164,15.026 292.374,17.52 C294.584,20.016 295.69,23.934 295.69,29.278 L295.42,33.052 L273.312,33.052 C273.312,36.762 273.982,39.49 275.322,41.234 C276.662,42.978 279.006,43.85 282.356,43.85 C285.708,43.85 289.08,43.718 292.474,43.454 L292.474,43.454 Z M249.3,13.778 C250.774,13.778 253.274,14.042 256.806,14.572 L258.414,14.77 L258.212,18.812 C254.682,18.414 252.048,18.216 250.306,18.216 C248.428,18.216 246.854,18.414 245.58,18.812 C244.31,19.21 243.304,19.894 242.568,20.864 C241.83,21.838 241.304,23.128 240.992,24.74 C240.678,26.352 240.522,28.374 240.522,30.8 C240.522,33.23 240.658,35.272 240.924,36.928 C241.192,38.584 241.696,39.92 242.432,40.936 C243.168,41.952 244.174,42.68 245.448,43.122 C246.72,43.564 248.362,43.784 250.372,43.784 L258.278,43.188 L258.48,47.294 C256.38,47.604 254.56,47.836 253.018,47.99 C251.478,48.144 250.192,48.222 249.166,48.222 C246.576,48.222 244.398,47.902 242.634,47.262 C240.868,46.622 239.452,45.606 238.38,44.214 C237.308,42.824 236.536,41.024 236.068,38.816 C235.598,36.608 235.364,33.936 235.364,30.8 C235.364,27.666 235.62,25.016 236.134,22.852 C236.648,20.69 237.464,18.934 238.58,17.586 C239.696,16.24 241.136,15.268 242.902,14.672 C244.664,14.076 246.798,13.778 249.3,13.778 L249.3,13.778 Z M202.372,37.954 C202.372,42.018 204.07,44.048 207.464,44.048 C210.456,44.048 213.45,43.542 216.442,42.526 L217.984,41.996 L217.984,31.066 L208.068,31.994 C206.058,32.17 204.606,32.744 203.712,33.714 C202.818,34.686 202.372,36.1 202.372,37.954 L202.372,37.954 Z M223.008,24.442 L223.008,41.4 C223.144,43.034 224.438,44.004 226.896,44.314 L226.694,48.222 C223.164,48.222 220.506,47.338 218.722,45.572 C214.744,47.338 210.726,48.222 206.662,48.222 C203.58,48.222 201.234,47.36 199.624,45.638 C198.016,43.916 197.214,41.444 197.214,38.22 C197.214,34.998 198.038,32.622 199.692,31.098 C201.344,29.576 203.936,28.638 207.464,28.284 L217.984,27.29 L217.984,24.442 C217.984,22.19 217.492,20.578 216.51,19.606 C215.526,18.636 214.186,18.15 212.49,18.15 C210.702,18.15 208.882,18.206 207.03,18.314 C205.174,18.424 203.288,18.59 201.366,18.812 L199.29,19.01 L199.088,15.234 C203.868,14.264 208.224,13.778 212.156,13.778 C215.95,13.778 218.71,14.628 220.428,16.328 C222.15,18.028 223.008,20.732 223.008,24.442 L223.008,24.442 Z M144.884,20.666 L144.884,47.56 L139.86,47.56 L139.86,14.44 L144.818,14.44 L144.818,16.758 C148.168,14.77 151.428,13.778 154.6,13.778 C158.754,13.778 161.658,14.904 163.31,17.156 C164.07,16.714 164.94,16.284 165.924,15.864 C166.906,15.444 167.944,15.08 169.038,14.77 C170.134,14.462 171.216,14.22 172.288,14.042 C173.36,13.866 174.342,13.778 175.238,13.778 C177.47,13.778 179.312,14.054 180.764,14.606 C182.216,15.158 183.378,16.062 184.248,17.322 C185.12,18.58 185.722,20.258 186.058,22.356 C186.392,24.454 186.56,27.026 186.56,30.072 L186.56,47.56 L181.534,47.56 L181.534,30.206 C181.534,27.91 181.444,25.988 181.266,24.442 C181.088,22.896 180.742,21.66 180.23,20.732 C179.714,19.806 178.998,19.154 178.084,18.778 C177.168,18.404 175.974,18.214 174.498,18.214 C173.026,18.214 171.506,18.426 169.944,18.844 C168.38,19.264 167.174,19.672 166.326,20.07 L165.052,20.666 C165.632,22.08 165.924,25.302 165.924,30.338 L165.924,47.56 L160.898,47.56 L160.898,30.47 C160.898,28.086 160.808,26.11 160.63,24.542 C160.452,22.974 160.104,21.716 159.592,20.766 C159.078,19.816 158.362,19.154 157.448,18.778 C156.532,18.404 155.336,18.214 153.864,18.214 C152.432,18.214 150.97,18.426 149.474,18.844 C147.978,19.264 146.828,19.672 146.024,20.07 L144.884,20.666 Z M122.038,6.954 L127.062,6.954 L127.062,1.192 L122.038,1.192 L122.038,6.954 Z M122.038,47.56 L127.062,47.56 L127.062,14.44 L122.038,14.44 L122.038,47.56 Z M103.612,47.56 L108.638,47.56 L108.638,0 L103.612,0 L103.612,47.56 Z M82.106,13.778 C83.58,13.778 86.08,14.042 89.61,14.572 L91.218,14.77 L91.018,18.812 C87.488,18.414 84.852,18.216 83.112,18.216 C81.234,18.216 79.66,18.414 78.386,18.812 C77.114,19.21 76.11,19.894 75.372,20.864 C74.634,21.838 74.11,23.128 73.798,24.74 C73.484,26.352 73.328,28.374 73.328,30.8 C73.328,33.23 73.462,35.272 73.73,36.928 C73.998,38.584 74.502,39.92 75.238,40.936 C75.976,41.952 76.98,42.68 78.252,43.122 C79.526,43.564 81.168,43.784 83.178,43.784 L91.084,43.188 L91.286,47.294 C89.186,47.604 87.366,47.836 85.824,47.99 C84.284,48.144 82.998,48.222 81.972,48.222 C79.38,48.222 77.204,47.902 75.44,47.262 C73.674,46.622 72.256,45.606 71.184,44.214 C70.114,42.824 69.342,41.024 68.872,38.816 C68.404,36.608 68.17,33.936 68.17,30.8 C68.17,27.666 68.426,25.016 68.94,22.852 C69.454,20.69 70.268,18.934 71.386,17.586 C72.502,16.24 73.942,15.268 75.706,14.672 C77.472,14.076 79.604,13.778 82.106,13.778 L82.106,13.778 Z" id="Logotype" fill="#000000"></path>
                <path d="M54.038,37.004 C54.674,35.064 55.112,33.036 55.316,30.936 C48.346,33.3 43.32,40.108 43.32,47.94 C43.32,49.028 43.432,50.098 43.624,51.148 C45.226,50.008 46.704,48.706 48.034,47.258 C48.298,43.01 50.592,39.196 54.038,37.004 L54.038,37.004 Z M55.164,24.134 C54.846,21.888 54.264,19.732 53.454,17.692 C40.108,21.074 30.42,33.482 30.42,47.94 C30.42,48.202 30.424,48.462 30.43,48.72 C30.49,51.194 30.84,53.624 31.456,55.986 C33.644,55.682 35.75,55.122 37.746,54.336 C37.2,52.264 36.912,50.128 36.912,47.94 C36.912,36.528 44.678,26.734 55.164,24.134 L55.164,24.134 Z M39.02,2.514 C37.248,1.71 35.38,1.086 33.436,0.67 C31.654,1.634 29.67,2.156 27.602,2.156 C25.544,2.156 23.572,1.64 21.8,0.688 C19.884,1.104 18.042,1.72 16.296,2.514 C19.42,5.3 23.436,6.886 27.658,6.886 C31.88,6.886 35.894,5.3 39.02,2.514 L39.02,2.514 Z M14.754,17.19 C15.278,17.444 15.812,17.686 16.344,17.908 C17.422,18.356 18.538,18.744 19.66,19.06 C20.51,19.3 21.382,19.504 22.25,19.666 C22.542,19.72 22.836,19.772 23.132,19.816 C23.72,19.908 24.322,19.982 24.918,20.038 C26.726,20.206 28.59,20.206 30.396,20.038 C30.994,19.982 31.594,19.908 32.184,19.816 C32.48,19.772 32.774,19.72 33.066,19.668 C33.932,19.504 34.804,19.3 35.656,19.06 C36.778,18.744 37.894,18.356 38.97,17.908 C39.504,17.686 40.038,17.444 40.56,17.19 C43.854,15.586 46.838,13.338 49.378,10.634 C48.014,8.908 46.452,7.348 44.728,5.988 C40.28,10.724 34.156,13.482 27.658,13.482 C21.16,13.482 15.036,10.724 10.588,5.988 C8.864,7.348 7.302,8.908 5.936,10.634 C8.476,13.338 11.46,15.586 14.754,17.19 L14.754,17.19 Z M24.894,47.94 C24.894,47.69 24.892,47.444 24.886,47.196 C24.874,46.704 24.852,46.214 24.82,45.726 L24.82,45.724 C24.802,45.482 24.784,45.238 24.76,44.996 C24.716,44.512 24.662,44.032 24.596,43.554 C24.53,43.076 24.454,42.602 24.368,42.132 C24.282,41.662 24.184,41.194 24.078,40.732 C23.972,40.27 23.854,39.812 23.728,39.356 C23.538,38.678 23.326,38 23.092,37.34 C22.554,35.812 21.892,34.314 21.124,32.888 C17.014,25.246 9.964,19.776 1.856,17.708 C1.048,19.744 0.468,21.894 0.152,24.134 C10.636,26.734 18.404,36.528 18.404,47.94 C18.404,50.128 18.116,52.264 17.568,54.336 C19.564,55.122 21.67,55.682 23.86,55.986 C24.476,53.622 24.826,51.194 24.886,48.72 C24.892,48.462 24.894,48.202 24.894,47.94 L24.894,47.94 Z M4.97379915e-14,30.936 C0.206,33.072 0.658,35.134 1.31,37.102 C4.638,39.288 6.86,43.006 7.162,47.128 C8.52,48.628 10.04,49.974 11.692,51.148 C11.884,50.098 11.996,49.028 11.996,47.94 C11.996,40.108 6.97,33.3 4.97379915e-14,30.936 L4.97379915e-14,30.936 Z" id="climacell-logo-full-colored-fill-1" fill="url(#linearGradient-1)"></path>
            </g>
            <path d="M0,22.912 L7.416,22.912 C9.2560092,22.912 10.6879949,23.3559956 11.712,24.244 C12.7360051,25.1320044 13.248,26.3439923 13.248,27.88 C13.248,29.4160077 12.7320052,30.6319955 11.7,31.528 C10.6679948,32.4240045 9.24000912,32.872 7.416,32.872 L3.096,32.872 L3.096,40 L0,40 L0,22.912 Z M7.056,30.472 C8.12800536,30.472 8.93999724,30.2520022 9.492,29.812 C10.0440028,29.3719978 10.32,28.7360042 10.32,27.904 C10.32,27.0559958 10.0480027,26.4120022 9.504,25.972 C8.95999728,25.5319978 8.14400544,25.312 7.056,25.312 L3.096,25.312 L3.096,30.472 L7.056,30.472 Z M24.496,40.216 C22.8479918,40.216 21.4120061,39.8600036 20.188,39.148 C18.9639939,38.4359964 18.0200033,37.4200066 17.356,36.1 C16.6919967,34.7799934 16.36,33.224009 16.36,31.432 C16.36,29.6559911 16.6879967,28.1080066 17.344,26.788 C18.0000033,25.4679934 18.9399939,24.4560035 20.164,23.752 C21.3880061,23.0479965 22.8319917,22.696 24.496,22.696 C26.1600083,22.696 27.6039939,23.0479965 28.828,23.752 C30.0520061,24.4560035 30.9879968,25.4679934 31.636,26.788 C32.2840032,28.1080066 32.608,29.6559911 32.608,31.432 C32.608,33.224009 32.2800033,34.7799934 31.624,36.1 C30.9679967,37.4200066 30.0320061,38.4359964 28.816,39.148 C27.5999939,39.8600036 26.1600083,40.216 24.496,40.216 Z M24.496,37.744 C26.0800079,37.744 27.3119956,37.2000054 28.192,36.112 C29.0720044,35.0239946 29.512,33.4640102 29.512,31.432 C29.512,29.4159899 29.0720044,27.8680054 28.192,26.788 C27.3119956,25.7079946 26.0800079,25.168 24.496,25.168 C22.9119921,25.168 21.6800044,25.7039946 20.8,26.776 C19.9199956,27.8480054 19.48,29.3999898 19.48,31.432 C19.48,33.4640102 19.9199956,35.0239946 20.8,36.112 C21.6800044,37.2000054 22.9119921,37.744 24.496,37.744 Z M57.824,22.912 L60.8,22.912 L54.752,40 L52.232,40 L47.936,27.712 L43.592,40 L41.072,40 L35.048,22.912 L38.192,22.912 L42.464,35.656 L46.904,22.912 L49.112,22.912 L53.456,35.752 L57.824,22.912 Z M64.2,40 L64.2,22.912 L75.624,22.912 L75.624,25.36 L67.224,25.36 L67.224,30.088 L75.12,30.088 L75.12,32.536 L67.224,32.536 L67.224,37.552 L75.624,37.552 L75.624,40 L64.2,40 Z M93.544,40 L90.28,40 L88.096,34.312 C87.903999,33.7839974 87.608002,33.416001 87.208,33.208 C86.807998,32.999999 86.2880032,32.896 85.648,32.896 L82.552,32.896 L82.552,40 L79.48,40 L79.48,22.912 L86.8,22.912 C88.7360097,22.912 90.207995,23.3359958 91.216,24.184 C92.224005,25.0320042 92.728,26.2479921 92.728,27.832 C92.728,28.9680057 92.428003,29.931996 91.828,30.724 C91.227997,31.516004 90.3760055,32.0799983 89.272,32.416 C90.280005,32.624001 91.0079978,33.327994 91.456,34.528 L93.544,40 Z M86.368,30.496 C87.5360058,30.496 88.3999972,30.2800022 88.96,29.848 C89.5200028,29.4159978 89.8,28.7600044 89.8,27.88 C89.8,27.0159957 89.5240028,26.3720021 88.972,25.948 C88.4199972,25.5239979 87.5520059,25.312 86.368,25.312 L82.504,25.312 L82.504,30.496 L86.368,30.496 Z M97.328,40 L97.328,22.912 L108.752,22.912 L108.752,25.36 L100.352,25.36 L100.352,30.088 L108.248,30.088 L108.248,32.536 L100.352,32.536 L100.352,37.552 L108.752,37.552 L108.752,40 L97.328,40 Z M112.608,22.912 L118.896,22.912 C121.696014,22.912 123.867992,23.6559926 125.412,25.144 C126.956008,26.6320074 127.728,28.7279865 127.728,31.432 C127.728,34.1520136 126.956008,36.2599925 125.412,37.756 C123.867992,39.2520075 121.696014,40 118.896,40 L112.608,40 L112.608,22.912 Z M118.704,37.48 C122.64002,37.48 124.608,35.4640202 124.608,31.432 C124.608,27.432 122.64002,25.432 118.704,25.432 L115.704,25.432 L115.704,37.48 L118.704,37.48 Z M149.984,31.168 C150.976005,31.4560014 151.739997,31.9599964 152.276,32.68 C152.812003,33.4000036 153.08,34.2879947 153.08,35.344 C153.08,36.8000073 152.564005,37.9399959 151.532,38.764 C150.499995,39.5880041 149.064009,40 147.224,40 L139.472,40 L139.472,22.912 L146.984,22.912 C148.744009,22.912 150.127995,23.307996 151.136,24.1 C152.144005,24.892004 152.648,25.983993 152.648,27.376 C152.648,28.2720045 152.412002,29.0519967 151.94,29.716 C151.467998,30.3800033 150.816004,30.8639985 149.984,31.168 Z M142.496,30.112 L146.48,30.112 C148.624011,30.112 149.696,29.312 149.696,27.712 C149.696,26.911996 149.432003,26.312 148.904,25.912 C148.375997,25.511998 147.568005,25.312 146.48,25.312 L142.496,25.312 L142.496,30.112 Z M146.888,37.6 C148.008006,37.6 148.827997,37.400002 149.348,37 C149.868003,36.599998 150.128,35.9680043 150.128,35.104 C150.128,34.2239956 149.868003,33.5760021 149.348,33.16 C148.827997,32.7439979 148.008006,32.536 146.888,32.536 L142.496,32.536 L142.496,37.6 L146.888,37.6 Z M170.928,22.912 L163.992,33.232 L163.992,40 L160.896,40 L160.896,33.232 L153.96,22.912 L157.488,22.912 L162.432,30.64 L167.4,22.912 L170.928,22.912 Z" id="POWERED-BY" fill="#000000" fill-rule="nonzero"></path>
        </g>
    </g>
</svg>