<?xml version="1.0" encoding="UTF-8"?>
<svg width="533px" height="72px" viewBox="0 0 533 72" version="1.1" xmlns="http://www.w3.org/2000/svg" xmlns:xlink="http://www.w3.org/1999/xlink">
    <!-- Generator: Sketch 61 (89581) - https://sketch.com -->
    <title>Powered_by_Climacell/Image Background/Powered_by_Climacell-Halo</title>
    <desc>Created with Sketch.</desc>
    <defs>
        <linearGradient x1="-0.0807083292%" y1="50.0508025%" x2="99.9196557%" y2="50.0508025%" id="linearGradient-1">
            <stop stop-color="#0087FF" offset="0%"></stop>
            <stop stop-color="#00CDE9" offset="100%"></stop>
        </linearGradient>
    </defs>
    <g id="Page-1" stroke="none" stroke-width="1" fill="none" fill-rule="evenodd">
        <g id="brand/powered-by-climacell">
            <path d="M300.79,-1.42108547e-14 C303.865526,-1.42108547e-14 306.535704,1.73550007 307.874627,4.28059239 C309.338485,2.40097824 311.623056,1.192 314.19,1.192 L319.214,1.192 C323.632278,1.192 327.214,4.773722 327.214,9.192 L327.214,14.954 C327.214,15.3430666 327.186226,15.7256464 327.132553,16.0998647 C328.482955,15.0590364 330.175186,14.44 332.012,14.44 L336.97,14.44 C337.883202,14.44 338.760666,14.5930097 339.578154,14.8747905 C341.950162,14.1500605 344.344605,13.778 346.752,13.778 C350.441857,13.778 353.755235,14.44687 356.545259,15.8692407 C357.347142,15.5764214 358.17279,15.3099965 359.025663,15.0683348 C360.397601,14.6827904 361.764532,14.3767139 363.143919,14.1476873 C364.6263,13.9043112 366.037254,13.778 367.39,13.778 C370.52368,13.778 373.30266,14.1943944 375.758822,15.1281419 C378.719905,16.2538428 381.188494,18.1772804 382.974902,20.7645161 C383.134566,20.994856 383.288222,21.2295677 383.435997,21.4686242 C384.115386,18.4629729 386.499933,16.0328378 389.648997,15.3938016 C394.930267,14.3220795 399.811854,13.778 404.308,13.778 C410.02266,13.778 414.770946,15.2413948 418.20037,18.6348955 C419.923101,20.3356174 421.160565,22.3633737 421.968563,24.6710701 C422.667528,23.1388985 423.532129,21.7376938 424.573498,20.479842 C426.65345,17.9712256 429.346757,16.1548094 432.490655,15.0937901 C435.148206,14.1948685 438.132033,13.778 441.452,13.778 C443.413789,13.778 446.197081,14.0704158 450.039471,14.6447462 L451.543691,14.8299672 C454.755032,15.2253935 457.310305,17.4823777 458.21375,20.4167253 C461.938079,16.1408745 467.383279,13.778 474.376,13.778 C481.054031,13.778 486.632317,15.8344158 490.51559,20.2167171 C491.349405,21.1584377 492.077814,22.1801182 492.706,23.279338 L492.706,8 C492.706,3.581722 496.287722,-1.42108547e-14 500.706,-1.42108547e-14 L505.732,-1.42108547e-14 C508.596152,-1.42108547e-14 511.108759,1.50514383 512.522,3.76761023 C513.935241,1.50514383 516.447848,-1.42108547e-14 519.312,-1.42108547e-14 L524.338,-1.42108547e-14 C528.756278,-1.42108547e-14 532.338,3.581722 532.338,8 L532.338,55.56 C532.338,59.978278 528.756278,63.56 524.338,63.56 L519.312,63.56 C516.447848,63.56 513.935241,62.0548562 512.522,59.7923898 C511.108759,62.0548562 508.596152,63.56 505.732,63.56 L500.706,63.56 C497.609684,63.56 494.924215,61.8009578 493.594403,59.2276849 C492.390745,61.2647145 490.30283,62.7388455 487.804886,63.0858911 C485.132685,63.4571467 482.62667,63.7390202 480.276008,63.9323582 C477.883508,64.1243762 475.678425,64.222 473.638,64.222 C467.171985,64.222 461.783027,62.3038639 458.080007,58.217528 C457.060606,60.8105312 454.71822,62.7774919 451.800292,63.2082337 C449.58261,63.5356057 447.641793,63.7829386 445.96603,63.9502975 C444.17673,64.1292275 442.639101,64.222 441.318,64.222 C437.858915,64.222 434.777453,63.769156 432.060264,62.7833273 C429.859999,61.9859491 427.897905,60.8184556 426.229986,59.3050456 C425.0194,62.2035309 422.158465,64.222 418.846,64.222 C415.556282,64.222 412.555407,63.661287 409.93693,62.4750206 C406.285445,63.6348373 402.570756,64.222 398.814,64.222 C393.658879,64.222 389.182866,62.5783152 385.928913,59.0979976 C385.920218,59.088686 385.911536,59.0793661 385.902867,59.070038 C384.602602,61.7288452 381.871145,63.56 378.712,63.56 L373.686,63.56 C369.873632,63.56 366.684107,60.8932923 365.881,57.3234518 C365.077893,60.8932923 361.888368,63.56 358.076,63.56 L353.05,63.56 C348.631722,63.56 345.05,59.978278 345.05,55.56 L345.036,55.56 C345.036,59.978278 341.454278,63.56 337.036,63.56 L332.012,63.56 C329.395639,63.56 327.072627,62.3040248 325.613,60.3621106 C324.153373,62.3040248 321.830361,63.56 319.214,63.56 L314.19,63.56 C311.38568,63.56 308.918371,62.1170841 307.49,59.9331799 C306.061629,62.1170841 303.59432,63.56 300.79,63.56 L295.764,63.56 C293.221565,63.56 290.956137,62.3739982 289.490782,60.5250634 C288.276013,61.9309959 286.571712,62.9181003 284.606292,63.2082337 C282.38861,63.5356057 280.447793,63.7829386 278.77203,63.9502975 C276.98273,64.1292275 275.445101,64.222 274.124,64.222 C270.663613,64.222 267.583858,63.769303 264.866264,62.7833273 C261.69409,61.6337284 259.01529,59.7150393 256.996704,57.0938898 C255.365963,54.9754509 254.209107,52.4769375 253.473888,49.6452767 C248.099569,62.7615301 235.204665,72 220.152,72 C200.750967,72 184.934414,56.6530175 184.18015,37.4368627 L179.992,43.6705777 L179.992,48 C179.992,52.418278 176.410278,56 171.992,56 L168.896,56 C166.769144,56 164.836138,55.1700311 163.403195,53.8163062 C161.034084,55.3242788 158.255594,56 155.224,56 L147.472,56 C143.943172,56 140.947986,53.7152075 139.885066,50.5442465 C139.599377,50.8736152 139.297348,51.1928527 138.978842,51.5014569 C135.82007,54.5620282 131.644569,56 126.896,56 L120.608,56 C119.943282,56 119.2975,55.91893 118.68,55.7661381 C118.0625,55.91893 117.416718,56 116.752,56 L105.328,56 C104.678739,56 104.047542,55.9226564 103.443121,55.7766801 C102.838604,55.9223086 102.203324,56 101.544,56 L98.28,56 C96.8979804,56 95.5755847,55.6446476 94.4174475,55.0058491 C93.2716583,55.639383 91.9539425,56 90.552,56 L87.48,56 C86.8152824,56 86.1694997,55.91893 85.552,55.7661381 C84.9345003,55.91893 84.2887176,56 83.624,56 L72.2,56 C70.4327949,56 68.7994228,55.4269933 67.4755424,54.4566389 C66.1354003,55.4369817 64.492181,56 62.752,56 L60.232,56 C58.6625364,56 57.1722319,55.5420782 55.9119984,54.7333432 C54.651622,55.5421605 53.1612493,56 51.592,56 L49.072,56 C46.5096199,56 44.1577212,54.7793075 42.673932,52.8033857 C42.10467,53.2596095 41.498892,53.676525 40.8582586,54.0516327 C38.35839,55.5153716 35.5243876,56.216 32.496,56.216 C29.4866049,56.216 26.6631183,55.516027 24.1654653,54.0631439 C22.0566194,52.8364295 20.3211276,51.1593301 19.0183775,49.1188745 C18.4741767,53.0074674 15.1345601,56 11.096,56 L8,56 C3.581722,56 1.70530257e-13,52.418278 1.70530257e-13,48 L1.70530257e-13,30.912 C1.70530257e-13,26.493722 3.581722,22.912 8,22.912 L15.416,22.912 C18.4448198,22.912 21.2330848,23.6202108 23.5925974,25.1699674 C23.783546,25.0484667 23.9778233,24.9308664 24.1753795,24.8172393 C26.6691094,23.3829371 29.4871127,22.696 32.496,22.696 C34.8251735,22.696 37.039964,23.1076317 39.0784975,23.9589253 C40.2344455,23.2965766 41.5828115,22.912 43.048,22.912 L46.192,22.912 C47.7772412,22.912 49.2807348,23.3790105 50.5480052,24.2018903 C51.8157681,23.3787239 53.3195013,22.912 54.904,22.912 L57.112,22.912 C58.6970649,22.912 60.2006145,23.3789426 61.4680008,24.2018891 C62.7354569,23.378902 64.2390406,22.912 65.824,22.912 L68.8,22.912 C69.3892875,22.912 69.9596628,22.9742016 70.5062138,23.0916554 C71.0521712,22.9739675 71.618849,22.912 72.2,22.912 L83.624,22.912 C84.2887176,22.912 84.9345003,22.99307 85.552,23.1458619 C86.1694997,22.99307 86.8152824,22.912 87.48,22.912 L94.8,22.912 C97.0902539,22.912 99.2253788,23.2789915 101.144872,24.0914762 C102.361984,23.3434099 103.794612,22.912 105.328,22.912 L116.752,22.912 C117.416718,22.912 118.0625,22.99307 118.68,23.1458619 C119.2975,22.99307 119.943282,22.912 120.608,22.912 L126.896,22.912 C131.636726,22.912 135.80505,24.3398237 138.963427,27.383648 C139.28889,27.6973068 139.597224,28.0220469 139.888568,28.3573302 C140.954552,25.1917867 143.94704,22.912 147.472,22.912 L154.984,22.912 C156.43506,22.912 157.829555,23.0715636 159.149105,23.4078254 C160.009418,23.0889345 160.952595,22.912 161.96,22.912 L165.488,22.912 C167.311871,22.912 169.051677,23.533368 170.444,24.6319146 C171.836442,23.5332713 173.5763,22.912 175.4,22.912 L178.928,22.912 C181.749759,22.912 184.067603,24.3001752 185.471999,26.307848 C189.703594,11.1332655 203.62764,-7.10542736e-15 220.152,-7.10542736e-15 C236.290739,-7.10542736e-15 249.949112,10.6197052 254.520289,25.252284 C255.259641,23.4894078 256.207536,21.8929049 257.379498,20.479842 C259.458557,17.9723027 262.150723,16.1560252 265.299867,15.0920293 C267.959501,14.1944405 270.940265,13.778 274.258,13.778 C276.220096,13.778 279.004011,14.0705326 282.843795,14.644786 L284.347691,14.8299672 C285.607439,14.9850854 286.766253,15.4266782 287.764,16.0832684 L287.764,8 C287.764,3.581722 291.345722,-1.42108547e-14 295.764,-1.42108547e-14 L300.79,-1.42108547e-14 Z" id="Border" fill-opacity="0.35" fill="#000000" fill-rule="nonzero"></path>
            <g id="brand/climacell-logo-full-colored" transform="translate(192.152000, 8.000000)" fill-rule="evenodd">
                <path d="M327.16,47.56 L332.186,47.56 L332.186,0 L327.16,0 L327.16,47.56 Z M308.554,47.56 L313.58,47.56 L313.58,0 L308.554,0 L308.554,47.56 Z M273.246,29.078 L290.664,29.078 C290.664,25.016 290.004,22.146 288.688,20.466 C287.37,18.79 285.238,17.95 282.29,17.95 C279.296,17.95 277.052,18.834 275.556,20.6 C274.06,22.368 273.288,25.194 273.246,29.078 L273.246,29.078 Z M292.474,43.454 L294.416,43.254 L294.552,47.162 C292.004,47.516 289.648,47.78 287.484,47.958 C285.316,48.132 283.318,48.222 281.486,48.222 C276.662,48.222 273.246,46.842 271.236,44.082 C269.226,41.322 268.22,37.028 268.22,31.198 C268.22,19.586 272.886,13.778 282.224,13.778 C286.778,13.778 290.164,15.026 292.374,17.52 C294.584,20.016 295.69,23.934 295.69,29.278 L295.42,33.052 L273.312,33.052 C273.312,36.762 273.982,39.49 275.322,41.234 C276.662,42.978 279.006,43.85 282.356,43.85 C285.708,43.85 289.08,43.718 292.474,43.454 L292.474,43.454 Z M249.3,13.778 C250.774,13.778 253.274,14.042 256.806,14.572 L258.414,14.77 L258.212,18.812 C254.682,18.414 252.048,18.216 250.306,18.216 C248.428,18.216 246.854,18.414 245.58,18.812 C244.31,19.21 243.304,19.894 242.568,20.864 C241.83,21.838 241.304,23.128 240.992,24.74 C240.678,26.352 240.522,28.374 240.522,30.8 C240.522,33.23 240.658,35.272 240.924,36.928 C241.192,38.584 241.696,39.92 242.432,40.936 C243.168,41.952 244.174,42.68 245.448,43.122 C246.72,43.564 248.362,43.784 250.372,43.784 L258.278,43.188 L258.48,47.294 C256.38,47.604 254.56,47.836 253.018,47.99 C251.478,48.144 250.192,48.222 249.166,48.222 C246.576,48.222 244.398,47.902 242.634,47.262 C240.868,46.622 239.452,45.606 238.38,44.214 C237.308,42.824 236.536,41.024 236.068,38.816 C235.598,36.608 235.364,33.936 235.364,30.8 C235.364,27.666 235.62,25.016 236.134,22.852 C236.648,20.69 237.464,18.934 238.58,17.586 C239.696,16.24 241.136,15.268 242.902,14.672 C244.664,14.076 246.798,13.778 249.3,13.778 L249.3,13.778 Z M202.372,37.954 C202.372,42.018 204.07,44.048 207.464,44.048 C210.456,44.048 213.45,43.542 216.442,42.526 L217.984,41.996 L217.984,31.066 L208.068,31.994 C206.058,32.17 204.606,32.744 203.712,33.714 C202.818,34.686 202.372,36.1 202.372,37.954 L202.372,37.954 Z M223.008,24.442 L223.008,41.4 C223.144,43.034 224.438,44.004 226.896,44.314 L226.694,48.222 C223.164,48.222 220.506,47.338 218.722,45.572 C214.744,47.338 210.726,48.222 206.662,48.222 C203.58,48.222 201.234,47.36 199.624,45.638 C198.016,43.916 197.214,41.444 197.214,38.22 C197.214,34.998 198.038,32.622 199.692,31.098 C201.344,29.576 203.936,28.638 207.464,28.284 L217.984,27.29 L217.984,24.442 C217.984,22.19 217.492,20.578 216.51,19.606 C215.526,18.636 214.186,18.15 212.49,18.15 C210.702,18.15 208.882,18.206 207.03,18.314 C205.174,18.424 203.288,18.59 201.366,18.812 L199.29,19.01 L199.088,15.234 C203.868,14.264 208.224,13.778 212.156,13.778 C215.95,13.778 218.71,14.628 220.428,16.328 C222.15,18.028 223.008,20.732 223.008,24.442 L223.008,24.442 Z M144.884,20.666 L144.884,47.56 L139.86,47.56 L139.86,14.44 L144.818,14.44 L144.818,16.758 C148.168,14.77 151.428,13.778 154.6,13.778 C158.754,13.778 161.658,14.904 163.31,17.156 C164.07,16.714 164.94,16.284 165.924,15.864 C166.906,15.444 167.944,15.08 169.038,14.77 C170.134,14.462 171.216,14.22 172.288,14.042 C173.36,13.866 174.342,13.778 175.238,13.778 C177.47,13.778 179.312,14.054 180.764,14.606 C182.216,15.158 183.378,16.062 184.248,17.322 C185.12,18.58 185.722,20.258 186.058,22.356 C186.392,24.454 186.56,27.026 186.56,30.072 L186.56,47.56 L181.534,47.56 L181.534,30.206 C181.534,27.91 181.444,25.988 181.266,24.442 C181.088,22.896 180.742,21.66 180.23,20.732 C179.714,19.806 178.998,19.154 178.084,18.778 C177.168,18.404 175.974,18.214 174.498,18.214 C173.026,18.214 171.506,18.426 169.944,18.844 C168.38,19.264 167.174,19.672 166.326,20.07 L165.052,20.666 C165.632,22.08 165.924,25.302 165.924,30.338 L165.924,47.56 L160.898,47.56 L160.898,30.47 C160.898,28.086 160.808,26.11 160.63,24.542 C160.452,22.974 160.104,21.716 159.592,20.766 C159.078,19.816 158.362,19.154 157.448,18.778 C156.532,18.404 155.336,18.214 153.864,18.214 C152.432,18.214 150.97,18.426 149.474,18.844 C147.978,19.264 146.828,19.672 146.024,20.07 L144.884,20.666 Z M122.038,6.954 L127.062,6.954 L127.062,1.192 L122.038,1.192 L122.038,6.954 Z M122.038,47.56 L127.062,47.56 L127.062,14.44 L122.038,14.44 L122.038,47.56 Z M103.612,47.56 L108.638,47.56 L108.638,0 L103.612,0 L103.612,47.56 Z M82.106,13.778 C83.58,13.778 86.08,14.042 89.61,14.572 L91.218,14.77 L91.018,18.812 C87.488,18.414 84.852,18.216 83.112,18.216 C81.234,18.216 79.66,18.414 78.386,18.812 C77.114,19.21 76.11,19.894 75.372,20.864 C74.634,21.838 74.11,23.128 73.798,24.74 C73.484,26.352 73.328,28.374 73.328,30.8 C73.328,33.23 73.462,35.272 73.73,36.928 C73.998,38.584 74.502,39.92 75.238,40.936 C75.976,41.952 76.98,42.68 78.252,43.122 C79.526,43.564 81.168,43.784 83.178,43.784 L91.084,43.188 L91.286,47.294 C89.186,47.604 87.366,47.836 85.824,47.99 C84.284,48.144 82.998,48.222 81.972,48.222 C79.38,48.222 77.204,47.902 75.44,47.262 C73.674,46.622 72.256,45.606 71.184,44.214 C70.114,42.824 69.342,41.024 68.872,38.816 C68.404,36.608 68.17,33.936 68.17,30.8 C68.17,27.666 68.426,25.016 68.94,22.852 C69.454,20.69 70.268,18.934 71.386,17.586 C72.502,16.24 73.942,15.268 75.706,14.672 C77.472,14.076 79.604,13.778 82.106,13.778 L82.106,13.778 Z" id="Logotype" fill="#FFFFFF"></path>
                <path d="M54.038,37.004 C54.674,35.064 55.112,33.036 55.316,30.936 C48.346,33.3 43.32,40.108 43.32,47.94 C43.32,49.028 43.432,50.098 43.624,51.148 C45.226,50.008 46.704,48.706 48.034,47.258 C48.298,43.01 50.592,39.196 54.038,37.004 L54.038,37.004 Z M55.164,24.134 C54.846,21.888 54.264,19.732 53.454,17.692 C40.108,21.074 30.42,33.482 30.42,47.94 C30.42,48.202 30.424,48.462 30.43,48.72 C30.49,51.194 30.84,53.624 31.456,55.986 C33.644,55.682 35.75,55.122 37.746,54.336 C37.2,52.264 36.912,50.128 36.912,47.94 C36.912,36.528 44.678,26.734 55.164,24.134 L55.164,24.134 Z M39.02,2.514 C37.248,1.71 35.38,1.086 33.436,0.67 C31.654,1.634 29.67,2.156 27.602,2.156 C25.544,2.156 23.572,1.64 21.8,0.688 C19.884,1.104 18.042,1.72 16.296,2.514 C19.42,5.3 23.436,6.886 27.658,6.886 C31.88,6.886 35.894,5.3 39.02,2.514 L39.02,2.514 Z M14.754,17.19 C15.278,17.444 15.812,17.686 16.344,17.908 C17.422,18.356 18.538,18.744 19.66,19.06 C20.51,19.3 21.382,19.504 22.25,19.666 C22.542,19.72 22.836,19.772 23.132,19.816 C23.72,19.908 24.322,19.982 24.918,20.038 C26.726,20.206 28.59,20.206 30.396,20.038 C30.994,19.982 31.594,19.908 32.184,19.816 C32.48,19.772 32.774,19.72 33.066,19.668 C33.932,19.504 34.804,19.3 35.656,19.06 C36.778,18.744 37.894,18.356 38.97,17.908 C39.504,17.686 40.038,17.444 40.56,17.19 C43.854,15.586 46.838,13.338 49.378,10.634 C48.014,8.908 46.452,7.348 44.728,5.988 C40.28,10.724 34.156,13.482 27.658,13.482 C21.16,13.482 15.036,10.724 10.588,5.988 C8.864,7.348 7.302,8.908 5.936,10.634 C8.476,13.338 11.46,15.586 14.754,17.19 L14.754,17.19 Z M24.894,47.94 C24.894,47.69 24.892,47.444 24.886,47.196 C24.874,46.704 24.852,46.214 24.82,45.726 L24.82,45.724 C24.802,45.482 24.784,45.238 24.76,44.996 C24.716,44.512 24.662,44.032 24.596,43.554 C24.53,43.076 24.454,42.602 24.368,42.132 C24.282,41.662 24.184,41.194 24.078,40.732 C23.972,40.27 23.854,39.812 23.728,39.356 C23.538,38.678 23.326,38 23.092,37.34 C22.554,35.812 21.892,34.314 21.124,32.888 C17.014,25.246 9.964,19.776 1.856,17.708 C1.048,19.744 0.468,21.894 0.152,24.134 C10.636,26.734 18.404,36.528 18.404,47.94 C18.404,50.128 18.116,52.264 17.568,54.336 C19.564,55.122 21.67,55.682 23.86,55.986 C24.476,53.622 24.826,51.194 24.886,48.72 C24.892,48.462 24.894,48.202 24.894,47.94 L24.894,47.94 Z M4.97379915e-14,30.936 C0.206,33.072 0.658,35.134 1.31,37.102 C4.638,39.288 6.86,43.006 7.162,47.128 C8.52,48.628 10.04,49.974 11.692,51.148 C11.884,50.098 11.996,49.028 11.996,47.94 C11.996,40.108 6.97,33.3 4.97379915e-14,30.936 L4.97379915e-14,30.936 Z" id="climacell-logo-full-colored-fill-1" fill="url(#linearGradient-1)"></path>
            </g>
            <path d="M8,30.912 L15.416,30.912 C17.2560092,30.912 18.6879949,31.3559956 19.712,32.244 C20.7360051,33.1320044 21.248,34.3439923 21.248,35.88 C21.248,37.4160077 20.7320052,38.6319955 19.7,39.528 C18.6679948,40.4240045 17.2400091,40.872 15.416,40.872 L11.096,40.872 L11.096,48 L8,48 L8,30.912 Z M15.056,38.472 C16.1280054,38.472 16.9399972,38.2520022 17.492,37.812 C18.0440028,37.3719978 18.32,36.7360042 18.32,35.904 C18.32,35.0559958 18.0480027,34.4120022 17.504,33.972 C16.9599973,33.5319978 16.1440054,33.312 15.056,33.312 L11.096,33.312 L11.096,38.472 L15.056,38.472 Z M32.496,48.216 C30.8479918,48.216 29.4120061,47.8600036 28.188,47.148 C26.9639939,46.4359964 26.0200033,45.4200066 25.356,44.1 C24.6919967,42.7799934 24.36,41.224009 24.36,39.432 C24.36,37.6559911 24.6879967,36.1080066 25.344,34.788 C26.0000033,33.4679934 26.9399939,32.4560035 28.164,31.752 C29.3880061,31.0479965 30.8319917,30.696 32.496,30.696 C34.1600083,30.696 35.6039939,31.0479965 36.828,31.752 C38.0520061,32.4560035 38.9879968,33.4679934 39.636,34.788 C40.2840032,36.1080066 40.608,37.6559911 40.608,39.432 C40.608,41.224009 40.2800033,42.7799934 39.624,44.1 C38.9679967,45.4200066 38.0320061,46.4359964 36.816,47.148 C35.5999939,47.8600036 34.1600083,48.216 32.496,48.216 Z M32.496,45.744 C34.0800079,45.744 35.3119956,45.2000054 36.192,44.112 C37.0720044,43.0239946 37.512,41.4640102 37.512,39.432 C37.512,37.4159899 37.0720044,35.8680054 36.192,34.788 C35.3119956,33.7079946 34.0800079,33.168 32.496,33.168 C30.9119921,33.168 29.6800044,33.7039946 28.8,34.776 C27.9199956,35.8480054 27.48,37.3999898 27.48,39.432 C27.48,41.4640102 27.9199956,43.0239946 28.8,44.112 C29.6800044,45.2000054 30.9119921,45.744 32.496,45.744 Z M65.824,30.912 L68.8,30.912 L62.752,48 L60.232,48 L55.936,35.712 L51.592,48 L49.072,48 L43.048,30.912 L46.192,30.912 L50.464,43.656 L54.904,30.912 L57.112,30.912 L61.456,43.752 L65.824,30.912 Z M72.2,48 L72.2,30.912 L83.624,30.912 L83.624,33.36 L75.224,33.36 L75.224,38.088 L83.12,38.088 L83.12,40.536 L75.224,40.536 L75.224,45.552 L83.624,45.552 L83.624,48 L72.2,48 Z M101.544,48 L98.28,48 L96.096,42.312 C95.903999,41.7839974 95.608002,41.416001 95.208,41.208 C94.807998,40.999999 94.2880032,40.896 93.648,40.896 L90.552,40.896 L90.552,48 L87.48,48 L87.48,30.912 L94.8,30.912 C96.7360097,30.912 98.207995,31.3359958 99.216,32.184 C100.224005,33.0320042 100.728,34.2479921 100.728,35.832 C100.728,36.9680057 100.428003,37.931996 99.828,38.724 C99.227997,39.516004 98.3760055,40.0799983 97.272,40.416 C98.280005,40.624001 99.0079978,41.327994 99.456,42.528 L101.544,48 Z M94.368,38.496 C95.5360058,38.496 96.3999972,38.2800022 96.96,37.848 C97.5200028,37.4159978 97.8,36.7600044 97.8,35.88 C97.8,35.0159957 97.5240028,34.3720021 96.972,33.948 C96.4199972,33.5239979 95.5520059,33.312 94.368,33.312 L90.504,33.312 L90.504,38.496 L94.368,38.496 Z M105.328,48 L105.328,30.912 L116.752,30.912 L116.752,33.36 L108.352,33.36 L108.352,38.088 L116.248,38.088 L116.248,40.536 L108.352,40.536 L108.352,45.552 L116.752,45.552 L116.752,48 L105.328,48 Z M120.608,30.912 L126.896,30.912 C129.696014,30.912 131.867992,31.6559926 133.412,33.144 C134.956008,34.6320074 135.728,36.7279865 135.728,39.432 C135.728,42.1520136 134.956008,44.2599925 133.412,45.756 C131.867992,47.2520075 129.696014,48 126.896,48 L120.608,48 L120.608,30.912 Z M126.704,45.48 C130.64002,45.48 132.608,43.4640202 132.608,39.432 C132.608,35.432 130.64002,33.432 126.704,33.432 L123.704,33.432 L123.704,45.48 L126.704,45.48 Z M157.984,39.168 C158.976005,39.4560014 159.739997,39.9599964 160.276,40.68 C160.812003,41.4000036 161.08,42.2879947 161.08,43.344 C161.08,44.8000073 160.564005,45.9399959 159.532,46.764 C158.499995,47.5880041 157.064009,48 155.224,48 L147.472,48 L147.472,30.912 L154.984,30.912 C156.744009,30.912 158.127995,31.307996 159.136,32.1 C160.144005,32.892004 160.648,33.983993 160.648,35.376 C160.648,36.2720045 160.412002,37.0519967 159.94,37.716 C159.467998,38.3800033 158.816004,38.8639985 157.984,39.168 Z M150.496,38.112 L154.48,38.112 C156.624011,38.112 157.696,37.312 157.696,35.712 C157.696,34.911996 157.432003,34.312 156.904,33.912 C156.375997,33.511998 155.568005,33.312 154.48,33.312 L150.496,33.312 L150.496,38.112 Z M154.888,45.6 C156.008006,45.6 156.827997,45.400002 157.348,45 C157.868003,44.599998 158.128,43.9680043 158.128,43.104 C158.128,42.2239956 157.868003,41.5760021 157.348,41.16 C156.827997,40.7439979 156.008006,40.536 154.888,40.536 L150.496,40.536 L150.496,45.6 L154.888,45.6 Z M178.928,30.912 L171.992,41.232 L171.992,48 L168.896,48 L168.896,41.232 L161.96,30.912 L165.488,30.912 L170.432,38.64 L175.4,30.912 L178.928,30.912 Z" id="POWERED-BY" fill="#FFFFFF" fill-rule="nonzero"></path>
        </g>
    </g>
</svg>