<?xml version="1.0" encoding="UTF-8"?>
<svg width="20px" height="15px" viewBox="0 0 20 15" version="1.1" xmlns="http://www.w3.org/2000/svg" xmlns:xlink="http://www.w3.org/1999/xlink">
    <!-- Generator: Sketch 64 (93537) - https://sketch.com -->
    <title>cloudy</title>
    <desc>Created with Sketch.</desc>
    <g id="Page-1" stroke="none" stroke-width="1" fill="none" fill-rule="evenodd">
        <g id="cloudy" fill="#000000" fill-rule="nonzero">
            <path d="M15.2,15 L7,15 C5.8,15 4.9,14.1 4.9,12.9 C4.9,12.1 5.4,11.3 6.1,11 C6.2,11 6.4,10.9 6.4,10.6 C6.4,8.5 8.4,6.8 10.9,6.8 C13.4,6.8 15.4,8.5 15.4,10.6 C15.4,10.7 15.5,10.8 15.5,10.9 C16.5,11 17.3,11.9 17.3,13 C17.3,14.1 16.3,15 15.2,15 Z M10.9,7.2 C8.7,7.2 6.9,8.7 6.9,10.5 C6.9,11 6.5,11.3 6.3,11.4 C5.8,11.7 5.4,12.2 5.4,12.8 C5.4,13.7 6.1,14.4 7,14.4 L15.1,14.4 C16,14.4 16.7,13.7 16.7,12.8 C16.7,12 16.1,11.3 15.3,11.2 C15,11.2 14.8,10.7 14.8,10.5 C14.9,8.7 13.1,7.2 10.9,7.2 Z" id="Shape"></path>
            <path d="M7.5,0.8 C9.7,0.8 11.6,2.3 12.3,4.6 C12.3,4.7 12.7,4.9 13.2,4.9 C14.5,4.9 15.7,5.6 16.3,6.7 C16.4,6.8 16.6,7 17.1,7 C18.5,7 19.6,8.1 19.6,9.5 C19.6,10.9 18.5,12.1 17.1,12.1 L16.5391326,12.1001314 C16.4245808,11.8630204 16.253818,11.6560059 16.0430727,11.4993732 L17,11.5 C18.1,11.5 19,10.5 19,9.4 C19,8.3 18.1,7.4 17,7.4 C16.4,7.4 16,7.2 15.8,6.9 C15.3,6 14.2,5.4 13.1,5.4 C12.5,5.4 11.9,5.1 11.8,4.7 C11.2,2.6 9.4,1.3 7.5,1.3 C5,1.3 2.9,3.4 2.9,6 C2.9,6.9 2.3,7.1 2.2,7.1 C1.6,7.5 1.2,8.3 1.2,9.2 C1.2,10.5 2,11.5 3,11.5 L6.14885716,11.4990657 C5.92310613,11.6603376 5.72678216,11.8642423 5.59185004,12.1001247 L3.1,12.1 C1.8,12.1 0.8,10.7 0.8,9.2 C0.8,8.1 1.3,7.1 2.1,6.7 C2.2,6.7 2.5,6.5 2.5,6 C2.5,3.1 4.8,0.8 7.5,0.8 Z" id="Combined-Shape"></path>
        </g>
    </g>
</svg>