<?xml version="1.0" encoding="UTF-8"?>
<svg width="18px" height="20px" viewBox="0 0 18 20" version="1.1" xmlns="http://www.w3.org/2000/svg" xmlns:xlink="http://www.w3.org/1999/xlink">
    <!-- Generator: Sketch 64 (93537) - https://sketch.com -->
    <title>fog</title>
    <desc>Created with Sketch.</desc>
    <g id="Page-1" stroke="none" stroke-width="1" fill="none" fill-rule="evenodd">
        <g id="fog" fill="#000000" fill-rule="nonzero">
            <path d="M14.8,14.8 C14.1,14.8 13.6,14.4 13.2,14 C12.8,13.6 12.4,13.3 11.8,13.3 C11.4,13.3 11.2,13.5 10.9,13.8 C10.6,14.2 10.1,14.7 9.1,14.7 C8.2,14.7 7.7,14.2 7.3,13.8 C6.9,13.4 6.6,13.2 6.1,13.2 C5.6,13.2 5.3,13.5 5,13.8 C4.6,14.2 4.2,14.7 3.3,14.7 C2.6,14.7 2.1,14.2 1.6,13.8 C1.2,13.5 0.9,13.2 0.6,13.2 C0.4,13.2 0.2,13 0.2,12.8 C0.2,12.6 0.4,12.4 0.6,12.4 C1.2,12.4 1.7,12.8 2.1,13.2 C2.5,13.6 2.9,13.9 3.3,13.9 C3.8,13.9 4.1,13.6 4.5,13.3 C4.9,12.9 5.3,12.4 6.1,12.4 C7,12.4 7.4,12.9 7.9,13.2 C8.3,13.6 8.6,13.8 9.2,13.8 C9.9,13.8 10.1,13.5 10.4,13.1 C10.7,12.7 11.1,12.3 11.8,12.3 C12.7,12.3 13.2,12.8 13.7,13.2 C14.1,13.5 14.4,13.8 14.8,13.8 C15.3,13.8 15.6,13.5 15.9,13.2 C16.3,12.8 16.8,12.4 17.5,12.4 C17.7,12.4 17.9,12.6 17.9,12.8 C17.9,13 17.7,13.2 17.5,13.2 C17,13.2 16.7,13.5 16.4,13.8 C16,14.4 15.5,14.8 14.8,14.8 Z" id="Path" opacity="0.25"></path>
            <path d="M14.8,17.3 C14.1,17.3 13.6,16.9 13.2,16.5 C12.8,16.1 12.4,15.8 11.8,15.8 C11.4,15.8 11.2,16 10.9,16.3 C10.6,16.7 10.1,17.2 9.1,17.2 C8.2,17.2 7.7,16.7 7.3,16.3 C7,16 6.7,15.8 6.1,15.8 C5.6,15.8 5.3,16.1 5,16.4 C4.6,16.8 4.2,17.3 3.3,17.3 C2.6,17.3 2.1,16.8 1.6,16.4 C1.2,16.1 0.9,15.8 0.6,15.8 C0.4,15.8 0.2,15.6 0.2,15.4 C0.2,15.2 0.4,15 0.6,15 C1.2,15 1.7,15.4 2.1,15.8 C2.5,16.2 2.9,16.5 3.3,16.5 C3.8,16.5 4.1,16.2 4.5,15.9 C4.8,15.5 5.3,15 6.1,15 C7,15 7.4,15.5 7.9,15.8 C8.3,16.2 8.6,16.4 9.2,16.4 C9.9,16.4 10.1,16.1 10.4,15.7 C10.7,15.3 11.1,14.9 11.8,14.9 C12.7,14.9 13.2,15.4 13.7,15.8 C14.1,16.1 14.4,16.4 14.8,16.4 C15.3,16.4 15.6,16.1 15.9,15.8 C16.3,15.4 16.8,15 17.5,15 C17.7,15 17.9,15.2 17.9,15.4 C17.9,15.6 17.7,15.8 17.5,15.8 C17,15.8 16.7,16.1 16.4,16.4 C16,16.8 15.5,17.3 14.8,17.3 Z" id="Path" opacity="0.6"></path>
            <path d="M14.8,19.7 C14.1,19.7 13.6,19.3 13.2,18.9 C12.8,18.5 12.4,18.2 11.8,18.2 C11.4,18.2 11.2,18.4 10.9,18.7 C10.6,19.1 10.1,19.6 9.1,19.6 C8.2,19.6 7.7,19.1 7.3,18.7 C6.9,18.3 6.6,18.1 6.1,18.1 C5.6,18.1 5.3,18.4 5,18.7 C4.6,19.1 4.2,19.6 3.3,19.6 C2.6,19.6 2.1,19.1 1.6,18.7 C1.2,18.4 0.9,18.1 0.6,18.1 C0.4,18.1 0.2,17.9 0.2,17.7 C0.2,17.5 0.4,17.3 0.6,17.3 C1.2,17.3 1.7,17.7 2.1,18.1 C2.5,18.5 2.9,18.8 3.3,18.8 C3.8,18.8 4.1,18.5 4.5,18.2 C4.9,17.8 5.3,17.3 6.1,17.3 C7,17.3 7.4,17.8 7.9,18.1 C8.3,18.5 8.6,18.7 9.2,18.7 C9.9,18.7 10.1,18.4 10.4,18 C10.7,17.6 11.1,17.2 11.8,17.2 C12.7,17.2 13.2,17.7 13.7,18.1 C14.1,18.4 14.4,18.7 14.8,18.7 C15.3,18.7 15.6,18.4 15.9,18.1 C16.3,17.7 16.8,17.3 17.5,17.3 C17.7,17.3 17.9,17.5 17.9,17.7 C17.9,17.9 17.7,18.1 17.5,18.1 C17,18.1 16.7,18.4 16.4,18.7 C16,19.2 15.5,19.7 14.8,19.7 Z" id="Path"></path>
            <path d="M13.7,9.8 L4.4,9.8 C3.1,9.8 2,8.8 2,7.5 C2,6.6 2.5,5.7 3.4,5.4 C3.5,5.4 3.8,5.3 3.8,4.9 C3.8,2.5 6.1,0.5 8.9,0.5 C11.7,0.5 14,2.5 14,4.9 C14,5 14.1,5.2 14.1,5.2 C15.2,5.3 16.1,6.3 16.1,7.5 C16.1,8.8 15,9.8 13.7,9.8 Z M8.8,0.9 C6.3,0.9 4.2,2.6 4.2,4.8 C4.2,5.6 3.5,5.8 3.5,5.8 C2.9,6.1 2.5,6.8 2.5,7.5 C2.5,8.5 3.3,9.4 4.4,9.4 L13.7,9.4 C14.7,9.4 15.6,8.6 15.6,7.5 C15.6,6.6 14.9,5.8 14,5.6 C13.7,5.6 13.5,5.1 13.5,4.8 C13.4,2.7 11.4,0.9 8.8,0.9 Z" id="Shape"></path>
        </g>
    </g>
</svg>