<?xml version="1.0" encoding="UTF-8"?>
<svg width="18px" height="20px" viewBox="0 0 18 20" version="1.1" xmlns="http://www.w3.org/2000/svg" xmlns:xlink="http://www.w3.org/1999/xlink">
    <!-- Generator: Sketch 64 (93537) - https://sketch.com -->
    <title>rain-freezing</title>
    <desc>Created with Sketch.</desc>
    <g id="Page-1" stroke="none" stroke-width="1" fill="none" fill-rule="evenodd">
        <g id="rain-freezing" fill="#000000" fill-rule="nonzero">
            <path d="M11.1,6.4 C11,6.4 11,6.4 10.9,6.4 C10.6,6.3 10.5,6 10.6,5.8 L11,4.8 C11.1,4.5 11.4,4.4 11.6,4.5 C11.9,4.5 12,4.8 12,5.1 L11.6,6.1 C11.5,6.3 11.3,6.4 11.1,6.4 Z" id="Path"></path>
            <path d="M12.7,2.5 C12.6,2.5 12.6,2.5 12.5,2.5 C12.2,2.4 12.1,2.1 12.2,1.9 L12.6,0.9 C12.7,0.6 13,0.5 13.2,0.6 C13.5,0.7 13.6,1 13.5,1.2 L13.1,2.2 C13.1,2.4 12.9,2.5 12.7,2.5 Z" id="Path"></path>
            <path d="M5.1,5.3 C5,5.3 5,5.3 4.9,5.3 C4.7,5.2 4.5,4.9 4.6,4.7 L5,3.7 C5.1,3.4 5.4,3.3 5.6,3.4 C5.9,3.5 6,3.8 5.9,4 L5.6,5 C5.5,5.2 5.3,5.3 5.1,5.3 Z" id="Path"></path>
            <path d="M7.4,8.2 C7.3,8.2 7.3,8.2 7.2,8.2 C7,8.1 6.8,7.8 6.9,7.6 L7.3,6.6 C7.4,6.3 7.7,6.2 7.9,6.3 C8.2,6.4 8.3,6.7 8.2,6.9 L7.8,7.9 C7.8,8.1 7.6,8.2 7.4,8.2 Z" id="Path"></path>
            <path d="M8.9,4.4 C8.8,4.4 8.8,4.4 8.7,4.4 C8.4,4.2 8.3,3.9 8.4,3.7 L8.8,2.7 C8.9,2.4 9.2,2.3 9.4,2.4 C9.7,2.5 9.8,2.8 9.7,3 L9.3,4 C9.3,4.2 9.1,4.4 8.9,4.4 Z" id="Path"></path>
            <path d="M14.4,7.7 C14.3,7.7 14.3,7.7 14.2,7.7 C14,7.6 13.8,7.3 13.9,7 L14.3,6 C14.4,5.7 14.7,5.6 14.9,5.7 C15.2,5.8 15.3,6.1 15.2,6.3 L14.8,7.3 C14.8,7.6 14.6,7.7 14.4,7.7 Z" id="Path"></path>
            <path d="M17.5,11.5 L0.5,11.5 C0.3,11.5 0,11.3 0,11 C0,10.7 0.2,10.5 0.5,10.5 L17.4,10.5 C17.7,10.5 17.9,10.7 17.9,11 C18,11.3 17.7,11.5 17.5,11.5 Z" id="Path"></path>
            <path d="M9,19.7 C8.7,19.7 8.5,17.5 8.5,17.2 L8.3,11.4 C8.3,11.1 8.7,10.9 9,10.9 C9.3,10.9 9.8,11.1 9.8,11.4 L9.5,17.2 C9.5,17.4 9.3,19.7 9,19.7 Z" id="Path"></path>
            <path d="M6.3,15.5 C6,15.5 5.8,13.3 5.8,13 L5.8,11.4 C5.8,11.1 6,10.9 6.3,10.9 C6.6,10.9 6.8,11.1 6.8,11.4 L6.9,13 C6.9,13.2 6.6,15.5 6.3,15.5 Z" id="Path"></path>
            <path d="M11.7,16.2 C11.4,16.2 11.2,14 11.2,13.7 L11,11.4 C11,11.1 11.4,10.9 11.7,10.9 C12,10.9 12.6,11.1 12.6,11.4 L12.2,13.7 C12.2,14 12,16.2 11.7,16.2 Z" id="Path"></path>
            <path d="M14.4,17.7 C14.1,17.7 13.9,15.5 13.9,15.2 L13.6,11.4 C13.6,11.1 14.1,10.9 14.4,10.9 C14.7,10.9 15.2,11.1 15.2,11.4 L14.9,15.2 C14.9,15.5 14.7,17.7 14.4,17.7 Z" id="Path"></path>
            <path d="M3.5,16.7 C3.2,16.7 3,14.5 3,14.2 L2.8,11.4 C2.8,11.1 3.2,10.9 3.5,10.9 C3.8,10.9 4.3,11.1 4.3,11.4 L4,14.1 C4,14.4 3.8,16.7 3.5,16.7 Z" id="Path"></path>
            <path d="M0.4,11.2 C0.4,11.2 1.8,11.9 2.1,12.2 C2.4,12.5 2.7,12.7 2.8,13.1 C2.9,13.4 3.4,14.9 3.4,14.9 C3.4,14.9 3.9,12.5 4.7,12.5 C5.4,12.5 6.3,13.4 6.3,13.9 C6.3,14.4 7.1,12.3 7.6,12.3 C8.2,12.3 9,13.6 9,14.2 C9,14.8 9.8,12.3 10.3,12.2 C10.8,12.1 11.5,13.7 11.6,14.2 C11.7,14.7 12.4,12.2 13,12.2 C13.5,12.2 14.2,14 14.3,14.5 C14.4,15 15.2,12.4 15.5,12.1 C15.8,11.8 16.9,11.4 17.1,11.4 C17.3,11.4 17.3,11.1 17.3,11.1 L1,11.1 L0.4,11.2 Z" id="Path"></path>
        </g>
    </g>
</svg>