<?xml version="1.0" encoding="UTF-8"?>
<svg width="16px" height="20px" viewBox="0 0 16 20" version="1.1" xmlns="http://www.w3.org/2000/svg" xmlns:xlink="http://www.w3.org/1999/xlink">
    <!-- Generator: Sketch 64 (93537) - https://sketch.com -->
    <title>ice-pellets</title>
    <desc>Created with Sketch.</desc>
    <g id="Page-1" stroke="none" stroke-width="1" fill="none" fill-rule="evenodd">
        <g id="ice-pellets" fill="#000000" fill-rule="nonzero">
            <path d="M13,10.3 C12.9,10.3 12.9,10.3 12.8,10.3 C12.6,10.2 12.4,10 12.5,9.7 L13.5,7.1 C13.5,7.1 15.4,2.6 15.7,2.7 C15.9,2.8 14.4,7.5 14.4,7.5 L13.4,10 C13.3,10.2 13.1,10.3 13,10.3 Z" id="Path"></path>
            <path d="M8.6,13.9 C8.5,13.9 8.5,13.9 8.4,13.9 C8.2,13.8 8,13.6 8.1,13.3 L9.1,10.7 C9.1,10.7 11.9,3.8 12.1,3.8 C12.3,3.9 9.9,11.1 9.9,11.1 L9,13.6 C8.9,13.8 8.8,13.9 8.6,13.9 Z" id="Path"></path>
            <path d="M6.6,9.7 C6.5,9.7 6.5,9.7 6.4,9.7 C6.2,9.6 6.1,9.3 6.1,9.1 L7.1,6.5 C7.1,6.5 9.8,0.4 10.1,0.5 C10.3,0.6 8,6.9 8,6.9 L7,9.4 C6.9,9.6 6.8,9.7 6.6,9.7 Z" id="Path"></path>
            <path d="M2.5,11.5 C2.4,11.5 2.4,11.5 2.3,11.5 C2.1,11.4 2,11.1 2,10.9 L3,8.3 C3,8.3 4.9,3.8 5.2,3.9 C5.4,4 3.9,8.7 3.9,8.7 L3,11.2 C2.8,11.4 2.7,11.5 2.5,11.5 Z" id="Path"></path>
            <rect id="Rectangle" transform="translate(7.311800, 17.495000) rotate(-30.000728) translate(-7.311800, -17.495000) " x="5.7118352" y="15.8950352" width="3.1999296" height="3.1999296"></rect>
            <rect id="Rectangle" transform="translate(12.084400, 13.020000) rotate(-30.000728) translate(-12.084400, -13.020000) " x="11.084422" y="12.020022" width="1.999956" height="1.999956"></rect>
            <rect id="Rectangle" transform="translate(5.577800, 12.628200) rotate(-30.000728) translate(-5.577800, -12.628200) " x="4.577822" y="11.628222" width="1.999956" height="1.999956"></rect>
            <rect id="Rectangle" transform="translate(1.599500, 14.396400) rotate(-30.000728) translate(-1.599500, -14.396400) " x="0.599522" y="13.396422" width="1.999956" height="1.999956"></rect>
        </g>
    </g>
</svg>