<?xml version="1.0" encoding="UTF-8"?>
<svg width="20px" height="16px" viewBox="0 0 20 16" version="1.1" xmlns="http://www.w3.org/2000/svg" xmlns:xlink="http://www.w3.org/1999/xlink">
    <!-- Generator: Sketch 64 (93537) - https://sketch.com -->
    <title>partly-cloudy-day</title>
    <desc>Created with Sketch.</desc>
    <g id="Page-1" stroke="none" stroke-width="1" fill="none" fill-rule="evenodd">
        <g id="partly-cloudy-day" fill="#000000" fill-rule="nonzero">
            <g id="Group" transform="translate(6.000000, 0.000000)">
                <circle id="Oval" cx="6.9" cy="6.9" r="2.5"></circle>
                <path d="M6.9,13.6 C6.7,13.6 6.6,13.5 6.6,13.3 L6.6,10.3 C6.6,10.1 6.7,10 6.9,10 C7.1,10 7.2,10.1 7.2,10.3 L7.2,13.3 C7.2,13.5 7.1,13.6 6.9,13.6 Z" id="Path"></path>
                <path d="M6.9,3.8 C6.7,3.8 6.6,3.7 6.6,3.5 L6.6,0.5 C6.6,0.3 6.7,0.2 6.9,0.2 C7.1,0.2 7.2,0.3 7.2,0.5 L7.2,3.5 C7.2,3.7 7.1,3.8 6.9,3.8 Z" id="Path"></path>
                <path d="M13.3,7.2 L10.3,7.2 C10.1,7.2 10,7.1 10,6.9 C10,6.7 10.1,6.6 10.3,6.6 L13.3,6.6 C13.5,6.6 13.6,6.7 13.6,6.9 C13.6,7.1 13.5,7.2 13.3,7.2 Z" id="Path"></path>
                <path d="M3.5,7.2 L0.5,7.2 C0.3,7.2 0.2,7.1 0.2,6.9 C0.2,6.7 0.3,6.6 0.5,6.6 L3.5,6.6 C3.7,6.6 3.8,6.7 3.8,6.9 C3.8,7.1 3.7,7.2 3.5,7.2 Z" id="Path"></path>
                <path d="M9.3,4.8 C9.2,4.8 9.1,4.8 9.1,4.7 C9,4.6 9,4.4 9.1,4.3 L11.2,2.2 C11.3,2.1 11.5,2.1 11.6,2.2 C11.7,2.3 11.7,2.5 11.6,2.6 L9.5,4.7 C9.5,4.8 9.4,4.8 9.3,4.8 Z" id="Path"></path>
                <path d="M3.6,10.6 C3.5,10.6 3.4,10.6 3.4,10.5 C3.3,10.4 3.3,10.2 3.4,10.1 L4.3,9.2 C4.4,9.1 4.6,9.1 4.7,9.2 C4.8,9.3 4.8,9.5 4.7,9.6 L3.8,10.5 C3.7,10.5 3.7,10.6 3.6,10.6 Z" id="Path"></path>
                <path d="M4.5,4.8 C4.4,4.8 4.3,4.8 4.3,4.7 L2.2,2.6 C2.1,2.5 2.1,2.3 2.2,2.2 C2.3,2 2.5,2 2.6,2.2 L4.7,4.3 C4.8,4.4 4.8,4.6 4.7,4.7 C4.7,4.8 4.6,4.8 4.5,4.8 Z" id="Path"></path>
                <path d="M11.5,11.8 C11.4,11.8 11.3,11.8 11.3,11.7 L9.2,9.6 C9.1,9.5 9.1,9.3 9.2,9.2 C9.3,9.1 9.5,9.1 9.6,9.2 L11.7,11.3 C11.8,11.4 11.8,11.6 11.7,11.7 C11.6,11.7 11.5,11.8 11.5,11.8 Z" id="Path"></path>
                <path d="M8.7,11.4 C8.6,11.4 8.5,11.3 8.4,11.2 L8,10.2 C7.9,10 8,9.9 8.2,9.8 C8.4,9.7 8.5,9.8 8.6,10 L9,11 C9.1,11.2 9,11.3 8.8,11.4 C8.7,11.4 8.7,11.4 8.7,11.4 Z" id="Path"></path>
                <path d="M5.6,4.1 C5.5,4.1 5.4,4 5.3,3.9 L4.9,2.9 C4.8,2.7 4.9,2.6 5.1,2.5 C5.3,2.4 5.4,2.5 5.5,2.7 L5.9,3.7 C6,3.9 5.9,4 5.7,4.1 C5.7,4.1 5.7,4.1 5.6,4.1 Z" id="Path"></path>
                <path d="M10.1,5.9 C10,5.9 9.9,5.8 9.8,5.7 C9.7,5.5 9.8,5.4 10,5.3 L11,4.9 C11.2,4.8 11.3,4.9 11.4,5.1 C11.5,5.3 11.4,5.4 11.2,5.5 L10.2,5.9 C10.2,5.9 10.1,5.9 10.1,5.9 Z" id="Path"></path>
                <path d="M2.8,9 C2.7,9 2.6,8.9 2.5,8.8 C2.4,8.6 2.5,8.5 2.7,8.4 L3.7,8 C3.9,7.9 4,8 4.1,8.2 C4.2,8.4 4.1,8.5 3.9,8.6 L2.9,9 C2.9,9 2.8,9 2.8,9 Z" id="Path"></path>
                <path d="M8.2,4.1 C8.2,4.1 8.1,4.1 8.1,4.1 C7.9,4 7.9,3.9 7.9,3.7 L8.3,2.7 C8.4,2.5 8.5,2.5 8.7,2.5 C8.9,2.6 8.9,2.7 8.9,2.9 L8.5,3.9 C8.5,4 8.3,4.1 8.2,4.1 Z" id="Path"></path>
                <path d="M5.2,11.4 C5.2,11.4 5.1,11.4 5.1,11.4 C4.9,11.3 4.9,11.2 4.9,11 L5.3,10 C5.4,9.8 5.5,9.8 5.7,9.8 C5.9,9.9 5.9,10 5.9,10.2 L5.5,11.2 C5.5,11.3 5.4,11.4 5.2,11.4 Z" id="Path"></path>
                <path d="M3.8,5.9 C3.8,5.9 3.7,5.9 3.7,5.9 L2.7,5.5 C2.5,5.4 2.4,5.3 2.5,5.1 C2.6,4.9 2.7,4.9 2.9,4.9 L3.9,5.3 C4.1,5.4 4.1,5.5 4.1,5.7 C4,5.9 3.9,5.9 3.8,5.9 Z" id="Path"></path>
                <path d="M11.1,8.9 C11.1,8.9 11,8.9 11,8.9 L10,8.5 C9.8,8.4 9.8,8.3 9.8,8.1 C9.9,7.9 10,7.9 10.2,7.9 L11.2,8.3 C11.4,8.4 11.4,8.5 11.4,8.7 C11.3,8.8 11.2,8.9 11.1,8.9 Z" id="Path"></path>
            </g>
            <path d="M9.8,15.8 L2.2,15.8 C1.1,15.8 0.3,14.9 0.3,13.9 C0.3,13.2 0.7,12.5 1.4,12.1 C1.5,12.1 1.7,12 1.7,11.7 C1.7,9.7 3.6,8.1 5.9,8.1 C8.2,8.1 10.1,9.7 10.1,11.7 C10.1,11.8 10.2,12 10.2,12 C11.1,12.1 11.8,12.9 11.8,13.9 C11.7,14.9 10.9,15.8 9.8,15.8 Z M5.8,8.5 C3.7,8.5 2,9.9 2,11.7 C2,12.3 1.5,12.5 1.4,12.5 C0.9,12.7 0.5,13.3 0.5,13.9 C0.5,14.7 1.2,15.4 2,15.4 L9.6,15.4 C10.4,15.4 11.1,14.7 11.1,13.9 C11.1,13.1 10.5,12.5 9.8,12.4 C9.5,12.4 9.4,12 9.4,11.7 C9.6,9.9 7.9,8.5 5.8,8.5 Z" id="Shape"></path>
        </g>
    </g>
</svg>