<?xml version="1.0" encoding="UTF-8"?>
<svg width="20px" height="18px" viewBox="0 0 20 18" version="1.1" xmlns="http://www.w3.org/2000/svg" xmlns:xlink="http://www.w3.org/1999/xlink">
    <!-- Generator: Sketch 64 (93537) - https://sketch.com -->
    <title>partly-cloudy-night</title>
    <desc>Created with Sketch.</desc>
    <g id="Page-1" stroke="none" stroke-width="1" fill="none" fill-rule="evenodd">
        <g id="partly-cloudy-night" fill="#000000" fill-rule="nonzero">
            <circle id="Oval" cx="1.2" cy="3.8" r="1"></circle>
            <circle id="Oval" cx="8" cy="0.5" r="1"></circle>
            <circle id="Oval" cx="18.1" cy="14.3" r="1"></circle>
            <path d="M19.3,10.1 C18.4,11.1 17.1,11.8 15.6,11.8 C12.9,11.8 10.7,9.6 10.7,6.9 C10.7,4.4 12.5,2.4 14.9,2 C14.9,2 12.6,4.9 14.3,7.7 C16.1,10.8 19.3,10.1 19.3,10.1 Z" id="Path"></path>
            <path d="M11.8,17.8 L3.1,17.8 C1.9,17.8 0.9,16.8 0.9,15.6 C0.9,14.7 1.4,14 2.2,13.6 C2.3,13.6 2.5,13.5 2.5,13.1 C2.5,10.9 4.6,9 7.3,9 C10,9 12.1,10.8 12.1,13.1 C12.1,13.2 12.2,13.4 12.2,13.4 C13.2,13.5 14.1,14.5 14.1,15.6 C14,16.8 13,17.8 11.8,17.8 Z M7.3,9.5 C4.9,9.5 3,11.1 3,13.1 C3,13.8 2.4,14 2.3,14 C1.7,14.3 1.3,14.9 1.3,15.6 C1.3,16.6 2.1,17.4 3.1,17.4 L11.8,17.4 C12.8,17.4 13.6,16.6 13.6,15.6 C13.6,14.7 13,14 12.1,13.9 C11.8,13.9 11.6,13.4 11.6,13.1 C11.6,11.1 9.6,9.5 7.3,9.5 Z" id="Shape"></path>
        </g>
    </g>
</svg>