<?xml version="1.0" encoding="UTF-8"?>
<svg width="19px" height="16px" viewBox="0 0 19 16" version="1.1" xmlns="http://www.w3.org/2000/svg" xmlns:xlink="http://www.w3.org/1999/xlink">
    <!-- Generator: Sketch 64 (93537) - https://sketch.com -->
    <title>partly_cloudy_day</title>
    <desc>Created with Sketch.</desc>
    <g id="Page-1" stroke="none" stroke-width="1" fill="none" fill-rule="evenodd">
        <g id="partly_cloudy_day" fill="#000000" fill-rule="nonzero">
            <g id="Group" transform="translate(7.142857, 0.000000)">
                <path d="M2.59920635,6.27083333 C2.97619048,5.29166667 3.88888889,4.60416667 4.96031746,4.60416667 C6.36904762,4.60416667 7.5,5.79166667 7.5,7.27083333 C7.5,8.14583333 7.1031746,8.91666667 6.48809524,9.39583333 L5.31746031,8.79166667 L4.20634921,8.64583333 L3.63095238,8.4375 L3.33333333,7.58333333 L2.59920635,6.27083333 Z" id="Path"></path>
                <path d="M4.96031746,3.95833333 C4.78174603,3.95833333 4.64285714,3.8125 4.64285714,3.625 L4.64285714,0.395833333 C4.64285714,0.208333333 4.78174603,0.0625 4.96031746,0.0625 C5.13888889,0.0625 5.27777778,0.208333333 5.27777778,0.395833333 L5.27777778,3.625 C5.27777778,3.8125 5.13888889,3.95833333 4.96031746,3.95833333" id="Path"></path>
                <path d="M11.4880952,7.58333333 L8.43253969,7.58333333 C8.25396826,7.58333333 8.11507936,7.4375 8.11507936,7.25 C8.11507936,7.0625 8.25396826,6.91666667 8.43253969,6.91666667 L11.4880952,6.91666667 C11.6666667,6.91666667 11.8055555,7.0625 11.8055555,7.25 C11.8055555,7.4375 11.6666667,7.58333333 11.4880952,7.58333333" id="Path"></path>
                <path d="M7.42063492,5 C7.34126984,5 7.26190476,4.95833333 7.20238095,4.89583333 C7.08333333,4.77083333 7.08333333,4.5625 7.20238095,4.41666667 L9.36507936,2.14583333 C9.48412698,2.02083333 9.68253971,2.02083333 9.82142857,2.14583333 C9.94047619,2.27083333 9.94047619,2.47916667 9.82142857,2.625 L7.65873016,4.91666667 C7.57936508,4.97916667 7.5,5 7.42063492,5" id="Path"></path>
                <path d="M2.5,5 C2.42063492,5 2.34126984,4.95833333 2.28174603,4.89583333 L0.119047619,2.64583333 C6.9388939e-18,2.52083333 6.9388939e-18,2.3125 0.119047619,2.16666667 C0.238095238,2.04166667 0.436507936,2.04166667 0.575396826,2.16666667 L2.73809524,4.4375 C2.85714286,4.5625 2.85714286,4.77083333 2.73809524,4.91666667 C2.65873016,4.97916667 2.57936508,5 2.5,5" id="Path"></path>
                <path d="M3.63095238,4.25 C3.51190476,4.25 3.39285714,4.16666667 3.33333333,4.04166667 L2.8968254,2.95833333 C2.83730159,2.79166667 2.8968254,2.60416667 3.07539683,2.52083333 C3.23412698,2.45833333 3.41269841,2.52083333 3.4920635,2.70833333 L3.92857143,3.79166667 C3.98809524,3.95833333 3.92857143,4.14583333 3.75,4.22916667 C3.71031746,4.22916667 3.67063492,4.25 3.63095238,4.25" id="Path"></path>
                <path d="M8.17460317,6.16666667 C8.05555555,6.16666667 7.93650793,6.08333333 7.87698412,5.95833333 C7.81746031,5.79166667 7.87698412,5.60416667 8.05555555,5.52083333 L9.06746031,5.08333333 C9.22619048,5.02083333 9.4047619,5.08333333 9.48412698,5.27083333 C9.54365076,5.4375 9.48412698,5.625 9.30555555,5.70833333 L8.29365079,6.14583333 C8.25396826,6.16666667 8.21428571,6.16666667 8.17460317,6.16666667" id="Path"></path>
                <path d="M6.26984127,4.20833333 C6.23015873,4.20833333 6.19047619,4.20833333 6.15079365,4.1875 C5.9920635,4.125 5.91269841,3.91666667 5.97222222,3.75 L6.38888889,2.6875 C6.4484127,2.52083333 6.6468254,2.4375 6.80555555,2.5 C6.96428571,2.5625 7.04365079,2.77083333 6.98412698,2.9375 L6.56746031,4 C6.52777778,4.125 6.40873016,4.20833333 6.26984127,4.20833333" id="Path"></path>
                <path d="M9.20634921,9.39583333 C9.16666667,9.39583333 9.12698412,9.39583333 9.08730159,9.375 L8.05555555,8.9375 C7.8968254,8.875 7.81746031,8.66666667 7.87698412,8.5 C7.93650793,8.33333333 8.13492064,8.25 8.29365079,8.3125 L9.32539683,8.75 C9.48412698,8.8125 9.5634921,9.02083333 9.50396826,9.1875 C9.44444445,9.33333333 9.32539683,9.39583333 9.20634921,9.39583333" id="Path"></path>
            </g>
            <path d="M2.22222222,15.5625 C1.01190476,15.5625 0.0198412698,14.3125 0.0198412698,12.75 C0.0198412698,11.6875 0.515873016,10.6875 1.26984127,10.2291667 C1.32936508,10.1875 1.62698412,10.0625 1.62698412,9.54166667 C1.62698412,6.6875 3.76984127,4.375 6.38888889,4.375 C8.4920635,4.375 10.297619,5.875 10.952381,8.10416667 C10.9920635,8.20833333 11.3888889,8.4375 11.7857143,8.4375 C12.9761905,8.4375 14.1071429,9.125 14.702381,10.2083333 C14.7619048,10.3125 15,10.4583333 15.4365079,10.4583333 C16.7261905,10.4583333 17.797619,11.5625 17.797619,12.9375 C17.797619,14.3333333 16.7063492,15.5416667 15.4365079,15.5416667 L10.9126984,15.5625 L2.22222222,15.5625 Z M6.36904762,4.875 C4.0079365,4.875 2.1031746,6.97916667 2.1031746,9.5625 C2.1031746,10.4375 1.5079365,10.6875 1.48809524,10.7083333 C0.912698412,11.0625 0.496031746,11.8958333 0.496031746,12.7916667 C0.496031746,14.0625 1.28968254,15.0833333 2.2420635,15.0833333 L15.4365079,15.0625 C16.4285714,15.0625 17.3015873,14.0833333 17.3015873,12.9791667 C17.3015873,11.8958333 16.468254,11.0208333 15.4365079,11.0208333 C14.9007936,11.0208333 14.4642857,10.8333333 14.2857143,10.5 C13.75,9.54166667 12.7777778,8.95833333 11.7460317,8.95833333 C11.1904762,8.95833333 10.5753969,8.625 10.4761905,8.27083333 C9.88095238,6.25 8.23412698,4.875 6.36904762,4.875" id="Shape"></path>
        </g>
    </g>
</svg>