<?xml version="1.0" encoding="UTF-8"?>
<svg width="19px" height="20px" viewBox="0 0 19 20" version="1.1" xmlns="http://www.w3.org/2000/svg" xmlns:xlink="http://www.w3.org/1999/xlink">
    <!-- Generator: Sketch 64 (93537) - https://sketch.com -->
    <title>rain-heavy</title>
    <desc>Created with Sketch.</desc>
    <g id="Page-1" stroke="none" stroke-width="1" fill="none" fill-rule="evenodd">
        <g id="rain-heavy" fill="#000000" fill-rule="nonzero">
            <path d="M2.4,17.6 C2.3,17.6 2.3,17.6 2.2,17.6 C2,17.4 1.9,17.1 2,16.9 L2.8,15.1 C2.9,14.9 3.2,14.8 3.4,14.9 C3.6,15 3.7,15.3 3.6,15.5 L2.8,17.3 C2.8,17.4 2.6,17.6 2.4,17.6 Z" id="Path"></path>
            <path d="M4.2,13.4 C4.1,13.4 4.1,13.4 4,13.4 C3.8,13.3 3.7,13 3.8,12.8 L4.7,10.7 C4.8,10.5 5.1,10.4 5.3,10.5 C5.5,10.6 5.6,10.9 5.5,11.1 L4.6,13.2 C4.5,13.3 4.3,13.4 4.2,13.4 Z" id="Path"></path>
            <path d="M7.4,17.6 C7.3,17.6 7.3,17.6 7.2,17.6 C7,17.4 6.9,17.1 7,16.9 L7.8,15.1 C7.9,14.9 8.2,14.8 8.4,14.9 C8.6,15 8.7,15.3 8.6,15.5 L7.8,17.3 C7.7,17.4 7.6,17.6 7.4,17.6 Z" id="Path"></path>
            <path d="M9.1,13.4 C9,13.4 9,13.4 8.9,13.4 C8.7,13.3 8.6,13 8.7,12.8 L9.6,10.7 C9.7,10.5 10,10.4 10.2,10.5 C10.4,10.6 10.5,10.9 10.4,11.1 L9.5,13.2 C9.5,13.3 9.3,13.4 9.1,13.4 Z" id="Path"></path>
            <path d="M12.1,17.6 C12,17.6 12,17.6 11.9,17.6 C11.7,17.5 11.6,17.2 11.7,17 L12.5,15.2 C12.6,15 12.9,14.9 13.1,15 C13.3,15.1 13.4,15.4 13.3,15.6 L12.5,17.4 C12.4,17.4 12.3,17.6 12.1,17.6 Z" id="Path"></path>
            <path d="M13.8,13.4 C13.7,13.4 13.7,13.4 13.6,13.4 C13.4,13.3 13.3,13 13.4,12.8 L14.3,10.7 C14.4,10.5 14.7,10.4 14.9,10.5 C15.1,10.6 15.2,10.9 15.1,11.1 L14.2,13.2 C14.2,13.3 14,13.4 13.8,13.4 Z" id="Path"></path>
            <path d="M8.8,19.9 C8.7,19.9 8.7,19.9 8.6,19.9 C8.4,19.8 8.3,19.5 8.4,19.3 L9.2,17.5 C9.3,17.3 9.6,17.2 9.8,17.3 C10,17.4 10.1,17.7 10,17.9 L9.2,19.7 C9.2,19.8 9,19.9 8.8,19.9 Z" id="Path"></path>
            <path d="M10.5,15.7 C10.4,15.7 10.4,15.7 10.3,15.7 C10.1,15.6 10,15.3 10.1,15.1 L11,13 C11.1,12.8 11.4,12.7 11.6,12.8 C11.8,12.9 11.9,13.2 11.8,13.4 L11,15.4 C10.9,15.6 10.7,15.7 10.5,15.7 Z" id="Path"></path>
            <path d="M4,19.8 C3.9,19.8 3.9,19.8 3.8,19.8 C3.6,19.7 3.5,19.4 3.6,19.2 L4.4,17.4 C4.5,17.2 4.8,17.1 5,17.2 C5.2,17.3 5.3,17.6 5.2,17.8 L4.4,19.6 C4.3,19.7 4.1,19.8 4,19.8 Z" id="Path"></path>
            <path d="M5.7,15.7 C5.6,15.7 5.6,15.7 5.5,15.7 C5.3,15.6 5.2,15.3 5.3,15.1 L6.1,13 C6.2,12.8 6.5,12.7 6.7,12.8 C7,12.8 7.1,13.1 7,13.3 L6.1,15.4 C6.1,15.6 5.9,15.7 5.7,15.7 Z" id="Path"></path>
            <path d="M3.4,11.9 C3.4,11.9 3.3,11.9 3.4,11.9 C1.9,11.7 0.8,10.4 0.8,9 C0.8,7.9 1.5,6.8 2.5,6.3 C2.6,6.3 3,6.1 3,5.6 C3,2.6 5.8,0.2 9.3,0.2 C12.8,0.2 15.6,2.6 15.6,5.6 C15.6,5.8 15.7,6 15.8,6 C17.2,6.2 18.3,7.4 18.3,8.9 C18.3,10.4 17.3,11.6 15.8,11.8 C15.6,11.8 15.5,11.7 15.4,11.5 C15.4,11.3 15.5,11.2 15.7,11.1 C16.8,10.9 17.7,10 17.7,8.8 C17.7,7.6 16.8,6.6 15.7,6.5 C15.3,6.5 15,5.9 15,5.5 C15,2.9 12.4,0.7 9.3,0.7 C6.2,0.7 3.6,3 3.6,5.6 C3.6,6.5 2.8,6.8 2.8,6.8 C1.9,7.2 1.4,8.1 1.4,9 C1.4,10.2 2.3,11.1 3.4,11.3 C3.6,11.3 3.7,11.5 3.7,11.6 C3.7,11.8 3.5,11.9 3.4,11.9 Z" id="Path"></path>
        </g>
    </g>
</svg>