<?xml version="1.0" encoding="UTF-8"?>
<svg width="18px" height="20px" viewBox="0 0 18 20" version="1.1" xmlns="http://www.w3.org/2000/svg" xmlns:xlink="http://www.w3.org/1999/xlink">
    <!-- Generator: Sketch 64 (93537) - https://sketch.com -->
    <title>rain-medium</title>
    <desc>Created with Sketch.</desc>
    <g id="Page-1" stroke="none" stroke-width="1" fill="none" fill-rule="evenodd">
        <g id="rain-medium" fill="#000000" fill-rule="nonzero">
            <path d="M2.8,17.8 C2.7,17.8 2.7,17.8 2.6,17.8 C2.4,17.7 2.2,17.5 2.3,17.2 L2.7,16.1 C2.8,15.9 3,15.7 3.3,15.8 C3.5,15.9 3.7,16.1 3.6,16.4 L3.2,17.5 C3.1,17.7 2.9,17.8 2.8,17.8 Z" id="Path"></path>
            <path d="M4.1,14.4 C4,14.4 4,14.4 3.9,14.4 C3.7,14.3 3.5,14.1 3.6,13.8 L4.1,12.3 C4.1,12.3 4.9,10.7 5.1,10.8 C5.4,10.9 5,12.6 5,12.6 L4.5,14 C4.4,14.2 4.3,14.4 4.1,14.4 Z" id="Path" opacity="0.75"></path>
            <path d="M6.2,16.4 C6.1,16.4 6.1,16.4 6,16.4 C5.8,16.3 5.6,16.1 5.7,15.8 L6.1,14.7 C6.2,14.5 6.4,14.3 6.7,14.4 C7,14.6 7.1,14.8 7,15.1 L6.6,16.2 C6.5,16.3 6.4,16.4 6.2,16.4 Z" id="Path"></path>
            <path d="M7.4,13.1 C7.3,13.1 7.3,13.1 7.2,13.1 C7,13 6.9,12.7 6.9,12.5 L7.2,11.7 C7.2,11.7 7.8,10.7 8,10.7 C8.2,10.8 8,11.9 8,11.9 L7.7,12.8 C7.7,13 7.5,13.1 7.4,13.1 Z" id="Path" opacity="0.75"></path>
            <path d="M8.1,19.7 C8,19.7 8,19.7 7.9,19.7 C7.7,19.6 7.5,19.4 7.6,19.1 L8,18 C8.1,17.8 8.3,17.6 8.6,17.7 C8.8,17.8 9,18 8.9,18.3 L8.5,19.4 C8.4,19.6 8.3,19.7 8.1,19.7 Z" id="Path"></path>
            <path d="M9,16.5 C9,16.5 8.9,16.5 8.8,16.5 C8.6,16.4 8.4,16.2 8.5,15.9 L9.4,13.3 C9.4,13.3 10.6,10.6 10.8,10.6 C11,10.7 10.2,13.6 10.2,13.6 L9.3,16.2 C9.4,16.4 9.2,16.5 9,16.5 Z" id="Path" opacity="0.75"></path>
            <path d="M11.3,18.2 C11.2,18.2 11.2,18.2 11.1,18.2 C10.9,18.1 10.7,17.9 10.8,17.6 L11.2,16.5 C11.3,16.3 11.5,16.1 11.8,16.2 C12,16.3 12.2,16.5 12.1,16.8 L11.7,18 C11.6,18.1 11.5,18.2 11.3,18.2 Z" id="Path"></path>
            <path d="M12.5,14.7 C12.5,14.7 12.4,14.7 12.4,14.7 C12.2,14.6 12,14.4 12.1,14.1 L12.7,12.5 C12.7,12.5 13.6,10.5 13.8,10.6 C14,10.7 13.5,12.8 13.5,12.8 L12.9,14.4 C12.9,14.6 12.7,14.7 12.5,14.7 Z" id="Path" opacity="0.75"></path>
            <path d="M3.2,11.6 C3.2,11.6 3.2,11.6 3.2,11.6 C1.8,11.4 0.7,10.2 0.7,8.7 C0.7,7.6 1.3,6.6 2.3,6.1 C2.4,6.1 2.7,5.9 2.7,5.5 C2.7,2.6 5.5,0.2 8.9,0.2 C12.3,0.2 15.1,2.6 15.1,5.5 C15.1,5.7 15.2,5.9 15.3,5.9 C16.7,6.1 17.7,7.3 17.7,8.7 C17.7,10.1 16.7,11.3 15.3,11.5 C15.1,11.5 15,11.4 15,11.2 C15,11 15.1,10.9 15.3,10.9 C16.4,10.7 17.2,9.8 17.2,8.7 C17.2,7.6 16.4,6.6 15.3,6.4 C14.9,6.4 14.7,5.8 14.7,5.4 C14.7,2.8 12.2,0.7 9.1,0.7 C6,0.7 3.4,3 3.4,5.5 C3.4,6.4 2.6,6.7 2.6,6.7 C1.8,7.1 1.3,7.9 1.3,8.7 C1.3,9.8 2.1,10.8 3.2,11 C3.4,11 3.5,11.2 3.5,11.3 C3.5,11.5 3.4,11.6 3.2,11.6 Z" id="Path"></path>
        </g>
    </g>
</svg>