<svg xmlns="http://www.w3.org/2000/svg" xmlns:xlink="http://www.w3.org/1999/xlink" width="512" height="72" viewBox="0 0 512 72">
  <defs>
    <path id="powered_by_climacell-halo@2x-a" d="M33.3806186,0.21014433 C31.6018969,1.1731134 29.622268,1.69443299 27.5571959,1.69443299 L27.5571959,1.69443299 C25.5036701,1.69443299 23.5350103,1.1788866 21.7661031,0.228618557 L21.7661031,0.228618557 C19.8540206,0.64371134 18.0164124,1.25971134 16.2717526,2.05063918 L16.2717526,2.05063918 C19.3921649,4.83158763 23.3993402,6.4163299 27.6131959,6.4163299 L27.6131959,6.4163299 C31.8270515,6.4163299 35.8342268,4.83158763 38.9540619,2.05063918 L38.9540619,2.05063918 C37.185732,1.24874227 35.3221443,0.624659794 33.3806186,0.21014433 Z M27.6131959,12.9983505 C21.1281649,12.9983505 15.0155052,10.2468454 10.5759175,5.51859794 L10.5759175,5.51859794 C8.8537732,6.87587629 7.29558763,8.43290722 5.93253608,10.1562062 L5.93253608,10.1562062 C8.46754639,12.8545979 11.4465155,15.0992165 14.7343505,16.7001237 L14.7343505,16.7001237 C15.2556701,16.9541443 15.7891134,17.1948866 16.3219794,17.4165773 L16.3219794,17.4165773 C17.3981031,17.864 18.5105979,18.2513814 19.6300206,18.5671753 L19.6300206,18.5671753 C20.4792577,18.8067629 21.3498557,19.0105567 22.2158351,19.1716289 L22.2158351,19.1716289 C22.5073814,19.2258969 22.8006598,19.2761237 23.0956701,19.321732 L23.0956701,19.321732 C23.6828041,19.4129485 24.2832165,19.4874227 24.8795876,19.542268 L24.8795876,19.542268 C26.683134,19.7096907 28.5432577,19.7096907 30.3462268,19.542268 L30.3462268,19.542268 C30.9425979,19.4874227 31.542433,19.4129485 32.1307216,19.321732 L32.1307216,19.321732 C32.425732,19.2761237 32.7190103,19.2258969 33.0105567,19.1722062 L33.0105567,19.1722062 C33.8765361,19.0105567 34.747134,18.8067629 35.5963711,18.5671753 L35.5963711,18.5671753 C36.7163711,18.2508041 37.8294433,17.864 38.9038351,17.4165773 L38.9038351,17.4165773 C39.4372784,17.1948866 39.9707216,16.9541443 40.4920412,16.7001237 L40.4920412,16.7001237 C43.7798763,15.0992165 46.7588454,12.8545979 49.2938557,10.1562062 L49.2938557,10.1562062 C47.9308041,8.43290722 46.3726186,6.87587629 44.6510515,5.51859794 L44.6510515,5.51859794 C40.2108866,10.2468454 34.0982268,12.9983505 27.6131959,12.9983505 L27.6131959,12.9983505 Z M30.3716289,47.3921649 C30.3716289,47.6525361 30.3745155,47.9123299 30.380866,48.1721237 L30.380866,48.1721237 C30.4403299,50.6401649 30.7896082,53.0643299 31.4044536,55.4226804 L31.4044536,55.4226804 C33.5890309,55.1207423 35.6910515,54.5613196 37.6833814,53.7767423 L37.6833814,53.7767423 C37.1366598,51.7093608 36.8508866,49.5750103 36.8508866,47.3921649 L36.8508866,47.3921649 C36.8508866,36.0022268 44.6025567,26.2258969 55.0687835,23.630268 L55.0687835,23.630268 C54.7506804,21.390268 54.1687423,19.236866 53.3593402,17.2000825 L53.3593402,17.2000825 C40.0405773,20.5762474 30.3716289,32.9603299 30.3716289,47.3921649 L30.3716289,47.3921649 Z M0.151257732,23.630268 C10.6174845,26.2258969 18.3691546,36.0022268 18.3691546,47.3921649 L18.3691546,47.3921649 C18.3691546,49.5750103 18.0828041,51.7093608 17.5360825,53.7767423 L17.5360825,53.7767423 C19.5284124,54.5613196 21.630433,55.1207423 23.8150103,55.4226804 L23.8150103,55.4226804 C24.4298557,53.0643299 24.7797113,50.6401649 24.8391753,48.1721237 L24.8391753,48.1721237 C24.8443711,47.9123299 24.8484124,47.6525361 24.8484124,47.3921649 L24.8484124,47.3921649 C24.8484124,32.9603299 15.1788866,20.5762474 1.86012371,17.2000825 L1.86012371,17.2000825 C1.05014433,19.236866 0.469360825,21.390268 0.151257732,23.630268 L0.151257732,23.630268 Z M43.2452784,47.3921649 C43.2452784,48.4786804 43.3572784,49.5449897 43.5495258,50.5945567 L43.5495258,50.5945567 C45.148701,49.4572371 46.6249072,48.1565361 47.950433,46.7115052 L47.950433,46.7115052 C48.2154227,42.4722474 50.5050722,38.6642474 53.9435876,36.4767835 L53.9435876,36.4767835 C54.5786392,34.5416082 55.0156701,32.5157938 55.2194639,30.4195464 L55.2194639,30.4195464 C48.2616082,32.7796289 43.2452784,39.5746804 43.2452784,47.3921649 L43.2452784,47.3921649 Z M1.27587629,36.4767835 C4.71439175,38.6642474 7.00404124,42.4722474 7.26845361,46.7115052 L7.26845361,46.7115052 C8.5945567,48.1565361 10.0701856,49.4572371 11.6699381,50.5945567 L11.6699381,50.5945567 C11.8616082,49.5449897 11.9741856,48.4786804 11.9741856,47.3921649 L11.9741856,47.3921649 C11.9741856,39.5746804 6.95785567,32.7796289 0,30.4195464 L0,30.4195464 C0.204371134,32.5157938 0.641402062,34.5416082 1.27587629,36.4767835 L1.27587629,36.4767835 Z"/>
    <linearGradient id="powered_by_climacell-halo@2x-b" x1="0%" x2="100%" y1="50%" y2="50%">
      <stop offset="0%" stop-color="#0087FF"/>
      <stop offset="100%" stop-color="#00CDE8"/>
    </linearGradient>
  </defs>
  <g fill="none" fill-rule="evenodd">
    <path fill="#000" fill-opacity=".35" fill-rule="nonzero" d="M220.152,0 C234.85436,0 247.498222,8.81347984 253.088469,21.4453225 C253.697494,20.7256654 254.433169,20.1150474 255.262147,19.6474022 L255.634276,19.450249 L255.768,19.388 L255.844568,18.6642838 C256.24199,14.8617523 259.260333,11.9128002 262.991482,11.5365067 L263.393889,11.5061122 L263.801229,11.4958763 L268.719992,11.4958763 C272.598104,11.4958763 275.831706,14.255352 276.564402,17.9179072 L276.633251,18.3136949 L276.656,18.508 L276.690237,18.5149213 C278.038238,18.7822403 279.26435,19.3882348 280.276182,20.2405148 C280.926877,19.8773666 281.601987,19.5493584 282.29877,19.2588689 C284.711357,18.254433 287.258783,17.7477856 289.883027,17.7477856 C292.498114,17.7477856 295.044427,18.2512623 297.465942,19.2477914 C298.873297,19.8277516 300.190768,20.5603416 301.408984,21.4394978 C302.779497,19.6843651 304.870275,18.5154735 307.237996,18.376218 L307.715101,18.3622268 L312.583637,18.3622268 C313.231869,18.3622268 313.863727,18.4397628 314.469824,18.586501 L314.91942,18.7093999 L315.146,18.784 L315.471415,18.6615926 C316.756867,18.2049052 318.101105,17.9190051 319.48648,17.804598 L320.182515,17.7616889 L320.884915,17.7473814 C323.34997,17.7473814 325.650381,18.1805825 327.717234,19.1213913 L328.330214,19.4189366 L328.56,19.544 L328.926435,19.3556167 C330.68113,18.4936588 332.567088,17.9745953 334.534551,17.8071072 L335.276072,17.7607962 L335.949493,17.7473814 C340.750171,17.7473814 344.94951,19.4800572 347.825158,22.9995709 C349.528072,21.4122023 351.474101,20.1564426 353.627067,19.2588689 C356.039654,18.254433 358.58708,17.7477856 361.211324,17.7477856 C363.826057,17.7477856 366.371425,18.2511234 368.794239,19.2477914 C370.201594,19.8277516 371.519065,20.5603416 372.737007,21.4392152 C374.109287,19.68355 376.199555,18.5153727 378.566459,18.3762086 L379.043398,18.3622268 L383.911357,18.3622268 C384.57281,18.3622268 385.216831,18.4428627 385.833619,18.5951928 L386.290951,18.7227434 L386.4,18.76 L386.655063,18.6581022 C387.850916,18.2103248 389.091734,17.9219331 390.365233,17.8057233 L391.004649,17.7620261 L391.649171,17.7473814 C393.429531,17.7473814 395.091439,17.9736433 396.645624,18.5032687 C396.971494,18.4419 397.304686,18.399671 397.643708,18.378337 L398.156429,18.3622268 L403.024388,18.3622268 C403.68584,18.3622268 404.329862,18.4428627 404.94665,18.5951928 L405.403982,18.7227434 L405.512,18.76 L405.768006,18.6580615 C406.963788,18.2102909 408.204541,17.9219187 409.478125,17.8057182 L410.117596,17.7620248 L410.762202,17.7473814 C413.049893,17.7473814 415.142424,18.121183 417.061919,19.0322865 C417.512734,19.2462695 417.935893,19.4982319 418.328767,19.7829361 L418.752432,19.5756243 L419.472459,19.2584302 C421.885259,18.2543096 424.432309,17.7477856 427.056239,17.7477856 C429.671634,17.7477856 432.218319,18.2513837 434.637541,19.2473646 C435.395237,19.5594809 436.126854,19.9158225 436.830946,20.3154476 C438.103081,19.2080549 439.737759,18.4896341 441.566962,18.3775876 L442.070532,18.3622268 L448.014614,18.3622268 C449.570514,18.3622268 451.040453,18.8107758 452.285843,19.5976897 L452.728,19.9 L452.991929,19.7150137 C454.037781,19.0143079 455.252264,18.5573465 456.548203,18.4121312 L457.037829,18.3724213 L457.443398,18.3622268 L462.823439,18.3622268 C464.408197,18.3622268 465.905526,18.8279153 467.167125,19.6440556 L467.614,19.956 L467.727812,19.8724667 C468.816175,19.0876961 470.103991,18.5739983 471.486235,18.4148759 L472.008798,18.3719888 L472.40579,18.3622268 L477.939975,18.3622268 C482.137045,18.3622268 485.43035,21.5419009 485.889285,25.4175616 C486.166501,25.3935922 486.446469,25.382433 486.727588,25.382433 C489.202788,25.382433 491.588158,26.2476135 493.474059,27.9901771 C494.336476,28.7898465 495.025919,29.7164246 495.53144,30.7267109 C496.04898,30.6642212 496.574834,30.6345402 497.104099,30.6345402 C498.932739,30.6345402 500.722033,30.9887781 502.417809,31.6856927 C504.159723,32.4029516 505.713835,33.4570112 507.021939,34.806556 C508.308376,36.1323871 509.303444,37.6971384 510.011687,39.4413556 C510.750929,41.2606351 511.10014,43.2104734 511.10014,45.2454268 C511.10014,47.2794431 510.751048,49.2292229 510.010946,51.0518966 C509.301443,52.7967576 508.306142,54.3615487 507.024789,55.6807811 C505.69651,57.0511393 504.117568,58.1112912 502.336825,58.8247128 C500.666538,59.4912341 498.903932,59.8297567 497.104099,59.8297567 C496.120399,59.8297567 495.148263,59.7286159 494.195625,59.5270419 L482.334951,59.5235542 C481.535721,59.7262091 480.706159,59.8297567 479.861814,59.8297567 C479.019004,59.8297567 478.191256,59.7267394 477.393809,59.5254884 L477.241567,59.5223918 L477.240361,59.485449 C476.515159,59.2899823 475.816086,59.0126645 475.154776,58.6570594 C474.175529,59.1544565 473.083962,59.4547548 471.939059,59.5122528 L471.534614,59.5223918 L464.514408,59.5223918 C463.062986,59.5223918 461.685272,59.1318419 460.494833,58.4395049 L460.004,58.128 L459.962328,58.1596983 C458.914237,58.8652894 457.69574,59.3257521 456.394825,59.4720966 L455.90329,59.5121168 L455.496099,59.5223918 L448.732223,59.5223918 C445.331371,59.5223918 442.329828,57.3771604 441.200735,54.2205569 L441.150365,54.2747014 C439.273738,56.2087665 437.056749,57.6966482 434.562651,58.6932946 C432.164899,59.6527769 429.644055,60.1370639 427.056239,60.1370639 C424.460062,60.1370639 421.939074,59.6500055 419.545776,58.6819081 C417.091946,57.6891146 414.90158,56.2189337 413.031411,54.3195873 C412.634822,53.9172268 412.257098,53.4979782 411.898252,53.0624991 C411.234177,56.4848524 408.383732,59.1279448 404.858122,59.4819937 L404.448411,59.5126011 L404.04913,59.5223918 L398.156429,59.5223918 C395.409133,59.5223918 392.985281,58.1375609 391.544847,56.0278719 C390.263206,57.9091389 388.196535,59.2142324 385.815614,59.4745968 L385.33538,59.5126011 L384.936099,59.5223918 L379.043398,59.5223918 C376.495048,59.5223918 374.224994,58.3308647 372.759965,56.4745389 C371.513892,57.3739256 370.161993,58.1161676 368.716276,58.6941093 C366.318032,59.6530259 363.798484,60.1370639 361.211324,60.1370639 C358.614837,60.1370639 356.093483,59.6498879 353.702475,58.6823278 C352.353165,58.1366308 351.083599,57.4466404 349.902887,56.6200991 C348.530799,58.2804995 346.494932,59.3784923 344.19988,59.5092555 L343.737534,59.5223918 L337.794606,59.5223918 C336.366476,59.5223918 335.025748,59.1481765 333.86513,58.4924532 L333.438522,58.2335423 L333.234,58.092 L333.029618,58.2335423 C332.008321,58.8978065 330.825945,59.3352631 329.553897,59.4745041 L329.072815,59.5126011 L328.673534,59.5223918 L322.780256,59.5223918 C321.352125,59.5223918 320.011398,59.1481765 318.85078,58.4924532 L318.424172,58.2335423 L318.194,58.076 L317.963886,58.2335423 C316.942589,58.8978065 315.760213,59.3352631 314.488165,59.4745041 L314.007083,59.5126011 L313.607802,59.5223918 L307.715101,59.5223918 C305.166751,59.5223918 302.896697,58.3308647 301.431668,56.4745389 C300.185776,57.3738534 298.834125,58.1159963 297.388998,58.6937022 C294.991021,59.6528926 292.470539,60.1370639 289.883027,60.1370639 C287.28654,60.1370639 284.765186,59.6498879 282.374179,58.6823278 C281.717313,58.4166738 281.079343,58.1168221 280.461389,57.7837237 C279.882268,58.186678 279.237972,58.5194129 278.539976,58.7640649 C277.528698,59.1185247 276.438626,59.4182287 275.241967,59.6775298 C273.802999,59.9864932 272.309788,60.1370639 270.769476,60.1370639 C268.260004,60.1370639 265.940795,59.7211723 263.829846,58.792644 C261.643028,57.8294919 259.764387,56.4003363 258.314708,54.5557477 C256.975634,52.8586916 256.030857,50.8999624 255.471855,48.7563674 C255.19481,47.6977577 255.003111,46.6002124 254.892084,45.4646885 C250.739496,60.7551922 236.758931,72 220.152,72 C200.750967,72 184.934414,56.6530175 184.18015,37.4368627 L179.992,43.6705777 L179.992,48 C179.992,52.418278 176.410278,56 171.992,56 L168.896,56 C166.769144,56 164.836138,55.1700311 163.403195,53.8163062 C161.034084,55.3242788 158.255594,56 155.224,56 L147.472,56 C143.943172,56 140.947986,53.7152075 139.885066,50.5442465 C139.599377,50.8736152 139.297348,51.1928527 138.978842,51.5014569 C135.82007,54.5620282 131.644569,56 126.896,56 L120.608,56 C119.943282,56 119.2975,55.91893 118.68,55.7661381 C118.0625,55.91893 117.416718,56 116.752,56 L105.328,56 C104.678739,56 104.047542,55.9226564 103.443121,55.7766801 C102.838604,55.9223086 102.203324,56 101.544,56 L98.28,56 C96.8979804,56 95.5755847,55.6446476 94.4174475,55.0058491 C93.2716583,55.639383 91.9539425,56 90.552,56 L87.48,56 C86.8152824,56 86.1694997,55.91893 85.552,55.7661381 C84.9345003,55.91893 84.2887176,56 83.624,56 L72.2,56 C70.4327949,56 68.7994228,55.4269933 67.4755424,54.4566389 C66.1354003,55.4369817 64.492181,56 62.752,56 L60.232,56 C58.6625364,56 57.1722319,55.5420782 55.9119984,54.7333432 C54.651622,55.5421605 53.1612493,56 51.592,56 L49.072,56 C46.5096199,56 44.1577212,54.7793075 42.673932,52.8033857 C42.10467,53.2596095 41.498892,53.676525 40.8582586,54.0516327 C38.35839,55.5153716 35.5243876,56.216 32.496,56.216 C29.4866049,56.216 26.6631183,55.516027 24.1654653,54.0631439 C22.0566194,52.8364295 20.3211276,51.1593301 19.0183775,49.1188745 C18.4741767,53.0074674 15.1345601,56 11.096,56 L8,56 C3.581722,56 1.13686838e-13,52.418278 1.13686838e-13,48 L1.13686838e-13,30.912 C1.13686838e-13,26.493722 3.581722,22.912 8,22.912 L15.416,22.912 C18.4448198,22.912 21.2330848,23.6202108 23.5925974,25.1699674 C23.783546,25.0484667 23.9778233,24.9308664 24.1753795,24.8172393 C26.6691094,23.3829371 29.4871127,22.696 32.496,22.696 C34.8251735,22.696 37.039964,23.1076317 39.0784975,23.9589253 C40.2344455,23.2965766 41.5828115,22.912 43.048,22.912 L46.192,22.912 C47.7772412,22.912 49.2807348,23.3790105 50.5480052,24.2018903 C51.8157681,23.3787239 53.3195013,22.912 54.904,22.912 L57.112,22.912 C58.6970649,22.912 60.2006145,23.3789426 61.4680008,24.2018891 C62.7354569,23.378902 64.2390406,22.912 65.824,22.912 L68.8,22.912 C69.3892875,22.912 69.9596628,22.9742016 70.5062138,23.0916554 C71.0521712,22.9739675 71.618849,22.912 72.2,22.912 L83.624,22.912 C84.2887176,22.912 84.9345003,22.99307 85.552,23.1458619 C86.1694997,22.99307 86.8152824,22.912 87.48,22.912 L94.8,22.912 C97.0902539,22.912 99.2253788,23.2789915 101.144872,24.0914762 C102.361984,23.3434099 103.794612,22.912 105.328,22.912 L116.752,22.912 C117.416718,22.912 118.0625,22.99307 118.68,23.1458619 C119.2975,22.99307 119.943282,22.912 120.608,22.912 L126.896,22.912 C131.636726,22.912 135.80505,24.3398237 138.963427,27.383648 C139.28889,27.6973068 139.597224,28.0220469 139.888568,28.3573302 C140.954552,25.1917867 143.94704,22.912 147.472,22.912 L154.984,22.912 C156.43506,22.912 157.829555,23.0715636 159.149105,23.4078254 C160.009418,23.0889345 160.952595,22.912 161.96,22.912 L165.488,22.912 C167.311871,22.912 169.051677,23.533368 170.444,24.6319146 C171.836442,23.5332713 173.5763,22.912 175.4,22.912 L178.928,22.912 C181.749759,22.912 184.067603,24.3001752 185.471999,26.307848 C189.703594,11.1332655 203.62764,0 220.152,0 Z"/>
    <path fill="#FFF" fill-rule="nonzero" d="M8,30.912 L15.416,30.912 C17.2560092,30.912 18.6879949,31.3559956 19.712,32.244 C20.7360051,33.1320044 21.248,34.3439923 21.248,35.88 C21.248,37.4160077 20.7320052,38.6319955 19.7,39.528 C18.6679948,40.4240045 17.2400091,40.872 15.416,40.872 L11.096,40.872 L11.096,48 L8,48 L8,30.912 Z M15.056,38.472 C16.1280054,38.472 16.9399972,38.2520022 17.492,37.812 C18.0440028,37.3719978 18.32,36.7360042 18.32,35.904 C18.32,35.0559958 18.0480027,34.4120022 17.504,33.972 C16.9599973,33.5319978 16.1440054,33.312 15.056,33.312 L11.096,33.312 L11.096,38.472 L15.056,38.472 Z M32.496,48.216 C30.8479918,48.216 29.4120061,47.8600036 28.188,47.148 C26.9639939,46.4359964 26.0200033,45.4200066 25.356,44.1 C24.6919967,42.7799934 24.36,41.224009 24.36,39.432 C24.36,37.6559911 24.6879967,36.1080066 25.344,34.788 C26.0000033,33.4679934 26.9399939,32.4560035 28.164,31.752 C29.3880061,31.0479965 30.8319917,30.696 32.496,30.696 C34.1600083,30.696 35.6039939,31.0479965 36.828,31.752 C38.0520061,32.4560035 38.9879968,33.4679934 39.636,34.788 C40.2840032,36.1080066 40.608,37.6559911 40.608,39.432 C40.608,41.224009 40.2800033,42.7799934 39.624,44.1 C38.9679967,45.4200066 38.0320061,46.4359964 36.816,47.148 C35.5999939,47.8600036 34.1600083,48.216 32.496,48.216 Z M32.496,45.744 C34.0800079,45.744 35.3119956,45.2000054 36.192,44.112 C37.0720044,43.0239946 37.512,41.4640102 37.512,39.432 C37.512,37.4159899 37.0720044,35.8680054 36.192,34.788 C35.3119956,33.7079946 34.0800079,33.168 32.496,33.168 C30.9119921,33.168 29.6800044,33.7039946 28.8,34.776 C27.9199956,35.8480054 27.48,37.3999898 27.48,39.432 C27.48,41.4640102 27.9199956,43.0239946 28.8,44.112 C29.6800044,45.2000054 30.9119921,45.744 32.496,45.744 Z M65.824,30.912 L68.8,30.912 L62.752,48 L60.232,48 L55.936,35.712 L51.592,48 L49.072,48 L43.048,30.912 L46.192,30.912 L50.464,43.656 L54.904,30.912 L57.112,30.912 L61.456,43.752 L65.824,30.912 Z M72.2,48 L72.2,30.912 L83.624,30.912 L83.624,33.36 L75.224,33.36 L75.224,38.088 L83.12,38.088 L83.12,40.536 L75.224,40.536 L75.224,45.552 L83.624,45.552 L83.624,48 L72.2,48 Z M101.544,48 L98.28,48 L96.096,42.312 C95.903999,41.7839974 95.608002,41.416001 95.208,41.208 C94.807998,40.999999 94.2880032,40.896 93.648,40.896 L90.552,40.896 L90.552,48 L87.48,48 L87.48,30.912 L94.8,30.912 C96.7360097,30.912 98.207995,31.3359958 99.216,32.184 C100.224005,33.0320042 100.728,34.2479921 100.728,35.832 C100.728,36.9680057 100.428003,37.931996 99.828,38.724 C99.227997,39.516004 98.3760055,40.0799983 97.272,40.416 C98.280005,40.624001 99.0079978,41.327994 99.456,42.528 L101.544,48 Z M94.368,38.496 C95.5360058,38.496 96.3999972,38.2800022 96.96,37.848 C97.5200028,37.4159978 97.8,36.7600044 97.8,35.88 C97.8,35.0159957 97.5240028,34.3720021 96.972,33.948 C96.4199972,33.5239979 95.5520059,33.312 94.368,33.312 L90.504,33.312 L90.504,38.496 L94.368,38.496 Z M105.328,48 L105.328,30.912 L116.752,30.912 L116.752,33.36 L108.352,33.36 L108.352,38.088 L116.248,38.088 L116.248,40.536 L108.352,40.536 L108.352,45.552 L116.752,45.552 L116.752,48 L105.328,48 Z M120.608,30.912 L126.896,30.912 C129.696014,30.912 131.867992,31.6559926 133.412,33.144 C134.956008,34.6320074 135.728,36.7279865 135.728,39.432 C135.728,42.1520136 134.956008,44.2599925 133.412,45.756 C131.867992,47.2520075 129.696014,48 126.896,48 L120.608,48 L120.608,30.912 Z M126.704,45.48 C130.64002,45.48 132.608,43.4640202 132.608,39.432 C132.608,35.432 130.64002,33.432 126.704,33.432 L123.704,33.432 L123.704,45.48 L126.704,45.48 Z M157.984,39.168 C158.976005,39.4560014 159.739997,39.9599964 160.276,40.68 C160.812003,41.4000036 161.08,42.2879947 161.08,43.344 C161.08,44.8000073 160.564005,45.9399959 159.532,46.764 C158.499995,47.5880041 157.064009,48 155.224,48 L147.472,48 L147.472,30.912 L154.984,30.912 C156.744009,30.912 158.127995,31.307996 159.136,32.1 C160.144005,32.892004 160.648,33.983993 160.648,35.376 C160.648,36.2720045 160.412002,37.0519967 159.94,37.716 C159.467998,38.3800033 158.816004,38.8639985 157.984,39.168 Z M150.496,38.112 L154.48,38.112 C156.624011,38.112 157.696,37.312 157.696,35.712 C157.696,34.911996 157.432003,34.312 156.904,33.912 C156.375997,33.511998 155.568005,33.312 154.48,33.312 L150.496,33.312 L150.496,38.112 Z M154.888,45.6 C156.008006,45.6 156.827997,45.400002 157.348,45 C157.868003,44.599998 158.128,43.9680043 158.128,43.104 C158.128,42.2239956 157.868003,41.5760021 157.348,41.16 C156.827997,40.7439979 156.008006,40.536 154.888,40.536 L150.496,40.536 L150.496,45.6 L154.888,45.6 Z M178.928,30.912 L171.992,41.232 L171.992,48 L168.896,48 L168.896,41.232 L161.96,30.912 L165.488,30.912 L170.432,38.64 L175.4,30.912 L178.928,30.912 Z"/>
    <g transform="translate(192.152 8)">
      <path fill="#FFF" d="M76.5679918,11.4958763 L76.5679918,18.3619381 L82.9733526,18.3619381 L82.9733526,23.0255258 L76.5679918,23.0255258 L76.5679918,35.0158763 C76.5679918,37.954433 77.746301,39.4225567 80.1034969,39.4225567 C80.5474557,39.4225567 81.0006515,39.3717526 81.4619299,39.2689897 C81.9232082,39.1668041 82.3406103,39.0299794 82.7176,38.8590928 L83.7417649,43.2143918 C83.0582186,43.4539794 82.2817237,43.6670103 81.4105485,43.8557938 C80.5393732,44.0428454 79.6081567,44.1369485 78.6174763,44.1369485 C77.1481979,44.1369485 75.9104247,43.9146804 74.9024247,43.471299 C73.8944247,43.0273402 73.0746309,42.4038351 72.4430433,41.6002062 C71.810301,40.7983093 71.3490227,39.842268 71.0592082,38.7309278 C70.7688165,37.6213196 70.6239093,36.3823918 70.6239093,35.0158763 L70.6239093,23.0255258 L67.0370227,23.0255258 L67.0370227,18.6188454 L70.9316206,18.3619381 L71.6492289,11.4958763 L76.5679918,11.4958763 Z M97.7310268,17.7477856 C99.3019134,17.7477856 100.813913,18.0468371 102.265872,18.6443629 C103.717254,19.242466 104.989666,20.1049814 106.083687,21.2319093 C107.175975,22.3594144 108.056388,23.7426722 108.722614,25.3828371 C109.388264,27.0224247 109.721955,28.8848577 109.721955,30.9678268 C109.721955,33.0519505 109.388264,34.9138062 108.722614,36.5533938 C108.056388,38.1929814 107.175975,39.5768165 106.083687,40.7037443 C104.989666,41.8312495 103.717254,42.6856825 102.265872,43.2658887 C100.813913,43.8466722 99.3019134,44.1370639 97.7310268,44.1370639 C96.1589856,44.1370639 94.6568,43.8466722 93.2215835,43.2658887 C91.7869443,42.6856825 90.5139546,41.8312495 89.4043464,40.7037443 C88.2935835,39.5768165 87.4137485,38.1929814 86.7654186,36.5533938 C86.115934,34.9138062 85.7914804,33.0519505 85.7914804,30.9678268 C85.7914804,28.8848577 86.115934,27.0224247 86.7654186,25.3828371 C87.4137485,23.7426722 88.2935835,22.3594144 89.4043464,21.2319093 C90.5139546,20.1049814 91.7869443,19.242466 93.2215835,18.6443629 C94.6568,18.0468371 96.1589856,17.7477856 97.7310268,17.7477856 Z M169.059324,17.7477856 C170.63021,17.7477856 172.141633,18.0468371 173.594169,18.6443629 C175.045551,19.242466 176.317963,20.1049814 177.411984,21.2319093 C178.504849,22.3594144 179.384685,23.7426722 180.050911,25.3828371 C180.716561,27.0224247 181.050252,28.8848577 181.050252,30.9678268 C181.050252,33.0519505 180.716561,34.9138062 180.050911,36.5533938 C179.384685,38.1929814 178.504849,39.5768165 177.411984,40.7037443 C176.317963,41.8312495 175.045551,42.6856825 173.594169,43.2658887 C172.141633,43.8466722 170.63021,44.1370639 169.059324,44.1370639 C167.487282,44.1370639 165.985097,43.8466722 164.54988,43.2658887 C163.115241,42.6856825 161.842252,41.8312495 160.732066,40.7037443 C159.62188,39.5768165 158.742045,38.1929814 158.093715,36.5533938 C157.444231,34.9138062 157.119777,33.0519505 157.119777,30.9678268 C157.119777,28.8848577 157.444231,27.0224247 158.093715,25.3828371 C158.742045,23.7426722 159.62188,22.3594144 160.732066,21.2319093 C161.842252,20.1049814 163.115241,19.242466 164.54988,18.6443629 C165.985097,18.0468371 167.487282,17.7477856 169.059324,17.7477856 Z M234.904239,17.7477856 C236.475126,17.7477856 237.987126,18.0468371 239.438507,18.6443629 C240.890466,19.242466 242.162878,20.1049814 243.256899,21.2319093 C244.349188,22.3594144 245.2296,23.7426722 245.895827,25.3828371 C246.561476,27.0224247 246.895167,28.8848577 246.895167,30.9678268 C246.895167,33.0519505 246.561476,34.9138062 245.895827,36.5533938 C245.2296,38.1929814 244.349188,39.5768165 243.256899,40.7037443 C242.162878,41.8312495 240.890466,42.6856825 239.438507,43.2658887 C237.987126,43.8466722 236.475126,44.1370639 234.904239,44.1370639 C233.332198,44.1370639 231.830012,43.8466722 230.394219,43.2658887 C228.960157,42.6856825 227.687167,41.8312495 226.576981,40.7037443 C225.466219,39.5768165 224.586961,38.1929814 223.938631,36.5533938 C223.289146,34.9138062 222.964115,33.0519505 222.964115,30.9678268 C222.964115,28.8848577 223.289146,27.0224247 223.938631,25.3828371 C224.586961,23.7426722 225.466219,22.3594144 226.576981,21.2319093 C227.687167,20.1049814 228.960157,19.242466 230.394219,18.6443629 C231.830012,18.0468371 233.332198,17.7477856 234.904239,17.7477856 Z M143.797493,17.7473814 C146.461823,17.7473814 148.426441,18.6104742 149.690194,20.3355052 C150.953946,22.0605361 151.585534,24.5291546 151.585534,27.7396289 L151.585534,43.5223918 L145.642606,43.5223918 L145.642606,28.5080412 C145.642606,26.4250722 145.326235,24.9557938 144.694647,24.1013608 C144.061328,23.2480825 143.096627,22.8202887 141.798812,22.8202887 C140.227926,22.8202887 138.468256,23.8629278 136.521534,25.9464742 L136.521534,43.5223918 L130.628256,43.5223918 L130.628256,28.5080412 C130.628256,26.4250722 130.312462,24.9557938 129.680297,24.1013608 C129.047555,23.2480825 128.066111,22.8202887 126.734235,22.8202887 C125.162194,22.8202887 123.403101,23.8629278 121.455802,25.9464742 L121.455802,43.5223918 L115.563101,43.5223918 L115.563101,18.3622268 L120.431637,18.3622268 L120.841534,21.7955464 L121.045905,21.7955464 C122.104132,20.6680412 123.257039,19.7125773 124.504627,18.926268 C125.75106,18.1405361 127.160874,17.7473814 128.732915,17.7473814 C130.577452,17.7473814 132.054235,18.1405361 133.164421,18.926268 C134.274606,19.7125773 135.119802,20.8221856 135.70174,22.2568247 C136.896792,20.9590103 138.143225,19.8828866 139.441616,19.0284536 C140.739431,18.1745979 142.19139,17.7473814 143.797493,17.7473814 Z M199.497171,17.7473814 C200.692223,17.7473814 201.649419,17.9188454 202.367027,18.2594639 L201.341707,23.3843299 C200.897748,23.2480825 200.487852,23.1458969 200.111439,23.0760412 C199.735604,23.0084948 199.274326,22.974433 198.728181,22.974433 C197.737501,22.974433 196.695439,23.3583505 195.602573,24.1273402 C194.50913,24.8957526 193.569254,26.236866 192.784099,28.1501031 L192.784099,43.5223918 L186.891398,43.5223918 L186.891398,18.3622268 L191.759357,18.3622268 L192.169831,22.8202887 L192.374779,22.8202887 C193.262697,21.180701 194.338243,19.9250309 195.602573,19.0538557 C196.865748,18.1832577 198.164718,17.7473814 199.497171,17.7473814 Z M218.610202,17.7473814 C219.804676,17.7473814 220.761872,17.9188454 221.47948,18.2594639 L220.454738,23.3843299 C220.010202,23.2480825 219.600882,23.1458969 219.22447,23.0760412 C218.848635,23.0084948 218.387357,22.974433 217.841212,22.974433 C216.849955,22.974433 215.80847,23.3583505 214.715604,24.1273402 C213.622161,24.8957526 212.682285,26.236866 211.89713,28.1501031 L211.89713,43.5223918 L206.004429,43.5223918 L206.004429,18.3622268 L210.872388,18.3622268 L211.282862,22.8202887 L211.487233,22.8202887 C212.375151,21.180701 213.451274,19.9250309 214.715604,19.0538557 C215.978779,18.1832577 217.277171,17.7473814 218.610202,17.7473814 Z M255.862614,18.3622268 L258.886037,31.4292784 C259.159109,32.6249072 259.38946,33.8205361 259.577089,35.0161649 C259.765295,36.2123711 259.978903,37.4241649 260.218491,38.6538557 L260.423439,38.6538557 C260.661872,37.4241649 260.91012,36.2123711 261.165872,35.0161649 C261.422202,33.8205361 261.704511,32.6249072 262.011068,31.4292784 L265.291398,18.3622268 L270.671439,18.3622268 L274.002573,31.4292784 C274.309707,32.6249072 274.600099,33.8205361 274.873748,35.0161649 C275.146243,36.2123711 275.419893,37.4241649 275.692965,38.6538557 L275.898491,38.6538557 C276.136924,37.4241649 276.359769,36.2123711 276.564718,35.0161649 C276.769666,33.8205361 276.991357,32.6249072 277.230944,31.4292784 L280.25379,18.3622268 L285.787975,18.3622268 L279.382614,43.5223918 L272.362408,43.5223918 L269.441171,31.7877938 C269.168099,30.5927423 268.911769,29.4051959 268.673336,28.2268866 C268.433748,27.048 268.177996,25.7923299 267.904346,24.4604536 L267.699398,24.4604536 C267.460388,25.7923299 267.2208,27.0566598 266.982367,28.2522887 C266.743357,29.4484948 266.486449,30.6435464 266.213955,31.8391753 L263.344099,43.5223918 L256.580223,43.5223918 L249.918532,18.3622268 L255.862614,18.3622268 Z M97.7310268,22.5643629 C95.8864907,22.5643629 94.4426144,23.3246928 93.4011299,24.8447753 C92.3584907,26.3648577 91.8383258,28.4062598 91.8383258,30.9678268 C91.8383258,33.4964866 92.3584907,35.5205691 93.4011299,37.0400742 C94.4426144,38.560734 95.8864907,39.3204866 97.7310268,39.3204866 C99.5755629,39.3204866 101.027522,38.560734 102.086903,37.0400742 C103.14513,35.5205691 103.675109,33.4964866 103.675109,30.9678268 C103.675109,28.4062598 103.14513,26.3648577 102.086903,24.8447753 C101.027522,23.3246928 99.5755629,22.5643629 97.7310268,22.5643629 Z M169.059324,22.5643629 C167.214788,22.5643629 165.770911,23.3246928 164.729427,24.8447753 C163.686788,26.3648577 163.166045,28.4062598 163.166045,30.9678268 C163.166045,33.4964866 163.686788,35.5205691 164.729427,37.0400742 C165.770911,38.560734 167.214788,39.3204866 169.059324,39.3204866 C170.90386,39.3204866 172.355819,38.560734 173.414623,37.0400742 C174.473427,35.5205691 175.003406,33.4964866 175.003406,30.9678268 C175.003406,28.4062598 174.473427,26.3648577 173.414623,24.8447753 C172.355819,23.3246928 170.90386,22.5643629 169.059324,22.5643629 Z M234.904239,22.5643629 C233.059703,22.5643629 231.615827,23.3246928 230.574342,24.8447753 C229.531703,26.3648577 229.010961,28.4062598 229.010961,30.9678268 C229.010961,33.4964866 229.531703,35.5205691 230.574342,37.0400742 C231.615827,38.560734 233.059703,39.3204866 234.904239,39.3204866 C236.748775,39.3204866 238.200734,38.560734 239.260115,37.0400742 C240.318342,35.5205691 240.848322,33.4964866 240.848322,30.9678268 C240.848322,28.4062598 240.318342,26.3648577 239.260115,24.8447753 C238.200734,23.3246928 236.748775,22.5643629 234.904239,22.5643629 Z"/>
      <path fill="#FFF" d="M287.709814,39.8329155 C288.255959,39.8329155 288.708577,40.0205443 289.06767,40.3969567 C289.426186,40.7722144 289.605155,41.2508124 289.605155,41.8310186 C289.605155,42.4118021 289.426186,42.8904 289.06767,43.2656577 C288.708577,43.6414928 288.255959,43.829699 287.709814,43.829699 C287.162515,43.829699 286.705856,43.6414928 286.33868,43.2656577 C285.971505,42.8904 285.787918,42.4118021 285.787918,41.8310186 C285.787918,41.2508124 285.971505,40.7722144 286.33868,40.3969567 C286.705856,40.0205443 287.162515,39.8329155 287.709814,39.8329155 Z M304.952099,30.6345402 C305.737254,30.6345402 306.493542,30.7846433 307.21981,31.0831175 C307.946078,31.3821691 308.581707,31.8134268 309.128429,32.377468 C309.675151,32.940932 310.115068,33.6325608 310.448181,34.452932 C310.781295,35.2727258 310.94814,36.2033649 310.94814,37.2454268 C310.94814,38.2869113 310.781295,39.2181278 310.448181,40.038499 C310.115068,40.8577155 309.675151,41.5499216 309.128429,42.1128082 C308.581707,42.6768495 307.946078,43.1034887 307.21981,43.3944577 C306.493542,43.6842722 305.737254,43.8297567 304.952099,43.8297567 C304.166944,43.8297567 303.415274,43.6842722 302.698243,43.3944577 C301.980635,43.1034887 301.343852,42.6768495 300.789047,42.1128082 C300.233666,41.5499216 299.793171,40.8577155 299.469295,40.038499 C299.144841,39.2181278 298.982614,38.2869113 298.982614,37.2454268 C298.982614,36.2033649 299.144841,35.2727258 299.469295,34.452932 C299.793171,33.6325608 300.233666,32.940932 300.789047,32.377468 C301.343852,31.8134268 301.980635,31.3821691 302.698243,31.0831175 C303.415274,30.7846433 304.166944,30.6345402 304.952099,30.6345402 Z M296.035629,30.9420206 L296.035629,43.5223918 L293.089567,43.5223918 L293.089567,30.9420206 L296.035629,30.9420206 Z M304.952099,33.0431175 C304.029542,33.0431175 303.307893,33.4235711 302.787151,34.1833237 C302.266408,34.9436536 302.006037,35.9643546 302.006037,37.2454268 C302.006037,38.5091794 302.266408,39.5212206 302.787151,40.2809732 C303.307893,41.0413031 304.029542,41.4217567 304.952099,41.4217567 C305.874656,41.4217567 306.600346,41.0413031 307.129748,40.2809732 C307.659151,39.5212206 307.92414,38.5091794 307.92414,37.2454268 C307.92414,35.9643546 307.659151,34.9436536 307.129748,34.1833237 C306.600346,33.4235711 305.874656,33.0431175 304.952099,33.0431175 Z M294.575588,25.382433 C295.10499,25.382433 295.540866,25.5406186 295.882639,25.8564124 C296.223835,26.1727835 296.394722,26.5780619 296.394722,27.0734021 C296.394722,27.5687423 296.223835,27.9705567 295.882639,28.2776907 C295.540866,28.5848247 295.10499,28.7389691 294.575588,28.7389691 C294.046186,28.7389691 293.610309,28.5848247 293.269113,28.2776907 C292.92734,27.9705567 292.756454,27.5687423 292.756454,27.0734021 C292.756454,26.5780619 292.92734,26.1727835 293.269113,25.8564124 C293.610309,25.5406186 294.046186,25.382433 294.575588,25.382433 Z" opacity=".3"/>
      <mask id="powered_by_climacell-halo@2x-c" fill="#fff">
        <use xlink:href="#powered_by_climacell-halo@2x-a"/>
      </mask>
      <path fill="url(#powered_by_climacell-halo@2x-b)" d="M33.3806186,0.21014433 C31.6018969,1.1731134 29.622268,1.69443299 27.5571959,1.69443299 L27.5571959,1.69443299 C25.5036701,1.69443299 23.5350103,1.1788866 21.7661031,0.228618557 L21.7661031,0.228618557 C19.8540206,0.64371134 18.0164124,1.25971134 16.2717526,2.05063918 L16.2717526,2.05063918 C19.3921649,4.83158763 23.3993402,6.4163299 27.6131959,6.4163299 L27.6131959,6.4163299 C31.8270515,6.4163299 35.8342268,4.83158763 38.9540619,2.05063918 L38.9540619,2.05063918 C37.185732,1.24874227 35.3221443,0.624659794 33.3806186,0.21014433 Z M27.6131959,12.9983505 C21.1281649,12.9983505 15.0155052,10.2468454 10.5759175,5.51859794 L10.5759175,5.51859794 C8.8537732,6.87587629 7.29558763,8.43290722 5.93253608,10.1562062 L5.93253608,10.1562062 C8.46754639,12.8545979 11.4465155,15.0992165 14.7343505,16.7001237 L14.7343505,16.7001237 C15.2556701,16.9541443 15.7891134,17.1948866 16.3219794,17.4165773 L16.3219794,17.4165773 C17.3981031,17.864 18.5105979,18.2513814 19.6300206,18.5671753 L19.6300206,18.5671753 C20.4792577,18.8067629 21.3498557,19.0105567 22.2158351,19.1716289 L22.2158351,19.1716289 C22.5073814,19.2258969 22.8006598,19.2761237 23.0956701,19.321732 L23.0956701,19.321732 C23.6828041,19.4129485 24.2832165,19.4874227 24.8795876,19.542268 L24.8795876,19.542268 C26.683134,19.7096907 28.5432577,19.7096907 30.3462268,19.542268 L30.3462268,19.542268 C30.9425979,19.4874227 31.542433,19.4129485 32.1307216,19.321732 L32.1307216,19.321732 C32.425732,19.2761237 32.7190103,19.2258969 33.0105567,19.1722062 L33.0105567,19.1722062 C33.8765361,19.0105567 34.747134,18.8067629 35.5963711,18.5671753 L35.5963711,18.5671753 C36.7163711,18.2508041 37.8294433,17.864 38.9038351,17.4165773 L38.9038351,17.4165773 C39.4372784,17.1948866 39.9707216,16.9541443 40.4920412,16.7001237 L40.4920412,16.7001237 C43.7798763,15.0992165 46.7588454,12.8545979 49.2938557,10.1562062 L49.2938557,10.1562062 C47.9308041,8.43290722 46.3726186,6.87587629 44.6510515,5.51859794 L44.6510515,5.51859794 C40.2108866,10.2468454 34.0982268,12.9983505 27.6131959,12.9983505 L27.6131959,12.9983505 Z M30.3716289,47.3921649 C30.3716289,47.6525361 30.3745155,47.9123299 30.380866,48.1721237 L30.380866,48.1721237 C30.4403299,50.6401649 30.7896082,53.0643299 31.4044536,55.4226804 L31.4044536,55.4226804 C33.5890309,55.1207423 35.6910515,54.5613196 37.6833814,53.7767423 L37.6833814,53.7767423 C37.1366598,51.7093608 36.8508866,49.5750103 36.8508866,47.3921649 L36.8508866,47.3921649 C36.8508866,36.0022268 44.6025567,26.2258969 55.0687835,23.630268 L55.0687835,23.630268 C54.7506804,21.390268 54.1687423,19.236866 53.3593402,17.2000825 L53.3593402,17.2000825 C40.0405773,20.5762474 30.3716289,32.9603299 30.3716289,47.3921649 L30.3716289,47.3921649 Z M0.151257732,23.630268 C10.6174845,26.2258969 18.3691546,36.0022268 18.3691546,47.3921649 L18.3691546,47.3921649 C18.3691546,49.5750103 18.0828041,51.7093608 17.5360825,53.7767423 L17.5360825,53.7767423 C19.5284124,54.5613196 21.630433,55.1207423 23.8150103,55.4226804 L23.8150103,55.4226804 C24.4298557,53.0643299 24.7797113,50.6401649 24.8391753,48.1721237 L24.8391753,48.1721237 C24.8443711,47.9123299 24.8484124,47.6525361 24.8484124,47.3921649 L24.8484124,47.3921649 C24.8484124,32.9603299 15.1788866,20.5762474 1.86012371,17.2000825 L1.86012371,17.2000825 C1.05014433,19.236866 0.469360825,21.390268 0.151257732,23.630268 L0.151257732,23.630268 Z M43.2452784,47.3921649 C43.2452784,48.4786804 43.3572784,49.5449897 43.5495258,50.5945567 L43.5495258,50.5945567 C45.148701,49.4572371 46.6249072,48.1565361 47.950433,46.7115052 L47.950433,46.7115052 C48.2154227,42.4722474 50.5050722,38.6642474 53.9435876,36.4767835 L53.9435876,36.4767835 C54.5786392,34.5416082 55.0156701,32.5157938 55.2194639,30.4195464 L55.2194639,30.4195464 C48.2616082,32.7796289 43.2452784,39.5746804 43.2452784,47.3921649 L43.2452784,47.3921649 Z M1.27587629,36.4767835 C4.71439175,38.6642474 7.00404124,42.4722474 7.26845361,46.7115052 L7.26845361,46.7115052 C8.5945567,48.1565361 10.0701856,49.4572371 11.6699381,50.5945567 L11.6699381,50.5945567 C11.8616082,49.5449897 11.9741856,48.4786804 11.9741856,47.3921649 L11.9741856,47.3921649 C11.9741856,39.5746804 6.95785567,32.7796289 0,30.4195464 L0,30.4195464 C0.204371134,32.5157938 0.641402062,34.5416082 1.27587629,36.4767835 L1.27587629,36.4767835 Z" mask="url(#powered_by_climacell-halo@2x-c)"/>
    </g>
  </g>
</svg>
