<svg xmlns="http://www.w3.org/2000/svg" xmlns:xlink="http://www.w3.org/1999/xlink" width="497" height="56" viewBox="0 0 497 56">
  <defs>
    <path id="powered_by_tomorrow-white-a" d="M33.3806186,0.21014433 C31.6018969,1.1731134 29.622268,1.69443299 27.5571959,1.69443299 L27.5571959,1.69443299 C25.5036701,1.69443299 23.5350103,1.1788866 21.7661031,0.228618557 L21.7661031,0.228618557 C19.8540206,0.64371134 18.0164124,1.25971134 16.2717526,2.05063918 L16.2717526,2.05063918 C19.3921649,4.83158763 23.3993402,6.4163299 27.6131959,6.4163299 L27.6131959,6.4163299 C31.8270515,6.4163299 35.8342268,4.83158763 38.9540619,2.05063918 L38.9540619,2.05063918 C37.185732,1.24874227 35.3221443,0.624659794 33.3806186,0.21014433 Z M27.6131959,12.9983505 C21.1281649,12.9983505 15.0155052,10.2468454 10.5759175,5.51859794 L10.5759175,5.51859794 C8.8537732,6.87587629 7.29558763,8.43290722 5.93253608,10.1562062 L5.93253608,10.1562062 C8.46754639,12.8545979 11.4465155,15.0992165 14.7343505,16.7001237 L14.7343505,16.7001237 C15.2556701,16.9541443 15.7891134,17.1948866 16.3219794,17.4165773 L16.3219794,17.4165773 C17.3981031,17.864 18.5105979,18.2513814 19.6300206,18.5671753 L19.6300206,18.5671753 C20.4792577,18.8067629 21.3498557,19.0105567 22.2158351,19.1716289 L22.2158351,19.1716289 C22.5073814,19.2258969 22.8006598,19.2761237 23.0956701,19.321732 L23.0956701,19.321732 C23.6828041,19.4129485 24.2832165,19.4874227 24.8795876,19.542268 L24.8795876,19.542268 C26.683134,19.7096907 28.5432577,19.7096907 30.3462268,19.542268 L30.3462268,19.542268 C30.9425979,19.4874227 31.542433,19.4129485 32.1307216,19.321732 L32.1307216,19.321732 C32.425732,19.2761237 32.7190103,19.2258969 33.0105567,19.1722062 L33.0105567,19.1722062 C33.8765361,19.0105567 34.747134,18.8067629 35.5963711,18.5671753 L35.5963711,18.5671753 C36.7163711,18.2508041 37.8294433,17.864 38.9038351,17.4165773 L38.9038351,17.4165773 C39.4372784,17.1948866 39.9707216,16.9541443 40.4920412,16.7001237 L40.4920412,16.7001237 C43.7798763,15.0992165 46.7588454,12.8545979 49.2938557,10.1562062 L49.2938557,10.1562062 C47.9308041,8.43290722 46.3726186,6.87587629 44.6510515,5.51859794 L44.6510515,5.51859794 C40.2108866,10.2468454 34.0982268,12.9983505 27.6131959,12.9983505 L27.6131959,12.9983505 Z M30.3716289,47.3921649 C30.3716289,47.6525361 30.3745155,47.9123299 30.380866,48.1721237 L30.380866,48.1721237 C30.4403299,50.6401649 30.7896082,53.0643299 31.4044536,55.4226804 L31.4044536,55.4226804 C33.5890309,55.1207423 35.6910515,54.5613196 37.6833814,53.7767423 L37.6833814,53.7767423 C37.1366598,51.7093608 36.8508866,49.5750103 36.8508866,47.3921649 L36.8508866,47.3921649 C36.8508866,36.0022268 44.6025567,26.2258969 55.0687835,23.630268 L55.0687835,23.630268 C54.7506804,21.390268 54.1687423,19.236866 53.3593402,17.2000825 L53.3593402,17.2000825 C40.0405773,20.5762474 30.3716289,32.9603299 30.3716289,47.3921649 L30.3716289,47.3921649 Z M0.151257732,23.630268 C10.6174845,26.2258969 18.3691546,36.0022268 18.3691546,47.3921649 L18.3691546,47.3921649 C18.3691546,49.5750103 18.0828041,51.7093608 17.5360825,53.7767423 L17.5360825,53.7767423 C19.5284124,54.5613196 21.630433,55.1207423 23.8150103,55.4226804 L23.8150103,55.4226804 C24.4298557,53.0643299 24.7797113,50.6401649 24.8391753,48.1721237 L24.8391753,48.1721237 C24.8443711,47.9123299 24.8484124,47.6525361 24.8484124,47.3921649 L24.8484124,47.3921649 C24.8484124,32.9603299 15.1788866,20.5762474 1.86012371,17.2000825 L1.86012371,17.2000825 C1.05014433,19.236866 0.469360825,21.390268 0.151257732,23.630268 L0.151257732,23.630268 Z M43.2452784,47.3921649 C43.2452784,48.4786804 43.3572784,49.5449897 43.5495258,50.5945567 L43.5495258,50.5945567 C45.148701,49.4572371 46.6249072,48.1565361 47.950433,46.7115052 L47.950433,46.7115052 C48.2154227,42.4722474 50.5050722,38.6642474 53.9435876,36.4767835 L53.9435876,36.4767835 C54.5786392,34.5416082 55.0156701,32.5157938 55.2194639,30.4195464 L55.2194639,30.4195464 C48.2616082,32.7796289 43.2452784,39.5746804 43.2452784,47.3921649 L43.2452784,47.3921649 Z M1.27587629,36.4767835 C4.71439175,38.6642474 7.00404124,42.4722474 7.26845361,46.7115052 L7.26845361,46.7115052 C8.5945567,48.1565361 10.0701856,49.4572371 11.6699381,50.5945567 L11.6699381,50.5945567 C11.8616082,49.5449897 11.9741856,48.4786804 11.9741856,47.3921649 L11.9741856,47.3921649 C11.9741856,39.5746804 6.95785567,32.7796289 0,30.4195464 L0,30.4195464 C0.204371134,32.5157938 0.641402062,34.5416082 1.27587629,36.4767835 L1.27587629,36.4767835 Z"/>
    <linearGradient id="powered_by_tomorrow-white-b" x1="0%" x2="100%" y1="50%" y2="50%">
      <stop offset="0%" stop-color="#0087FF"/>
      <stop offset="100%" stop-color="#00CDE8"/>
    </linearGradient>
  </defs>
  <g fill="none" fill-rule="evenodd">
    <path fill="#FFF" fill-rule="nonzero" d="M-1.13686838e-13,22.912 L7.416,22.912 C9.2560092,22.912 10.6879949,23.3559956 11.712,24.244 C12.7360051,25.1320044 13.248,26.3439923 13.248,27.88 C13.248,29.4160077 12.7320052,30.6319955 11.7,31.528 C10.6679948,32.4240045 9.24000912,32.872 7.416,32.872 L3.096,32.872 L3.096,40 L-1.13686838e-13,40 L-1.13686838e-13,22.912 Z M7.056,30.472 C8.12800536,30.472 8.93999724,30.2520022 9.492,29.812 C10.0440028,29.3719978 10.32,28.7360042 10.32,27.904 C10.32,27.0559958 10.0480027,26.4120022 9.504,25.972 C8.95999728,25.5319978 8.14400544,25.312 7.056,25.312 L3.096,25.312 L3.096,30.472 L7.056,30.472 Z M24.496,40.216 C22.8479918,40.216 21.4120061,39.8600036 20.188,39.148 C18.9639939,38.4359964 18.0200033,37.4200066 17.356,36.1 C16.6919967,34.7799934 16.36,33.224009 16.36,31.432 C16.36,29.6559911 16.6879967,28.1080066 17.344,26.788 C18.0000033,25.4679934 18.9399939,24.4560035 20.164,23.752 C21.3880061,23.0479965 22.8319917,22.696 24.496,22.696 C26.1600083,22.696 27.6039939,23.0479965 28.828,23.752 C30.0520061,24.4560035 30.9879968,25.4679934 31.636,26.788 C32.2840032,28.1080066 32.608,29.6559911 32.608,31.432 C32.608,33.224009 32.2800033,34.7799934 31.624,36.1 C30.9679967,37.4200066 30.0320061,38.4359964 28.816,39.148 C27.5999939,39.8600036 26.1600083,40.216 24.496,40.216 Z M24.496,37.744 C26.0800079,37.744 27.3119956,37.2000054 28.192,36.112 C29.0720044,35.0239946 29.512,33.4640102 29.512,31.432 C29.512,29.4159899 29.0720044,27.8680054 28.192,26.788 C27.3119956,25.7079946 26.0800079,25.168 24.496,25.168 C22.9119921,25.168 21.6800044,25.7039946 20.8,26.776 C19.9199956,27.8480054 19.48,29.3999898 19.48,31.432 C19.48,33.4640102 19.9199956,35.0239946 20.8,36.112 C21.6800044,37.2000054 22.9119921,37.744 24.496,37.744 Z M57.824,22.912 L60.8,22.912 L54.752,40 L52.232,40 L47.936,27.712 L43.592,40 L41.072,40 L35.048,22.912 L38.192,22.912 L42.464,35.656 L46.904,22.912 L49.112,22.912 L53.456,35.752 L57.824,22.912 Z M64.2,40 L64.2,22.912 L75.624,22.912 L75.624,25.36 L67.224,25.36 L67.224,30.088 L75.12,30.088 L75.12,32.536 L67.224,32.536 L67.224,37.552 L75.624,37.552 L75.624,40 L64.2,40 Z M93.544,40 L90.28,40 L88.096,34.312 C87.903999,33.7839974 87.608002,33.416001 87.208,33.208 C86.807998,32.999999 86.2880032,32.896 85.648,32.896 L82.552,32.896 L82.552,40 L79.48,40 L79.48,22.912 L86.8,22.912 C88.7360097,22.912 90.207995,23.3359958 91.216,24.184 C92.224005,25.0320042 92.728,26.2479921 92.728,27.832 C92.728,28.9680057 92.428003,29.931996 91.828,30.724 C91.227997,31.516004 90.3760055,32.0799983 89.272,32.416 C90.280005,32.624001 91.0079978,33.327994 91.456,34.528 L93.544,40 Z M86.368,30.496 C87.5360058,30.496 88.3999972,30.2800022 88.96,29.848 C89.5200028,29.4159978 89.8,28.7600044 89.8,27.88 C89.8,27.0159957 89.5240028,26.3720021 88.972,25.948 C88.4199972,25.5239979 87.5520059,25.312 86.368,25.312 L82.504,25.312 L82.504,30.496 L86.368,30.496 Z M97.328,40 L97.328,22.912 L108.752,22.912 L108.752,25.36 L100.352,25.36 L100.352,30.088 L108.248,30.088 L108.248,32.536 L100.352,32.536 L100.352,37.552 L108.752,37.552 L108.752,40 L97.328,40 Z M112.608,22.912 L118.896,22.912 C121.696014,22.912 123.867992,23.6559926 125.412,25.144 C126.956008,26.6320074 127.728,28.7279865 127.728,31.432 C127.728,34.1520136 126.956008,36.2599925 125.412,37.756 C123.867992,39.2520075 121.696014,40 118.896,40 L112.608,40 L112.608,22.912 Z M118.704,37.48 C122.64002,37.48 124.608,35.4640202 124.608,31.432 C124.608,27.432 122.64002,25.432 118.704,25.432 L115.704,25.432 L115.704,37.48 L118.704,37.48 Z M149.984,31.168 C150.976005,31.4560014 151.739997,31.9599964 152.276,32.68 C152.812003,33.4000036 153.08,34.2879947 153.08,35.344 C153.08,36.8000073 152.564005,37.9399959 151.532,38.764 C150.499995,39.5880041 149.064009,40 147.224,40 L139.472,40 L139.472,22.912 L146.984,22.912 C148.744009,22.912 150.127995,23.307996 151.136,24.1 C152.144005,24.892004 152.648,25.983993 152.648,27.376 C152.648,28.2720045 152.412002,29.0519967 151.94,29.716 C151.467998,30.3800033 150.816004,30.8639985 149.984,31.168 Z M142.496,30.112 L146.48,30.112 C148.624011,30.112 149.696,29.312 149.696,27.712 C149.696,26.911996 149.432003,26.312 148.904,25.912 C148.375997,25.511998 147.568005,25.312 146.48,25.312 L142.496,25.312 L142.496,30.112 Z M146.888,37.6 C148.008006,37.6 148.827997,37.400002 149.348,37 C149.868003,36.599998 150.128,35.9680043 150.128,35.104 C150.128,34.2239956 149.868003,33.5760021 149.348,33.16 C148.827997,32.7439979 148.008006,32.536 146.888,32.536 L142.496,32.536 L142.496,37.6 L146.888,37.6 Z M170.928,22.912 L163.992,33.232 L163.992,40 L160.896,40 L160.896,33.232 L153.96,22.912 L157.488,22.912 L162.432,30.64 L167.4,22.912 L170.928,22.912 Z"/>
    <g transform="translate(184.152)">
      <path fill="#FFF" d="M76.5679918,11.4958763 L76.5679918,18.3619381 L82.9733526,18.3619381 L82.9733526,23.0255258 L76.5679918,23.0255258 L76.5679918,35.0158763 C76.5679918,37.954433 77.746301,39.4225567 80.1034969,39.4225567 C80.5474557,39.4225567 81.0006515,39.3717526 81.4619299,39.2689897 C81.9232082,39.1668041 82.3406103,39.0299794 82.7176,38.8590928 L83.7417649,43.2143918 C83.0582186,43.4539794 82.2817237,43.6670103 81.4105485,43.8557938 C80.5393732,44.0428454 79.6081567,44.1369485 78.6174763,44.1369485 C77.1481979,44.1369485 75.9104247,43.9146804 74.9024247,43.471299 C73.8944247,43.0273402 73.0746309,42.4038351 72.4430433,41.6002062 C71.810301,40.7983093 71.3490227,39.842268 71.0592082,38.7309278 C70.7688165,37.6213196 70.6239093,36.3823918 70.6239093,35.0158763 L70.6239093,23.0255258 L67.0370227,23.0255258 L67.0370227,18.6188454 L70.9316206,18.3619381 L71.6492289,11.4958763 L76.5679918,11.4958763 Z M97.7310268,17.7477856 C99.3019134,17.7477856 100.813913,18.0468371 102.265872,18.6443629 C103.717254,19.242466 104.989666,20.1049814 106.083687,21.2319093 C107.175975,22.3594144 108.056388,23.7426722 108.722614,25.3828371 C109.388264,27.0224247 109.721955,28.8848577 109.721955,30.9678268 C109.721955,33.0519505 109.388264,34.9138062 108.722614,36.5533938 C108.056388,38.1929814 107.175975,39.5768165 106.083687,40.7037443 C104.989666,41.8312495 103.717254,42.6856825 102.265872,43.2658887 C100.813913,43.8466722 99.3019134,44.1370639 97.7310268,44.1370639 C96.1589856,44.1370639 94.6568,43.8466722 93.2215835,43.2658887 C91.7869443,42.6856825 90.5139546,41.8312495 89.4043464,40.7037443 C88.2935835,39.5768165 87.4137485,38.1929814 86.7654186,36.5533938 C86.115934,34.9138062 85.7914804,33.0519505 85.7914804,30.9678268 C85.7914804,28.8848577 86.115934,27.0224247 86.7654186,25.3828371 C87.4137485,23.7426722 88.2935835,22.3594144 89.4043464,21.2319093 C90.5139546,20.1049814 91.7869443,19.242466 93.2215835,18.6443629 C94.6568,18.0468371 96.1589856,17.7477856 97.7310268,17.7477856 Z M169.059324,17.7477856 C170.63021,17.7477856 172.141633,18.0468371 173.594169,18.6443629 C175.045551,19.242466 176.317963,20.1049814 177.411984,21.2319093 C178.504849,22.3594144 179.384685,23.7426722 180.050911,25.3828371 C180.716561,27.0224247 181.050252,28.8848577 181.050252,30.9678268 C181.050252,33.0519505 180.716561,34.9138062 180.050911,36.5533938 C179.384685,38.1929814 178.504849,39.5768165 177.411984,40.7037443 C176.317963,41.8312495 175.045551,42.6856825 173.594169,43.2658887 C172.141633,43.8466722 170.63021,44.1370639 169.059324,44.1370639 C167.487282,44.1370639 165.985097,43.8466722 164.54988,43.2658887 C163.115241,42.6856825 161.842252,41.8312495 160.732066,40.7037443 C159.62188,39.5768165 158.742045,38.1929814 158.093715,36.5533938 C157.444231,34.9138062 157.119777,33.0519505 157.119777,30.9678268 C157.119777,28.8848577 157.444231,27.0224247 158.093715,25.3828371 C158.742045,23.7426722 159.62188,22.3594144 160.732066,21.2319093 C161.842252,20.1049814 163.115241,19.242466 164.54988,18.6443629 C165.985097,18.0468371 167.487282,17.7477856 169.059324,17.7477856 Z M234.904239,17.7477856 C236.475126,17.7477856 237.987126,18.0468371 239.438507,18.6443629 C240.890466,19.242466 242.162878,20.1049814 243.256899,21.2319093 C244.349188,22.3594144 245.2296,23.7426722 245.895827,25.3828371 C246.561476,27.0224247 246.895167,28.8848577 246.895167,30.9678268 C246.895167,33.0519505 246.561476,34.9138062 245.895827,36.5533938 C245.2296,38.1929814 244.349188,39.5768165 243.256899,40.7037443 C242.162878,41.8312495 240.890466,42.6856825 239.438507,43.2658887 C237.987126,43.8466722 236.475126,44.1370639 234.904239,44.1370639 C233.332198,44.1370639 231.830012,43.8466722 230.394219,43.2658887 C228.960157,42.6856825 227.687167,41.8312495 226.576981,40.7037443 C225.466219,39.5768165 224.586961,38.1929814 223.938631,36.5533938 C223.289146,34.9138062 222.964115,33.0519505 222.964115,30.9678268 C222.964115,28.8848577 223.289146,27.0224247 223.938631,25.3828371 C224.586961,23.7426722 225.466219,22.3594144 226.576981,21.2319093 C227.687167,20.1049814 228.960157,19.242466 230.394219,18.6443629 C231.830012,18.0468371 233.332198,17.7477856 234.904239,17.7477856 Z M143.797493,17.7473814 C146.461823,17.7473814 148.426441,18.6104742 149.690194,20.3355052 C150.953946,22.0605361 151.585534,24.5291546 151.585534,27.7396289 L151.585534,43.5223918 L145.642606,43.5223918 L145.642606,28.5080412 C145.642606,26.4250722 145.326235,24.9557938 144.694647,24.1013608 C144.061328,23.2480825 143.096627,22.8202887 141.798812,22.8202887 C140.227926,22.8202887 138.468256,23.8629278 136.521534,25.9464742 L136.521534,43.5223918 L130.628256,43.5223918 L130.628256,28.5080412 C130.628256,26.4250722 130.312462,24.9557938 129.680297,24.1013608 C129.047555,23.2480825 128.066111,22.8202887 126.734235,22.8202887 C125.162194,22.8202887 123.403101,23.8629278 121.455802,25.9464742 L121.455802,43.5223918 L115.563101,43.5223918 L115.563101,18.3622268 L120.431637,18.3622268 L120.841534,21.7955464 L121.045905,21.7955464 C122.104132,20.6680412 123.257039,19.7125773 124.504627,18.926268 C125.75106,18.1405361 127.160874,17.7473814 128.732915,17.7473814 C130.577452,17.7473814 132.054235,18.1405361 133.164421,18.926268 C134.274606,19.7125773 135.119802,20.8221856 135.70174,22.2568247 C136.896792,20.9590103 138.143225,19.8828866 139.441616,19.0284536 C140.739431,18.1745979 142.19139,17.7473814 143.797493,17.7473814 Z M199.497171,17.7473814 C200.692223,17.7473814 201.649419,17.9188454 202.367027,18.2594639 L201.341707,23.3843299 C200.897748,23.2480825 200.487852,23.1458969 200.111439,23.0760412 C199.735604,23.0084948 199.274326,22.974433 198.728181,22.974433 C197.737501,22.974433 196.695439,23.3583505 195.602573,24.1273402 C194.50913,24.8957526 193.569254,26.236866 192.784099,28.1501031 L192.784099,43.5223918 L186.891398,43.5223918 L186.891398,18.3622268 L191.759357,18.3622268 L192.169831,22.8202887 L192.374779,22.8202887 C193.262697,21.180701 194.338243,19.9250309 195.602573,19.0538557 C196.865748,18.1832577 198.164718,17.7473814 199.497171,17.7473814 Z M218.610202,17.7473814 C219.804676,17.7473814 220.761872,17.9188454 221.47948,18.2594639 L220.454738,23.3843299 C220.010202,23.2480825 219.600882,23.1458969 219.22447,23.0760412 C218.848635,23.0084948 218.387357,22.974433 217.841212,22.974433 C216.849955,22.974433 215.80847,23.3583505 214.715604,24.1273402 C213.622161,24.8957526 212.682285,26.236866 211.89713,28.1501031 L211.89713,43.5223918 L206.004429,43.5223918 L206.004429,18.3622268 L210.872388,18.3622268 L211.282862,22.8202887 L211.487233,22.8202887 C212.375151,21.180701 213.451274,19.9250309 214.715604,19.0538557 C215.978779,18.1832577 217.277171,17.7473814 218.610202,17.7473814 Z M255.862614,18.3622268 L258.886037,31.4292784 C259.159109,32.6249072 259.38946,33.8205361 259.577089,35.0161649 C259.765295,36.2123711 259.978903,37.4241649 260.218491,38.6538557 L260.423439,38.6538557 C260.661872,37.4241649 260.91012,36.2123711 261.165872,35.0161649 C261.422202,33.8205361 261.704511,32.6249072 262.011068,31.4292784 L265.291398,18.3622268 L270.671439,18.3622268 L274.002573,31.4292784 C274.309707,32.6249072 274.600099,33.8205361 274.873748,35.0161649 C275.146243,36.2123711 275.419893,37.4241649 275.692965,38.6538557 L275.898491,38.6538557 C276.136924,37.4241649 276.359769,36.2123711 276.564718,35.0161649 C276.769666,33.8205361 276.991357,32.6249072 277.230944,31.4292784 L280.25379,18.3622268 L285.787975,18.3622268 L279.382614,43.5223918 L272.362408,43.5223918 L269.441171,31.7877938 C269.168099,30.5927423 268.911769,29.4051959 268.673336,28.2268866 C268.433748,27.048 268.177996,25.7923299 267.904346,24.4604536 L267.699398,24.4604536 C267.460388,25.7923299 267.2208,27.0566598 266.982367,28.2522887 C266.743357,29.4484948 266.486449,30.6435464 266.213955,31.8391753 L263.344099,43.5223918 L256.580223,43.5223918 L249.918532,18.3622268 L255.862614,18.3622268 Z M97.7310268,22.5643629 C95.8864907,22.5643629 94.4426144,23.3246928 93.4011299,24.8447753 C92.3584907,26.3648577 91.8383258,28.4062598 91.8383258,30.9678268 C91.8383258,33.4964866 92.3584907,35.5205691 93.4011299,37.0400742 C94.4426144,38.560734 95.8864907,39.3204866 97.7310268,39.3204866 C99.5755629,39.3204866 101.027522,38.560734 102.086903,37.0400742 C103.14513,35.5205691 103.675109,33.4964866 103.675109,30.9678268 C103.675109,28.4062598 103.14513,26.3648577 102.086903,24.8447753 C101.027522,23.3246928 99.5755629,22.5643629 97.7310268,22.5643629 Z M169.059324,22.5643629 C167.214788,22.5643629 165.770911,23.3246928 164.729427,24.8447753 C163.686788,26.3648577 163.166045,28.4062598 163.166045,30.9678268 C163.166045,33.4964866 163.686788,35.5205691 164.729427,37.0400742 C165.770911,38.560734 167.214788,39.3204866 169.059324,39.3204866 C170.90386,39.3204866 172.355819,38.560734 173.414623,37.0400742 C174.473427,35.5205691 175.003406,33.4964866 175.003406,30.9678268 C175.003406,28.4062598 174.473427,26.3648577 173.414623,24.8447753 C172.355819,23.3246928 170.90386,22.5643629 169.059324,22.5643629 Z M234.904239,22.5643629 C233.059703,22.5643629 231.615827,23.3246928 230.574342,24.8447753 C229.531703,26.3648577 229.010961,28.4062598 229.010961,30.9678268 C229.010961,33.4964866 229.531703,35.5205691 230.574342,37.0400742 C231.615827,38.560734 233.059703,39.3204866 234.904239,39.3204866 C236.748775,39.3204866 238.200734,38.560734 239.260115,37.0400742 C240.318342,35.5205691 240.848322,33.4964866 240.848322,30.9678268 C240.848322,28.4062598 240.318342,26.3648577 239.260115,24.8447753 C238.200734,23.3246928 236.748775,22.5643629 234.904239,22.5643629 Z"/>
      <path fill="#FFF" d="M287.709814,39.8329155 C288.255959,39.8329155 288.708577,40.0205443 289.06767,40.3969567 C289.426186,40.7722144 289.605155,41.2508124 289.605155,41.8310186 C289.605155,42.4118021 289.426186,42.8904 289.06767,43.2656577 C288.708577,43.6414928 288.255959,43.829699 287.709814,43.829699 C287.162515,43.829699 286.705856,43.6414928 286.33868,43.2656577 C285.971505,42.8904 285.787918,42.4118021 285.787918,41.8310186 C285.787918,41.2508124 285.971505,40.7722144 286.33868,40.3969567 C286.705856,40.0205443 287.162515,39.8329155 287.709814,39.8329155 Z M304.952099,30.6345402 C305.737254,30.6345402 306.493542,30.7846433 307.21981,31.0831175 C307.946078,31.3821691 308.581707,31.8134268 309.128429,32.377468 C309.675151,32.940932 310.115068,33.6325608 310.448181,34.452932 C310.781295,35.2727258 310.94814,36.2033649 310.94814,37.2454268 C310.94814,38.2869113 310.781295,39.2181278 310.448181,40.038499 C310.115068,40.8577155 309.675151,41.5499216 309.128429,42.1128082 C308.581707,42.6768495 307.946078,43.1034887 307.21981,43.3944577 C306.493542,43.6842722 305.737254,43.8297567 304.952099,43.8297567 C304.166944,43.8297567 303.415274,43.6842722 302.698243,43.3944577 C301.980635,43.1034887 301.343852,42.6768495 300.789047,42.1128082 C300.233666,41.5499216 299.793171,40.8577155 299.469295,40.038499 C299.144841,39.2181278 298.982614,38.2869113 298.982614,37.2454268 C298.982614,36.2033649 299.144841,35.2727258 299.469295,34.452932 C299.793171,33.6325608 300.233666,32.940932 300.789047,32.377468 C301.343852,31.8134268 301.980635,31.3821691 302.698243,31.0831175 C303.415274,30.7846433 304.166944,30.6345402 304.952099,30.6345402 Z M296.035629,30.9420206 L296.035629,43.5223918 L293.089567,43.5223918 L293.089567,30.9420206 L296.035629,30.9420206 Z M304.952099,33.0431175 C304.029542,33.0431175 303.307893,33.4235711 302.787151,34.1833237 C302.266408,34.9436536 302.006037,35.9643546 302.006037,37.2454268 C302.006037,38.5091794 302.266408,39.5212206 302.787151,40.2809732 C303.307893,41.0413031 304.029542,41.4217567 304.952099,41.4217567 C305.874656,41.4217567 306.600346,41.0413031 307.129748,40.2809732 C307.659151,39.5212206 307.92414,38.5091794 307.92414,37.2454268 C307.92414,35.9643546 307.659151,34.9436536 307.129748,34.1833237 C306.600346,33.4235711 305.874656,33.0431175 304.952099,33.0431175 Z M294.575588,25.382433 C295.10499,25.382433 295.540866,25.5406186 295.882639,25.8564124 C296.223835,26.1727835 296.394722,26.5780619 296.394722,27.0734021 C296.394722,27.5687423 296.223835,27.9705567 295.882639,28.2776907 C295.540866,28.5848247 295.10499,28.7389691 294.575588,28.7389691 C294.046186,28.7389691 293.610309,28.5848247 293.269113,28.2776907 C292.92734,27.9705567 292.756454,27.5687423 292.756454,27.0734021 C292.756454,26.5780619 292.92734,26.1727835 293.269113,25.8564124 C293.610309,25.5406186 294.046186,25.382433 294.575588,25.382433 Z" opacity=".3"/>
      <mask id="powered_by_tomorrow-white-c" fill="#fff">
        <use xlink:href="#powered_by_tomorrow-white-a"/>
      </mask>
      <path fill="url(#powered_by_tomorrow-white-b)" d="M33.3806186,0.21014433 C31.6018969,1.1731134 29.622268,1.69443299 27.5571959,1.69443299 L27.5571959,1.69443299 C25.5036701,1.69443299 23.5350103,1.1788866 21.7661031,0.228618557 L21.7661031,0.228618557 C19.8540206,0.64371134 18.0164124,1.25971134 16.2717526,2.05063918 L16.2717526,2.05063918 C19.3921649,4.83158763 23.3993402,6.4163299 27.6131959,6.4163299 L27.6131959,6.4163299 C31.8270515,6.4163299 35.8342268,4.83158763 38.9540619,2.05063918 L38.9540619,2.05063918 C37.185732,1.24874227 35.3221443,0.624659794 33.3806186,0.21014433 Z M27.6131959,12.9983505 C21.1281649,12.9983505 15.0155052,10.2468454 10.5759175,5.51859794 L10.5759175,5.51859794 C8.8537732,6.87587629 7.29558763,8.43290722 5.93253608,10.1562062 L5.93253608,10.1562062 C8.46754639,12.8545979 11.4465155,15.0992165 14.7343505,16.7001237 L14.7343505,16.7001237 C15.2556701,16.9541443 15.7891134,17.1948866 16.3219794,17.4165773 L16.3219794,17.4165773 C17.3981031,17.864 18.5105979,18.2513814 19.6300206,18.5671753 L19.6300206,18.5671753 C20.4792577,18.8067629 21.3498557,19.0105567 22.2158351,19.1716289 L22.2158351,19.1716289 C22.5073814,19.2258969 22.8006598,19.2761237 23.0956701,19.321732 L23.0956701,19.321732 C23.6828041,19.4129485 24.2832165,19.4874227 24.8795876,19.542268 L24.8795876,19.542268 C26.683134,19.7096907 28.5432577,19.7096907 30.3462268,19.542268 L30.3462268,19.542268 C30.9425979,19.4874227 31.542433,19.4129485 32.1307216,19.321732 L32.1307216,19.321732 C32.425732,19.2761237 32.7190103,19.2258969 33.0105567,19.1722062 L33.0105567,19.1722062 C33.8765361,19.0105567 34.747134,18.8067629 35.5963711,18.5671753 L35.5963711,18.5671753 C36.7163711,18.2508041 37.8294433,17.864 38.9038351,17.4165773 L38.9038351,17.4165773 C39.4372784,17.1948866 39.9707216,16.9541443 40.4920412,16.7001237 L40.4920412,16.7001237 C43.7798763,15.0992165 46.7588454,12.8545979 49.2938557,10.1562062 L49.2938557,10.1562062 C47.9308041,8.43290722 46.3726186,6.87587629 44.6510515,5.51859794 L44.6510515,5.51859794 C40.2108866,10.2468454 34.0982268,12.9983505 27.6131959,12.9983505 L27.6131959,12.9983505 Z M30.3716289,47.3921649 C30.3716289,47.6525361 30.3745155,47.9123299 30.380866,48.1721237 L30.380866,48.1721237 C30.4403299,50.6401649 30.7896082,53.0643299 31.4044536,55.4226804 L31.4044536,55.4226804 C33.5890309,55.1207423 35.6910515,54.5613196 37.6833814,53.7767423 L37.6833814,53.7767423 C37.1366598,51.7093608 36.8508866,49.5750103 36.8508866,47.3921649 L36.8508866,47.3921649 C36.8508866,36.0022268 44.6025567,26.2258969 55.0687835,23.630268 L55.0687835,23.630268 C54.7506804,21.390268 54.1687423,19.236866 53.3593402,17.2000825 L53.3593402,17.2000825 C40.0405773,20.5762474 30.3716289,32.9603299 30.3716289,47.3921649 L30.3716289,47.3921649 Z M0.151257732,23.630268 C10.6174845,26.2258969 18.3691546,36.0022268 18.3691546,47.3921649 L18.3691546,47.3921649 C18.3691546,49.5750103 18.0828041,51.7093608 17.5360825,53.7767423 L17.5360825,53.7767423 C19.5284124,54.5613196 21.630433,55.1207423 23.8150103,55.4226804 L23.8150103,55.4226804 C24.4298557,53.0643299 24.7797113,50.6401649 24.8391753,48.1721237 L24.8391753,48.1721237 C24.8443711,47.9123299 24.8484124,47.6525361 24.8484124,47.3921649 L24.8484124,47.3921649 C24.8484124,32.9603299 15.1788866,20.5762474 1.86012371,17.2000825 L1.86012371,17.2000825 C1.05014433,19.236866 0.469360825,21.390268 0.151257732,23.630268 L0.151257732,23.630268 Z M43.2452784,47.3921649 C43.2452784,48.4786804 43.3572784,49.5449897 43.5495258,50.5945567 L43.5495258,50.5945567 C45.148701,49.4572371 46.6249072,48.1565361 47.950433,46.7115052 L47.950433,46.7115052 C48.2154227,42.4722474 50.5050722,38.6642474 53.9435876,36.4767835 L53.9435876,36.4767835 C54.5786392,34.5416082 55.0156701,32.5157938 55.2194639,30.4195464 L55.2194639,30.4195464 C48.2616082,32.7796289 43.2452784,39.5746804 43.2452784,47.3921649 L43.2452784,47.3921649 Z M1.27587629,36.4767835 C4.71439175,38.6642474 7.00404124,42.4722474 7.26845361,46.7115052 L7.26845361,46.7115052 C8.5945567,48.1565361 10.0701856,49.4572371 11.6699381,50.5945567 L11.6699381,50.5945567 C11.8616082,49.5449897 11.9741856,48.4786804 11.9741856,47.3921649 L11.9741856,47.3921649 C11.9741856,39.5746804 6.95785567,32.7796289 0,30.4195464 L0,30.4195464 C0.204371134,32.5157938 0.641402062,34.5416082 1.27587629,36.4767835 L1.27587629,36.4767835 Z" mask="url(#powered_by_tomorrow-white-c)"/>
    </g>
  </g>
</svg>
