<?xml version="1.0" encoding="UTF-8"?>
<svg width="20px" height="15px" viewBox="0 0 20 15" version="1.1" xmlns="http://www.w3.org/2000/svg" xmlns:xlink="http://www.w3.org/1999/xlink">
    <!-- Generator: Sketch 64 (93537) - https://sketch.com -->
    <title>cloudy-colored</title>
    <desc>Created with Sketch.</desc>
    <g id="Page-1" stroke="none" stroke-width="1" fill="none" fill-rule="evenodd">
        <g id="cloudy-colored" fill="#7A7A7A" fill-rule="nonzero">
            <g id="Layer_1">
                <path d="M15.2,14.6 L7,14.6 C5.8,14.6 4.9,13.6 4.9,12.5 C4.9,11.7 5.4,10.9 6.1,10.6 C6.2,10.6 6.4,10.5 6.4,10.2 C6.4,8.1 8.4,6.3 10.9,6.3 C13.4,6.3 15.4,8 15.4,10.2 C15.4,10.3 15.5,10.4 15.5,10.5 C16.5,10.6 17.3,11.5 17.3,12.6 C17.3,13.6 16.4,14.6 15.2,14.6 Z M10.9,6.7 C8.7,6.7 6.9,8.2 6.9,10.1 C6.9,10.7 6.5,10.9 6.3,11 C5.8,11.3 5.4,11.8 5.4,12.5 C5.4,13.4 6.1,14.1 7,14.1 L15.2,14.1 C16.1,14.1 16.8,13.4 16.8,12.5 C16.8,11.7 16.2,11 15.4,10.9 C15.1,10.9 14.9,10.4 14.9,10.1 C14.9,8.2 13.1,6.7 10.9,6.7 Z" id="Shape"></path>
                <path d="M7.4,0.2 C9.6,0.2 11.6,1.7 12.3,4 C12.3,4.1 12.8,4.3 13.2,4.3 C14.5,4.3 15.7,5 16.3,6.1 C16.4,6.2 16.6,6.4 17.1,6.4 C18.5,6.4 19.6,7.5 19.6,8.9 C19.6,10.3 18.4,11.5 17.1,11.5 L16.4508125,11.4988854 C16.3242311,11.3381736 16.1678315,11.2014184 15.989347,11.0982866 L17,11.1 C18.1,11.1 19,10.1 19,9 C19,7.9 18.1,7 17,7 C16.4,7 16,6.8 15.8,6.5 C15.2,5.5 14.2,4.9 13.1,4.9 C12.5,4.9 11.8,4.6 11.7,4.2 C11.2,2.1 9.4,0.7 7.4,0.7 C4.9,0.7 2.8,2.8 2.8,5.5 C2.8,6.4 2.2,6.6 2.1,6.7 C1.5,7.1 1,7.9 1,8.8 C1,10.1 1.8,11.1 2.9,11.1 L6.14986624,11.0984526 C5.97030292,11.2269735 5.80931261,11.3839107 5.68296214,11.5692644 L3,11.6 C1.7,11.6 0.6,10.3 0.6,8.7 C0.6,7.6 1.1,6.6 1.9,6.1 C2,6.1 2.3,6 2.3,5.5 C2.3,2.6 4.6,0.2 7.4,0.2 Z" id="Combined-Shape"></path>
            </g>
        </g>
    </g>
</svg>