<?xml version="1.0" encoding="utf-8"?>
<!-- Generator: Adobe Illustrator 24.1.2, SVG Export Plug-In . SVG Version: 6.00 Build 0)  -->
<svg version="1.1" id="flurries" xmlns="http://www.w3.org/2000/svg" xmlns:xlink="http://www.w3.org/1999/xlink" x="0px" y="0px"
	 viewBox="0 0 24 24" enable-background="new 0 0 24 24" xml:space="preserve">
<path fill="#E5E5E5" d="M18.4042,22c-0.8018,0-1.5547-0.312-2.1211-0.8784c-0.1953-0.1953-0.1953-0.5117,0-0.707
	s0.5117-0.1953,0.707,0C17.3681,20.7919,17.8701,21,18.4042,21c1.1025,0,2-0.897,2-2s-0.8975-2-2-2H3.2499
	c-0.2764,0-0.5-0.2236-0.5-0.5s0.2236-0.5,0.5-0.5h15.1543c1.6543,0,3,1.3457,3,3S20.0585,22,18.4042,22z M13.9042,21
	c0-1.6543-1.3457-3-3-3H3.2499c-0.2764,0-0.5,0.2236-0.5,0.5s0.2236,0.5,0.5,0.5h7.6543c1.1025,0,2,0.897,2,2s-0.8975,2-2,2
	s-2-0.897-2-2c0-0.2764-0.2236-0.5-0.5-0.5s-0.5,0.2236-0.5,0.5c0,1.6543,1.3457,3,3,3S13.9042,22.6542,13.9042,21z"/>
<rect fill="none" width="24" height="24"/>
<g>
	<path fill-rule="evenodd" clip-rule="evenodd" fill="#FFFFFF" d="M5.25,14.5c-1.5166,0-2.75-1.2334-2.75-2.75
		c0-1.1265,0.6777-2.127,1.7266-2.5483L4.5771,9.061l-0.04-0.3755C4.5137,8.4609,4.5,8.2324,4.5,8c0-3.584,2.916-6.5,6.5-6.5
		c2.9912,0,5.583,2.0288,6.3018,4.9331l0.0908,0.3677l0.3789,0.0117C19.8623,6.8789,21.5,8.5645,21.5,10.6499
		c0,2.123-1.7275,3.8501-3.8506,3.8501H5.25z"/>
	<path fill="#1D1D33" d="M10.9999,1.9999c2.7609,0,5.1527,1.8724,5.8163,4.5533l0.182,0.7352l0.757,0.024
		c1.8195,0.0577,3.2447,1.5237,3.2447,3.3376c0,1.8472-1.5028,3.35-3.35,3.35h-12.4c-1.2407,0-2.25-1.0094-2.25-2.2501
		c0-0.921,0.5546-1.7391,1.413-2.0842l0.6992-0.2811L5.0346,8.6352C5.0113,8.4094,4.9999,8.2016,4.9999,8
		C4.9999,4.6916,7.6915,1.9999,10.9999,1.9999 M10.9999,0.9999c-3.866,0-7,3.1331-7,7.0001c0,0.2501,0.015,0.4961,0.04,0.738
		c-1.194,0.48-2.04,1.6451-2.04,3.012c0,1.794,1.455,3.2501,3.25,3.2501h12.4c2.403,0,4.35-1.9481,4.35-4.35
		c0-2.3561-1.875-4.263-4.213-4.3372C17.0319,3.263,14.2839,0.9999,10.9999,0.9999L10.9999,0.9999z"/>
</g>
</svg>
