<?xml version="1.0" encoding="UTF-8"?>
<svg width="18px" height="20px" viewBox="0 0 18 20" version="1.1" xmlns="http://www.w3.org/2000/svg" xmlns:xlink="http://www.w3.org/1999/xlink">
    <!-- Generator: Sketch 64 (93537) - https://sketch.com -->
    <title>fog-colored</title>
    <desc>Created with Sketch.</desc>
    <g id="Page-1" stroke="none" stroke-width="1" fill="none" fill-rule="evenodd">
        <g id="fog-colored" fill-rule="nonzero">
            <g id="Layer_2" transform="translate(2.000000, 0.000000)" fill="#FFFFFF">
                <path d="M4.7,1.2 C3.8,1.7 3,2.5 2.8,3.1 C2.6,3.6 2.5,4.5 2.4,4.8 C2.3,5.1 2.1,5.4 1.9,5.4 C1.8,5.5 0.8,6.3 0.7,6.8 C0.6,7.3 1.1,8.9 1.7,9.1 C2.3,9.3 11.5,9.4 12,9.4 C12.5,9.4 13.5,8.7 13.7,8.3 C13.9,8 14,7 13.7,6.4 C13.4,5.8 13.3,5.6 12.9,5.5 C12.5,5.4 11.9,5.4 11.9,5 C11.9,4.6 11.6,3 11.1,2.4 C10.6,1.8 8.7,0.5 7.2,0.6 C5.7,0.7 5.6,0.8 5.6,0.8 L4.7,1.2 Z" id="Path"></path>
            </g>
            <g id="Layer_1">
                <path d="M14.9,14.5 C14.2,14.5 13.7,14.1 13.3,13.7 C12.9,13.3 12.6,13 12,13 C11.6,13 11.4,13.2 11.1,13.5 C10.8,13.9 10.3,14.4 9.3,14.4 C8.4,14.4 8,14 7.6,13.6 C7.3,13.3 7,13 6.4,13 C5.9,13 5.7,13.3 5.3,13.6 C5,14 4.5,14.5 3.7,14.5 C3,14.5 2.5,14 2.1,13.6 C1.7,13.3 1.4,13 1.1,13 C0.9,13 0.7,12.8 0.7,12.6 C0.7,12.4 0.9,12.2 1.1,12.2 C1.7,12.2 2.2,12.6 2.6,13 C3,13.3 3.4,13.7 3.8,13.7 C4.3,13.7 4.6,13.4 4.9,13.1 C5.3,12.7 5.7,12.3 6.5,12.3 C7.4,12.3 7.8,12.7 8.2,13.1 C8.6,13.5 8.9,13.7 9.4,13.7 C10,13.7 10.3,13.4 10.6,13 C10.9,12.6 11.3,12.2 12,12.2 C12.9,12.2 13.4,12.7 13.8,13.1 C14.2,13.4 14.4,13.7 14.9,13.7 C15.4,13.7 15.7,13.4 16,13.1 C16.4,12.7 16.9,12.3 17.6,12.3 C17.8,12.3 18,12.5 18,12.7 C18,12.9 17.8,13.1 17.6,13.1 C17.2,13.1 16.9,13.4 16.5,13.7 C16.1,14 15.7,14.5 14.9,14.5 Z" id="Path" fill="#28ABEF" opacity="0.25"></path>
                <path d="M14.9,16.9 C14.2,16.9 13.7,16.5 13.3,16.1 C12.9,15.7 12.6,15.4 12,15.4 C11.6,15.4 11.4,15.6 11.1,15.9 C10.8,16.3 10.3,16.8 9.3,16.8 C8.4,16.8 8,16.4 7.6,16 C7.2,15.7 7,15.4 6.4,15.4 C5.9,15.4 5.7,15.7 5.3,16 C4.9,16.4 4.5,16.9 3.7,16.9 C3,16.9 2.5,16.4 2.1,16 C1.7,15.7 1.4,15.4 1.1,15.4 C0.9,15.4 0.7,15.2 0.7,15 C0.7,14.8 0.9,14.6 1.1,14.6 C1.7,14.6 2.2,15 2.6,15.4 C3,15.7 3.4,16.1 3.8,16.1 C4.3,16.1 4.6,15.8 4.9,15.5 C5.3,15.1 5.7,14.7 6.5,14.7 C7.4,14.7 7.8,15.1 8.2,15.5 C8.6,15.9 8.9,16.1 9.4,16.1 C10,16.1 10.3,15.8 10.6,15.4 C10.9,15 11.3,14.6 12,14.6 C12.9,14.6 13.4,15.1 13.8,15.5 C14.2,15.8 14.4,16.1 14.9,16.1 C15.4,16.1 15.7,15.8 16,15.5 C16.4,15.1 16.9,14.7 17.6,14.7 C17.8,14.7 18,14.9 18,15.1 C18,15.3 17.8,15.5 17.6,15.5 C17.2,15.5 16.9,15.8 16.5,16.1 C16.1,16.4 15.7,16.9 14.9,16.9 Z" id="Path" fill="#28ABEF" opacity="0.6"></path>
                <path d="M14.9,19.2 C14.2,19.2 13.7,18.8 13.3,18.4 C12.9,18 12.6,17.7 12,17.7 C11.6,17.7 11.4,17.9 11.1,18.2 C10.8,18.6 10.3,19.1 9.3,19.1 C8.4,19.1 8,18.7 7.6,18.3 C7.2,18 7,17.7 6.4,17.7 C5.9,17.7 5.7,18 5.3,18.3 C4.9,18.7 4.5,19.2 3.7,19.2 C3,19.2 2.5,18.7 2.1,18.3 C1.7,18 1.4,17.7 1.1,17.7 C0.9,17.7 0.7,17.5 0.7,17.3 C0.7,17.1 0.9,16.9 1.1,16.9 C1.7,16.9 2.2,17.3 2.6,17.7 C3,18 3.4,18.4 3.8,18.4 C4.3,18.4 4.6,18.1 4.9,17.8 C5.3,17.4 5.7,17 6.5,17 C7.4,17 7.8,17.4 8.2,17.8 C8.6,18.2 8.9,18.4 9.4,18.4 C10,18.4 10.3,18.1 10.6,17.7 C10.9,17.3 11.3,16.9 12,16.9 C12.9,16.9 13.4,17.4 13.8,17.8 C14.2,18.1 14.4,18.4 14.9,18.4 C15.4,18.4 15.7,18.1 16,17.8 C16.4,17.4 16.9,17 17.6,17 C17.8,17 18,17.2 18,17.4 C18,17.6 17.8,17.8 17.6,17.8 C17.2,17.8 16.9,18.1 16.5,18.4 C16.1,18.8 15.7,19.2 14.9,19.2 Z" id="Path" fill="#28ABEF"></path>
                <path d="M13.9,9.6 L4.8,9.6 C3.5,9.6 2.5,8.6 2.5,7.3 C2.5,6.4 3,5.6 3.8,5.2 C3.9,5.2 4.2,5.1 4.2,4.7 C4.2,2.4 6.4,0.4 9.2,0.4 C12,0.4 14.2,2.3 14.2,4.7 C14.2,4.8 14.3,5 14.3,5 C15.4,5.1 16.3,6.1 16.3,7.3 C16.2,8.6 15.1,9.6 13.9,9.6 Z M9.1,0.9 C6.6,0.9 4.6,2.6 4.6,4.7 C4.6,5.4 4,5.7 3.9,5.7 C3.3,6 2.9,6.6 2.9,7.3 C2.9,8.3 3.7,9.1 4.7,9.1 L13.8,9.1 C14.8,9.1 15.6,8.3 15.6,7.3 C15.6,6.4 14.9,5.6 14,5.5 C13.7,5.5 13.5,5 13.5,4.7 C13.6,2.6 11.6,0.9 9.1,0.9 Z" id="Shape" fill="#7A7A7A"></path>
            </g>
        </g>
    </g>
</svg>