<?xml version="1.0" encoding="UTF-8"?>
<svg width="18px" height="20px" viewBox="0 0 18 20" version="1.1" xmlns="http://www.w3.org/2000/svg" xmlns:xlink="http://www.w3.org/1999/xlink">
    <!-- Generator: Sketch 64 (93537) - https://sketch.com -->
    <title>rain-freezing-colored</title>
    <desc>Created with Sketch.</desc>
    <g id="Page-1" stroke="none" stroke-width="1" fill="none" fill-rule="evenodd">
        <g id="rain-freezing-colored" fill-rule="nonzero">
            <path d="M11.1,6.6 C11,6.6 11,6.6 10.9,6.6 C10.6,6.5 10.5,6.2 10.6,6 L11,5 C11.1,4.7 11.4,4.6 11.6,4.7 C11.9,4.8 12,5.1 11.9,5.3 L11.5,6.3 C11.5,6.5 11.3,6.6 11.1,6.6 Z" id="Path" fill="#7A7A7A"></path>
            <path d="M12.7,2.8 C12.6,2.8 12.6,2.8 12.5,2.8 C12.2,2.7 12.1,2.4 12.2,2.2 L12.6,1.2 C12.7,0.9 13,0.8 13.2,0.9 C13.5,1 13.6,1.3 13.5,1.5 L13.1,2.5 C13,2.7 12.9,2.8 12.7,2.8 Z" id="Path" fill="#7A7A7A"></path>
            <path d="M5.1,5.6 C5,5.6 5,5.6 4.9,5.6 C4.7,5.5 4.6,5.2 4.7,4.9 L5.1,3.9 C5.2,3.6 5.5,3.5 5.7,3.6 C5.9,3.7 6,4 5.9,4.3 L5.5,5.3 C5.5,5.5 5.3,5.6 5.1,5.6 Z" id="Path" fill="#7A7A7A"></path>
            <path d="M7.4,8.5 C7.3,8.5 7.3,8.5 7.2,8.5 C7,8.3 6.8,8 6.9,7.8 L7.3,6.8 C7.4,6.5 7.7,6.4 7.9,6.5 C8.2,6.6 8.3,6.9 8.2,7.1 L7.8,8.1 C7.8,8.3 7.6,8.5 7.4,8.5 Z" id="Path" fill="#7A7A7A"></path>
            <path d="M8.8,4.6 C8.7,4.6 8.7,4.6 8.6,4.6 C8.4,4.5 8.3,4.2 8.4,4 L8.8,3 C8.9,2.7 9.2,2.6 9.4,2.7 C9.7,2.8 9.8,3.1 9.7,3.3 L9.3,4.3 C9.2,4.5 9,4.6 8.8,4.6 Z" id="Path" fill="#7A7A7A"></path>
            <path d="M14.3,7.9 C14.2,7.9 14.2,7.9 14.1,7.9 C13.8,7.8 13.7,7.5 13.8,7.3 L14.2,6.3 C14.3,6 14.6,5.9 14.9,6 C15.2,6.1 15.3,6.4 15.2,6.6 L14.8,7.6 C14.7,7.8 14.6,7.9 14.3,7.9 Z" id="Path" fill="#7A7A7A"></path>
            <path d="M17.4,11.7 L0.6,11.7 C0.3,11.7 0.1,11.5 0.1,11.2 C0.1,10.9 0.3,10.7 0.6,10.7 L17.3,10.7 C17.6,10.7 17.8,10.9 17.8,11.2 C17.8,11.5 17.6,11.7 17.4,11.7 Z" id="Path" fill="#28ABEF"></path>
            <path d="M9,19.7 C8.7,19.7 8.5,17.5 8.5,17.2 L8.3,11.5 C8.3,11.2 8.7,11 9,11 C9.3,11 9.8,11.2 9.8,11.5 L9.5,17.2 C9.5,17.5 9.3,19.7 9,19.7 Z" id="Path" fill="#28ABEF"></path>
            <path d="M6.3,15.6 C6,15.6 5.8,14.4 5.8,14.1 L5.5,11.5 C5.5,11.2 6,11 6.3,11 C6.6,11 7.2,11.2 7.2,11.5 L6.8,14.1 C6.8,14.4 6.6,15.6 6.3,15.6 Z" id="Path" fill="#28ABEF"></path>
            <path d="M11.6,16.3 C11.3,16.3 11.1,14.1 11.1,13.8 L10.7,11.5 C10.7,11.2 11.3,11 11.6,11 C11.9,11 12.4,11.2 12.4,11.5 L12.1,13.8 C12.1,14.1 11.9,16.3 11.6,16.3 Z" id="Path" fill="#28ABEF"></path>
            <path d="M14.4,17.8 C14.1,17.8 13.9,15.6 13.9,15.3 L13.7,11.6 C13.7,11.3 14.1,11.1 14.4,11.1 C14.7,11.1 15.3,11.3 15.3,11.6 L14.9,15.3 C14.9,15.6 14.6,17.8 14.4,17.8 Z" id="Path" fill="#28ABEF"></path>
            <path d="M3.6,16.8 C3.3,16.8 3.2,15.6 3.2,15.3 L3,11.6 C3,11.3 3.3,11.1 3.6,11.1 C3.9,11.1 4.5,11.3 4.5,11.6 L4.1,15.3 C4.1,15.6 3.8,16.8 3.6,16.8 Z" id="Path" fill="#28ABEF"></path>
            <path d="M0.5,11.4 C0.5,11.4 1.9,12.1 2.2,12.4 C2.5,12.7 2.8,12.9 2.9,13.3 C3,13.7 3.6,15 3.6,15 C3.6,15 4.1,12.6 4.8,12.6 C5.5,12.6 6.3,13.5 6.3,14 C6.3,14.5 7,12.5 7.6,12.5 C8.2,12.5 8.9,13.8 8.9,14.4 C8.9,15 9.6,12.5 10.2,12.5 C10.7,12.5 11.4,13.9 11.5,14.5 C11.6,15 12.3,12.5 12.9,12.5 C13.5,12.5 14.1,14.3 14.2,14.8 C14.3,15.3 15.1,12.7 15.4,12.4 C15.7,12.1 16.8,11.7 17,11.7 C17.2,11.7 17.2,11.4 17.2,11.4 L1.1,11.2 L0.5,11.4 Z" id="Path" fill="#28ABEF"></path>
        </g>
    </g>
</svg>