<?xml version="1.0" encoding="UTF-8"?>
<svg width="16px" height="20px" viewBox="0 0 16 20" version="1.1" xmlns="http://www.w3.org/2000/svg" xmlns:xlink="http://www.w3.org/1999/xlink">
    <!-- Generator: Sketch 64 (93537) - https://sketch.com -->
    <title>ice-pellets-colored</title>
    <desc>Created with Sketch.</desc>
    <g id="Page-1" stroke="none" stroke-width="1" fill="none" fill-rule="evenodd">
        <g id="ice-pellets-colored" fill-rule="nonzero">
            <path d="M13.1,10.3 C13,10.3 13,10.3 12.9,10.3 C12.7,10.2 12.5,10 12.6,9.7 L13.5,7.1 C13.5,7.1 15.4,2.6 15.7,2.7 C15.9,2.8 14.4,7.5 14.4,7.5 L13.5,10 C13.5,10.2 13.3,10.3 13.1,10.3 Z" id="Path" fill="#7A7A7A"></path>
            <path d="M8.8,13.9 C8.7,13.9 8.7,13.9 8.6,13.9 C8.4,13.8 8.2,13.6 8.3,13.3 L9.2,10.7 C9.2,10.7 12,3.8 12.2,3.9 C12.4,4 10,11.1 10,11.1 L9.1,13.6 C9.1,13.8 9,13.9 8.8,13.9 Z" id="Path" fill="#7A7A7A"></path>
            <path d="M6.8,9.7 C6.7,9.7 6.7,9.7 6.6,9.7 C6.4,9.6 6.3,9.4 6.3,9.1 L7.2,6.5 C7.2,6.5 9.9,0.5 10.2,0.6 C10.4,0.7 8.1,6.9 8.1,6.9 L7.2,9.4 C7.1,9.6 7,9.7 6.8,9.7 Z" id="Path" fill="#7A7A7A"></path>
            <path d="M2.7,11.5 C2.6,11.5 2.6,11.5 2.5,11.5 C2.3,11.4 2.1,11.2 2.2,10.9 L3.1,8.3 C3.1,8.3 5,3.8 5.3,3.9 C5.6,4 4,8.7 4,8.7 L3.1,11.2 C3,11.4 2.9,11.5 2.7,11.5 Z" id="Path" fill="#7A7A7A"></path>
            <rect id="Rectangle" fill="#28ABEF" transform="translate(7.513100, 17.486200) rotate(-30.000728) translate(-7.513100, -17.486200) " x="5.9131352" y="15.8862352" width="3.1999296" height="3.1999296"></rect>
            <rect id="Rectangle" fill="#28ABEF" transform="translate(12.271400, 13.002100) rotate(-30.000728) translate(-12.271400, -13.002100) " x="11.271422" y="12.002122" width="1.999956" height="1.999956"></rect>
            <rect id="Rectangle" fill="#28ABEF" transform="translate(5.818200, 12.713400) rotate(-30.000728) translate(-5.818200, -12.713400) " x="4.818222" y="11.713422" width="1.999956" height="1.999956"></rect>
            <rect id="Rectangle" fill="#28ABEF" transform="translate(1.797000, 14.403800) rotate(-30.000728) translate(-1.797000, -14.403800) " x="0.797022" y="13.403822" width="1.999956" height="1.999956"></rect>
        </g>
    </g>
</svg>