<?xml version="1.0" encoding="UTF-8"?>
<svg width="19px" height="20px" viewBox="0 0 19 20" version="1.1" xmlns="http://www.w3.org/2000/svg" xmlns:xlink="http://www.w3.org/1999/xlink">
    <!-- Generator: Sketch 64 (93537) - https://sketch.com -->
    <title>partly-cloudy-night-colored</title>
    <desc>Created with Sketch.</desc>
    <g id="Page-1" stroke="none" stroke-width="1" fill="none" fill-rule="evenodd">
        <g id="partly-cloudy-night-colored">
            <g id="Layer_1" transform="translate(0.000000, 9.000000)" fill="#FFFFFF" fill-rule="nonzero">
                <path d="M6.2,0.1 C5.3,0.1 3.4,0.5 2.8,1.5 C2.2,2.5 2,3.7 1.9,3.9 C1.8,4.1 1.4,4.3 1.2,4.5 C1,4.7 0.3,5.7 0.5,6.6 C0.7,7.4 1.8,7.9 2.5,7.9 C3.2,7.9 9.7,7.9 10.4,7.9 C11.1,7.9 11.9,7.2 12.1,6.8 C12.2,6.4 12.3,5.3 11.9,4.9 C11.5,4.5 11.2,4.3 10.9,4.1 C10.6,3.9 10.5,3.6 10.4,3.3 C10.4,3 10,1.7 9.3,1.2 C8.5,0.7 6.2,0.1 6.2,0.1 Z" id="Path"></path>
            </g>
            <g id="Layer_2">
                <circle id="Oval" fill="#424242" fill-rule="nonzero" cx="0.9" cy="4.3" r="1"></circle>
                <circle id="Oval" fill="#424242" fill-rule="nonzero" cx="7.6" cy="1.1" r="1"></circle>
                <circle id="Oval" fill="#424242" fill-rule="nonzero" cx="1.2" cy="18.8" r="1"></circle>
                <circle id="Oval" fill="#424242" fill-rule="nonzero" cx="17.5" cy="14.6" r="1"></circle>
                <line x1="4.8" y1="12.3" x2="6.3" y2="11.7" id="Path" stroke="#F7B148" stroke-width="2" stroke-linecap="round"></line>
                <g id="Group" transform="translate(0.000000, 8.000000)" fill-rule="nonzero">
                    <path d="M8.1,8.8 L10.4,8.8 C11.4,8.8 12.3,8 12.3,6.9 C12.3,6 11.6,5.2 10.7,5.1 C10.6,5.1 10.4,4.8 10.4,4.6 C10.4,2.6 8.5,1 6.2,1 C3.9,1 2,2.7 2,4.7 C2,5.2 1.6,5.4 1.6,5.4 C1,5.7 0.5,6.3 0.5,7.1 C0.5,8.1 1.3,9 2.4,9 L4,9 L8.1,9 L8.1,8.8 Z" id="Path" fill="#FFFFFF"></path>
                    <path d="M10.4,9.1 L2.3,9.1 C1.1,9.1 0.2,8.2 0.2,7 C0.2,6.2 0.7,5.4 1.4,5.1 C1.5,5.1 1.7,5 1.7,4.7 C1.7,2.6 3.7,0.9 6.2,0.9 C8.7,0.9 10.7,2.6 10.7,4.7 C10.7,4.8 10.8,4.9 10.8,5 C11.8,5.1 12.6,6 12.6,7.1 C12.5,8.1 11.6,9.1 10.4,9.1 Z M6.2,1.3 C4,1.3 2.2,2.8 2.2,4.6 C2.2,5.1 1.8,5.4 1.6,5.5 C1.1,5.8 0.7,6.3 0.7,6.9 C0.7,7.8 1.4,8.5 2.3,8.5 L10.4,8.5 C11.3,8.5 12,7.8 12,6.9 C12,6.1 11.4,5.4 10.6,5.3 C10.3,5.3 10.1,4.8 10.1,4.6 C10.2,2.8 8.4,1.3 6.2,1.3 Z" id="Shape" fill="#7A7A7A"></path>
                </g>
                <path d="M18.2,10.4 C17.4,11.3 16.3,11.9 15,11.9 C12.6,11.9 10.7,10 10.7,7.6 C10.7,5.5 12.3,3.7 14.3,3.4 C14.3,3.4 12.3,5.9 13.8,8.4 C15.4,11 18.2,10.4 18.2,10.4 Z" id="Path" fill="#28ABEF" fill-rule="nonzero"></path>
            </g>
        </g>
    </g>
</svg>