<?xml version="1.0" encoding="UTF-8"?>
<svg width="20px" height="17px" viewBox="0 0 20 17" version="1.1" xmlns="http://www.w3.org/2000/svg" xmlns:xlink="http://www.w3.org/1999/xlink">
    <!-- Generator: Sketch 64 (93537) - https://sketch.com -->
    <title>partly-cloudy-day-colored</title>
    <desc>Created with Sketch.</desc>
    <g id="Page-1" stroke="none" stroke-width="1" fill="none" fill-rule="evenodd">
        <g id="partly-cloudy-day-colored" fill-rule="nonzero">
            <g id="Layer_1" transform="translate(0.000000, 9.000000)" fill="#FFFFFF">
                <path d="M5.8,0 C4.5,0 3.5,0.5 3.1,0.9 C2.7,1.3 2.1,2 2,2.5 C1.9,3 1.7,3.6 1.7,3.8 C1.7,4 1.1,4.2 0.9,4.3 C0.8,4.4 0.1,5.6 0.4,6.2 C0.6,6.9 1.4,7.3 2,7.3 C2.6,7.3 9.1,7.3 9.8,7.3 C10.5,7.3 11.3,6.4 11.4,6.1 C11.5,5.7 11.4,4.6 11,4.3 C10.6,4 10,4 9.9,3.8 C9.8,3.6 9.8,2.3 9.4,1.9 C9,1.5 8.3,0.4 7.5,0.2 C6.6,0 5.8,0 5.8,0 Z" id="Path"></path>
            </g>
            <g id="Layer_2">
                <g id="Group" transform="translate(6.000000, 0.000000)" fill="#F7B148">
                    <circle id="Oval" cx="6.9" cy="7.6" r="2.5"></circle>
                    <path d="M6.9,14.4 C6.7,14.4 6.6,14.3 6.6,14.1 L6.6,11.1 C6.6,10.9 6.7,10.8 6.9,10.8 C7.1,10.8 7.2,10.9 7.2,11.1 L7.2,14.1 C7.2,14.2 7,14.4 6.9,14.4 Z" id="Path"></path>
                    <path d="M6.9,4.5 C6.7,4.5 6.6,4.4 6.6,4.2 L6.6,1.2 C6.6,1 6.7,0.9 6.9,0.9 C7.1,0.9 7.2,1 7.2,1.2 L7.2,4.2 C7.2,4.4 7,4.5 6.9,4.5 Z" id="Path"></path>
                    <path d="M13.3,7.9 L10.3,7.9 C10.1,7.9 10,7.8 10,7.6 C10,7.4 10.1,7.3 10.3,7.3 L13.3,7.3 C13.5,7.3 13.6,7.4 13.6,7.6 C13.6,7.8 13.5,7.9 13.3,7.9 Z" id="Path"></path>
                    <path d="M3.4,7.9 L0.4,7.9 C0.2,7.9 0.1,7.8 0.1,7.6 C0.1,7.4 0.2,7.3 0.4,7.3 L3.4,7.3 C3.6,7.3 3.7,7.4 3.7,7.6 C3.8,7.8 3.6,7.9 3.4,7.9 Z" id="Path"></path>
                    <path d="M9.3,5.5 C9.2,5.5 9.1,5.5 9.1,5.4 C9,5.3 9,5.1 9.1,5 L11.2,2.9 C11.3,2.8 11.5,2.8 11.6,2.9 C11.7,3 11.7,3.2 11.6,3.3 L9.5,5.4 C9.5,5.5 9.4,5.5 9.3,5.5 Z" id="Path"></path>
                    <path d="M3.5,11.3 C3.4,11.3 3.3,11.3 3.3,11.2 C3.2,11.1 3.2,10.9 3.3,10.8 L4.2,9.9 C4.3,9.8 4.5,9.8 4.6,9.9 C4.7,10 4.7,10.2 4.6,10.3 L3.7,11.2 C3.7,11.2 3.6,11.3 3.5,11.3 Z" id="Path"></path>
                    <path d="M4.4,5.5 C4.3,5.5 4.2,5.5 4.2,5.4 L2.1,3.3 C2,3.1 2,3 2.1,2.8 C2.2,2.7 2.4,2.7 2.5,2.8 L4.7,5 C4.8,5.1 4.8,5.3 4.7,5.4 C4.6,5.5 4.5,5.5 4.4,5.5 Z" id="Path"></path>
                    <path d="M11.4,12.5 C11.3,12.5 11.2,12.5 11.2,12.4 L9.1,10.3 C9,10.2 9,10 9.1,9.9 C9.2,9.8 9.4,9.8 9.5,9.9 L11.6,12 C11.7,12.1 11.7,12.3 11.6,12.4 C11.6,12.4 11.5,12.5 11.4,12.5 Z" id="Path"></path>
                    <path d="M8.6,12.1 C8.5,12.1 8.4,12 8.3,11.9 L7.9,10.9 C7.8,10.7 7.9,10.6 8.1,10.5 C8.3,10.4 8.4,10.5 8.5,10.7 L8.9,11.7 C9,11.9 8.9,12 8.7,12.1 C8.7,12.1 8.7,12.1 8.6,12.1 Z" id="Path"></path>
                    <path d="M5.5,4.8 C5.4,4.8 5.3,4.7 5.2,4.6 L4.8,3.6 C4.7,3.4 4.8,3.3 5,3.2 C5.2,3.1 5.3,3.2 5.4,3.4 L5.8,4.4 C5.9,4.6 5.8,4.7 5.6,4.8 C5.6,4.8 5.6,4.8 5.5,4.8 Z" id="Path"></path>
                    <path d="M10,6.6 C9.9,6.6 9.8,6.5 9.7,6.4 C9.6,6.2 9.7,6.1 9.9,6 L10.9,5.6 C11.1,5.5 11.2,5.6 11.3,5.8 C11.4,6 11.3,6.1 11.1,6.2 L10.1,6.6 C10.1,6.6 10.1,6.6 10,6.6 Z" id="Path"></path>
                    <path d="M2.7,9.7 C2.6,9.7 2.5,9.6 2.4,9.5 C2.3,9.3 2.4,9.2 2.6,9.1 L3.6,8.7 C3.8,8.6 3.9,8.7 4,8.9 C4.1,9.1 4,9.2 3.8,9.3 L2.8,9.7 C2.8,9.7 2.7,9.7 2.7,9.7 Z" id="Path"></path>
                    <path d="M8.2,4.7 C8.2,4.7 8.1,4.7 8.1,4.7 C7.9,4.6 7.9,4.5 7.9,4.3 L8.3,3.3 C8.4,3.1 8.5,3.1 8.7,3.1 C8.9,3.2 8.9,3.3 8.9,3.5 L8.5,4.5 C8.4,4.7 8.3,4.7 8.2,4.7 Z" id="Path"></path>
                    <path d="M5.2,12.1 C5.2,12.1 5.1,12.1 5.1,12.1 C4.9,12 4.9,11.9 4.9,11.7 L5.3,10.7 C5.4,10.5 5.5,10.5 5.7,10.5 C5.9,10.6 5.9,10.7 5.9,10.9 L5.5,11.9 C5.4,12 5.3,12.1 5.2,12.1 Z" id="Path"></path>
                    <path d="M3.7,6.6 C3.7,6.6 3.6,6.6 3.6,6.6 L2.6,6.2 C2.4,6.1 2.3,5.9 2.4,5.8 C2.5,5.6 2.6,5.6 2.8,5.6 L3.8,6 C4,6.1 4,6.3 4,6.4 C3.9,6.6 3.8,6.6 3.7,6.6 Z" id="Path"></path>
                    <path d="M11,9.6 C11,9.6 10.9,9.6 10.9,9.6 L9.9,9.2 C9.7,9.1 9.7,9 9.7,8.8 C9.8,8.6 9.9,8.6 10.1,8.6 L11.1,9 C11.3,9.1 11.3,9.2 11.3,9.4 C11.3,9.6 11.2,9.6 11,9.6 Z" id="Path"></path>
                </g>
                <path d="M9.7,16.6 L2.1,16.6 C1,16.6 0.1,15.7 0.1,14.6 C0.1,13.8 0.5,13.2 1.2,12.8 C1.3,12.8 1.5,12.7 1.5,12.4 C1.5,10.4 3.4,8.8 5.7,8.8 C8,8.8 9.9,10.4 9.9,12.4 C9.9,12.5 10,12.7 10,12.7 C10.9,12.8 11.6,13.6 11.6,14.6 C11.7,15.7 10.8,16.6 9.7,16.6 Z M5.7,9.2 C3.6,9.2 1.9,10.6 1.9,12.4 C1.9,13 1.4,13.2 1.3,13.2 C0.8,13.4 0.4,14 0.4,14.6 C0.4,15.5 1.1,16.1 1.9,16.1 L9.6,16.1 C10.5,16.1 11.1,15.4 11.1,14.6 C11.1,13.8 10.5,13.2 9.8,13.1 C9.5,13.1 9.4,12.7 9.4,12.4 C9.5,10.7 7.8,9.2 5.7,9.2 Z" id="Shape" fill="#7A7A7A"></path>
            </g>
        </g>
    </g>
</svg>