<?xml version="1.0" encoding="UTF-8"?>
<svg width="20px" height="19px" viewBox="0 0 20 19" version="1.1" xmlns="http://www.w3.org/2000/svg" xmlns:xlink="http://www.w3.org/1999/xlink">
    <!-- Generator: Sketch 64 (93537) - https://sketch.com -->
    <title>partly_cloudy_night-colored</title>
    <desc>Created with Sketch.</desc>
    <g id="Page-1" stroke="none" stroke-width="1" fill="none" fill-rule="evenodd">
        <g id="partly_cloudy_night-colored" fill-rule="nonzero">
            <g id="Group" transform="translate(1.237113, 0.000000)">
                <path d="M0.412371134,3.46391753 C0.639175258,3.46391753 0.824742268,3.64948454 0.824742268,3.87628866 C0.824742268,4.10309278 0.639175258,4.28865979 0.412371134,4.28865979 C0.18556701,4.28865979 0,4.10309278 0,3.87628866 C0,3.64948454 0.18556701,3.46391753 0.412371134,3.46391753" id="Path" fill="#FFFFFF"></path>
                <path d="M7.27835052,0.164948454 C7.50515464,0.164948454 7.69072165,0.350515464 7.69072165,0.577319588 C7.69072165,0.804123711 7.50515464,0.989690722 7.27835052,0.989690722 C7.05154639,0.989690722 6.86597938,0.804123711 6.86597938,0.577319588 C6.86597938,0.350515464 7.05154639,0.164948454 7.27835052,0.164948454" id="Path" fill="#FFFFFF"></path>
                <path d="M0.721649485,18.4329897 C0.886597938,18.4329897 1.03092784,18.5773196 1.03092784,18.742268 C1.03092784,18.9072165 0.886597938,19.0515464 0.721649485,19.0515464 C0.556701031,19.0515464 0.412371134,18.9072165 0.412371134,18.742268 C0.412371134,18.5773196 0.556701031,18.4329897 0.721649485,18.4329897" id="Path" fill="#FFFFFF"></path>
                <path d="M17.3814433,14.0824742 C17.5463918,14.0824742 17.6907216,14.2268041 17.6907216,14.3917526 C17.6907216,14.556701 17.5463918,14.7010309 17.3814433,14.7010309 C17.2164948,14.7010309 17.0721649,14.556701 17.0721649,14.3917526 C17.0721649,14.2268041 17.2164948,14.0824742 17.3814433,14.0824742" id="Path" fill="#FFFFFF"></path>
                <path d="M18.6185567,9.50515464 C17.7938144,10.4536082 16.556701,11.0515464 15.1958763,11.0515464 C12.6804124,11.0515464 10.6391753,9.01030928 10.6391753,6.49484536 C10.6391753,4.20618557 12.3092784,2.32989691 14.5154639,2 C14.5154639,2 12.4123711,4.70103093 13.9381443,7.27835052 C15.6701031,10.1649485 18.6185567,9.50515464 18.6185567,9.50515464" id="Path" fill="#28ABEF"></path>
            </g>
            <path d="M2.45360825,16.7010309 C1.19587629,16.7010309 0.164948454,15.4639175 0.164948454,13.9175258 C0.164948454,12.8659794 0.659793814,11.8762887 1.46391753,11.443299 C1.5257732,11.4020619 1.83505155,11.2783505 1.83505155,10.7628866 C1.83505155,7.95876289 4.04123711,5.67010309 6.7628866,5.67010309 C8.92783505,5.67010309 10.8247423,7.13402062 11.5051546,9.36082474 C11.5463918,9.46391753 11.9587629,9.69072165 12.3505155,9.69072165 C13.5876289,9.69072165 14.7628866,10.371134 15.3814433,11.443299 C15.443299,11.5463918 15.6907216,11.6907216 16.1443299,11.6907216 C17.4845361,11.6907216 18.5979381,12.7835052 18.5979381,14.1443299 C18.5979381,15.5257732 17.4639175,16.7010309 16.1443299,16.7010309 L11.443299,16.7010309 L2.45360825,16.7010309 Z M6.74226804,6.1443299 C4.28865979,6.1443299 2.32989691,8.22680412 2.32989691,10.7628866 C2.32989691,11.6082474 1.71134021,11.8762887 1.69072165,11.8969072 C1.09278351,12.2474227 0.659793814,13.0515464 0.659793814,13.9587629 C0.659793814,15.2164948 1.48453608,16.2268041 2.45360825,16.2268041 L16.1237113,16.2061856 C17.1546392,16.2061856 18.0618557,15.2371134 18.0618557,14.1443299 C18.0618557,13.0721649 17.1958763,12.2061856 16.1237113,12.2061856 C15.5670103,12.2061856 15.1134021,12.0206186 14.9484536,11.7113402 C14.3917526,10.7628866 13.4020619,10.2061856 12.3092784,10.2061856 C11.7319588,10.2061856 11.0927835,9.87628866 10.9896907,9.5257732 C10.3917526,7.50515464 8.68041237,6.1443299 6.74226804,6.1443299" id="Shape" fill="#B7B7B7"></path>
        </g>
    </g>
</svg>