<?xml version="1.0" encoding="UTF-8"?>
<svg width="17px" height="20px" viewBox="0 0 17 20" version="1.1" xmlns="http://www.w3.org/2000/svg" xmlns:xlink="http://www.w3.org/1999/xlink">
    <!-- Generator: Sketch 64 (93537) - https://sketch.com -->
    <title>rain-heavy-colored</title>
    <desc>Created with Sketch.</desc>
    <g id="Page-1" stroke="none" stroke-width="1" fill="none" fill-rule="evenodd">
        <g id="rain-heavy-colored" fill-rule="nonzero">
            <g id="Layer_2" fill="#FFFFFF">
                <path d="M6.7,1 C5.7,1.3 4.5,2 4,2.5 C3.5,3 2.9,4 2.8,4.5 C2.7,5 2.8,6 2.4,6.3 C2.1,6.6 1.2,7 1,7.4 C0.8,7.8 0.5,8.8 0.6,9.3 C0.7,9.8 1.1,10.5 1.4,10.7 C1.8,11 3,11.4 3,11.4 L14.3,11.4 C14.3,11.4 14.6,11.3 15.3,11.2 C16,11.1 16.4,10.3 16.5,10.1 C16.6,9.9 16.8,9.1 16.8,8.8 C16.8,8.5 16.6,7.5 16.1,7.1 C15.6,6.7 14.9,6.5 14.6,6.4 C14.3,6.2 14.3,5.9 14.1,5.4 C14,4.9 13.8,3.2 12.9,2.6 C12,2 10.3,0.7 8.9,0.7 C7.7,0.8 6.7,1 6.7,1 Z" id="Path"></path>
            </g>
            <g id="Layer_1">
                <path d="M2.7,11.6 C2.7,11.6 2.7,11.6 2.7,11.6 C1.3,11.4 0.2,10.2 0.2,8.8 C0.2,7.7 0.8,6.7 1.8,6.2 C1.9,6.2 2.2,6 2.2,5.6 C2.2,2.7 4.9,0.4 8.3,0.4 C11.7,0.4 14.4,2.7 14.4,5.6 C14.4,5.8 14.5,6 14.6,6 C16,6.2 17,7.4 17,8.8 C17,10.2 16,11.4 14.6,11.6 C14.4,11.6 14.3,11.5 14.3,11.4 C14.3,11.2 14.4,11.1 14.5,11.1 C15.6,10.9 16.4,10 16.4,8.9 C16.4,7.8 15.6,6.8 14.5,6.7 C14.1,6.7 13.9,6.1 13.9,5.7 C13.9,3.2 11.4,1.1 8.4,1.1 C5.4,1.1 2.9,3.1 2.9,5.6 C2.9,6.5 2.1,6.8 2.1,6.8 C1.4,7.2 0.8,8 0.8,8.8 C0.8,9.9 1.6,10.9 2.7,11 C2.9,11 3,11.2 3,11.4 C3,11.5 2.9,11.6 2.7,11.6 Z" id="Path" fill="#7A7A7A"></path>
                <path d="M2.2,17.3 C2.1,17.3 2.1,17.3 2,17.3 C1.8,17.2 1.7,17 1.8,16.8 L2.5,15.2 C2.6,15 2.8,14.9 3,15 C3.2,15.1 3.3,15.3 3.2,15.5 L2.6,17 C2.5,17.2 2.4,17.3 2.2,17.3 Z" id="Path" fill="#28ABEF"></path>
                <path d="M3.7,13.7 C3.6,13.7 3.6,13.7 3.5,13.7 C3.3,13.6 3.2,13.4 3.3,13.2 L4,11.4 C4.1,11.2 4.3,11.1 4.5,11.2 C4.7,11.3 4.8,11.5 4.7,11.7 L4,13.5 C4,13.6 3.9,13.7 3.7,13.7 Z" id="Path" fill="#28ABEF"></path>
                <path d="M6.5,17.3 C6.4,17.3 6.4,17.3 6.3,17.3 C6.1,17.2 6,17 6.1,16.8 L6.8,15.2 C6.9,15 7.1,14.9 7.3,15 C7.5,15.1 7.6,15.3 7.5,15.5 L6.9,17 C6.8,17.2 6.7,17.3 6.5,17.3 Z" id="Path" fill="#28ABEF"></path>
                <path d="M8,13.7 C7.9,13.7 7.9,13.7 7.8,13.7 C7.6,13.6 7.5,13.4 7.6,13.2 L8.3,11.4 C8.4,11.2 8.6,11.1 8.8,11.2 C9,11.3 9.1,11.5 9,11.7 L8.3,13.5 C8.3,13.6 8.2,13.7 8,13.7 Z" id="Path" fill="#28ABEF"></path>
                <path d="M10.6,17.3 C10.5,17.3 10.5,17.3 10.4,17.3 C10.2,17.2 10.1,17 10.2,16.8 L10.9,15.2 C11,15 11.2,14.9 11.4,15 C11.6,15.1 11.7,15.3 11.6,15.5 L11,17 C10.9,17.2 10.8,17.3 10.6,17.3 Z" id="Path" fill="#28ABEF"></path>
                <path d="M12.1,13.7 C12,13.7 12,13.7 11.9,13.7 C11.7,13.6 11.6,13.4 11.7,13.2 L12.4,11.4 C12.5,11.2 12.7,11.1 12.9,11.2 C13.1,11.3 13.2,11.5 13.1,11.7 L12.4,13.5 C12.4,13.6 12.3,13.7 12.1,13.7 Z" id="Path" fill="#28ABEF"></path>
                <path d="M7.8,19.3 C7.7,19.3 7.7,19.3 7.6,19.3 C7.4,19.2 7.3,19 7.4,18.8 L8.1,17.2 C8.2,17 8.4,16.9 8.6,17 C8.8,17.1 8.9,17.3 8.8,17.5 L8.1,19.1 C8.1,19.2 7.9,19.3 7.8,19.3 Z" id="Path" fill="#28ABEF"></path>
                <path d="M9.3,15.7 C9.2,15.7 9.2,15.7 9.1,15.7 C8.9,15.6 8.8,15.4 8.9,15.2 L9.6,13.4 C9.7,13.2 9.9,13.1 10.1,13.2 C10.3,13.3 10.4,13.5 10.3,13.7 L9.6,15.5 C9.6,15.6 9.4,15.7 9.3,15.7 Z" id="Path" fill="#28ABEF"></path>
                <path d="M3.5,19.3 C3.4,19.3 3.4,19.3 3.3,19.3 C3.1,19.2 3,19 3.1,18.8 L3.8,17.2 C3.9,17 4.1,16.9 4.3,17 C4.5,17.1 4.6,17.3 4.5,17.5 L3.9,19 C3.9,19.2 3.7,19.3 3.5,19.3 Z" id="Path" fill="#28ABEF"></path>
                <path d="M5.1,15.6 C5,15.6 5,15.6 4.9,15.6 C4.7,15.5 4.6,15.3 4.7,15.1 L5.4,13.3 C5.5,13.1 5.8,13 6,13.1 C6.2,13.2 6.3,13.4 6.2,13.6 L5.5,15.4 C5.4,15.5 5.2,15.6 5.1,15.6 Z" id="Path" fill="#28ABEF"></path>
            </g>
        </g>
    </g>
</svg>