<?xml version="1.0" encoding="UTF-8"?>
<svg width="17px" height="20px" viewBox="0 0 17 20" version="1.1" xmlns="http://www.w3.org/2000/svg" xmlns:xlink="http://www.w3.org/1999/xlink">
    <!-- Generator: Sketch 64 (93537) - https://sketch.com -->
    <title>rain-moderate-colored</title>
    <desc>Created with Sketch.</desc>
    <g id="Page-1" stroke="none" stroke-width="1" fill="none" fill-rule="evenodd">
        <g id="rain-moderate-colored" fill-rule="nonzero">
            <g id="Layer_2" fill="#FFFFFF">
                <path d="M6.7,1 C5.7,1.3 4.5,2 4,2.5 C3.5,3 2.9,4 2.8,4.5 C2.7,5 2.8,6 2.4,6.3 C2.1,6.6 1.2,7 1,7.4 C0.8,7.8 0.5,8.8 0.6,9.3 C0.7,9.8 1.1,10.5 1.4,10.7 C1.8,11 3,11.4 3,11.4 L14.3,11.4 C14.3,11.4 14.6,11.3 15.3,11.2 C16,11.1 16.4,10.3 16.5,10.1 C16.6,9.9 16.8,9.1 16.8,8.8 C16.8,8.5 16.6,7.5 16.1,7.1 C15.6,6.7 14.9,6.5 14.6,6.4 C14.3,6.2 14.3,5.9 14.1,5.4 C14,4.9 13.8,3.2 12.9,2.6 C12,2 10.3,0.7 8.9,0.7 C7.7,0.8 6.7,1 6.7,1 Z" id="Path"></path>
            </g>
            <g id="Layer_1">
                <path d="M2.3,17.7 C2.2,17.7 2.2,17.7 2.1,17.7 C1.9,17.6 1.8,17.4 1.8,17.1 L2.2,16.1 C2.3,15.9 2.5,15.8 2.8,15.8 C3,15.9 3.1,16.1 3.1,16.4 L2.7,17.4 C2.6,17.6 2.4,17.7 2.3,17.7 Z" id="Path" fill="#28ABEF"></path>
                <path d="M3.6,14.3 C3.5,14.3 3.5,14.3 3.4,14.3 C3.2,14.2 3.1,14 3.1,13.7 L3.6,12.3 C3.6,12.3 4.4,10.7 4.6,10.8 C4.8,10.9 4.4,12.6 4.4,12.6 L4,14 C3.9,14.2 3.7,14.3 3.6,14.3 Z" id="Path" fill="#7A7A7A" opacity="0.75"></path>
                <path d="M5.6,16.3 C5.5,16.3 5.5,16.3 5.4,16.3 C5.2,16.2 5.1,16 5.1,15.7 L5.5,14.7 C5.6,14.5 5.8,14.4 6.1,14.4 C6.3,14.5 6.4,14.7 6.4,15 L6,16 C6,16.2 5.8,16.3 5.6,16.3 Z" id="Path" fill="#28ABEF"></path>
                <path d="M6.8,13 C6.7,13 6.7,13 6.6,13 C6.4,12.9 6.3,12.7 6.3,12.4 L6.6,11.6 C6.6,11.6 7.2,10.6 7.4,10.7 C7.6,10.8 7.4,11.9 7.4,11.9 L7.1,12.8 C7.1,12.9 7,13 6.8,13 Z" id="Path" fill="#7A7A7A" opacity="0.75"></path>
                <path d="M7.5,19.5 C7.4,19.5 7.4,19.5 7.3,19.5 C7.1,19.4 7,19.2 7.1,19 L7.5,18 C7.6,17.8 7.8,17.7 8.1,17.7 C8.3,17.8 8.4,18 8.4,18.3 L8,19.3 C7.9,19.4 7.7,19.5 7.5,19.5 Z" id="Path" fill="#28ABEF"></path>
                <path d="M8.5,16.4 C8.5,16.4 8.4,16.4 8.4,16.4 C8.1,16.3 8,16 8,15.8 L8.9,13.2 C8.9,13.2 10.1,10.5 10.3,10.6 C10.5,10.7 9.7,13.5 9.7,13.5 L8.8,16.1 C8.8,16.3 8.6,16.4 8.5,16.4 Z" id="Path" fill="#7A7A7A" opacity="0.75"></path>
                <path d="M10.7,18.1 C10.6,18.1 10.6,18.1 10.5,18.1 C10.3,18 10.2,17.8 10.2,17.5 L10.6,16.5 C10.7,16.3 10.9,16.2 11.2,16.2 C11.4,16.3 11.5,16.5 11.5,16.8 L11.1,17.8 C11,18 10.8,18.1 10.7,18.1 Z" id="Path" fill="#28ABEF"></path>
                <path d="M11.9,14.6 C11.9,14.6 11.8,14.6 11.8,14.6 C11.6,14.5 11.4,14.3 11.5,14 L12,12.4 C12,12.4 12.9,10.5 13.1,10.5 C13.3,10.6 12.8,12.6 12.8,12.6 L12.2,14.2 C12.2,14.5 12.1,14.6 11.9,14.6 Z" id="Path" fill="#7A7A7A" opacity="0.75"></path>
                <path d="M2.7,11.6 C2.7,11.6 2.7,11.6 2.7,11.6 C1.3,11.4 0.2,10.2 0.2,8.8 C0.2,7.7 0.8,6.7 1.8,6.2 C1.9,6.2 2.2,6 2.2,5.6 C2.2,2.7 4.9,0.4 8.3,0.4 C11.7,0.4 14.4,2.7 14.4,5.6 C14.4,5.8 14.5,6 14.6,6 C16,6.2 17,7.4 17,8.8 C17,10.2 16,11.4 14.6,11.6 C14.4,11.6 14.3,11.5 14.3,11.4 C14.3,11.2 14.4,11.1 14.5,11.1 C15.6,10.9 16.4,10 16.4,8.9 C16.4,7.8 15.6,6.8 14.5,6.7 C14.1,6.7 13.9,6.1 13.9,5.7 C13.9,3.2 11.4,1.1 8.4,1.1 C5.4,1.1 2.9,3.1 2.9,5.6 C2.9,6.5 2.1,6.8 2.1,6.8 C1.4,7.2 0.8,8 0.8,8.8 C0.8,9.9 1.6,10.9 2.7,11 C2.9,11 3,11.2 3,11.4 C3,11.5 2.9,11.6 2.7,11.6 Z" id="Path" fill="#7A7A7A"></path>
            </g>
        </g>
    </g>
</svg>