<?xml version="1.0" encoding="UTF-8"?>
<svg width="20px" height="19px" viewBox="0 0 20 19" version="1.1" xmlns="http://www.w3.org/2000/svg" xmlns:xlink="http://www.w3.org/1999/xlink">
    <!-- Generator: Sketch 64 (93537) - https://sketch.com -->
    <title>snow-colored</title>
    <desc>Created with Sketch.</desc>
    <g id="Page-1" stroke="none" stroke-width="1" fill="none" fill-rule="evenodd">
        <g id="snow-colored" fill="#28ABEF" fill-rule="nonzero">
            <g id="Group" transform="translate(4.000000, 5.000000)">
                <path d="M1.6,10.9 C1.4,10.9 1.2,10.8 1.1,10.6 C0.9,10.3 1,10 1.3,9.9 L12,3.5 C12.3,3.3 12.6,3.4 12.7,3.7 C12.9,4 12.8,4.3 12.5,4.4 L1.9,10.9 C1.8,10.9 1.7,10.9 1.6,10.9 Z" id="Path"></path>
                <path d="M3.5,12.2 C3.4,12.2 3.4,12.2 3.5,12.2 C3.2,12.2 2.9,11.9 3,11.6 L3.2,9.5 L1.2,8.8 C0.9,8.7 0.8,8.4 0.9,8.1 C1,7.8 1.3,7.7 1.6,7.8 L4.4,8.8 L4.1,11.8 C4,12 3.7,12.2 3.5,12.2 Z" id="Path"></path>
                <path d="M12.7,6.6 C12.6,6.6 12.6,6.6 12.5,6.6 L9.7,5.5 L10,2.7 C10,2.4 10.3,2.2 10.6,2.2 C10.9,2.2 11.1,2.5 11.1,2.8 L10.9,4.8 L12.9,5.6 C13.2,5.7 13.3,6 13.2,6.3 C13.1,6.5 12.9,6.6 12.7,6.6 Z" id="Path"></path>
                <g id="Path">
                    <path d="M7.4,13.7 C7.3,13.9 7.1,14 6.9,14 C6.6,14 6.4,13.8 6.4,13.5 L6.5,1 C6.5,0.7 6.7,0.5 7,0.5 C7.3,0.5 7.5,0.7 7.5,1 L7.4,13.5 C7.5,13.6 7.4,13.7 7.4,13.7 Z"></path>
                    <path d="M9.5,12.9 C9.4,12.9 9.4,12.9 9.5,12.9 C9.3,13.2 9,13.2 8.7,13 L7,11.7 L5.3,13 C5.1,13.2 4.7,13.1 4.5,12.9 C4.3,12.7 4.4,12.3 4.6,12.1 L6.9,10.3 L9.3,12.1 C9.5,12.3 9.6,12.6 9.5,12.9 Z"></path>
                    <path d="M9.5,2.1 C9.5,2.2 9.4,2.2 9.4,2.2 L7,4 L4.7,2.3 C4.5,2.1 4.4,1.7 4.6,1.5 C4.8,1.3 5.1,1.2 5.4,1.4 L7,2.7 L8.7,1.4 C8.9,1.2 9.3,1.3 9.5,1.5 C9.6,1.7 9.6,1.9 9.5,2.1 Z"></path>
                    <path d="M12.8,10.3 C12.9,10.5 12.9,10.7 12.8,10.8 C12.6,11.1 12.3,11.1 12.1,11 L1.4,4.4 C1.2,4.2 1.1,3.9 1.2,3.7 C1.4,3.4 1.7,3.3 2,3.5 L12.6,10.1 C12.7,10.2 12.7,10.2 12.8,10.3 Z"></path>
                    <path d="M13.1,8.1 C13.1,8.1 13.1,8.1 13.1,8.1 C13.2,8.4 13.1,8.7 12.8,8.8 L10.8,9.6 L11.1,11.7 C11.1,12 10.9,12.3 10.6,12.3 C10.3,12.3 10,12.1 10,11.8 L9.6,8.9 L12.4,7.8 C12.7,7.7 13,7.9 13.1,8.1 Z"></path>
                    <path d="M3.9,2.4 C4,2.5 4,2.5 4,2.6 L4.3,5.6 L1.6,6.6 C1.3,6.7 1,6.6 0.9,6.3 C0.8,6 0.9,5.7 1.2,5.6 L3.1,4.9 L2.9,2.7 C2.9,2.4 3.1,2.1 3.4,2.1 C3.6,2.1 3.9,2.2 3.9,2.4 Z"></path>
                </g>
            </g>
            <g id="Group" opacity="0.6" transform="translate(14.000000, 0.000000)">
                <path d="M1.1,4.7 C1,4.7 1,4.7 0.9,4.6 C0.8,4.5 0.9,4.4 1,4.3 L5,1.9 C5.1,1.8 5.2,1.9 5.3,2 C5.4,2.1 5.3,2.2 5.2,2.3 L1.2,4.7 C1.2,4.7 1.1,4.7 1.1,4.7 Z" id="Path"></path>
                <path d="M1.8,5.2 C1.8,5.2 1.8,5.2 1.8,5.2 C1.7,5.2 1.6,5.1 1.6,5 L1.7,4.2 L1,3.9 C0.9,3.9 0.8,3.7 0.9,3.6 C0.9,3.5 1.1,3.4 1.2,3.5 L2.2,3.9 L2,5 C2,5.1 1.9,5.2 1.8,5.2 Z" id="Path"></path>
                <path d="M5.2,3.1 C5.2,3.1 5.2,3.1 5.2,3.1 L4.1,2.7 L4.2,1.6 C4.2,1.5 4.3,1.4 4.4,1.4 C4.5,1.4 4.6,1.5 4.6,1.6 L4.5,2.4 L5.2,2.7 C5.3,2.7 5.4,2.9 5.3,3 C5.4,3.1 5.3,3.1 5.2,3.1 Z" id="Path"></path>
                <g id="Path">
                    <path d="M3.3,5.7 C3.3,5.8 3.2,5.8 3.1,5.8 C3,5.8 2.9,5.7 2.9,5.6 L2.9,1 C2.9,0.9 3,0.8 3.1,0.8 C3.2,0.8 3.3,0.9 3.3,1 L3.3,5.6 C3.3,5.7 3.3,5.7 3.3,5.7 Z"></path>
                    <path d="M4,5.4 C4,5.4 4,5.4 4,5.4 C3.9,5.5 3.8,5.5 3.7,5.5 L3.1,5 L2.5,5.5 C2.4,5.6 2.3,5.6 2.2,5.5 C2.1,5.4 2.1,5.3 2.2,5.2 L3,4.5 L4,5.2 C4,5.2 4.1,5.3 4,5.4 Z"></path>
                    <path d="M4,1.4 C4,1.4 4,1.4 4,1.4 L3.1,2.1 L2.3,1.5 C2.2,1.4 2.2,1.3 2.3,1.2 C2.4,1.1 2.5,1.1 2.6,1.2 L3.2,1.7 L3.8,1.2 C3.9,1.1 4,1.2 4.1,1.2 C4.1,1.3 4.1,1.3 4,1.4 Z"></path>
                    <path d="M5.3,4.5 C5.3,4.6 5.3,4.6 5.3,4.7 C5.2,4.8 5.1,4.8 5,4.8 L1,2.3 C0.9,2.2 0.9,2.1 1,2 C1.1,1.9 1.2,1.9 1.3,1.9 L5.3,4.5 C5.2,4.4 5.2,4.4 5.3,4.5 Z"></path>
                    <path d="M5.4,3.6 C5.4,3.7 5.4,3.7 5.4,3.6 C5.4,3.7 5.4,3.8 5.3,3.9 L4.6,4.2 L4.6,5 C4.6,5.1 4.5,5.2 4.4,5.2 C4.3,5.2 4.2,5.1 4.2,5 L4.1,4 L5.1,3.6 C5.2,3.5 5.3,3.6 5.4,3.6 Z"></path>
                    <path d="M2,1.5 C2,1.6 2,1.6 2,1.5 L2.1,2.7 L1.1,3.1 C1,3.1 0.9,3.1 0.8,3 C0.8,2.9 0.8,2.8 0.9,2.7 L1.6,2.4 L1.5,1.6 C1.5,1.5 1.6,1.4 1.7,1.4 C1.9,1.4 1.9,1.5 2,1.5 Z"></path>
                </g>
            </g>
            <g id="Group" opacity="0.4" transform="translate(0.000000, 4.000000)">
                <path d="M1.1,3.1 C1,3.1 1,3.1 0.9,3 C0.9,2.9 0.9,2.8 1,2.8 L4.2,0.9 C4.3,0.9 4.4,0.9 4.4,1 C4.4,1.1 4.4,1.2 4.3,1.2 L1.1,3.1 C1.1,3.1 1.1,3.1 1.1,3.1 Z" id="Path"></path>
                <path d="M1.6,3.5 C1.6,3.5 1.6,3.5 1.6,3.5 C1.5,3.5 1.4,3.4 1.4,3.3 L1.5,2.7 L0.9,2.5 C0.8,2.5 0.8,2.4 0.8,2.3 C0.8,2.2 0.9,2.2 1,2.2 L1.8,2.5 L1.8,3.3 C1.8,3.4 1.7,3.5 1.6,3.5 Z" id="Path"></path>
                <path d="M4.3,1.8 C4.3,1.8 4.3,1.8 4.3,1.8 L3.5,1.5 L3.6,0.7 C3.6,0.6 3.7,0.6 3.8,0.6 C3.9,0.6 3.9,0.7 3.9,0.8 L3.8,1.3 L4.4,1.5 C4.5,1.5 4.5,1.6 4.5,1.7 C4.5,1.8 4.4,1.8 4.3,1.8 Z" id="Path"></path>
                <g id="Path">
                    <path d="M2.8,3.9 C2.8,4 2.7,4 2.6,4 C2.6,4 2.5,3.9 2.5,3.8 L2.5,0.1 C2.5,0.1 2.6,0 2.7,0 C2.8,0 2.9,0.1 2.9,0.2 L2.8,3.9 C2.8,3.9 2.8,3.9 2.8,3.9 Z"></path>
                    <path d="M3.4,3.7 C3.4,3.7 3.4,3.7 3.4,3.7 C3.3,3.8 3.2,3.8 3.2,3.7 L2.7,3.3 L2.2,3.7 C2.1,3.8 2,3.8 2,3.7 C1.9,3.6 2,3.5 2,3.5 L2.7,3 L3.4,3.5 C3.4,3.5 3.4,3.6 3.4,3.7 Z"></path>
                    <path d="M3.4,0.5 C3.4,0.5 3.4,0.5 3.4,0.5 L2.7,1 L2,0.5 C1.9,0.5 1.9,0.4 2,0.3 C2.1,0.2 2.2,0.2 2.2,0.3 L2.7,0.7 L3.2,0.3 C3.3,0.2 3.4,0.3 3.4,0.3 C3.4,0.4 3.4,0.4 3.4,0.5 Z"></path>
                    <path d="M4.4,2.9 C4.4,2.9 4.4,3 4.4,3.1 C4.4,3.2 4.3,3.2 4.2,3.2 L1,1.2 C0.9,1.1 0.9,1 1,0.9 C1,0.8 1.1,0.8 1.2,0.8 L4.4,2.9 C4.3,2.9 4.4,2.9 4.4,2.9 Z"></path>
                    <path d="M4.5,2.3 C4.5,2.3 4.5,2.3 4.5,2.3 C4.5,2.4 4.5,2.5 4.4,2.5 L3.8,2.7 L3.9,3.3 C3.9,3.4 3.8,3.5 3.8,3.5 C3.7,3.5 3.6,3.4 3.6,3.4 L3.4,2.5 L4.2,2.2 C4.3,2.2 4.4,2.2 4.5,2.3 Z"></path>
                    <path d="M1.8,0.6 C1.8,0.6 1.8,0.6 1.8,0.6 L1.9,1.5 L1.1,1.8 C1,1.8 0.9,1.8 0.9,1.7 C0.9,1.6 0.9,1.5 1,1.5 L1.6,1.3 L1.5,0.7 C1.5,0.6 1.6,0.5 1.6,0.5 C1.7,0.5 1.7,0.5 1.8,0.6 Z"></path>
                </g>
            </g>
        </g>
    </g>
</svg>