<?xml version="1.0" encoding="UTF-8"?>
<svg width="17px" height="20px" viewBox="0 0 17 20" version="1.1" xmlns="http://www.w3.org/2000/svg" xmlns:xlink="http://www.w3.org/1999/xlink">
    <!-- Generator: Sketch 64 (93537) - https://sketch.com -->
    <title>thunderstorm-colored</title>
    <desc>Created with Sketch.</desc>
    <defs>
        <linearGradient x1="49.5913043%" y1="0.214563107%" x2="49.5913043%" y2="100.131068%" id="linearGradient-1">
            <stop stop-color="#EC6F32" offset="0%"></stop>
            <stop stop-color="#EC7935" offset="6.289589%"></stop>
            <stop stop-color="#EE8E3B" offset="24.01%"></stop>
            <stop stop-color="#EE9D40" offset="43.64%"></stop>
            <stop stop-color="#EFA642" offset="66.46%"></stop>
            <stop stop-color="#EFA943" offset="100%"></stop>
        </linearGradient>
    </defs>
    <g id="Page-1" stroke="none" stroke-width="1" fill="none" fill-rule="evenodd">
        <g id="thunderstorm-colored" fill-rule="nonzero">
            <g id="Layer_2" transform="translate(1.000000, 0.000000)" fill="#FFFFFF">
                <path d="M5.1,1.3 C4.4,1.6 3.8,2.2 3.3,2.7 C2.8,3.2 2.4,3.8 2.3,4.4 C2.1,5 2.2,5.9 1.9,6.1 C1.6,6.3 0.8,7 0.7,7.1 C0.5,7.3 0,8.8 0.2,9.5 C0.4,10.2 1.3,11 1.8,11.1 C2.2,11.1 5,11.1 5,11.1 L9.9,11.1 C9.9,11.1 13,11.1 13.4,11.1 C13.8,11.1 14.5,10.9 15,10.4 C15.5,9.9 15.9,8.5 15.8,8.1 C15.7,7.7 15.4,7.2 14.9,6.7 C14.3,6.2 13.8,6 13.6,6.1 C13.5,6.1 13.3,5.4 13.2,5 C13.1,4.6 12.9,3.4 12.3,2.8 C11.7,2.2 9.4,0.7 7.9,0.8 C6.4,0.9 5.1,1.3 5.1,1.3 Z" id="Path"></path>
            </g>
            <g id="Layer_1">
                <path d="M14.3,11.4 L11.2,11.4 C11,11.4 10.9,11.3 10.9,11.1 C10.9,10.9 11,10.8 11.2,10.8 L14.3,10.8 C15.5,10.8 16.5,9.8 16.5,8.6 C16.5,7.5 15.7,6.6 14.6,6.4 C14.2,6.4 14,5.8 14,5.4 C14,2.9 11.6,0.9 8.7,0.9 C5.8,0.9 3.4,2.9 3.4,5.4 C3.4,6.3 2.6,6.5 2.6,6.5 C1.8,7 1.3,7.8 1.3,8.7 C1.3,9.9 2.3,10.9 3.5,10.9 L5.7,10.9 C5.9,10.8 6,11 6,11.1 C6,11.2 5.9,11.4 5.7,11.4 L3.5,11.4 C2,11.4 0.7,10.2 0.7,8.6 C0.7,7.5 1.3,6.6 2.3,6.1 C2.4,6.1 2.7,5.9 2.7,5.5 C2.7,2.7 5.4,0.4 8.6,0.4 C11.8,0.4 14.5,2.7 14.5,5.5 C14.5,5.7 14.6,5.9 14.6,5.9 C16,6.1 17,7.3 17,8.7 C17,10.2 15.8,11.4 14.3,11.4 Z" id="Path" fill="#7A7A7A"></path>
                <polygon id="Path" fill="url(#linearGradient-1)" points="7.3 9.5 6.6 14.2 8.2 14.2 7.4 19.8 11.2 12.2 9.5 12.2 10.4 9.5"></polygon>
            </g>
        </g>
    </g>
</svg>